<?xml version="1.0" encoding="utf-8" standalone="no"?>
<!DOCTYPE svg PUBLIC "-//W3C//DTD SVG 1.1//EN"
  "http://www.w3.org/Graphics/SVG/1.1/DTD/svg11.dtd">
<svg xmlns:xlink="http://www.w3.org/1999/xlink" width="460.8pt" height="345.6pt" viewBox="0 0 460.8 345.6" xmlns="http://www.w3.org/2000/svg" version="1.1">
 <metadata>
  <rdf:RDF xmlns:dc="http://purl.org/dc/elements/1.1/" xmlns:cc="http://creativecommons.org/ns#" xmlns:rdf="http://www.w3.org/1999/02/22-rdf-syntax-ns#">
   <cc:Work>
    <dc:type rdf:resource="http://purl.org/dc/dcmitype/StillImage"/>
    <dc:date>2026-04-19T21:27:18.421224</dc:date>
    <dc:format>image/svg+xml</dc:format>
    <dc:creator>
     <cc:Agent>
      <dc:title>Matplotlib v3.10.8, https://matplotlib.org/</dc:title>
     </cc:Agent>
    </dc:creator>
   </cc:Work>
  </rdf:RDF>
 </metadata>
 <defs>
  <style type="text/css">*{stroke-linejoin: round; stroke-linecap: butt}</style>
 </defs>
 <g id="figure_1">
  <g id="patch_1">
   <path d="M 0 345.6 
L 460.8 345.6 
L 460.8 0 
L 0 0 
z
" style="fill: #ffffff"/>
  </g>
  <g id="axes_1">
   <g id="patch_2">
    <path d="M 57.6 307.584 
L 414.72 307.584 
L 414.72 41.472 
L 57.6 41.472 
z
" style="fill: #ffffff"/>
   </g>
   <g id="matplotlib.axis_1">
    <g id="xtick_1">
     <g id="line2d_1">
      <defs>
       <path id="mda9a213af0" d="M 0 0 
L 0 3.5 
" style="stroke: #000000; stroke-width: 0.8"/>
      </defs>
      <g>
       <use xlink:href="#mda9a213af0" x="73.832727" y="307.584" style="stroke: #000000; stroke-width: 0.8"/>
      </g>
     </g>
     <g id="text_1">
      <!-- 0 -->
      <g transform="translate(70.651477 322.182437) scale(0.1 -0.1)">
       <defs>
        <path id="DejaVuSans-30" d="M 2034 4250 
Q 1547 4250 1301 3770 
Q 1056 3291 1056 2328 
Q 1056 1369 1301 889 
Q 1547 409 2034 409 
Q 2525 409 2770 889 
Q 3016 1369 3016 2328 
Q 3016 3291 2770 3770 
Q 2525 4250 2034 4250 
z
M 2034 4750 
Q 2819 4750 3233 4129 
Q 3647 3509 3647 2328 
Q 3647 1150 3233 529 
Q 2819 -91 2034 -91 
Q 1250 -91 836 529 
Q 422 1150 422 2328 
Q 422 3509 836 4129 
Q 1250 4750 2034 4750 
z
" transform="scale(0.015625)"/>
       </defs>
       <use xlink:href="#DejaVuSans-30"/>
      </g>
     </g>
    </g>
    <g id="xtick_2">
     <g id="line2d_2">
      <g>
       <use xlink:href="#mda9a213af0" x="128.032151" y="307.584" style="stroke: #000000; stroke-width: 0.8"/>
      </g>
     </g>
     <g id="text_2">
      <!-- 100 -->
      <g transform="translate(118.488401 322.182437) scale(0.1 -0.1)">
       <defs>
        <path id="DejaVuSans-31" d="M 794 531 
L 1825 531 
L 1825 4091 
L 703 3866 
L 703 4441 
L 1819 4666 
L 2450 4666 
L 2450 531 
L 3481 531 
L 3481 0 
L 794 0 
L 794 531 
z
" transform="scale(0.015625)"/>
       </defs>
       <use xlink:href="#DejaVuSans-31"/>
       <use xlink:href="#DejaVuSans-30" transform="translate(63.623047 0)"/>
       <use xlink:href="#DejaVuSans-30" transform="translate(127.246094 0)"/>
      </g>
     </g>
    </g>
    <g id="xtick_3">
     <g id="line2d_3">
      <g>
       <use xlink:href="#mda9a213af0" x="182.231574" y="307.584" style="stroke: #000000; stroke-width: 0.8"/>
      </g>
     </g>
     <g id="text_3">
      <!-- 200 -->
      <g transform="translate(172.687824 322.182437) scale(0.1 -0.1)">
       <defs>
        <path id="DejaVuSans-32" d="M 1228 531 
L 3431 531 
L 3431 0 
L 469 0 
L 469 531 
Q 828 903 1448 1529 
Q 2069 2156 2228 2338 
Q 2531 2678 2651 2914 
Q 2772 3150 2772 3378 
Q 2772 3750 2511 3984 
Q 2250 4219 1831 4219 
Q 1534 4219 1204 4116 
Q 875 4013 500 3803 
L 500 4441 
Q 881 4594 1212 4672 
Q 1544 4750 1819 4750 
Q 2544 4750 2975 4387 
Q 3406 4025 3406 3419 
Q 3406 3131 3298 2873 
Q 3191 2616 2906 2266 
Q 2828 2175 2409 1742 
Q 1991 1309 1228 531 
z
" transform="scale(0.015625)"/>
       </defs>
       <use xlink:href="#DejaVuSans-32"/>
       <use xlink:href="#DejaVuSans-30" transform="translate(63.623047 0)"/>
       <use xlink:href="#DejaVuSans-30" transform="translate(127.246094 0)"/>
      </g>
     </g>
    </g>
    <g id="xtick_4">
     <g id="line2d_4">
      <g>
       <use xlink:href="#mda9a213af0" x="236.430997" y="307.584" style="stroke: #000000; stroke-width: 0.8"/>
      </g>
     </g>
     <g id="text_4">
      <!-- 300 -->
      <g transform="translate(226.887247 322.182437) scale(0.1 -0.1)">
       <defs>
        <path id="DejaVuSans-33" d="M 2597 2516 
Q 3050 2419 3304 2112 
Q 3559 1806 3559 1356 
Q 3559 666 3084 287 
Q 2609 -91 1734 -91 
Q 1441 -91 1130 -33 
Q 819 25 488 141 
L 488 750 
Q 750 597 1062 519 
Q 1375 441 1716 441 
Q 2309 441 2620 675 
Q 2931 909 2931 1356 
Q 2931 1769 2642 2001 
Q 2353 2234 1838 2234 
L 1294 2234 
L 1294 2753 
L 1863 2753 
Q 2328 2753 2575 2939 
Q 2822 3125 2822 3475 
Q 2822 3834 2567 4026 
Q 2313 4219 1838 4219 
Q 1578 4219 1281 4162 
Q 984 4106 628 3988 
L 628 4550 
Q 988 4650 1302 4700 
Q 1616 4750 1894 4750 
Q 2613 4750 3031 4423 
Q 3450 4097 3450 3541 
Q 3450 3153 3228 2886 
Q 3006 2619 2597 2516 
z
" transform="scale(0.015625)"/>
       </defs>
       <use xlink:href="#DejaVuSans-33"/>
       <use xlink:href="#DejaVuSans-30" transform="translate(63.623047 0)"/>
       <use xlink:href="#DejaVuSans-30" transform="translate(127.246094 0)"/>
      </g>
     </g>
    </g>
    <g id="xtick_5">
     <g id="line2d_5">
      <g>
       <use xlink:href="#mda9a213af0" x="290.63042" y="307.584" style="stroke: #000000; stroke-width: 0.8"/>
      </g>
     </g>
     <g id="text_5">
      <!-- 400 -->
      <g transform="translate(281.08667 322.182437) scale(0.1 -0.1)">
       <defs>
        <path id="DejaVuSans-34" d="M 2419 4116 
L 825 1625 
L 2419 1625 
L 2419 4116 
z
M 2253 4666 
L 3047 4666 
L 3047 1625 
L 3713 1625 
L 3713 1100 
L 3047 1100 
L 3047 0 
L 2419 0 
L 2419 1100 
L 313 1100 
L 313 1709 
L 2253 4666 
z
" transform="scale(0.015625)"/>
       </defs>
       <use xlink:href="#DejaVuSans-34"/>
       <use xlink:href="#DejaVuSans-30" transform="translate(63.623047 0)"/>
       <use xlink:href="#DejaVuSans-30" transform="translate(127.246094 0)"/>
      </g>
     </g>
    </g>
    <g id="xtick_6">
     <g id="line2d_6">
      <g>
       <use xlink:href="#mda9a213af0" x="344.829844" y="307.584" style="stroke: #000000; stroke-width: 0.8"/>
      </g>
     </g>
     <g id="text_6">
      <!-- 500 -->
      <g transform="translate(335.286094 322.182437) scale(0.1 -0.1)">
       <defs>
        <path id="DejaVuSans-35" d="M 691 4666 
L 3169 4666 
L 3169 4134 
L 1269 4134 
L 1269 2991 
Q 1406 3038 1543 3061 
Q 1681 3084 1819 3084 
Q 2600 3084 3056 2656 
Q 3513 2228 3513 1497 
Q 3513 744 3044 326 
Q 2575 -91 1722 -91 
Q 1428 -91 1123 -41 
Q 819 9 494 109 
L 494 744 
Q 775 591 1075 516 
Q 1375 441 1709 441 
Q 2250 441 2565 725 
Q 2881 1009 2881 1497 
Q 2881 1984 2565 2268 
Q 2250 2553 1709 2553 
Q 1456 2553 1204 2497 
Q 953 2441 691 2322 
L 691 4666 
z
" transform="scale(0.015625)"/>
       </defs>
       <use xlink:href="#DejaVuSans-35"/>
       <use xlink:href="#DejaVuSans-30" transform="translate(63.623047 0)"/>
       <use xlink:href="#DejaVuSans-30" transform="translate(127.246094 0)"/>
      </g>
     </g>
    </g>
    <g id="xtick_7">
     <g id="line2d_7">
      <g>
       <use xlink:href="#mda9a213af0" x="399.029267" y="307.584" style="stroke: #000000; stroke-width: 0.8"/>
      </g>
     </g>
     <g id="text_7">
      <!-- 600 -->
      <g transform="translate(389.485517 322.182437) scale(0.1 -0.1)">
       <defs>
        <path id="DejaVuSans-36" d="M 2113 2584 
Q 1688 2584 1439 2293 
Q 1191 2003 1191 1497 
Q 1191 994 1439 701 
Q 1688 409 2113 409 
Q 2538 409 2786 701 
Q 3034 994 3034 1497 
Q 3034 2003 2786 2293 
Q 2538 2584 2113 2584 
z
M 3366 4563 
L 3366 3988 
Q 3128 4100 2886 4159 
Q 2644 4219 2406 4219 
Q 1781 4219 1451 3797 
Q 1122 3375 1075 2522 
Q 1259 2794 1537 2939 
Q 1816 3084 2150 3084 
Q 2853 3084 3261 2657 
Q 3669 2231 3669 1497 
Q 3669 778 3244 343 
Q 2819 -91 2113 -91 
Q 1303 -91 875 529 
Q 447 1150 447 2328 
Q 447 3434 972 4092 
Q 1497 4750 2381 4750 
Q 2619 4750 2861 4703 
Q 3103 4656 3366 4563 
z
" transform="scale(0.015625)"/>
       </defs>
       <use xlink:href="#DejaVuSans-36"/>
       <use xlink:href="#DejaVuSans-30" transform="translate(63.623047 0)"/>
       <use xlink:href="#DejaVuSans-30" transform="translate(127.246094 0)"/>
      </g>
     </g>
    </g>
    <g id="text_8">
     <!-- Episode # -->
     <g transform="translate(210.743594 335.860562) scale(0.1 -0.1)">
      <defs>
       <path id="DejaVuSans-45" d="M 628 4666 
L 3578 4666 
L 3578 4134 
L 1259 4134 
L 1259 2753 
L 3481 2753 
L 3481 2222 
L 1259 2222 
L 1259 531 
L 3634 531 
L 3634 0 
L 628 0 
L 628 4666 
z
" transform="scale(0.015625)"/>
       <path id="DejaVuSans-70" d="M 1159 525 
L 1159 -1331 
L 581 -1331 
L 581 3500 
L 1159 3500 
L 1159 2969 
Q 1341 3281 1617 3432 
Q 1894 3584 2278 3584 
Q 2916 3584 3314 3078 
Q 3713 2572 3713 1747 
Q 3713 922 3314 415 
Q 2916 -91 2278 -91 
Q 1894 -91 1617 61 
Q 1341 213 1159 525 
z
M 3116 1747 
Q 3116 2381 2855 2742 
Q 2594 3103 2138 3103 
Q 1681 3103 1420 2742 
Q 1159 2381 1159 1747 
Q 1159 1113 1420 752 
Q 1681 391 2138 391 
Q 2594 391 2855 752 
Q 3116 1113 3116 1747 
z
" transform="scale(0.015625)"/>
       <path id="DejaVuSans-69" d="M 603 3500 
L 1178 3500 
L 1178 0 
L 603 0 
L 603 3500 
z
M 603 4863 
L 1178 4863 
L 1178 4134 
L 603 4134 
L 603 4863 
z
" transform="scale(0.015625)"/>
       <path id="DejaVuSans-73" d="M 2834 3397 
L 2834 2853 
Q 2591 2978 2328 3040 
Q 2066 3103 1784 3103 
Q 1356 3103 1142 2972 
Q 928 2841 928 2578 
Q 928 2378 1081 2264 
Q 1234 2150 1697 2047 
L 1894 2003 
Q 2506 1872 2764 1633 
Q 3022 1394 3022 966 
Q 3022 478 2636 193 
Q 2250 -91 1575 -91 
Q 1294 -91 989 -36 
Q 684 19 347 128 
L 347 722 
Q 666 556 975 473 
Q 1284 391 1588 391 
Q 1994 391 2212 530 
Q 2431 669 2431 922 
Q 2431 1156 2273 1281 
Q 2116 1406 1581 1522 
L 1381 1569 
Q 847 1681 609 1914 
Q 372 2147 372 2553 
Q 372 3047 722 3315 
Q 1072 3584 1716 3584 
Q 2034 3584 2315 3537 
Q 2597 3491 2834 3397 
z
" transform="scale(0.015625)"/>
       <path id="DejaVuSans-6f" d="M 1959 3097 
Q 1497 3097 1228 2736 
Q 959 2375 959 1747 
Q 959 1119 1226 758 
Q 1494 397 1959 397 
Q 2419 397 2687 759 
Q 2956 1122 2956 1747 
Q 2956 2369 2687 2733 
Q 2419 3097 1959 3097 
z
M 1959 3584 
Q 2709 3584 3137 3096 
Q 3566 2609 3566 1747 
Q 3566 888 3137 398 
Q 2709 -91 1959 -91 
Q 1206 -91 779 398 
Q 353 888 353 1747 
Q 353 2609 779 3096 
Q 1206 3584 1959 3584 
z
" transform="scale(0.015625)"/>
       <path id="DejaVuSans-64" d="M 2906 2969 
L 2906 4863 
L 3481 4863 
L 3481 0 
L 2906 0 
L 2906 525 
Q 2725 213 2448 61 
Q 2172 -91 1784 -91 
Q 1150 -91 751 415 
Q 353 922 353 1747 
Q 353 2572 751 3078 
Q 1150 3584 1784 3584 
Q 2172 3584 2448 3432 
Q 2725 3281 2906 2969 
z
M 947 1747 
Q 947 1113 1208 752 
Q 1469 391 1925 391 
Q 2381 391 2643 752 
Q 2906 1113 2906 1747 
Q 2906 2381 2643 2742 
Q 2381 3103 1925 3103 
Q 1469 3103 1208 2742 
Q 947 2381 947 1747 
z
" transform="scale(0.015625)"/>
       <path id="DejaVuSans-65" d="M 3597 1894 
L 3597 1613 
L 953 1613 
Q 991 1019 1311 708 
Q 1631 397 2203 397 
Q 2534 397 2845 478 
Q 3156 559 3463 722 
L 3463 178 
Q 3153 47 2828 -22 
Q 2503 -91 2169 -91 
Q 1331 -91 842 396 
Q 353 884 353 1716 
Q 353 2575 817 3079 
Q 1281 3584 2069 3584 
Q 2775 3584 3186 3129 
Q 3597 2675 3597 1894 
z
M 3022 2063 
Q 3016 2534 2758 2815 
Q 2500 3097 2075 3097 
Q 1594 3097 1305 2825 
Q 1016 2553 972 2059 
L 3022 2063 
z
" transform="scale(0.015625)"/>
       <path id="DejaVuSans-20" transform="scale(0.015625)"/>
       <path id="DejaVuSans-23" d="M 3272 2816 
L 2363 2816 
L 2100 1772 
L 3016 1772 
L 3272 2816 
z
M 2803 4594 
L 2478 3297 
L 3391 3297 
L 3719 4594 
L 4219 4594 
L 3897 3297 
L 4872 3297 
L 4872 2816 
L 3775 2816 
L 3519 1772 
L 4513 1772 
L 4513 1294 
L 3397 1294 
L 3072 0 
L 2572 0 
L 2894 1294 
L 1978 1294 
L 1656 0 
L 1153 0 
L 1478 1294 
L 494 1294 
L 494 1772 
L 1594 1772 
L 1856 2816 
L 850 2816 
L 850 3297 
L 1978 3297 
L 2297 4594 
L 2803 4594 
z
" transform="scale(0.015625)"/>
      </defs>
      <use xlink:href="#DejaVuSans-45"/>
      <use xlink:href="#DejaVuSans-70" transform="translate(63.183594 0)"/>
      <use xlink:href="#DejaVuSans-69" transform="translate(126.660156 0)"/>
      <use xlink:href="#DejaVuSans-73" transform="translate(154.443359 0)"/>
      <use xlink:href="#DejaVuSans-6f" transform="translate(206.542969 0)"/>
      <use xlink:href="#DejaVuSans-64" transform="translate(267.724609 0)"/>
      <use xlink:href="#DejaVuSans-65" transform="translate(331.201172 0)"/>
      <use xlink:href="#DejaVuSans-20" transform="translate(392.724609 0)"/>
      <use xlink:href="#DejaVuSans-23" transform="translate(424.511719 0)"/>
     </g>
    </g>
   </g>
   <g id="matplotlib.axis_2">
    <g id="ytick_1">
     <g id="line2d_8">
      <defs>
       <path id="m6d0ea9ffe5" d="M 0 0 
L -3.5 0 
" style="stroke: #000000; stroke-width: 0.8"/>
      </defs>
      <g>
       <use xlink:href="#m6d0ea9ffe5" x="57.6" y="299.922379" style="stroke: #000000; stroke-width: 0.8"/>
      </g>
     </g>
     <g id="text_9">
      <!-- 0 -->
      <g transform="translate(44.2375 303.721598) scale(0.1 -0.1)">
       <use xlink:href="#DejaVuSans-30"/>
      </g>
     </g>
    </g>
    <g id="ytick_2">
     <g id="line2d_9">
      <g>
       <use xlink:href="#m6d0ea9ffe5" x="57.6" y="250.651503" style="stroke: #000000; stroke-width: 0.8"/>
      </g>
     </g>
     <g id="text_10">
      <!-- 100 -->
      <g transform="translate(31.5125 254.450722) scale(0.1 -0.1)">
       <use xlink:href="#DejaVuSans-31"/>
       <use xlink:href="#DejaVuSans-30" transform="translate(63.623047 0)"/>
       <use xlink:href="#DejaVuSans-30" transform="translate(127.246094 0)"/>
      </g>
     </g>
    </g>
    <g id="ytick_3">
     <g id="line2d_10">
      <g>
       <use xlink:href="#m6d0ea9ffe5" x="57.6" y="201.380627" style="stroke: #000000; stroke-width: 0.8"/>
      </g>
     </g>
     <g id="text_11">
      <!-- 200 -->
      <g transform="translate(31.5125 205.179846) scale(0.1 -0.1)">
       <use xlink:href="#DejaVuSans-32"/>
       <use xlink:href="#DejaVuSans-30" transform="translate(63.623047 0)"/>
       <use xlink:href="#DejaVuSans-30" transform="translate(127.246094 0)"/>
      </g>
     </g>
    </g>
    <g id="ytick_4">
     <g id="line2d_11">
      <g>
       <use xlink:href="#m6d0ea9ffe5" x="57.6" y="152.109752" style="stroke: #000000; stroke-width: 0.8"/>
      </g>
     </g>
     <g id="text_12">
      <!-- 300 -->
      <g transform="translate(31.5125 155.90897) scale(0.1 -0.1)">
       <use xlink:href="#DejaVuSans-33"/>
       <use xlink:href="#DejaVuSans-30" transform="translate(63.623047 0)"/>
       <use xlink:href="#DejaVuSans-30" transform="translate(127.246094 0)"/>
      </g>
     </g>
    </g>
    <g id="ytick_5">
     <g id="line2d_12">
      <g>
       <use xlink:href="#m6d0ea9ffe5" x="57.6" y="102.838876" style="stroke: #000000; stroke-width: 0.8"/>
      </g>
     </g>
     <g id="text_13">
      <!-- 400 -->
      <g transform="translate(31.5125 106.638095) scale(0.1 -0.1)">
       <use xlink:href="#DejaVuSans-34"/>
       <use xlink:href="#DejaVuSans-30" transform="translate(63.623047 0)"/>
       <use xlink:href="#DejaVuSans-30" transform="translate(127.246094 0)"/>
      </g>
     </g>
    </g>
    <g id="ytick_6">
     <g id="line2d_13">
      <g>
       <use xlink:href="#m6d0ea9ffe5" x="57.6" y="53.568" style="stroke: #000000; stroke-width: 0.8"/>
      </g>
     </g>
     <g id="text_14">
      <!-- 500 -->
      <g transform="translate(31.5125 57.367219) scale(0.1 -0.1)">
       <use xlink:href="#DejaVuSans-35"/>
       <use xlink:href="#DejaVuSans-30" transform="translate(63.623047 0)"/>
       <use xlink:href="#DejaVuSans-30" transform="translate(127.246094 0)"/>
      </g>
     </g>
    </g>
    <g id="text_15">
     <!-- Score -->
     <g transform="translate(25.432812 188.530344) rotate(-90) scale(0.1 -0.1)">
      <defs>
       <path id="DejaVuSans-53" d="M 3425 4513 
L 3425 3897 
Q 3066 4069 2747 4153 
Q 2428 4238 2131 4238 
Q 1616 4238 1336 4038 
Q 1056 3838 1056 3469 
Q 1056 3159 1242 3001 
Q 1428 2844 1947 2747 
L 2328 2669 
Q 3034 2534 3370 2195 
Q 3706 1856 3706 1288 
Q 3706 609 3251 259 
Q 2797 -91 1919 -91 
Q 1588 -91 1214 -16 
Q 841 59 441 206 
L 441 856 
Q 825 641 1194 531 
Q 1563 422 1919 422 
Q 2459 422 2753 634 
Q 3047 847 3047 1241 
Q 3047 1584 2836 1778 
Q 2625 1972 2144 2069 
L 1759 2144 
Q 1053 2284 737 2584 
Q 422 2884 422 3419 
Q 422 4038 858 4394 
Q 1294 4750 2059 4750 
Q 2388 4750 2728 4690 
Q 3069 4631 3425 4513 
z
" transform="scale(0.015625)"/>
       <path id="DejaVuSans-63" d="M 3122 3366 
L 3122 2828 
Q 2878 2963 2633 3030 
Q 2388 3097 2138 3097 
Q 1578 3097 1268 2742 
Q 959 2388 959 1747 
Q 959 1106 1268 751 
Q 1578 397 2138 397 
Q 2388 397 2633 464 
Q 2878 531 3122 666 
L 3122 134 
Q 2881 22 2623 -34 
Q 2366 -91 2075 -91 
Q 1284 -91 818 406 
Q 353 903 353 1747 
Q 353 2603 823 3093 
Q 1294 3584 2113 3584 
Q 2378 3584 2631 3529 
Q 2884 3475 3122 3366 
z
" transform="scale(0.015625)"/>
       <path id="DejaVuSans-72" d="M 2631 2963 
Q 2534 3019 2420 3045 
Q 2306 3072 2169 3072 
Q 1681 3072 1420 2755 
Q 1159 2438 1159 1844 
L 1159 0 
L 581 0 
L 581 3500 
L 1159 3500 
L 1159 2956 
Q 1341 3275 1631 3429 
Q 1922 3584 2338 3584 
Q 2397 3584 2469 3576 
Q 2541 3569 2628 3553 
L 2631 2963 
z
" transform="scale(0.015625)"/>
      </defs>
      <use xlink:href="#DejaVuSans-53"/>
      <use xlink:href="#DejaVuSans-63" transform="translate(63.476562 0)"/>
      <use xlink:href="#DejaVuSans-6f" transform="translate(118.457031 0)"/>
      <use xlink:href="#DejaVuSans-72" transform="translate(179.638672 0)"/>
      <use xlink:href="#DejaVuSans-65" transform="translate(218.501953 0)"/>
     </g>
    </g>
   </g>
   <g id="line2d_14">
    <path d="M 73.832727 289.575495 
L 74.374722 277.750485 
L 74.916716 290.068204 
L 75.45871 290.068204 
L 76.000704 289.575495 
L 76.542698 289.575495 
L 77.084693 285.141116 
L 77.626687 295.488 
L 78.168681 289.082786 
L 78.710675 290.068204 
L 79.794664 291.053621 
L 80.336658 293.024456 
L 80.878652 286.619242 
L 81.420647 294.009874 
L 81.962641 292.531747 
L 82.504635 293.024456 
L 83.046629 293.024456 
L 83.588623 288.097369 
L 84.130618 290.068204 
L 84.672612 291.54633 
L 85.214606 294.502582 
L 85.7566 288.590077 
L 86.298595 291.54633 
L 87.382583 289.575495 
L 87.924577 295.488 
L 88.466572 291.053621 
L 89.008566 274.301523 
L 89.55056 290.068204 
L 90.092554 291.54633 
L 90.634548 278.735902 
L 91.718537 294.995291 
L 92.260531 293.517165 
L 92.802525 294.009874 
L 93.34452 293.024456 
L 93.886514 292.531747 
L 94.428508 292.531747 
L 94.970502 273.316106 
L 95.512497 293.517165 
L 96.054491 290.068204 
L 96.596485 294.009874 
L 97.138479 280.214029 
L 97.680474 283.66299 
L 98.222468 294.502582 
L 98.764462 294.009874 
L 99.306456 292.531747 
L 99.84845 290.560912 
L 100.390445 288.097369 
L 100.932439 284.648407 
L 102.016427 290.068204 
L 102.558422 281.692155 
L 103.100416 294.995291 
L 103.64241 294.502582 
L 104.184404 292.531747 
L 104.726399 294.009874 
L 105.268393 294.502582 
L 105.810387 293.517165 
L 106.352381 268.881727 
L 106.894375 292.039039 
L 107.43637 294.995291 
L 107.978364 281.199446 
L 108.520358 280.214029 
L 109.062352 294.502582 
L 109.604347 294.995291 
L 110.146341 293.024456 
L 110.688335 294.995291 
L 111.230329 283.66299 
L 111.772324 291.053621 
L 112.314318 293.024456 
L 112.856312 292.039039 
L 113.398306 293.517165 
L 113.940301 293.517165 
L 114.482295 281.199446 
L 115.024289 292.531747 
L 115.566283 293.024456 
L 116.108277 275.286941 
L 116.650272 291.54633 
L 117.192266 294.009874 
L 117.73426 276.272358 
L 118.276254 284.155699 
L 118.818249 270.359853 
L 119.360243 293.517165 
L 119.902237 289.082786 
L 120.986226 294.009874 
L 121.52822 291.54633 
L 122.070214 291.54633 
L 122.612208 289.082786 
L 123.154202 293.517165 
L 123.696197 281.692155 
L 124.238191 280.706737 
L 124.780185 291.54633 
L 125.322179 289.082786 
L 125.864174 289.575495 
L 126.406168 291.54633 
L 126.948162 285.141116 
L 127.490156 289.082786 
L 128.032151 294.009874 
L 128.574145 274.301523 
L 129.116139 291.54633 
L 129.658133 279.72132 
L 130.200127 292.039039 
L 130.742122 288.590077 
L 131.284116 288.097369 
L 131.82611 269.867145 
L 132.368104 292.531747 
L 132.910099 294.009874 
L 133.452093 292.039039 
L 133.994087 284.155699 
L 134.536081 286.126534 
L 135.078076 288.590077 
L 135.62007 279.72132 
L 136.162064 289.575495 
L 136.704058 286.619242 
L 137.246053 285.141116 
L 137.788047 282.677572 
L 138.330041 287.111951 
L 138.872035 273.808815 
L 139.414029 286.126534 
L 139.956024 293.024456 
L 140.498018 264.940057 
L 141.040012 289.082786 
L 141.582006 274.794232 
L 142.124001 292.531747 
L 142.665995 285.633825 
L 143.207989 294.502582 
L 143.749983 293.024456 
L 144.291978 289.082786 
L 144.833972 275.286941 
L 145.375966 293.517165 
L 145.91796 286.126534 
L 146.459954 274.794232 
L 147.001949 268.881727 
L 147.543943 268.389018 
L 148.085937 282.184864 
L 148.627931 292.531747 
L 149.169926 293.024456 
L 149.71192 265.925475 
L 150.253914 289.082786 
L 151.337903 269.374436 
L 151.879897 267.403601 
L 152.421891 294.502582 
L 152.963885 285.141116 
L 153.505879 259.027552 
L 154.047874 258.534843 
L 154.589868 272.330688 
L 155.131862 281.692155 
L 155.673856 242.768163 
L 156.215851 274.794232 
L 156.757845 262.969222 
L 157.299839 240.304619 
L 157.841833 284.155699 
L 158.383828 276.272358 
L 158.925822 259.520261 
L 159.467816 257.549426 
L 160.00981 281.692155 
L 160.551805 272.823397 
L 161.093799 277.750485 
L 161.635793 293.024456 
L 162.177787 249.666086 
L 162.719781 245.724415 
L 163.80377 252.129629 
L 164.345764 279.72132 
L 164.887758 255.085882 
L 165.429753 206.800424 
L 165.971747 294.009874 
L 166.513741 246.709833 
L 167.055735 237.348367 
L 168.139724 285.141116 
L 168.681718 209.756676 
L 169.223712 218.132725 
L 169.765706 235.377532 
L 170.307701 201.380627 
L 170.849695 223.059813 
L 171.391689 234.884823 
L 171.933683 280.214029 
L 172.475678 250.158794 
L 173.017672 227.001483 
L 173.559666 267.403601 
L 174.10166 269.374436 
L 174.643655 255.578591 
L 175.185649 132.89411 
L 175.727643 292.531747 
L 176.269637 176.745189 
L 176.811632 193.004578 
L 177.353626 284.648407 
L 177.89562 162.949344 
L 178.437614 286.619242 
L 178.979608 280.214029 
L 179.521603 142.255576 
L 180.063597 284.155699 
L 180.605591 278.735902 
L 181.147585 188.077491 
L 181.68958 276.765067 
L 182.231574 227.494191 
L 182.773568 291.053621 
L 183.315562 224.537939 
L 183.857557 291.053621 
L 184.399551 290.560912 
L 184.941545 291.54633 
L 185.483539 287.60466 
L 186.025533 230.450444 
L 186.567528 290.560912 
L 187.109522 234.884823 
L 187.651516 279.228611 
L 188.735505 203.351462 
L 189.277499 234.392114 
L 189.819493 288.097369 
L 190.361487 239.319202 
L 190.903482 290.560912 
L 191.445476 240.797328 
L 191.98747 292.039039 
L 192.529464 231.435862 
L 193.071458 234.884823 
L 193.613453 244.246289 
L 194.155447 198.424375 
L 194.697441 221.088978 
L 195.239435 286.619242 
L 195.78143 236.855658 
L 196.323424 291.54633 
L 196.865418 232.913988 
L 197.407412 236.362949 
L 197.949407 272.330688 
L 198.491401 237.841075 
L 199.033395 221.088978 
L 199.575389 250.158794 
L 200.117384 292.039039 
L 200.659378 232.421279 
L 201.201372 236.362949 
L 201.743366 238.333784 
L 202.28536 225.523356 
L 202.827355 240.304619 
L 203.369349 274.301523 
L 203.911343 293.024456 
L 204.453337 260.998387 
L 204.995332 241.782745 
L 205.537326 292.039039 
L 206.07932 234.884823 
L 206.621314 236.855658 
L 207.163309 242.768163 
L 207.705303 244.246289 
L 208.247297 227.9869 
L 208.789291 292.531747 
L 209.331285 243.75358 
L 209.87328 294.502582 
L 210.415274 244.738998 
L 210.957268 240.797328 
L 211.499262 235.87024 
L 212.041257 242.768163 
L 212.583251 246.217124 
L 213.125245 246.217124 
L 213.667239 278.243193 
L 214.209234 238.333784 
L 214.751228 242.275454 
L 215.293222 231.92857 
L 215.835216 227.494191 
L 216.377211 242.768163 
L 216.919205 234.392114 
L 217.461199 292.039039 
L 218.003193 240.797328 
L 218.545187 242.275454 
L 219.087182 231.435862 
L 219.629176 227.9869 
L 220.17117 235.87024 
L 220.713164 273.808815 
L 221.255159 242.768163 
L 221.797153 239.319202 
L 222.339147 217.147308 
L 222.881141 286.126534 
L 223.423136 240.797328 
L 223.96513 238.826493 
L 224.507124 244.246289 
L 225.049118 236.362949 
L 225.591112 243.75358 
L 226.133107 294.009874 
L 226.675101 243.75358 
L 227.217095 240.304619 
L 227.759089 234.884823 
L 228.301084 283.66299 
L 228.843078 240.797328 
L 229.385072 263.461931 
L 229.927066 234.884823 
L 230.469061 253.115047 
L 231.011055 220.10356 
L 231.553049 238.826493 
L 232.095043 292.531747 
L 232.637037 283.66299 
L 233.179032 240.797328 
L 233.721026 234.392114 
L 234.26302 237.348367 
L 234.805014 211.727511 
L 235.347009 288.590077 
L 235.889003 228.479609 
L 236.430997 230.943153 
L 236.972991 240.304619 
L 237.514986 239.319202 
L 238.05698 245.724415 
L 238.598974 231.435862 
L 239.140968 293.024456 
L 239.682963 237.841075 
L 240.224957 235.377532 
L 240.766951 233.899405 
L 241.308945 230.943153 
L 241.850939 243.75358 
L 242.392934 233.406697 
L 242.934928 229.465026 
L 243.476922 275.77965 
L 244.018916 232.421279 
L 244.560911 227.9869 
L 245.102905 251.144212 
L 245.644899 237.841075 
L 246.186893 230.450444 
L 246.728888 233.899405 
L 247.270882 233.899405 
L 247.812876 239.319202 
L 248.35487 246.217124 
L 248.896864 238.333784 
L 249.438859 294.502582 
L 250.522847 243.75358 
L 251.064841 240.304619 
L 251.606836 228.479609 
L 252.14883 285.633825 
L 252.690824 227.494191 
L 253.232818 293.024456 
L 253.774813 224.537939 
L 254.316807 284.155699 
L 254.858801 223.059813 
L 255.400795 292.039039 
L 255.942789 235.87024 
L 256.484784 239.81191 
L 257.026778 293.517165 
L 257.568772 221.088978 
L 258.110766 226.508774 
L 258.652761 227.9869 
L 259.194755 227.494191 
L 259.736749 188.077491 
L 260.278743 282.677572 
L 260.820738 225.030648 
L 261.362732 227.494191 
L 261.904726 292.039039 
L 262.44672 294.995291 
L 262.988715 232.913988 
L 263.530709 222.074395 
L 264.614697 234.884823 
L 265.156691 244.246289 
L 265.698686 226.016065 
L 266.24068 203.844171 
L 266.782674 227.001483 
L 267.324668 221.581686 
L 267.866663 220.10356 
L 268.408657 227.001483 
L 268.950651 241.782745 
L 269.492645 269.867145 
L 270.03464 214.683764 
L 270.576634 262.969222 
L 271.118628 225.523356 
L 271.660622 221.581686 
L 272.202616 231.435862 
L 272.744611 227.9869 
L 273.286605 235.377532 
L 273.828599 219.610851 
L 274.370593 178.716024 
L 274.912588 236.855658 
L 275.454582 276.272358 
L 275.996576 234.884823 
L 276.53857 294.009874 
L 277.080565 217.147308 
L 277.622559 224.537939 
L 278.164553 221.088978 
L 278.706547 294.502582 
L 279.248542 213.698346 
L 279.790536 229.957735 
L 280.33253 270.359853 
L 280.874524 225.030648 
L 281.416518 255.578591 
L 281.958513 230.450444 
L 282.500507 230.943153 
L 283.042501 146.689955 
L 283.584495 223.552521 
L 284.12649 226.016065 
L 284.668484 220.10356 
L 285.210478 221.088978 
L 285.752472 215.176473 
L 286.836461 225.030648 
L 287.378455 224.04523 
L 287.920449 227.9869 
L 288.462443 292.531747 
L 289.004438 126.981605 
L 289.546432 228.972318 
L 290.088426 134.372236 
L 290.63042 158.514965 
L 291.172415 228.479609 
L 291.714409 222.567104 
L 292.256403 239.81191 
L 292.798397 206.307715 
L 293.340392 272.823397 
L 293.882386 193.497287 
L 294.42438 217.640016 
L 294.966374 217.147308 
L 295.508368 202.366045 
L 296.050363 221.581686 
L 296.592357 292.039039 
L 297.134351 222.567104 
L 297.676345 248.680668 
L 298.21834 215.176473 
L 298.760334 209.756676 
L 299.302328 265.432766 
L 299.844322 201.380627 
L 300.386317 217.147308 
L 300.928311 210.742094 
L 301.470305 202.858754 
L 302.012299 208.27855 
L 302.554294 207.293132 
L 303.096288 236.855658 
L 303.638282 223.059813 
L 304.180276 249.173377 
L 304.72227 212.22022 
L 305.264265 288.590077 
L 305.806259 292.531747 
L 306.348253 281.692155 
L 306.890247 218.625434 
L 307.432242 212.22022 
L 307.974236 191.526452 
L 308.51623 278.735902 
L 309.058224 206.307715 
L 309.600219 220.596269 
L 310.142213 219.610851 
L 310.684207 217.147308 
L 311.226201 222.567104 
L 311.768195 206.800424 
L 312.31019 212.712929 
L 312.852184 206.307715 
L 313.394178 207.785841 
L 313.936172 210.249385 
L 314.478167 195.468122 
L 315.020161 209.756676 
L 315.562155 205.322297 
L 316.104149 250.158794 
L 316.646144 216.654599 
L 317.188138 225.523356 
L 317.730132 187.584782 
L 318.272126 225.030648 
L 318.814121 199.902501 
L 319.356115 226.508774 
L 319.898109 222.567104 
L 320.440103 198.424375 
L 320.982097 216.654599 
L 321.524092 221.088978 
L 322.066086 273.808815 
L 322.60808 293.024456 
L 323.150074 120.083682 
L 323.692069 272.823397 
L 324.234063 224.04523 
L 324.776057 201.380627 
L 325.318051 218.625434 
L 325.860046 188.077491 
L 326.40204 185.613947 
L 326.944034 232.913988 
L 327.486028 205.815006 
L 328.028022 207.785841 
L 328.570017 202.366045 
L 329.112011 166.891014 
L 329.654005 186.106656 
L 330.195999 241.782745 
L 330.737994 151.617043 
L 331.279988 213.205637 
L 331.821982 222.567104 
L 332.363976 223.552521 
L 332.905971 219.118143 
L 333.447965 173.788937 
L 333.989959 93.970118 
L 334.531953 240.304619 
L 335.073947 176.252481 
L 335.615942 187.584782 
L 336.157936 165.905597 
L 336.69993 223.059813 
L 337.241924 123.039935 
L 337.783919 201.873336 
L 338.325913 53.568 
L 338.867907 181.672277 
L 339.409901 75.739894 
L 339.951896 209.263967 
L 340.49389 202.858754 
L 341.035884 130.923275 
L 341.577878 255.578591 
L 342.119873 64.407593 
L 342.661867 167.383723 
L 343.203861 53.568 
L 343.745855 183.643112 
L 344.287849 252.129629 
L 344.829844 196.946248 
L 345.371838 235.377532 
L 345.913832 150.138916 
L 346.455826 137.821198 
L 346.997821 283.66299 
L 347.539815 53.568 
L 348.081809 139.299324 
L 348.623803 167.876432 
L 349.165798 212.22022 
L 349.707792 53.568 
L 350.79178 192.019161 
L 351.333774 180.194151 
L 351.875769 155.066004 
L 352.417763 169.847267 
L 352.959757 159.007674 
L 353.501751 53.568 
L 354.043746 159.500383 
L 354.58574 192.51187 
L 355.127734 189.062908 
L 355.669728 123.532644 
L 356.211723 140.77745 
L 356.753717 197.438957 
L 357.295711 98.404497 
L 357.837705 203.844171 
L 358.379699 233.406697 
L 358.921694 228.479609 
L 359.463688 164.920179 
L 360.005682 53.568 
L 360.547676 132.401401 
L 361.089671 159.993092 
L 361.631665 290.560912 
L 362.173659 168.369141 
L 362.715653 103.331585 
L 363.257648 166.398305 
L 363.799642 148.168081 
L 364.341636 87.564904 
L 364.88363 244.738998 
L 365.425625 64.407593 
L 365.967619 76.232603 
L 366.509613 133.386819 
L 367.051607 282.184864 
L 367.593601 226.016065 
L 368.135596 215.176473 
L 368.67759 103.824293 
L 369.219584 141.270159 
L 369.761578 251.636921 
L 370.303573 209.756676 
L 370.845567 240.304619 
L 371.929555 107.765963 
L 372.47155 147.182664 
L 373.013544 200.39521 
L 373.555538 133.386819 
L 374.097532 130.923275 
L 374.639526 150.138916 
L 375.181521 91.999283 
L 375.723515 109.736798 
L 376.265509 268.881727 
L 376.807503 176.745189 
L 377.349498 182.657695 
L 377.891492 274.301523 
L 378.433486 213.205637 
L 378.97548 137.328489 
L 379.517475 211.234802 
L 380.059469 153.095169 
L 380.601463 281.692155 
L 381.143457 209.263967 
L 381.685452 199.409792 
L 382.227446 212.712929 
L 382.76944 127.967022 
L 383.311434 224.04523 
L 383.853428 97.911788 
L 384.395423 217.147308 
L 384.937417 212.22022 
L 385.479411 142.255576 
L 386.021405 165.412888 
L 386.5634 217.147308 
L 387.105394 294.009874 
L 387.647388 202.858754 
L 388.189382 174.774354 
L 388.731377 243.260872 
L 389.273371 258.534843 
L 389.815365 184.135821 
L 390.357359 222.074395 
L 390.899353 208.771259 
L 391.441348 222.074395 
L 391.983342 193.004578 
L 393.06733 217.147308 
L 393.609325 293.024456 
L 394.151319 208.771259 
L 394.693313 280.214029 
L 395.235307 293.024456 
L 395.777302 225.523356 
L 396.319296 205.815006 
L 396.86129 224.04523 
L 397.403284 202.366045 
L 397.945278 227.001483 
L 398.487273 156.54413 
L 398.487273 156.54413 
" clip-path="url(#p2a95d37eec)" style="fill: none; stroke: #1f77b4; stroke-width: 1.5; stroke-linecap: square"/>
   </g>
   <g id="patch_3">
    <path d="M 57.6 307.584 
L 57.6 41.472 
" style="fill: none; stroke: #000000; stroke-width: 0.8; stroke-linejoin: miter; stroke-linecap: square"/>
   </g>
   <g id="patch_4">
    <path d="M 414.72 307.584 
L 414.72 41.472 
" style="fill: none; stroke: #000000; stroke-width: 0.8; stroke-linejoin: miter; stroke-linecap: square"/>
   </g>
   <g id="patch_5">
    <path d="M 57.6 307.584 
L 414.72 307.584 
" style="fill: none; stroke: #000000; stroke-width: 0.8; stroke-linejoin: miter; stroke-linecap: square"/>
   </g>
   <g id="patch_6">
    <path d="M 57.6 41.472 
L 414.72 41.472 
" style="fill: none; stroke: #000000; stroke-width: 0.8; stroke-linejoin: miter; stroke-linecap: square"/>
   </g>
  </g>
 </g>
 <defs>
  <clipPath id="p2a95d37eec">
   <rect x="57.6" y="41.472" width="357.12" height="266.112"/>
  </clipPath>
 </defs>
</svg>
