<?xml version="1.0" encoding="utf-8" standalone="no"?>
<!DOCTYPE svg PUBLIC "-//W3C//DTD SVG 1.1//EN"
  "http://www.w3.org/Graphics/SVG/1.1/DTD/svg11.dtd">
<svg xmlns:xlink="http://www.w3.org/1999/xlink" width="460.8pt" height="345.6pt" viewBox="0 0 460.8 345.6" xmlns="http://www.w3.org/2000/svg" version="1.1">
 <metadata>
  <rdf:RDF xmlns:dc="http://purl.org/dc/elements/1.1/" xmlns:cc="http://creativecommons.org/ns#" xmlns:rdf="http://www.w3.org/1999/02/22-rdf-syntax-ns#">
   <cc:Work>
    <dc:type rdf:resource="http://purl.org/dc/dcmitype/StillImage"/>
    <dc:date>2026-04-19T20:55:53.283364</dc:date>
    <dc:format>image/svg+xml</dc:format>
    <dc:creator>
     <cc:Agent>
      <dc:title>Matplotlib v3.10.8, https://matplotlib.org/</dc:title>
     </cc:Agent>
    </dc:creator>
   </cc:Work>
  </rdf:RDF>
 </metadata>
 <defs>
  <style type="text/css">*{stroke-linejoin: round; stroke-linecap: butt}</style>
 </defs>
 <g id="figure_1">
  <g id="patch_1">
   <path d="M 0 345.6 
L 460.8 345.6 
L 460.8 0 
L 0 0 
z
" style="fill: #ffffff"/>
  </g>
  <g id="axes_1">
   <g id="patch_2">
    <path d="M 57.6 307.584 
L 414.72 307.584 
L 414.72 41.472 
L 57.6 41.472 
z
" style="fill: #ffffff"/>
   </g>
   <g id="matplotlib.axis_1">
    <g id="xtick_1">
     <g id="line2d_1">
      <defs>
       <path id="m3950364567" d="M 0 0 
L 0 3.5 
" style="stroke: #000000; stroke-width: 0.8"/>
      </defs>
      <g>
       <use xlink:href="#m3950364567" x="73.832727" y="307.584" style="stroke: #000000; stroke-width: 0.8"/>
      </g>
     </g>
     <g id="text_1">
      <!-- 0 -->
      <g transform="translate(70.651477 322.182437) scale(0.1 -0.1)">
       <defs>
        <path id="DejaVuSans-30" d="M 2034 4250 
Q 1547 4250 1301 3770 
Q 1056 3291 1056 2328 
Q 1056 1369 1301 889 
Q 1547 409 2034 409 
Q 2525 409 2770 889 
Q 3016 1369 3016 2328 
Q 3016 3291 2770 3770 
Q 2525 4250 2034 4250 
z
M 2034 4750 
Q 2819 4750 3233 4129 
Q 3647 3509 3647 2328 
Q 3647 1150 3233 529 
Q 2819 -91 2034 -91 
Q 1250 -91 836 529 
Q 422 1150 422 2328 
Q 422 3509 836 4129 
Q 1250 4750 2034 4750 
z
" transform="scale(0.015625)"/>
       </defs>
       <use xlink:href="#DejaVuSans-30"/>
      </g>
     </g>
    </g>
    <g id="xtick_2">
     <g id="line2d_2">
      <g>
       <use xlink:href="#m3950364567" x="138.828632" y="307.584" style="stroke: #000000; stroke-width: 0.8"/>
      </g>
     </g>
     <g id="text_2">
      <!-- 200 -->
      <g transform="translate(129.284882 322.182437) scale(0.1 -0.1)">
       <defs>
        <path id="DejaVuSans-32" d="M 1228 531 
L 3431 531 
L 3431 0 
L 469 0 
L 469 531 
Q 828 903 1448 1529 
Q 2069 2156 2228 2338 
Q 2531 2678 2651 2914 
Q 2772 3150 2772 3378 
Q 2772 3750 2511 3984 
Q 2250 4219 1831 4219 
Q 1534 4219 1204 4116 
Q 875 4013 500 3803 
L 500 4441 
Q 881 4594 1212 4672 
Q 1544 4750 1819 4750 
Q 2544 4750 2975 4387 
Q 3406 4025 3406 3419 
Q 3406 3131 3298 2873 
Q 3191 2616 2906 2266 
Q 2828 2175 2409 1742 
Q 1991 1309 1228 531 
z
" transform="scale(0.015625)"/>
       </defs>
       <use xlink:href="#DejaVuSans-32"/>
       <use xlink:href="#DejaVuSans-30" transform="translate(63.623047 0)"/>
       <use xlink:href="#DejaVuSans-30" transform="translate(127.246094 0)"/>
      </g>
     </g>
    </g>
    <g id="xtick_3">
     <g id="line2d_3">
      <g>
       <use xlink:href="#m3950364567" x="203.824537" y="307.584" style="stroke: #000000; stroke-width: 0.8"/>
      </g>
     </g>
     <g id="text_3">
      <!-- 400 -->
      <g transform="translate(194.280787 322.182437) scale(0.1 -0.1)">
       <defs>
        <path id="DejaVuSans-34" d="M 2419 4116 
L 825 1625 
L 2419 1625 
L 2419 4116 
z
M 2253 4666 
L 3047 4666 
L 3047 1625 
L 3713 1625 
L 3713 1100 
L 3047 1100 
L 3047 0 
L 2419 0 
L 2419 1100 
L 313 1100 
L 313 1709 
L 2253 4666 
z
" transform="scale(0.015625)"/>
       </defs>
       <use xlink:href="#DejaVuSans-34"/>
       <use xlink:href="#DejaVuSans-30" transform="translate(63.623047 0)"/>
       <use xlink:href="#DejaVuSans-30" transform="translate(127.246094 0)"/>
      </g>
     </g>
    </g>
    <g id="xtick_4">
     <g id="line2d_4">
      <g>
       <use xlink:href="#m3950364567" x="268.820442" y="307.584" style="stroke: #000000; stroke-width: 0.8"/>
      </g>
     </g>
     <g id="text_4">
      <!-- 600 -->
      <g transform="translate(259.276692 322.182437) scale(0.1 -0.1)">
       <defs>
        <path id="DejaVuSans-36" d="M 2113 2584 
Q 1688 2584 1439 2293 
Q 1191 2003 1191 1497 
Q 1191 994 1439 701 
Q 1688 409 2113 409 
Q 2538 409 2786 701 
Q 3034 994 3034 1497 
Q 3034 2003 2786 2293 
Q 2538 2584 2113 2584 
z
M 3366 4563 
L 3366 3988 
Q 3128 4100 2886 4159 
Q 2644 4219 2406 4219 
Q 1781 4219 1451 3797 
Q 1122 3375 1075 2522 
Q 1259 2794 1537 2939 
Q 1816 3084 2150 3084 
Q 2853 3084 3261 2657 
Q 3669 2231 3669 1497 
Q 3669 778 3244 343 
Q 2819 -91 2113 -91 
Q 1303 -91 875 529 
Q 447 1150 447 2328 
Q 447 3434 972 4092 
Q 1497 4750 2381 4750 
Q 2619 4750 2861 4703 
Q 3103 4656 3366 4563 
z
" transform="scale(0.015625)"/>
       </defs>
       <use xlink:href="#DejaVuSans-36"/>
       <use xlink:href="#DejaVuSans-30" transform="translate(63.623047 0)"/>
       <use xlink:href="#DejaVuSans-30" transform="translate(127.246094 0)"/>
      </g>
     </g>
    </g>
    <g id="xtick_5">
     <g id="line2d_5">
      <g>
       <use xlink:href="#m3950364567" x="333.816347" y="307.584" style="stroke: #000000; stroke-width: 0.8"/>
      </g>
     </g>
     <g id="text_5">
      <!-- 800 -->
      <g transform="translate(324.272597 322.182437) scale(0.1 -0.1)">
       <defs>
        <path id="DejaVuSans-38" d="M 2034 2216 
Q 1584 2216 1326 1975 
Q 1069 1734 1069 1313 
Q 1069 891 1326 650 
Q 1584 409 2034 409 
Q 2484 409 2743 651 
Q 3003 894 3003 1313 
Q 3003 1734 2745 1975 
Q 2488 2216 2034 2216 
z
M 1403 2484 
Q 997 2584 770 2862 
Q 544 3141 544 3541 
Q 544 4100 942 4425 
Q 1341 4750 2034 4750 
Q 2731 4750 3128 4425 
Q 3525 4100 3525 3541 
Q 3525 3141 3298 2862 
Q 3072 2584 2669 2484 
Q 3125 2378 3379 2068 
Q 3634 1759 3634 1313 
Q 3634 634 3220 271 
Q 2806 -91 2034 -91 
Q 1263 -91 848 271 
Q 434 634 434 1313 
Q 434 1759 690 2068 
Q 947 2378 1403 2484 
z
M 1172 3481 
Q 1172 3119 1398 2916 
Q 1625 2713 2034 2713 
Q 2441 2713 2670 2916 
Q 2900 3119 2900 3481 
Q 2900 3844 2670 4047 
Q 2441 4250 2034 4250 
Q 1625 4250 1398 4047 
Q 1172 3844 1172 3481 
z
" transform="scale(0.015625)"/>
       </defs>
       <use xlink:href="#DejaVuSans-38"/>
       <use xlink:href="#DejaVuSans-30" transform="translate(63.623047 0)"/>
       <use xlink:href="#DejaVuSans-30" transform="translate(127.246094 0)"/>
      </g>
     </g>
    </g>
    <g id="xtick_6">
     <g id="line2d_6">
      <g>
       <use xlink:href="#m3950364567" x="398.812252" y="307.584" style="stroke: #000000; stroke-width: 0.8"/>
      </g>
     </g>
     <g id="text_6">
      <!-- 1000 -->
      <g transform="translate(386.087252 322.182437) scale(0.1 -0.1)">
       <defs>
        <path id="DejaVuSans-31" d="M 794 531 
L 1825 531 
L 1825 4091 
L 703 3866 
L 703 4441 
L 1819 4666 
L 2450 4666 
L 2450 531 
L 3481 531 
L 3481 0 
L 794 0 
L 794 531 
z
" transform="scale(0.015625)"/>
       </defs>
       <use xlink:href="#DejaVuSans-31"/>
       <use xlink:href="#DejaVuSans-30" transform="translate(63.623047 0)"/>
       <use xlink:href="#DejaVuSans-30" transform="translate(127.246094 0)"/>
       <use xlink:href="#DejaVuSans-30" transform="translate(190.869141 0)"/>
      </g>
     </g>
    </g>
    <g id="text_7">
     <!-- Episode # -->
     <g transform="translate(210.743594 335.860562) scale(0.1 -0.1)">
      <defs>
       <path id="DejaVuSans-45" d="M 628 4666 
L 3578 4666 
L 3578 4134 
L 1259 4134 
L 1259 2753 
L 3481 2753 
L 3481 2222 
L 1259 2222 
L 1259 531 
L 3634 531 
L 3634 0 
L 628 0 
L 628 4666 
z
" transform="scale(0.015625)"/>
       <path id="DejaVuSans-70" d="M 1159 525 
L 1159 -1331 
L 581 -1331 
L 581 3500 
L 1159 3500 
L 1159 2969 
Q 1341 3281 1617 3432 
Q 1894 3584 2278 3584 
Q 2916 3584 3314 3078 
Q 3713 2572 3713 1747 
Q 3713 922 3314 415 
Q 2916 -91 2278 -91 
Q 1894 -91 1617 61 
Q 1341 213 1159 525 
z
M 3116 1747 
Q 3116 2381 2855 2742 
Q 2594 3103 2138 3103 
Q 1681 3103 1420 2742 
Q 1159 2381 1159 1747 
Q 1159 1113 1420 752 
Q 1681 391 2138 391 
Q 2594 391 2855 752 
Q 3116 1113 3116 1747 
z
" transform="scale(0.015625)"/>
       <path id="DejaVuSans-69" d="M 603 3500 
L 1178 3500 
L 1178 0 
L 603 0 
L 603 3500 
z
M 603 4863 
L 1178 4863 
L 1178 4134 
L 603 4134 
L 603 4863 
z
" transform="scale(0.015625)"/>
       <path id="DejaVuSans-73" d="M 2834 3397 
L 2834 2853 
Q 2591 2978 2328 3040 
Q 2066 3103 1784 3103 
Q 1356 3103 1142 2972 
Q 928 2841 928 2578 
Q 928 2378 1081 2264 
Q 1234 2150 1697 2047 
L 1894 2003 
Q 2506 1872 2764 1633 
Q 3022 1394 3022 966 
Q 3022 478 2636 193 
Q 2250 -91 1575 -91 
Q 1294 -91 989 -36 
Q 684 19 347 128 
L 347 722 
Q 666 556 975 473 
Q 1284 391 1588 391 
Q 1994 391 2212 530 
Q 2431 669 2431 922 
Q 2431 1156 2273 1281 
Q 2116 1406 1581 1522 
L 1381 1569 
Q 847 1681 609 1914 
Q 372 2147 372 2553 
Q 372 3047 722 3315 
Q 1072 3584 1716 3584 
Q 2034 3584 2315 3537 
Q 2597 3491 2834 3397 
z
" transform="scale(0.015625)"/>
       <path id="DejaVuSans-6f" d="M 1959 3097 
Q 1497 3097 1228 2736 
Q 959 2375 959 1747 
Q 959 1119 1226 758 
Q 1494 397 1959 397 
Q 2419 397 2687 759 
Q 2956 1122 2956 1747 
Q 2956 2369 2687 2733 
Q 2419 3097 1959 3097 
z
M 1959 3584 
Q 2709 3584 3137 3096 
Q 3566 2609 3566 1747 
Q 3566 888 3137 398 
Q 2709 -91 1959 -91 
Q 1206 -91 779 398 
Q 353 888 353 1747 
Q 353 2609 779 3096 
Q 1206 3584 1959 3584 
z
" transform="scale(0.015625)"/>
       <path id="DejaVuSans-64" d="M 2906 2969 
L 2906 4863 
L 3481 4863 
L 3481 0 
L 2906 0 
L 2906 525 
Q 2725 213 2448 61 
Q 2172 -91 1784 -91 
Q 1150 -91 751 415 
Q 353 922 353 1747 
Q 353 2572 751 3078 
Q 1150 3584 1784 3584 
Q 2172 3584 2448 3432 
Q 2725 3281 2906 2969 
z
M 947 1747 
Q 947 1113 1208 752 
Q 1469 391 1925 391 
Q 2381 391 2643 752 
Q 2906 1113 2906 1747 
Q 2906 2381 2643 2742 
Q 2381 3103 1925 3103 
Q 1469 3103 1208 2742 
Q 947 2381 947 1747 
z
" transform="scale(0.015625)"/>
       <path id="DejaVuSans-65" d="M 3597 1894 
L 3597 1613 
L 953 1613 
Q 991 1019 1311 708 
Q 1631 397 2203 397 
Q 2534 397 2845 478 
Q 3156 559 3463 722 
L 3463 178 
Q 3153 47 2828 -22 
Q 2503 -91 2169 -91 
Q 1331 -91 842 396 
Q 353 884 353 1716 
Q 353 2575 817 3079 
Q 1281 3584 2069 3584 
Q 2775 3584 3186 3129 
Q 3597 2675 3597 1894 
z
M 3022 2063 
Q 3016 2534 2758 2815 
Q 2500 3097 2075 3097 
Q 1594 3097 1305 2825 
Q 1016 2553 972 2059 
L 3022 2063 
z
" transform="scale(0.015625)"/>
       <path id="DejaVuSans-20" transform="scale(0.015625)"/>
       <path id="DejaVuSans-23" d="M 3272 2816 
L 2363 2816 
L 2100 1772 
L 3016 1772 
L 3272 2816 
z
M 2803 4594 
L 2478 3297 
L 3391 3297 
L 3719 4594 
L 4219 4594 
L 3897 3297 
L 4872 3297 
L 4872 2816 
L 3775 2816 
L 3519 1772 
L 4513 1772 
L 4513 1294 
L 3397 1294 
L 3072 0 
L 2572 0 
L 2894 1294 
L 1978 1294 
L 1656 0 
L 1153 0 
L 1478 1294 
L 494 1294 
L 494 1772 
L 1594 1772 
L 1856 2816 
L 850 2816 
L 850 3297 
L 1978 3297 
L 2297 4594 
L 2803 4594 
z
" transform="scale(0.015625)"/>
      </defs>
      <use xlink:href="#DejaVuSans-45"/>
      <use xlink:href="#DejaVuSans-70" transform="translate(63.183594 0)"/>
      <use xlink:href="#DejaVuSans-69" transform="translate(126.660156 0)"/>
      <use xlink:href="#DejaVuSans-73" transform="translate(154.443359 0)"/>
      <use xlink:href="#DejaVuSans-6f" transform="translate(206.542969 0)"/>
      <use xlink:href="#DejaVuSans-64" transform="translate(267.724609 0)"/>
      <use xlink:href="#DejaVuSans-65" transform="translate(331.201172 0)"/>
      <use xlink:href="#DejaVuSans-20" transform="translate(392.724609 0)"/>
      <use xlink:href="#DejaVuSans-23" transform="translate(424.511719 0)"/>
     </g>
    </g>
   </g>
   <g id="matplotlib.axis_2">
    <g id="ytick_1">
     <g id="line2d_7">
      <defs>
       <path id="ma7ef5400d1" d="M 0 0 
L -3.5 0 
" style="stroke: #000000; stroke-width: 0.8"/>
      </defs>
      <g>
       <use xlink:href="#ma7ef5400d1" x="57.6" y="286.000941" style="stroke: #000000; stroke-width: 0.8"/>
      </g>
     </g>
     <g id="text_8">
      <!-- 10 -->
      <g transform="translate(37.875 289.80016) scale(0.1 -0.1)">
       <use xlink:href="#DejaVuSans-31"/>
       <use xlink:href="#DejaVuSans-30" transform="translate(63.623047 0)"/>
      </g>
     </g>
    </g>
    <g id="ytick_2">
     <g id="line2d_8">
      <g>
       <use xlink:href="#ma7ef5400d1" x="57.6" y="238.565647" style="stroke: #000000; stroke-width: 0.8"/>
      </g>
     </g>
     <g id="text_9">
      <!-- 20 -->
      <g transform="translate(37.875 242.364866) scale(0.1 -0.1)">
       <use xlink:href="#DejaVuSans-32"/>
       <use xlink:href="#DejaVuSans-30" transform="translate(63.623047 0)"/>
      </g>
     </g>
    </g>
    <g id="ytick_3">
     <g id="line2d_9">
      <g>
       <use xlink:href="#ma7ef5400d1" x="57.6" y="191.130353" style="stroke: #000000; stroke-width: 0.8"/>
      </g>
     </g>
     <g id="text_10">
      <!-- 30 -->
      <g transform="translate(37.875 194.929572) scale(0.1 -0.1)">
       <defs>
        <path id="DejaVuSans-33" d="M 2597 2516 
Q 3050 2419 3304 2112 
Q 3559 1806 3559 1356 
Q 3559 666 3084 287 
Q 2609 -91 1734 -91 
Q 1441 -91 1130 -33 
Q 819 25 488 141 
L 488 750 
Q 750 597 1062 519 
Q 1375 441 1716 441 
Q 2309 441 2620 675 
Q 2931 909 2931 1356 
Q 2931 1769 2642 2001 
Q 2353 2234 1838 2234 
L 1294 2234 
L 1294 2753 
L 1863 2753 
Q 2328 2753 2575 2939 
Q 2822 3125 2822 3475 
Q 2822 3834 2567 4026 
Q 2313 4219 1838 4219 
Q 1578 4219 1281 4162 
Q 984 4106 628 3988 
L 628 4550 
Q 988 4650 1302 4700 
Q 1616 4750 1894 4750 
Q 2613 4750 3031 4423 
Q 3450 4097 3450 3541 
Q 3450 3153 3228 2886 
Q 3006 2619 2597 2516 
z
" transform="scale(0.015625)"/>
       </defs>
       <use xlink:href="#DejaVuSans-33"/>
       <use xlink:href="#DejaVuSans-30" transform="translate(63.623047 0)"/>
      </g>
     </g>
    </g>
    <g id="ytick_4">
     <g id="line2d_10">
      <g>
       <use xlink:href="#ma7ef5400d1" x="57.6" y="143.695059" style="stroke: #000000; stroke-width: 0.8"/>
      </g>
     </g>
     <g id="text_11">
      <!-- 40 -->
      <g transform="translate(37.875 147.494278) scale(0.1 -0.1)">
       <use xlink:href="#DejaVuSans-34"/>
       <use xlink:href="#DejaVuSans-30" transform="translate(63.623047 0)"/>
      </g>
     </g>
    </g>
    <g id="ytick_5">
     <g id="line2d_11">
      <g>
       <use xlink:href="#ma7ef5400d1" x="57.6" y="96.259765" style="stroke: #000000; stroke-width: 0.8"/>
      </g>
     </g>
     <g id="text_12">
      <!-- 50 -->
      <g transform="translate(37.875 100.058983) scale(0.1 -0.1)">
       <defs>
        <path id="DejaVuSans-35" d="M 691 4666 
L 3169 4666 
L 3169 4134 
L 1269 4134 
L 1269 2991 
Q 1406 3038 1543 3061 
Q 1681 3084 1819 3084 
Q 2600 3084 3056 2656 
Q 3513 2228 3513 1497 
Q 3513 744 3044 326 
Q 2575 -91 1722 -91 
Q 1428 -91 1123 -41 
Q 819 9 494 109 
L 494 744 
Q 775 591 1075 516 
Q 1375 441 1709 441 
Q 2250 441 2565 725 
Q 2881 1009 2881 1497 
Q 2881 1984 2565 2268 
Q 2250 2553 1709 2553 
Q 1456 2553 1204 2497 
Q 953 2441 691 2322 
L 691 4666 
z
" transform="scale(0.015625)"/>
       </defs>
       <use xlink:href="#DejaVuSans-35"/>
       <use xlink:href="#DejaVuSans-30" transform="translate(63.623047 0)"/>
      </g>
     </g>
    </g>
    <g id="ytick_6">
     <g id="line2d_12">
      <g>
       <use xlink:href="#ma7ef5400d1" x="57.6" y="48.824471" style="stroke: #000000; stroke-width: 0.8"/>
      </g>
     </g>
     <g id="text_13">
      <!-- 60 -->
      <g transform="translate(37.875 52.623689) scale(0.1 -0.1)">
       <use xlink:href="#DejaVuSans-36"/>
       <use xlink:href="#DejaVuSans-30" transform="translate(63.623047 0)"/>
      </g>
     </g>
    </g>
    <g id="text_14">
     <!-- Score -->
     <g transform="translate(31.795313 188.530344) rotate(-90) scale(0.1 -0.1)">
      <defs>
       <path id="DejaVuSans-53" d="M 3425 4513 
L 3425 3897 
Q 3066 4069 2747 4153 
Q 2428 4238 2131 4238 
Q 1616 4238 1336 4038 
Q 1056 3838 1056 3469 
Q 1056 3159 1242 3001 
Q 1428 2844 1947 2747 
L 2328 2669 
Q 3034 2534 3370 2195 
Q 3706 1856 3706 1288 
Q 3706 609 3251 259 
Q 2797 -91 1919 -91 
Q 1588 -91 1214 -16 
Q 841 59 441 206 
L 441 856 
Q 825 641 1194 531 
Q 1563 422 1919 422 
Q 2459 422 2753 634 
Q 3047 847 3047 1241 
Q 3047 1584 2836 1778 
Q 2625 1972 2144 2069 
L 1759 2144 
Q 1053 2284 737 2584 
Q 422 2884 422 3419 
Q 422 4038 858 4394 
Q 1294 4750 2059 4750 
Q 2388 4750 2728 4690 
Q 3069 4631 3425 4513 
z
" transform="scale(0.015625)"/>
       <path id="DejaVuSans-63" d="M 3122 3366 
L 3122 2828 
Q 2878 2963 2633 3030 
Q 2388 3097 2138 3097 
Q 1578 3097 1268 2742 
Q 959 2388 959 1747 
Q 959 1106 1268 751 
Q 1578 397 2138 397 
Q 2388 397 2633 464 
Q 2878 531 3122 666 
L 3122 134 
Q 2881 22 2623 -34 
Q 2366 -91 2075 -91 
Q 1284 -91 818 406 
Q 353 903 353 1747 
Q 353 2603 823 3093 
Q 1294 3584 2113 3584 
Q 2378 3584 2631 3529 
Q 2884 3475 3122 3366 
z
" transform="scale(0.015625)"/>
       <path id="DejaVuSans-72" d="M 2631 2963 
Q 2534 3019 2420 3045 
Q 2306 3072 2169 3072 
Q 1681 3072 1420 2755 
Q 1159 2438 1159 1844 
L 1159 0 
L 581 0 
L 581 3500 
L 1159 3500 
L 1159 2956 
Q 1341 3275 1631 3429 
Q 1922 3584 2338 3584 
Q 2397 3584 2469 3576 
Q 2541 3569 2628 3553 
L 2631 2963 
z
" transform="scale(0.015625)"/>
      </defs>
      <use xlink:href="#DejaVuSans-53"/>
      <use xlink:href="#DejaVuSans-63" transform="translate(63.476562 0)"/>
      <use xlink:href="#DejaVuSans-6f" transform="translate(118.457031 0)"/>
      <use xlink:href="#DejaVuSans-72" transform="translate(179.638672 0)"/>
      <use xlink:href="#DejaVuSans-65" transform="translate(218.501953 0)"/>
     </g>
    </g>
   </g>
   <g id="line2d_13">
    <path d="M 73.832727 276.513882 
L 74.157707 271.770353 
L 74.482686 238.565647 
L 74.807666 186.386824 
L 75.132645 252.796235 
L 75.457625 219.591529 
L 75.782604 229.078588 
L 76.107584 229.078588 
L 76.432563 252.796235 
L 76.757543 172.156235 
L 77.082523 276.513882 
L 77.407502 119.977412 
L 78.057461 281.257412 
L 78.382441 243.309176 
L 78.70742 276.513882 
L 79.0324 195.873882 
L 79.357379 257.539765 
L 79.682359 195.873882 
L 80.007338 214.848 
L 80.332318 186.386824 
L 80.657297 252.796235 
L 80.982277 219.591529 
L 81.307256 267.026824 
L 81.632236 262.283294 
L 81.957215 229.078588 
L 82.607174 262.283294 
L 82.932154 53.568 
L 83.257133 276.513882 
L 83.582113 229.078588 
L 83.907093 129.464471 
L 84.232072 262.283294 
L 84.557052 243.309176 
L 84.882031 148.438588 
L 85.207011 281.257412 
L 85.53199 186.386824 
L 85.85697 271.770353 
L 86.181949 262.283294 
L 86.506929 233.822118 
L 86.831908 248.052706 
L 87.156888 290.744471 
L 87.481867 290.744471 
L 87.806847 186.386824 
L 88.131826 257.539765 
L 88.456806 271.770353 
L 88.781785 276.513882 
L 89.106765 210.104471 
L 89.431744 276.513882 
L 89.756724 286.000941 
L 90.406683 262.283294 
L 90.731663 271.770353 
L 91.056642 271.770353 
L 91.381622 267.026824 
L 91.706601 286.000941 
L 92.031581 195.873882 
L 92.35656 281.257412 
L 92.68154 286.000941 
L 93.006519 276.513882 
L 93.331499 290.744471 
L 93.981458 195.873882 
L 94.306437 276.513882 
L 94.631417 214.848 
L 94.956396 267.026824 
L 95.606355 214.848 
L 95.931335 295.488 
L 96.256314 176.899765 
L 96.581294 243.309176 
L 96.906274 271.770353 
L 97.231253 238.565647 
L 97.556233 271.770353 
L 97.881212 286.000941 
L 98.206192 276.513882 
L 98.531171 262.283294 
L 98.856151 281.257412 
L 99.18113 276.513882 
L 99.50611 262.283294 
L 99.831089 281.257412 
L 100.156069 276.513882 
L 100.481048 281.257412 
L 100.806028 214.848 
L 101.780966 290.744471 
L 102.105946 257.539765 
L 102.430925 267.026824 
L 102.755905 229.078588 
L 103.080885 276.513882 
L 103.405864 271.770353 
L 103.730844 129.464471 
L 104.055823 276.513882 
L 104.380803 224.335059 
L 104.705782 281.257412 
L 105.030762 286.000941 
L 105.355741 248.052706 
L 105.680721 286.000941 
L 106.0057 276.513882 
L 106.33068 186.386824 
L 106.655659 276.513882 
L 106.980639 252.796235 
L 107.305618 276.513882 
L 107.630598 229.078588 
L 107.955577 219.591529 
L 108.280557 271.770353 
L 108.605536 238.565647 
L 108.930516 290.744471 
L 109.255495 252.796235 
L 109.580475 262.283294 
L 109.905455 281.257412 
L 110.230434 281.257412 
L 110.555414 271.770353 
L 110.880393 276.513882 
L 111.205373 252.796235 
L 111.530352 252.796235 
L 111.855332 271.770353 
L 112.180311 243.309176 
L 112.505291 276.513882 
L 112.83027 267.026824 
L 113.15525 267.026824 
L 113.480229 286.000941 
L 113.805209 257.539765 
L 114.130188 286.000941 
L 114.455168 286.000941 
L 114.780147 267.026824 
L 115.105127 262.283294 
L 115.430106 281.257412 
L 115.755086 257.539765 
L 116.080066 281.257412 
L 116.730025 271.770353 
L 117.055004 281.257412 
L 117.379984 257.539765 
L 117.704963 252.796235 
L 118.029943 271.770353 
L 118.354922 252.796235 
L 119.004881 286.000941 
L 119.329861 286.000941 
L 119.65484 290.744471 
L 119.97982 276.513882 
L 120.304799 286.000941 
L 120.629779 224.335059 
L 120.954758 252.796235 
L 121.279738 295.488 
L 121.929697 252.796235 
L 122.254676 262.283294 
L 122.579656 243.309176 
L 122.904636 281.257412 
L 123.229615 276.513882 
L 123.554595 290.744471 
L 123.879574 233.822118 
L 124.204554 229.078588 
L 124.529533 243.309176 
L 124.854513 271.770353 
L 125.179492 286.000941 
L 125.504472 276.513882 
L 125.829451 281.257412 
L 126.154431 148.438588 
L 126.47941 290.744471 
L 126.80439 257.539765 
L 127.129369 286.000941 
L 127.454349 276.513882 
L 127.779328 271.770353 
L 128.104308 229.078588 
L 128.429287 262.283294 
L 128.754267 271.770353 
L 129.079247 290.744471 
L 129.404226 295.488 
L 129.729206 290.744471 
L 130.379165 257.539765 
L 130.704144 276.513882 
L 131.029124 271.770353 
L 131.354103 290.744471 
L 131.679083 281.257412 
L 132.004062 286.000941 
L 132.329042 267.026824 
L 132.654021 267.026824 
L 132.979001 286.000941 
L 133.62896 276.513882 
L 133.953939 281.257412 
L 134.278919 290.744471 
L 134.603898 267.026824 
L 134.928878 267.026824 
L 135.578837 286.000941 
L 135.903817 281.257412 
L 136.228796 248.052706 
L 136.553776 286.000941 
L 136.878755 286.000941 
L 137.203735 290.744471 
L 137.528714 219.591529 
L 137.853694 257.539765 
L 138.503653 257.539765 
L 138.828632 286.000941 
L 139.153612 238.565647 
L 139.478591 286.000941 
L 139.803571 286.000941 
L 140.12855 276.513882 
L 140.45353 281.257412 
L 140.778509 281.257412 
L 141.103489 286.000941 
L 141.428468 286.000941 
L 141.753448 276.513882 
L 142.078428 276.513882 
L 142.403407 281.257412 
L 142.728387 276.513882 
L 143.053366 262.283294 
L 143.378346 290.744471 
L 143.703325 262.283294 
L 144.028305 290.744471 
L 144.678264 290.744471 
L 145.003243 295.488 
L 145.328223 286.000941 
L 145.653202 290.744471 
L 145.978182 281.257412 
L 146.628141 290.744471 
L 146.95312 262.283294 
L 147.2781 286.000941 
L 147.603079 281.257412 
L 147.928059 281.257412 
L 148.253038 295.488 
L 148.902998 271.770353 
L 149.227977 290.744471 
L 149.552957 271.770353 
L 149.877936 281.257412 
L 150.202916 281.257412 
L 150.527895 286.000941 
L 150.852875 257.539765 
L 151.177854 252.796235 
L 151.502834 262.283294 
L 152.152793 286.000941 
L 152.477772 276.513882 
L 152.802752 262.283294 
L 153.127731 290.744471 
L 153.452711 286.000941 
L 153.77769 276.513882 
L 154.10267 276.513882 
L 154.427649 281.257412 
L 154.752629 281.257412 
L 155.077609 248.052706 
L 155.402588 290.744471 
L 156.052547 290.744471 
L 156.377527 286.000941 
L 156.702506 267.026824 
L 157.027486 290.744471 
L 157.352465 257.539765 
L 157.677445 290.744471 
L 158.002424 295.488 
L 158.327404 257.539765 
L 158.652383 276.513882 
L 158.977363 248.052706 
L 159.302342 276.513882 
L 159.627322 271.770353 
L 159.952301 281.257412 
L 160.60226 281.257412 
L 161.252219 290.744471 
L 161.577199 257.539765 
L 161.902179 276.513882 
L 162.552138 276.513882 
L 162.877117 271.770353 
L 163.202097 281.257412 
L 163.527076 262.283294 
L 163.852056 281.257412 
L 164.177035 267.026824 
L 164.502015 271.770353 
L 164.826994 271.770353 
L 165.151974 295.488 
L 165.476953 267.026824 
L 165.801933 290.744471 
L 166.126912 281.257412 
L 166.451892 281.257412 
L 166.776871 276.513882 
L 167.101851 290.744471 
L 167.42683 290.744471 
L 167.75181 286.000941 
L 168.07679 286.000941 
L 168.726749 262.283294 
L 169.051728 286.000941 
L 169.376708 262.283294 
L 170.026667 286.000941 
L 170.351646 290.744471 
L 170.676626 276.513882 
L 171.001605 286.000941 
L 171.326585 286.000941 
L 171.651564 276.513882 
L 171.976544 286.000941 
L 172.301523 290.744471 
L 172.626503 286.000941 
L 172.951482 276.513882 
L 173.276462 286.000941 
L 173.601441 276.513882 
L 174.2514 286.000941 
L 174.57638 276.513882 
L 174.90136 281.257412 
L 175.226339 281.257412 
L 175.551319 271.770353 
L 175.876298 281.257412 
L 176.201278 248.052706 
L 176.526257 276.513882 
L 176.851237 286.000941 
L 177.176216 281.257412 
L 177.501196 290.744471 
L 177.826175 281.257412 
L 178.151155 286.000941 
L 178.476134 276.513882 
L 179.451073 276.513882 
L 179.776052 281.257412 
L 180.101032 281.257412 
L 180.426011 267.026824 
L 180.750991 286.000941 
L 181.40095 286.000941 
L 181.72593 281.257412 
L 182.050909 267.026824 
L 182.375889 295.488 
L 182.700868 286.000941 
L 183.025848 290.744471 
L 183.350827 281.257412 
L 183.675807 276.513882 
L 184.000786 290.744471 
L 184.325766 281.257412 
L 184.650745 295.488 
L 184.975725 276.513882 
L 185.300704 276.513882 
L 185.625684 281.257412 
L 185.950663 290.744471 
L 186.275643 271.770353 
L 186.600622 286.000941 
L 186.925602 281.257412 
L 187.250581 286.000941 
L 187.575561 281.257412 
L 187.900541 281.257412 
L 188.22552 286.000941 
L 188.5505 271.770353 
L 188.875479 276.513882 
L 189.200459 271.770353 
L 189.850418 290.744471 
L 190.175397 290.744471 
L 190.500377 295.488 
L 190.825356 295.488 
L 191.150336 267.026824 
L 191.475315 290.744471 
L 191.800295 267.026824 
L 192.125274 281.257412 
L 192.775233 290.744471 
L 193.100213 290.744471 
L 193.425192 267.026824 
L 193.750172 281.257412 
L 194.075152 281.257412 
L 194.400131 271.770353 
L 194.725111 267.026824 
L 195.05009 271.770353 
L 195.37507 290.744471 
L 195.700049 281.257412 
L 196.025029 286.000941 
L 196.674988 286.000941 
L 196.999967 290.744471 
L 197.324947 276.513882 
L 197.649926 276.513882 
L 197.974906 290.744471 
L 198.299885 281.257412 
L 198.624865 286.000941 
L 198.949844 271.770353 
L 199.274824 290.744471 
L 199.599803 290.744471 
L 199.924783 286.000941 
L 200.249762 295.488 
L 200.574742 276.513882 
L 200.899722 276.513882 
L 201.224701 271.770353 
L 201.549681 286.000941 
L 201.87466 290.744471 
L 202.19964 286.000941 
L 202.524619 295.488 
L 202.849599 286.000941 
L 203.174578 290.744471 
L 203.499558 290.744471 
L 203.824537 281.257412 
L 204.474496 281.257412 
L 205.124455 290.744471 
L 205.449435 286.000941 
L 205.774414 286.000941 
L 206.099394 276.513882 
L 206.424373 286.000941 
L 206.749353 281.257412 
L 207.074333 281.257412 
L 207.399312 286.000941 
L 207.724292 286.000941 
L 208.049271 267.026824 
L 208.374251 276.513882 
L 208.69923 290.744471 
L 209.02421 286.000941 
L 209.349189 286.000941 
L 209.674169 290.744471 
L 209.999148 281.257412 
L 210.324128 290.744471 
L 210.649107 286.000941 
L 211.299066 286.000941 
L 211.624046 290.744471 
L 212.598984 290.744471 
L 212.923964 295.488 
L 213.248943 281.257412 
L 213.573923 290.744471 
L 213.898903 290.744471 
L 214.223882 271.770353 
L 214.548862 281.257412 
L 215.198821 281.257412 
L 215.5238 295.488 
L 216.173759 286.000941 
L 216.498739 295.488 
L 216.823718 281.257412 
L 217.148698 295.488 
L 218.123636 281.257412 
L 218.448616 290.744471 
L 218.773595 286.000941 
L 219.098575 286.000941 
L 219.423554 290.744471 
L 219.748534 286.000941 
L 220.073514 290.744471 
L 220.398493 276.513882 
L 220.723473 286.000941 
L 221.048452 290.744471 
L 221.373432 281.257412 
L 221.698411 257.539765 
L 222.023391 290.744471 
L 222.34837 286.000941 
L 222.67335 286.000941 
L 222.998329 295.488 
L 223.648288 276.513882 
L 224.298247 286.000941 
L 224.623227 281.257412 
L 224.948206 290.744471 
L 225.273186 290.744471 
L 225.598165 286.000941 
L 225.923145 276.513882 
L 226.248124 295.488 
L 226.573104 281.257412 
L 226.898084 290.744471 
L 227.223063 286.000941 
L 227.548043 290.744471 
L 228.198002 290.744471 
L 228.522981 286.000941 
L 229.17294 286.000941 
L 229.49792 290.744471 
L 229.822899 281.257412 
L 230.147879 286.000941 
L 230.472858 286.000941 
L 231.122817 295.488 
L 231.447797 286.000941 
L 231.772776 281.257412 
L 232.097756 281.257412 
L 232.747715 290.744471 
L 233.072695 290.744471 
L 233.722654 281.257412 
L 234.047633 281.257412 
L 234.697592 290.744471 
L 235.022572 290.744471 
L 235.347551 286.000941 
L 235.672531 290.744471 
L 235.99751 281.257412 
L 236.32249 290.744471 
L 236.647469 286.000941 
L 236.972449 290.744471 
L 237.297428 281.257412 
L 237.622408 286.000941 
L 237.947387 286.000941 
L 238.272367 290.744471 
L 238.597346 281.257412 
L 238.922326 281.257412 
L 239.247305 295.488 
L 239.572285 290.744471 
L 239.897265 295.488 
L 240.222244 286.000941 
L 240.547224 295.488 
L 240.872203 281.257412 
L 241.197183 290.744471 
L 241.522162 281.257412 
L 241.847142 290.744471 
L 242.172121 286.000941 
L 242.497101 295.488 
L 242.82208 290.744471 
L 243.472039 290.744471 
L 243.797019 286.000941 
L 244.121998 290.744471 
L 244.771957 281.257412 
L 245.096937 286.000941 
L 245.746896 286.000941 
L 246.071876 281.257412 
L 246.396855 281.257412 
L 246.721835 286.000941 
L 247.046814 286.000941 
L 247.371794 281.257412 
L 247.696773 290.744471 
L 248.021753 281.257412 
L 248.346732 276.513882 
L 248.671712 295.488 
L 248.996691 281.257412 
L 249.321671 286.000941 
L 249.64665 286.000941 
L 249.97163 271.770353 
L 250.296609 286.000941 
L 250.621589 281.257412 
L 250.946568 290.744471 
L 251.271548 286.000941 
L 251.596527 290.744471 
L 252.246486 281.257412 
L 252.571466 281.257412 
L 252.896446 295.488 
L 253.221425 286.000941 
L 253.871384 295.488 
L 254.196364 281.257412 
L 254.521343 281.257412 
L 255.171302 290.744471 
L 255.496282 286.000941 
L 255.821261 286.000941 
L 256.146241 290.744471 
L 256.47122 286.000941 
L 256.7962 290.744471 
L 257.121179 286.000941 
L 257.446159 286.000941 
L 257.771138 281.257412 
L 258.096118 290.744471 
L 258.421097 286.000941 
L 258.746077 295.488 
L 259.071057 286.000941 
L 259.396036 290.744471 
L 259.721016 286.000941 
L 260.045995 290.744471 
L 260.370975 290.744471 
L 260.695954 286.000941 
L 261.020934 290.744471 
L 261.345913 290.744471 
L 261.670893 286.000941 
L 261.995872 290.744471 
L 262.320852 290.744471 
L 262.645831 286.000941 
L 262.970811 286.000941 
L 263.29579 290.744471 
L 263.62077 286.000941 
L 263.945749 290.744471 
L 264.595708 290.744471 
L 264.920688 286.000941 
L 265.245667 295.488 
L 265.570647 286.000941 
L 266.220606 286.000941 
L 266.545586 290.744471 
L 267.195545 290.744471 
L 267.520524 286.000941 
L 267.845504 286.000941 
L 268.170483 295.488 
L 268.495463 286.000941 
L 268.820442 286.000941 
L 269.145422 281.257412 
L 269.470401 286.000941 
L 269.795381 271.770353 
L 270.12036 286.000941 
L 270.44534 290.744471 
L 270.770319 290.744471 
L 271.095299 286.000941 
L 271.420278 286.000941 
L 271.745258 276.513882 
L 272.070238 286.000941 
L 272.720197 286.000941 
L 273.045176 281.257412 
L 273.370156 290.744471 
L 274.020115 281.257412 
L 274.345094 286.000941 
L 274.670074 286.000941 
L 274.995053 290.744471 
L 275.320033 286.000941 
L 275.969992 295.488 
L 276.294971 295.488 
L 276.619951 267.026824 
L 276.94493 290.744471 
L 277.594889 290.744471 
L 277.919869 286.000941 
L 278.244848 276.513882 
L 278.569828 286.000941 
L 278.894808 286.000941 
L 279.219787 290.744471 
L 279.544767 286.000941 
L 279.869746 295.488 
L 280.194726 286.000941 
L 280.844685 286.000941 
L 281.169664 290.744471 
L 281.494644 281.257412 
L 281.819623 281.257412 
L 282.469582 290.744471 
L 282.794562 286.000941 
L 283.119541 290.744471 
L 283.444521 290.744471 
L 283.7695 281.257412 
L 284.09448 281.257412 
L 284.419459 295.488 
L 284.744439 290.744471 
L 285.069419 281.257412 
L 285.394398 281.257412 
L 285.719378 286.000941 
L 286.369337 286.000941 
L 286.694316 290.744471 
L 287.019296 286.000941 
L 287.344275 286.000941 
L 287.669255 281.257412 
L 287.994234 290.744471 
L 288.969173 290.744471 
L 289.294152 286.000941 
L 289.619132 295.488 
L 290.269091 286.000941 
L 290.59407 290.744471 
L 290.91905 286.000941 
L 291.569009 286.000941 
L 291.893989 295.488 
L 292.218968 286.000941 
L 293.518886 286.000941 
L 293.843866 290.744471 
L 294.493825 281.257412 
L 294.818804 290.744471 
L 295.143784 290.744471 
L 295.468763 295.488 
L 295.793743 290.744471 
L 296.118722 281.257412 
L 296.443702 295.488 
L 296.768681 286.000941 
L 297.093661 290.744471 
L 297.74362 290.744471 
L 298.0686 286.000941 
L 298.393579 295.488 
L 299.043538 286.000941 
L 299.693497 286.000941 
L 300.018477 281.257412 
L 300.343456 281.257412 
L 300.668436 286.000941 
L 300.993415 281.257412 
L 301.318395 281.257412 
L 301.643374 290.744471 
L 301.968354 295.488 
L 302.293333 290.744471 
L 303.268272 290.744471 
L 303.593251 281.257412 
L 303.918231 281.257412 
L 304.24321 290.744471 
L 304.56819 290.744471 
L 304.89317 281.257412 
L 305.218149 290.744471 
L 305.543129 281.257412 
L 306.193088 290.744471 
L 306.518067 286.000941 
L 307.168026 295.488 
L 307.817985 286.000941 
L 308.142965 290.744471 
L 308.467944 290.744471 
L 308.792924 286.000941 
L 309.767862 286.000941 
L 310.092842 281.257412 
L 310.417821 290.744471 
L 310.742801 286.000941 
L 311.39276 286.000941 
L 312.042719 295.488 
L 312.367699 286.000941 
L 312.692678 295.488 
L 313.017658 290.744471 
L 313.342637 295.488 
L 313.992596 286.000941 
L 314.317576 286.000941 
L 314.642555 295.488 
L 314.967535 290.744471 
L 315.292514 295.488 
L 315.617494 286.000941 
L 315.942473 290.744471 
L 316.267453 286.000941 
L 317.242391 286.000941 
L 317.567371 290.744471 
L 318.21733 290.744471 
L 318.54231 286.000941 
L 318.867289 290.744471 
L 319.192269 286.000941 
L 319.842228 295.488 
L 320.167207 286.000941 
L 320.492187 286.000941 
L 320.817166 290.744471 
L 321.142146 290.744471 
L 321.467125 295.488 
L 321.792105 290.744471 
L 322.117084 276.513882 
L 322.442064 286.000941 
L 322.767043 286.000941 
L 323.092023 281.257412 
L 323.417002 286.000941 
L 323.741982 281.257412 
L 324.066962 286.000941 
L 324.716921 286.000941 
L 325.0419 290.744471 
L 325.36688 286.000941 
L 327.641736 286.000941 
L 327.966716 290.744471 
L 328.616675 290.744471 
L 328.941654 295.488 
L 329.266634 286.000941 
L 329.591613 286.000941 
L 329.916593 295.488 
L 330.241572 290.744471 
L 331.216511 290.744471 
L 331.541491 286.000941 
L 332.19145 295.488 
L 332.841409 295.488 
L 333.166388 290.744471 
L 333.491368 281.257412 
L 333.816347 290.744471 
L 334.141327 295.488 
L 334.466306 295.488 
L 334.791286 286.000941 
L 335.116265 290.744471 
L 335.441245 290.744471 
L 335.766224 286.000941 
L 336.091204 290.744471 
L 336.416183 286.000941 
L 336.741163 295.488 
L 337.066143 290.744471 
L 337.391122 295.488 
L 337.716102 276.513882 
L 338.041081 286.000941 
L 338.366061 286.000941 
L 338.69104 290.744471 
L 339.01602 286.000941 
L 339.340999 286.000941 
L 339.665979 290.744471 
L 340.315938 290.744471 
L 340.640917 286.000941 
L 340.965897 290.744471 
L 341.290876 286.000941 
L 341.615856 290.744471 
L 342.590794 290.744471 
L 343.240753 281.257412 
L 343.565733 290.744471 
L 343.890713 286.000941 
L 344.540672 286.000941 
L 344.865651 295.488 
L 345.190631 295.488 
L 345.84059 286.000941 
L 346.165569 295.488 
L 346.490549 286.000941 
L 346.815528 295.488 
L 347.140508 290.744471 
L 347.465487 290.744471 
L 347.790467 286.000941 
L 348.115446 286.000941 
L 348.440426 290.744471 
L 348.765405 286.000941 
L 349.090385 286.000941 
L 349.415364 295.488 
L 349.740344 286.000941 
L 350.390303 295.488 
L 350.715283 290.744471 
L 351.040262 290.744471 
L 351.365242 286.000941 
L 352.34018 286.000941 
L 352.66516 281.257412 
L 352.990139 286.000941 
L 353.965078 286.000941 
L 354.615037 295.488 
L 355.264996 286.000941 
L 355.914955 286.000941 
L 356.564914 295.488 
L 357.214873 286.000941 
L 357.539853 286.000941 
L 357.864832 295.488 
L 358.514791 286.000941 
L 359.814709 286.000941 
L 360.139689 290.744471 
L 360.464668 286.000941 
L 360.789648 290.744471 
L 361.114627 286.000941 
L 361.439607 295.488 
L 361.764586 286.000941 
L 362.739525 286.000941 
L 363.064505 290.744471 
L 363.714464 281.257412 
L 364.039443 286.000941 
L 364.364423 286.000941 
L 364.689402 290.744471 
L 365.014382 286.000941 
L 365.339361 286.000941 
L 365.664341 290.744471 
L 365.98932 286.000941 
L 366.639279 286.000941 
L 366.964259 281.257412 
L 367.289238 286.000941 
L 367.614218 286.000941 
L 367.939197 295.488 
L 368.264177 290.744471 
L 368.914136 290.744471 
L 369.239115 295.488 
L 369.564095 286.000941 
L 370.214054 295.488 
L 370.539034 290.744471 
L 371.188993 290.744471 
L 371.838952 281.257412 
L 372.163931 290.744471 
L 372.488911 286.000941 
L 373.13887 286.000941 
L 373.463849 295.488 
L 373.788829 286.000941 
L 374.113808 286.000941 
L 374.438788 290.744471 
L 374.763767 286.000941 
L 375.088747 290.744471 
L 375.413726 286.000941 
L 375.738706 290.744471 
L 376.063686 286.000941 
L 376.388665 286.000941 
L 376.713645 295.488 
L 377.363604 286.000941 
L 377.688583 290.744471 
L 378.013563 286.000941 
L 378.988501 286.000941 
L 379.313481 295.488 
L 379.63846 286.000941 
L 380.613399 286.000941 
L 381.263358 295.488 
L 381.588337 286.000941 
L 381.913317 295.488 
L 382.238296 290.744471 
L 382.563276 295.488 
L 383.213235 286.000941 
L 383.538215 290.744471 
L 383.863194 281.257412 
L 384.188174 295.488 
L 384.513153 286.000941 
L 384.838133 290.744471 
L 385.163112 286.000941 
L 385.488092 286.000941 
L 385.813071 281.257412 
L 386.138051 295.488 
L 386.78801 286.000941 
L 387.112989 286.000941 
L 387.437969 276.513882 
L 387.762948 290.744471 
L 388.412907 290.744471 
L 388.737887 286.000941 
L 389.712826 286.000941 
L 390.037805 295.488 
L 390.362785 290.744471 
L 390.687764 290.744471 
L 391.012744 281.257412 
L 391.337723 281.257412 
L 391.987682 290.744471 
L 392.312662 290.744471 
L 392.637641 286.000941 
L 392.962621 290.744471 
L 393.61258 290.744471 
L 393.937559 281.257412 
L 394.262539 290.744471 
L 394.587518 286.000941 
L 395.562457 286.000941 
L 395.887437 295.488 
L 396.212416 286.000941 
L 396.862375 295.488 
L 397.187355 286.000941 
L 397.512334 290.744471 
L 397.837314 290.744471 
L 398.162293 286.000941 
L 398.487273 290.744471 
L 398.487273 290.744471 
" clip-path="url(#p5d3a4a473f)" style="fill: none; stroke: #1f77b4; stroke-width: 1.5; stroke-linecap: square"/>
   </g>
   <g id="patch_3">
    <path d="M 57.6 307.584 
L 57.6 41.472 
" style="fill: none; stroke: #000000; stroke-width: 0.8; stroke-linejoin: miter; stroke-linecap: square"/>
   </g>
   <g id="patch_4">
    <path d="M 414.72 307.584 
L 414.72 41.472 
" style="fill: none; stroke: #000000; stroke-width: 0.8; stroke-linejoin: miter; stroke-linecap: square"/>
   </g>
   <g id="patch_5">
    <path d="M 57.6 307.584 
L 414.72 307.584 
" style="fill: none; stroke: #000000; stroke-width: 0.8; stroke-linejoin: miter; stroke-linecap: square"/>
   </g>
   <g id="patch_6">
    <path d="M 57.6 41.472 
L 414.72 41.472 
" style="fill: none; stroke: #000000; stroke-width: 0.8; stroke-linejoin: miter; stroke-linecap: square"/>
   </g>
  </g>
 </g>
 <defs>
  <clipPath id="p5d3a4a473f">
   <rect x="57.6" y="41.472" width="357.12" height="266.112"/>
  </clipPath>
 </defs>
</svg>
