<?xml version="1.0" encoding="utf-8" standalone="no"?>
<!DOCTYPE svg PUBLIC "-//W3C//DTD SVG 1.1//EN"
  "http://www.w3.org/Graphics/SVG/1.1/DTD/svg11.dtd">
<svg xmlns:xlink="http://www.w3.org/1999/xlink" width="460.8pt" height="345.6pt" viewBox="0 0 460.8 345.6" xmlns="http://www.w3.org/2000/svg" version="1.1">
 <metadata>
  <rdf:RDF xmlns:dc="http://purl.org/dc/elements/1.1/" xmlns:cc="http://creativecommons.org/ns#" xmlns:rdf="http://www.w3.org/1999/02/22-rdf-syntax-ns#">
   <cc:Work>
    <dc:type rdf:resource="http://purl.org/dc/dcmitype/StillImage"/>
    <dc:date>2026-04-19T22:35:21.588830</dc:date>
    <dc:format>image/svg+xml</dc:format>
    <dc:creator>
     <cc:Agent>
      <dc:title>Matplotlib v3.10.8, https://matplotlib.org/</dc:title>
     </cc:Agent>
    </dc:creator>
   </cc:Work>
  </rdf:RDF>
 </metadata>
 <defs>
  <style type="text/css">*{stroke-linejoin: round; stroke-linecap: butt}</style>
 </defs>
 <g id="figure_1">
  <g id="patch_1">
   <path d="M 0 345.6 
L 460.8 345.6 
L 460.8 0 
L 0 0 
z
" style="fill: #ffffff"/>
  </g>
  <g id="axes_1">
   <g id="patch_2">
    <path d="M 57.6 307.584 
L 414.72 307.584 
L 414.72 41.472 
L 57.6 41.472 
z
" style="fill: #ffffff"/>
   </g>
   <g id="matplotlib.axis_1">
    <g id="xtick_1">
     <g id="line2d_1">
      <defs>
       <path id="me0900b580b" d="M 0 0 
L 0 3.5 
" style="stroke: #000000; stroke-width: 0.8"/>
      </defs>
      <g>
       <use xlink:href="#me0900b580b" x="73.832727" y="307.584" style="stroke: #000000; stroke-width: 0.8"/>
      </g>
     </g>
     <g id="text_1">
      <!-- 0 -->
      <g transform="translate(70.651477 322.182437) scale(0.1 -0.1)">
       <defs>
        <path id="DejaVuSans-30" d="M 2034 4250 
Q 1547 4250 1301 3770 
Q 1056 3291 1056 2328 
Q 1056 1369 1301 889 
Q 1547 409 2034 409 
Q 2525 409 2770 889 
Q 3016 1369 3016 2328 
Q 3016 3291 2770 3770 
Q 2525 4250 2034 4250 
z
M 2034 4750 
Q 2819 4750 3233 4129 
Q 3647 3509 3647 2328 
Q 3647 1150 3233 529 
Q 2819 -91 2034 -91 
Q 1250 -91 836 529 
Q 422 1150 422 2328 
Q 422 3509 836 4129 
Q 1250 4750 2034 4750 
z
" transform="scale(0.015625)"/>
       </defs>
       <use xlink:href="#DejaVuSans-30"/>
      </g>
     </g>
    </g>
    <g id="xtick_2">
     <g id="line2d_2">
      <g>
       <use xlink:href="#me0900b580b" x="113.521547" y="307.584" style="stroke: #000000; stroke-width: 0.8"/>
      </g>
     </g>
     <g id="text_2">
      <!-- 100 -->
      <g transform="translate(103.977797 322.182437) scale(0.1 -0.1)">
       <defs>
        <path id="DejaVuSans-31" d="M 794 531 
L 1825 531 
L 1825 4091 
L 703 3866 
L 703 4441 
L 1819 4666 
L 2450 4666 
L 2450 531 
L 3481 531 
L 3481 0 
L 794 0 
L 794 531 
z
" transform="scale(0.015625)"/>
       </defs>
       <use xlink:href="#DejaVuSans-31"/>
       <use xlink:href="#DejaVuSans-30" transform="translate(63.623047 0)"/>
       <use xlink:href="#DejaVuSans-30" transform="translate(127.246094 0)"/>
      </g>
     </g>
    </g>
    <g id="xtick_3">
     <g id="line2d_3">
      <g>
       <use xlink:href="#me0900b580b" x="153.210367" y="307.584" style="stroke: #000000; stroke-width: 0.8"/>
      </g>
     </g>
     <g id="text_3">
      <!-- 200 -->
      <g transform="translate(143.666617 322.182437) scale(0.1 -0.1)">
       <defs>
        <path id="DejaVuSans-32" d="M 1228 531 
L 3431 531 
L 3431 0 
L 469 0 
L 469 531 
Q 828 903 1448 1529 
Q 2069 2156 2228 2338 
Q 2531 2678 2651 2914 
Q 2772 3150 2772 3378 
Q 2772 3750 2511 3984 
Q 2250 4219 1831 4219 
Q 1534 4219 1204 4116 
Q 875 4013 500 3803 
L 500 4441 
Q 881 4594 1212 4672 
Q 1544 4750 1819 4750 
Q 2544 4750 2975 4387 
Q 3406 4025 3406 3419 
Q 3406 3131 3298 2873 
Q 3191 2616 2906 2266 
Q 2828 2175 2409 1742 
Q 1991 1309 1228 531 
z
" transform="scale(0.015625)"/>
       </defs>
       <use xlink:href="#DejaVuSans-32"/>
       <use xlink:href="#DejaVuSans-30" transform="translate(63.623047 0)"/>
       <use xlink:href="#DejaVuSans-30" transform="translate(127.246094 0)"/>
      </g>
     </g>
    </g>
    <g id="xtick_4">
     <g id="line2d_4">
      <g>
       <use xlink:href="#me0900b580b" x="192.899186" y="307.584" style="stroke: #000000; stroke-width: 0.8"/>
      </g>
     </g>
     <g id="text_4">
      <!-- 300 -->
      <g transform="translate(183.355436 322.182437) scale(0.1 -0.1)">
       <defs>
        <path id="DejaVuSans-33" d="M 2597 2516 
Q 3050 2419 3304 2112 
Q 3559 1806 3559 1356 
Q 3559 666 3084 287 
Q 2609 -91 1734 -91 
Q 1441 -91 1130 -33 
Q 819 25 488 141 
L 488 750 
Q 750 597 1062 519 
Q 1375 441 1716 441 
Q 2309 441 2620 675 
Q 2931 909 2931 1356 
Q 2931 1769 2642 2001 
Q 2353 2234 1838 2234 
L 1294 2234 
L 1294 2753 
L 1863 2753 
Q 2328 2753 2575 2939 
Q 2822 3125 2822 3475 
Q 2822 3834 2567 4026 
Q 2313 4219 1838 4219 
Q 1578 4219 1281 4162 
Q 984 4106 628 3988 
L 628 4550 
Q 988 4650 1302 4700 
Q 1616 4750 1894 4750 
Q 2613 4750 3031 4423 
Q 3450 4097 3450 3541 
Q 3450 3153 3228 2886 
Q 3006 2619 2597 2516 
z
" transform="scale(0.015625)"/>
       </defs>
       <use xlink:href="#DejaVuSans-33"/>
       <use xlink:href="#DejaVuSans-30" transform="translate(63.623047 0)"/>
       <use xlink:href="#DejaVuSans-30" transform="translate(127.246094 0)"/>
      </g>
     </g>
    </g>
    <g id="xtick_5">
     <g id="line2d_5">
      <g>
       <use xlink:href="#me0900b580b" x="232.588006" y="307.584" style="stroke: #000000; stroke-width: 0.8"/>
      </g>
     </g>
     <g id="text_5">
      <!-- 400 -->
      <g transform="translate(223.044256 322.182437) scale(0.1 -0.1)">
       <defs>
        <path id="DejaVuSans-34" d="M 2419 4116 
L 825 1625 
L 2419 1625 
L 2419 4116 
z
M 2253 4666 
L 3047 4666 
L 3047 1625 
L 3713 1625 
L 3713 1100 
L 3047 1100 
L 3047 0 
L 2419 0 
L 2419 1100 
L 313 1100 
L 313 1709 
L 2253 4666 
z
" transform="scale(0.015625)"/>
       </defs>
       <use xlink:href="#DejaVuSans-34"/>
       <use xlink:href="#DejaVuSans-30" transform="translate(63.623047 0)"/>
       <use xlink:href="#DejaVuSans-30" transform="translate(127.246094 0)"/>
      </g>
     </g>
    </g>
    <g id="xtick_6">
     <g id="line2d_6">
      <g>
       <use xlink:href="#me0900b580b" x="272.276826" y="307.584" style="stroke: #000000; stroke-width: 0.8"/>
      </g>
     </g>
     <g id="text_6">
      <!-- 500 -->
      <g transform="translate(262.733076 322.182437) scale(0.1 -0.1)">
       <defs>
        <path id="DejaVuSans-35" d="M 691 4666 
L 3169 4666 
L 3169 4134 
L 1269 4134 
L 1269 2991 
Q 1406 3038 1543 3061 
Q 1681 3084 1819 3084 
Q 2600 3084 3056 2656 
Q 3513 2228 3513 1497 
Q 3513 744 3044 326 
Q 2575 -91 1722 -91 
Q 1428 -91 1123 -41 
Q 819 9 494 109 
L 494 744 
Q 775 591 1075 516 
Q 1375 441 1709 441 
Q 2250 441 2565 725 
Q 2881 1009 2881 1497 
Q 2881 1984 2565 2268 
Q 2250 2553 1709 2553 
Q 1456 2553 1204 2497 
Q 953 2441 691 2322 
L 691 4666 
z
" transform="scale(0.015625)"/>
       </defs>
       <use xlink:href="#DejaVuSans-35"/>
       <use xlink:href="#DejaVuSans-30" transform="translate(63.623047 0)"/>
       <use xlink:href="#DejaVuSans-30" transform="translate(127.246094 0)"/>
      </g>
     </g>
    </g>
    <g id="xtick_7">
     <g id="line2d_7">
      <g>
       <use xlink:href="#me0900b580b" x="311.965646" y="307.584" style="stroke: #000000; stroke-width: 0.8"/>
      </g>
     </g>
     <g id="text_7">
      <!-- 600 -->
      <g transform="translate(302.421896 322.182437) scale(0.1 -0.1)">
       <defs>
        <path id="DejaVuSans-36" d="M 2113 2584 
Q 1688 2584 1439 2293 
Q 1191 2003 1191 1497 
Q 1191 994 1439 701 
Q 1688 409 2113 409 
Q 2538 409 2786 701 
Q 3034 994 3034 1497 
Q 3034 2003 2786 2293 
Q 2538 2584 2113 2584 
z
M 3366 4563 
L 3366 3988 
Q 3128 4100 2886 4159 
Q 2644 4219 2406 4219 
Q 1781 4219 1451 3797 
Q 1122 3375 1075 2522 
Q 1259 2794 1537 2939 
Q 1816 3084 2150 3084 
Q 2853 3084 3261 2657 
Q 3669 2231 3669 1497 
Q 3669 778 3244 343 
Q 2819 -91 2113 -91 
Q 1303 -91 875 529 
Q 447 1150 447 2328 
Q 447 3434 972 4092 
Q 1497 4750 2381 4750 
Q 2619 4750 2861 4703 
Q 3103 4656 3366 4563 
z
" transform="scale(0.015625)"/>
       </defs>
       <use xlink:href="#DejaVuSans-36"/>
       <use xlink:href="#DejaVuSans-30" transform="translate(63.623047 0)"/>
       <use xlink:href="#DejaVuSans-30" transform="translate(127.246094 0)"/>
      </g>
     </g>
    </g>
    <g id="xtick_8">
     <g id="line2d_8">
      <g>
       <use xlink:href="#me0900b580b" x="351.654465" y="307.584" style="stroke: #000000; stroke-width: 0.8"/>
      </g>
     </g>
     <g id="text_8">
      <!-- 700 -->
      <g transform="translate(342.110715 322.182437) scale(0.1 -0.1)">
       <defs>
        <path id="DejaVuSans-37" d="M 525 4666 
L 3525 4666 
L 3525 4397 
L 1831 0 
L 1172 0 
L 2766 4134 
L 525 4134 
L 525 4666 
z
" transform="scale(0.015625)"/>
       </defs>
       <use xlink:href="#DejaVuSans-37"/>
       <use xlink:href="#DejaVuSans-30" transform="translate(63.623047 0)"/>
       <use xlink:href="#DejaVuSans-30" transform="translate(127.246094 0)"/>
      </g>
     </g>
    </g>
    <g id="xtick_9">
     <g id="line2d_9">
      <g>
       <use xlink:href="#me0900b580b" x="391.343285" y="307.584" style="stroke: #000000; stroke-width: 0.8"/>
      </g>
     </g>
     <g id="text_9">
      <!-- 800 -->
      <g transform="translate(381.799535 322.182437) scale(0.1 -0.1)">
       <defs>
        <path id="DejaVuSans-38" d="M 2034 2216 
Q 1584 2216 1326 1975 
Q 1069 1734 1069 1313 
Q 1069 891 1326 650 
Q 1584 409 2034 409 
Q 2484 409 2743 651 
Q 3003 894 3003 1313 
Q 3003 1734 2745 1975 
Q 2488 2216 2034 2216 
z
M 1403 2484 
Q 997 2584 770 2862 
Q 544 3141 544 3541 
Q 544 4100 942 4425 
Q 1341 4750 2034 4750 
Q 2731 4750 3128 4425 
Q 3525 4100 3525 3541 
Q 3525 3141 3298 2862 
Q 3072 2584 2669 2484 
Q 3125 2378 3379 2068 
Q 3634 1759 3634 1313 
Q 3634 634 3220 271 
Q 2806 -91 2034 -91 
Q 1263 -91 848 271 
Q 434 634 434 1313 
Q 434 1759 690 2068 
Q 947 2378 1403 2484 
z
M 1172 3481 
Q 1172 3119 1398 2916 
Q 1625 2713 2034 2713 
Q 2441 2713 2670 2916 
Q 2900 3119 2900 3481 
Q 2900 3844 2670 4047 
Q 2441 4250 2034 4250 
Q 1625 4250 1398 4047 
Q 1172 3844 1172 3481 
z
" transform="scale(0.015625)"/>
       </defs>
       <use xlink:href="#DejaVuSans-38"/>
       <use xlink:href="#DejaVuSans-30" transform="translate(63.623047 0)"/>
       <use xlink:href="#DejaVuSans-30" transform="translate(127.246094 0)"/>
      </g>
     </g>
    </g>
    <g id="text_10">
     <!-- Episode # -->
     <g transform="translate(210.743594 335.860562) scale(0.1 -0.1)">
      <defs>
       <path id="DejaVuSans-45" d="M 628 4666 
L 3578 4666 
L 3578 4134 
L 1259 4134 
L 1259 2753 
L 3481 2753 
L 3481 2222 
L 1259 2222 
L 1259 531 
L 3634 531 
L 3634 0 
L 628 0 
L 628 4666 
z
" transform="scale(0.015625)"/>
       <path id="DejaVuSans-70" d="M 1159 525 
L 1159 -1331 
L 581 -1331 
L 581 3500 
L 1159 3500 
L 1159 2969 
Q 1341 3281 1617 3432 
Q 1894 3584 2278 3584 
Q 2916 3584 3314 3078 
Q 3713 2572 3713 1747 
Q 3713 922 3314 415 
Q 2916 -91 2278 -91 
Q 1894 -91 1617 61 
Q 1341 213 1159 525 
z
M 3116 1747 
Q 3116 2381 2855 2742 
Q 2594 3103 2138 3103 
Q 1681 3103 1420 2742 
Q 1159 2381 1159 1747 
Q 1159 1113 1420 752 
Q 1681 391 2138 391 
Q 2594 391 2855 752 
Q 3116 1113 3116 1747 
z
" transform="scale(0.015625)"/>
       <path id="DejaVuSans-69" d="M 603 3500 
L 1178 3500 
L 1178 0 
L 603 0 
L 603 3500 
z
M 603 4863 
L 1178 4863 
L 1178 4134 
L 603 4134 
L 603 4863 
z
" transform="scale(0.015625)"/>
       <path id="DejaVuSans-73" d="M 2834 3397 
L 2834 2853 
Q 2591 2978 2328 3040 
Q 2066 3103 1784 3103 
Q 1356 3103 1142 2972 
Q 928 2841 928 2578 
Q 928 2378 1081 2264 
Q 1234 2150 1697 2047 
L 1894 2003 
Q 2506 1872 2764 1633 
Q 3022 1394 3022 966 
Q 3022 478 2636 193 
Q 2250 -91 1575 -91 
Q 1294 -91 989 -36 
Q 684 19 347 128 
L 347 722 
Q 666 556 975 473 
Q 1284 391 1588 391 
Q 1994 391 2212 530 
Q 2431 669 2431 922 
Q 2431 1156 2273 1281 
Q 2116 1406 1581 1522 
L 1381 1569 
Q 847 1681 609 1914 
Q 372 2147 372 2553 
Q 372 3047 722 3315 
Q 1072 3584 1716 3584 
Q 2034 3584 2315 3537 
Q 2597 3491 2834 3397 
z
" transform="scale(0.015625)"/>
       <path id="DejaVuSans-6f" d="M 1959 3097 
Q 1497 3097 1228 2736 
Q 959 2375 959 1747 
Q 959 1119 1226 758 
Q 1494 397 1959 397 
Q 2419 397 2687 759 
Q 2956 1122 2956 1747 
Q 2956 2369 2687 2733 
Q 2419 3097 1959 3097 
z
M 1959 3584 
Q 2709 3584 3137 3096 
Q 3566 2609 3566 1747 
Q 3566 888 3137 398 
Q 2709 -91 1959 -91 
Q 1206 -91 779 398 
Q 353 888 353 1747 
Q 353 2609 779 3096 
Q 1206 3584 1959 3584 
z
" transform="scale(0.015625)"/>
       <path id="DejaVuSans-64" d="M 2906 2969 
L 2906 4863 
L 3481 4863 
L 3481 0 
L 2906 0 
L 2906 525 
Q 2725 213 2448 61 
Q 2172 -91 1784 -91 
Q 1150 -91 751 415 
Q 353 922 353 1747 
Q 353 2572 751 3078 
Q 1150 3584 1784 3584 
Q 2172 3584 2448 3432 
Q 2725 3281 2906 2969 
z
M 947 1747 
Q 947 1113 1208 752 
Q 1469 391 1925 391 
Q 2381 391 2643 752 
Q 2906 1113 2906 1747 
Q 2906 2381 2643 2742 
Q 2381 3103 1925 3103 
Q 1469 3103 1208 2742 
Q 947 2381 947 1747 
z
" transform="scale(0.015625)"/>
       <path id="DejaVuSans-65" d="M 3597 1894 
L 3597 1613 
L 953 1613 
Q 991 1019 1311 708 
Q 1631 397 2203 397 
Q 2534 397 2845 478 
Q 3156 559 3463 722 
L 3463 178 
Q 3153 47 2828 -22 
Q 2503 -91 2169 -91 
Q 1331 -91 842 396 
Q 353 884 353 1716 
Q 353 2575 817 3079 
Q 1281 3584 2069 3584 
Q 2775 3584 3186 3129 
Q 3597 2675 3597 1894 
z
M 3022 2063 
Q 3016 2534 2758 2815 
Q 2500 3097 2075 3097 
Q 1594 3097 1305 2825 
Q 1016 2553 972 2059 
L 3022 2063 
z
" transform="scale(0.015625)"/>
       <path id="DejaVuSans-20" transform="scale(0.015625)"/>
       <path id="DejaVuSans-23" d="M 3272 2816 
L 2363 2816 
L 2100 1772 
L 3016 1772 
L 3272 2816 
z
M 2803 4594 
L 2478 3297 
L 3391 3297 
L 3719 4594 
L 4219 4594 
L 3897 3297 
L 4872 3297 
L 4872 2816 
L 3775 2816 
L 3519 1772 
L 4513 1772 
L 4513 1294 
L 3397 1294 
L 3072 0 
L 2572 0 
L 2894 1294 
L 1978 1294 
L 1656 0 
L 1153 0 
L 1478 1294 
L 494 1294 
L 494 1772 
L 1594 1772 
L 1856 2816 
L 850 2816 
L 850 3297 
L 1978 3297 
L 2297 4594 
L 2803 4594 
z
" transform="scale(0.015625)"/>
      </defs>
      <use xlink:href="#DejaVuSans-45"/>
      <use xlink:href="#DejaVuSans-70" transform="translate(63.183594 0)"/>
      <use xlink:href="#DejaVuSans-69" transform="translate(126.660156 0)"/>
      <use xlink:href="#DejaVuSans-73" transform="translate(154.443359 0)"/>
      <use xlink:href="#DejaVuSans-6f" transform="translate(206.542969 0)"/>
      <use xlink:href="#DejaVuSans-64" transform="translate(267.724609 0)"/>
      <use xlink:href="#DejaVuSans-65" transform="translate(331.201172 0)"/>
      <use xlink:href="#DejaVuSans-20" transform="translate(392.724609 0)"/>
      <use xlink:href="#DejaVuSans-23" transform="translate(424.511719 0)"/>
     </g>
    </g>
   </g>
   <g id="matplotlib.axis_2">
    <g id="ytick_1">
     <g id="line2d_10">
      <defs>
       <path id="md7be1d0489" d="M 0 0 
L -3.5 0 
" style="stroke: #000000; stroke-width: 0.8"/>
      </defs>
      <g>
       <use xlink:href="#md7be1d0489" x="57.6" y="299.421659" style="stroke: #000000; stroke-width: 0.8"/>
      </g>
     </g>
     <g id="text_11">
      <!-- 0 -->
      <g transform="translate(44.2375 303.220877) scale(0.1 -0.1)">
       <use xlink:href="#DejaVuSans-30"/>
      </g>
     </g>
    </g>
    <g id="ytick_2">
     <g id="line2d_11">
      <g>
       <use xlink:href="#md7be1d0489" x="57.6" y="250.250927" style="stroke: #000000; stroke-width: 0.8"/>
      </g>
     </g>
     <g id="text_12">
      <!-- 100 -->
      <g transform="translate(31.5125 254.050146) scale(0.1 -0.1)">
       <use xlink:href="#DejaVuSans-31"/>
       <use xlink:href="#DejaVuSans-30" transform="translate(63.623047 0)"/>
       <use xlink:href="#DejaVuSans-30" transform="translate(127.246094 0)"/>
      </g>
     </g>
    </g>
    <g id="ytick_3">
     <g id="line2d_12">
      <g>
       <use xlink:href="#md7be1d0489" x="57.6" y="201.080195" style="stroke: #000000; stroke-width: 0.8"/>
      </g>
     </g>
     <g id="text_13">
      <!-- 200 -->
      <g transform="translate(31.5125 204.879414) scale(0.1 -0.1)">
       <use xlink:href="#DejaVuSans-32"/>
       <use xlink:href="#DejaVuSans-30" transform="translate(63.623047 0)"/>
       <use xlink:href="#DejaVuSans-30" transform="translate(127.246094 0)"/>
      </g>
     </g>
    </g>
    <g id="ytick_4">
     <g id="line2d_13">
      <g>
       <use xlink:href="#md7be1d0489" x="57.6" y="151.909463" style="stroke: #000000; stroke-width: 0.8"/>
      </g>
     </g>
     <g id="text_14">
      <!-- 300 -->
      <g transform="translate(31.5125 155.708682) scale(0.1 -0.1)">
       <use xlink:href="#DejaVuSans-33"/>
       <use xlink:href="#DejaVuSans-30" transform="translate(63.623047 0)"/>
       <use xlink:href="#DejaVuSans-30" transform="translate(127.246094 0)"/>
      </g>
     </g>
    </g>
    <g id="ytick_5">
     <g id="line2d_14">
      <g>
       <use xlink:href="#md7be1d0489" x="57.6" y="102.738732" style="stroke: #000000; stroke-width: 0.8"/>
      </g>
     </g>
     <g id="text_15">
      <!-- 400 -->
      <g transform="translate(31.5125 106.53795) scale(0.1 -0.1)">
       <use xlink:href="#DejaVuSans-34"/>
       <use xlink:href="#DejaVuSans-30" transform="translate(63.623047 0)"/>
       <use xlink:href="#DejaVuSans-30" transform="translate(127.246094 0)"/>
      </g>
     </g>
    </g>
    <g id="ytick_6">
     <g id="line2d_15">
      <g>
       <use xlink:href="#md7be1d0489" x="57.6" y="53.568" style="stroke: #000000; stroke-width: 0.8"/>
      </g>
     </g>
     <g id="text_16">
      <!-- 500 -->
      <g transform="translate(31.5125 57.367219) scale(0.1 -0.1)">
       <use xlink:href="#DejaVuSans-35"/>
       <use xlink:href="#DejaVuSans-30" transform="translate(63.623047 0)"/>
       <use xlink:href="#DejaVuSans-30" transform="translate(127.246094 0)"/>
      </g>
     </g>
    </g>
    <g id="text_17">
     <!-- Score -->
     <g transform="translate(25.432812 188.530344) rotate(-90) scale(0.1 -0.1)">
      <defs>
       <path id="DejaVuSans-53" d="M 3425 4513 
L 3425 3897 
Q 3066 4069 2747 4153 
Q 2428 4238 2131 4238 
Q 1616 4238 1336 4038 
Q 1056 3838 1056 3469 
Q 1056 3159 1242 3001 
Q 1428 2844 1947 2747 
L 2328 2669 
Q 3034 2534 3370 2195 
Q 3706 1856 3706 1288 
Q 3706 609 3251 259 
Q 2797 -91 1919 -91 
Q 1588 -91 1214 -16 
Q 841 59 441 206 
L 441 856 
Q 825 641 1194 531 
Q 1563 422 1919 422 
Q 2459 422 2753 634 
Q 3047 847 3047 1241 
Q 3047 1584 2836 1778 
Q 2625 1972 2144 2069 
L 1759 2144 
Q 1053 2284 737 2584 
Q 422 2884 422 3419 
Q 422 4038 858 4394 
Q 1294 4750 2059 4750 
Q 2388 4750 2728 4690 
Q 3069 4631 3425 4513 
z
" transform="scale(0.015625)"/>
       <path id="DejaVuSans-63" d="M 3122 3366 
L 3122 2828 
Q 2878 2963 2633 3030 
Q 2388 3097 2138 3097 
Q 1578 3097 1268 2742 
Q 959 2388 959 1747 
Q 959 1106 1268 751 
Q 1578 397 2138 397 
Q 2388 397 2633 464 
Q 2878 531 3122 666 
L 3122 134 
Q 2881 22 2623 -34 
Q 2366 -91 2075 -91 
Q 1284 -91 818 406 
Q 353 903 353 1747 
Q 353 2603 823 3093 
Q 1294 3584 2113 3584 
Q 2378 3584 2631 3529 
Q 2884 3475 3122 3366 
z
" transform="scale(0.015625)"/>
       <path id="DejaVuSans-72" d="M 2631 2963 
Q 2534 3019 2420 3045 
Q 2306 3072 2169 3072 
Q 1681 3072 1420 2755 
Q 1159 2438 1159 1844 
L 1159 0 
L 581 0 
L 581 3500 
L 1159 3500 
L 1159 2956 
Q 1341 3275 1631 3429 
Q 1922 3584 2338 3584 
Q 2397 3584 2469 3576 
Q 2541 3569 2628 3553 
L 2631 2963 
z
" transform="scale(0.015625)"/>
      </defs>
      <use xlink:href="#DejaVuSans-53"/>
      <use xlink:href="#DejaVuSans-63" transform="translate(63.476562 0)"/>
      <use xlink:href="#DejaVuSans-6f" transform="translate(118.457031 0)"/>
      <use xlink:href="#DejaVuSans-72" transform="translate(179.638672 0)"/>
      <use xlink:href="#DejaVuSans-65" transform="translate(218.501953 0)"/>
     </g>
    </g>
   </g>
   <g id="line2d_16">
    <path d="M 73.832727 278.278244 
L 74.229615 292.537756 
L 74.626504 293.521171 
L 75.023392 289.587512 
L 75.42028 290.07922 
L 75.817168 288.11239 
L 76.214056 292.537756 
L 76.610945 280.245073 
L 77.007833 287.128976 
L 77.404721 281.720195 
L 78.198497 290.570927 
L 78.595386 292.046049 
L 78.992274 295.488 
L 79.389162 291.554341 
L 79.78605 284.670439 
L 80.182938 291.062634 
L 80.579827 293.029463 
L 80.976715 293.029463 
L 81.373603 285.162146 
L 81.770491 280.245073 
L 82.167379 295.488 
L 82.564268 288.604098 
L 82.961156 289.095805 
L 83.358044 293.029463 
L 83.754932 289.095805 
L 84.15182 293.029463 
L 84.548709 291.554341 
L 84.945597 293.029463 
L 85.342485 294.012878 
L 85.739373 286.145561 
L 86.136261 286.637268 
L 86.53315 294.012878 
L 86.930038 289.095805 
L 87.326926 285.653854 
L 87.723814 294.504585 
L 88.120702 290.07922 
L 88.517591 283.687024 
L 88.914479 294.996293 
L 89.311367 292.046049 
L 89.708255 292.046049 
L 90.502032 286.145561 
L 90.89892 281.720195 
L 91.295808 294.012878 
L 92.089584 291.062634 
L 92.486473 287.620683 
L 92.883361 294.504585 
L 93.280249 288.11239 
L 93.677137 293.029463 
L 94.074025 287.620683 
L 94.470914 292.046049 
L 94.867802 287.128976 
L 95.26469 293.029463 
L 95.661578 293.521171 
L 96.455355 293.521171 
L 96.852243 294.012878 
L 97.249131 284.670439 
L 97.646019 293.521171 
L 98.042907 294.012878 
L 98.439796 292.537756 
L 98.836684 294.504585 
L 99.233572 292.046049 
L 99.63046 291.062634 
L 100.027348 293.029463 
L 100.424236 292.046049 
L 100.821125 288.604098 
L 101.218013 290.570927 
L 101.614901 272.869463 
L 102.011789 289.587512 
L 102.408677 292.046049 
L 102.805566 290.570927 
L 103.202454 293.029463 
L 103.599342 292.537756 
L 103.99623 288.11239 
L 104.393118 294.504585 
L 104.790007 271.394341 
L 105.186895 292.537756 
L 105.583783 292.046049 
L 105.980671 292.537756 
L 106.377559 292.537756 
L 106.774448 290.570927 
L 107.171336 290.570927 
L 107.568224 286.145561 
L 107.965112 289.095805 
L 108.362 285.162146 
L 108.758889 294.996293 
L 109.155777 293.521171 
L 109.552665 292.537756 
L 109.949553 288.604098 
L 110.346441 290.570927 
L 110.74333 293.521171 
L 111.140218 293.029463 
L 111.537106 291.062634 
L 111.933994 281.228488 
L 112.727771 294.012878 
L 113.521547 292.046049 
L 113.918435 291.554341 
L 114.315323 293.029463 
L 114.712212 283.195317 
L 115.1091 292.046049 
L 115.505988 292.537756 
L 115.902876 290.07922 
L 116.299764 293.029463 
L 116.696653 290.570927 
L 117.093541 293.029463 
L 117.490429 293.029463 
L 117.887317 287.620683 
L 118.284205 279.753366 
L 118.681094 275.328 
L 119.077982 289.587512 
L 119.47487 293.521171 
L 119.871758 292.537756 
L 120.268646 292.046049 
L 120.665535 293.521171 
L 121.062423 293.521171 
L 121.459311 280.245073 
L 121.856199 289.095805 
L 122.253087 280.73678 
L 123.046864 291.554341 
L 123.84064 272.869463 
L 124.237528 278.769951 
L 124.634417 265.002146 
L 125.031305 291.062634 
L 125.428193 285.162146 
L 125.825081 267.460683 
L 126.618858 283.687024 
L 127.015746 278.278244 
L 127.809522 283.195317 
L 128.20641 281.720195 
L 128.603299 294.012878 
L 129.000187 290.570927 
L 129.397075 289.587512 
L 129.793963 291.062634 
L 130.587739 278.278244 
L 130.984628 288.11239 
L 131.778404 265.985561 
L 132.175292 275.819707 
L 132.969069 250.250927 
L 133.365957 282.211902 
L 133.762845 284.178732 
L 134.159733 290.07922 
L 134.556621 272.869463 
L 134.95351 293.029463 
L 135.350398 274.836293 
L 135.747286 278.769951 
L 136.144174 265.002146 
L 136.541062 273.852878 
L 136.937951 270.410927 
L 137.334839 282.70361 
L 137.731727 266.968976 
L 138.128615 271.394341 
L 138.525503 291.554341 
L 138.922392 258.609951 
L 139.31928 271.394341 
L 139.716168 253.201171 
L 140.113056 272.377756 
L 140.509944 266.477268 
L 140.906833 291.554341 
L 141.303721 289.095805 
L 142.097497 256.643122 
L 142.494385 274.836293 
L 142.891274 256.151415 
L 143.288162 293.029463 
L 143.68505 237.958244 
L 144.081938 256.151415 
L 144.478826 291.062634 
L 144.875715 252.217756 
L 145.272603 294.504585 
L 145.669491 257.134829 
L 146.066379 291.062634 
L 146.463267 224.682146 
L 146.860156 238.941659 
L 147.257044 294.012878 
L 147.653932 267.460683 
L 148.05082 250.742634 
L 148.447708 216.323122 
L 148.844597 243.367024 
L 149.241485 246.317268 
L 149.638373 274.836293 
L 150.035261 293.521171 
L 150.432149 257.134829 
L 150.829038 242.875317 
L 151.225926 210.422634 
L 151.622814 241.400195 
L 152.019702 220.25678 
L 152.41659 290.570927 
L 152.813479 278.769951 
L 153.210367 223.207024 
L 153.607255 246.317268 
L 154.004143 244.842146 
L 154.401031 224.682146 
L 154.79792 234.024585 
L 155.194808 237.466537 
L 155.591696 222.715317 
L 155.988584 239.925073 
L 156.385472 235.499707 
L 156.782361 279.261659 
L 157.179249 256.151415 
L 157.576137 266.477268 
L 157.973025 213.864585 
L 158.369913 239.925073 
L 158.766802 230.582634 
L 159.16369 237.958244 
L 159.560578 233.532878 
L 159.957466 234.024585 
L 160.354354 222.715317 
L 161.148131 235.991415 
L 161.545019 224.190439 
L 161.941907 285.162146 
L 162.338795 217.798244 
L 162.735683 219.765073 
L 163.132572 216.323122 
L 163.52946 227.140683 
L 163.926348 227.140683 
L 164.323236 216.323122 
L 164.720124 216.814829 
L 165.117013 241.400195 
L 165.513901 216.814829 
L 165.910789 282.211902 
L 166.307677 230.090927 
L 166.704565 232.549463 
L 167.101454 259.101659 
L 167.498342 214.356293 
L 167.89523 234.024585 
L 168.292118 243.367024 
L 168.689006 183.378732 
L 169.085895 289.095805 
L 169.482783 285.162146 
L 169.879671 207.964098 
L 170.276559 244.350439 
L 170.673447 249.75922 
L 171.070336 217.306537 
L 171.467224 213.372878 
L 171.864112 233.041171 
L 172.261 279.753366 
L 172.657888 279.753366 
L 173.054777 224.190439 
L 173.451665 239.433366 
L 173.848553 223.698732 
L 174.245441 241.400195 
L 174.642329 213.864585 
L 175.039218 270.902634 
L 175.436106 207.964098 
L 175.832994 218.289951 
L 176.229882 265.493854 
L 176.62677 243.367024 
L 177.023659 241.400195 
L 177.420547 274.836293 
L 177.817435 290.570927 
L 178.214323 252.217756 
L 178.611211 233.041171 
L 179.0081 228.124098 
L 179.404988 292.046049 
L 179.801876 266.477268 
L 180.198764 212.881171 
L 180.595652 230.090927 
L 180.992541 225.173854 
L 181.389429 224.682146 
L 181.786317 274.344585 
L 182.183205 252.709463 
L 182.580093 244.842146 
L 182.976982 292.046049 
L 183.37387 230.582634 
L 183.770758 241.891902 
L 184.167646 238.449951 
L 184.564534 292.046049 
L 184.961423 274.344585 
L 185.358311 272.377756 
L 185.755199 266.477268 
L 186.152087 271.394341 
L 186.548975 212.389463 
L 186.945864 252.217756 
L 187.342752 248.775805 
L 187.73964 294.012878 
L 188.136528 250.250927 
L 188.533416 241.891902 
L 189.327193 217.306537 
L 189.724081 291.554341 
L 190.120969 211.897756 
L 190.517857 178.461659 
L 190.914745 235.008 
L 191.311634 200.09678 
L 191.708522 281.720195 
L 192.10541 247.79239 
L 192.502298 223.698732 
L 192.899186 247.300683 
L 193.692963 233.041171 
L 194.089851 242.38361 
L 194.486739 239.433366 
L 194.883627 229.107512 
L 195.280516 233.532878 
L 195.677404 241.891902 
L 196.074292 261.560195 
L 196.47118 246.317268 
L 196.868068 192.229463 
L 197.264957 231.566049 
L 197.661845 229.59922 
L 198.058733 223.207024 
L 198.455621 294.012878 
L 198.852509 244.350439 
L 199.646286 224.682146 
L 200.043174 291.062634 
L 200.440062 231.566049 
L 200.83695 201.080195 
L 201.233839 234.516293 
L 201.630727 279.753366 
L 202.027615 292.046049 
L 202.424503 229.59922 
L 202.821391 228.615805 
L 203.21828 242.38361 
L 203.615168 242.875317 
L 204.012056 214.356293 
L 204.408944 285.653854 
L 204.805832 217.798244 
L 205.202721 236.974829 
L 205.599609 246.317268 
L 205.996497 135.683122 
L 206.393385 242.38361 
L 206.790273 270.902634 
L 207.187162 223.207024 
L 207.58405 223.698732 
L 207.980938 225.665561 
L 208.377826 207.964098 
L 208.774714 279.753366 
L 209.568491 162.235317 
L 209.965379 223.698732 
L 210.362267 228.124098 
L 210.759155 280.73678 
L 211.156044 230.090927 
L 211.552932 240.41678 
L 211.94982 245.825561 
L 212.346708 238.449951 
L 212.743596 243.367024 
L 213.140485 193.212878 
L 213.537373 222.22361 
L 213.934261 235.991415 
L 214.331149 241.891902 
L 214.728037 292.537756 
L 215.124926 228.124098 
L 215.521814 210.914341 
L 215.918702 224.190439 
L 216.31559 244.350439 
L 216.712478 294.012878 
L 217.109367 283.687024 
L 217.506255 210.422634 
L 218.300031 293.521171 
L 218.696919 202.06361 
L 219.093808 259.593366 
L 219.490696 279.261659 
L 219.887584 235.991415 
L 220.284472 223.207024 
L 220.68136 195.179707 
L 221.078248 241.891902 
L 221.475137 238.941659 
L 221.872025 275.819707 
L 222.268913 236.974829 
L 222.665801 220.25678 
L 223.062689 290.570927 
L 223.856466 195.179707 
L 224.253354 207.47239 
L 224.650242 236.974829 
L 225.04713 292.046049 
L 225.444019 230.582634 
L 225.840907 202.06361 
L 226.237795 204.030439 
L 226.634683 149.942634 
L 227.031571 245.333854 
L 227.42846 206.488976 
L 227.825348 205.013854 
L 228.222236 224.682146 
L 228.619124 212.389463 
L 229.016012 227.140683 
L 229.412901 196.163122 
L 229.809789 233.532878 
L 230.206677 231.566049 
L 230.603565 124.865561 
L 231.000453 261.560195 
L 231.397342 199.113366 
L 231.79423 217.798244 
L 232.191118 261.560195 
L 232.984894 234.024585 
L 233.381783 287.128976 
L 233.778671 191.246049 
L 234.175559 212.881171 
L 234.969335 238.449951 
L 235.366224 201.571902 
L 235.763112 226.157268 
L 236.16 238.941659 
L 236.556888 291.062634 
L 236.953776 186.820683 
L 237.350665 162.235317 
L 237.747553 209.930927 
L 238.144441 204.522146 
L 238.541329 283.687024 
L 238.938217 246.317268 
L 239.335106 228.124098 
L 239.731994 291.554341 
L 240.128882 223.698732 
L 240.52577 191.246049 
L 240.922658 214.848 
L 241.319547 231.566049 
L 241.716435 212.389463 
L 242.113323 223.207024 
L 242.510211 243.367024 
L 242.907099 218.289951 
L 243.303988 236.974829 
L 243.700876 178.953366 
L 244.097764 248.284098 
L 244.494652 188.787512 
L 245.288429 232.057756 
L 245.685317 232.057756 
L 246.082205 241.891902 
L 246.479093 161.74361 
L 246.875981 232.549463 
L 247.27287 239.925073 
L 247.669758 96.346537 
L 248.066646 209.43922 
L 248.463534 235.991415 
L 248.860422 160.268488 
L 249.257311 216.323122 
L 249.654199 228.124098 
L 250.051087 157.809951 
L 250.447975 226.648976 
L 250.844863 138.141659 
L 251.241752 229.107512 
L 251.63864 227.140683 
L 252.035528 195.179707 
L 252.432416 232.549463 
L 252.829304 240.41678 
L 253.226192 235.991415 
L 254.019969 64.385561 
L 254.416857 230.582634 
L 254.813745 221.731902 
L 255.210633 143.058732 
L 255.607522 143.058732 
L 256.00441 232.057756 
L 256.401298 219.765073 
L 256.798186 188.295805 
L 257.195074 204.030439 
L 257.591963 246.317268 
L 257.988851 234.024585 
L 258.385739 230.090927 
L 258.782627 244.842146 
L 259.179515 278.278244 
L 259.973292 178.461659 
L 260.37018 213.864585 
L 260.767068 152.892878 
L 261.163956 228.615805 
L 261.560845 232.549463 
L 261.957733 229.107512 
L 262.354621 239.433366 
L 262.751509 235.008 
L 263.148397 284.178732 
L 263.545286 227.140683 
L 263.942174 211.897756 
L 264.339062 209.43922 
L 264.73595 226.157268 
L 265.132838 230.582634 
L 265.529727 212.881171 
L 265.926615 200.588488 
L 266.323503 278.769951 
L 266.720391 201.080195 
L 267.117279 231.566049 
L 267.514168 201.571902 
L 267.911056 234.516293 
L 268.307944 236.483122 
L 268.704832 231.566049 
L 269.10172 210.914341 
L 269.498609 199.113366 
L 269.895497 231.074341 
L 270.292385 230.582634 
L 270.689273 238.941659 
L 271.086161 240.41678 
L 271.48305 202.06361 
L 271.879938 231.074341 
L 272.276826 228.124098 
L 272.673714 179.93678 
L 273.070602 293.029463 
L 273.467491 226.157268 
L 273.864379 230.582634 
L 274.658155 183.870439 
L 275.055043 216.814829 
L 275.451932 206.980683 
L 275.84882 231.566049 
L 276.245708 221.731902 
L 276.642596 237.466537 
L 277.039484 137.649951 
L 277.436373 229.107512 
L 277.833261 228.124098 
L 278.627037 193.704585 
L 279.023925 231.566049 
L 279.420814 213.372878 
L 279.817702 229.107512 
L 280.21459 226.157268 
L 281.008366 209.930927 
L 281.405255 189.27922 
L 281.802143 180.920195 
L 282.595919 221.240195 
L 282.992807 165.185561 
L 283.389695 232.057756 
L 284.183472 175.511415 
L 284.58036 148.467512 
L 285.374136 275.819707 
L 285.771025 237.466537 
L 286.167913 235.991415 
L 286.564801 219.273366 
L 286.961689 211.406049 
L 287.358577 221.731902 
L 287.755466 196.654829 
L 288.152354 203.538732 
L 288.549242 229.59922 
L 288.94613 272.377756 
L 289.343018 232.057756 
L 289.739907 241.400195 
L 290.136795 191.737756 
L 290.533683 234.024585 
L 290.930571 232.057756 
L 291.327459 209.43922 
L 291.724348 231.074341 
L 292.121236 237.466537 
L 292.518124 200.588488 
L 292.915012 193.212878 
L 293.3119 195.179707 
L 293.708789 230.582634 
L 294.105677 217.306537 
L 294.502565 229.59922 
L 294.899453 292.046049 
L 295.296341 218.781659 
L 295.69323 240.41678 
L 296.090118 237.466537 
L 296.487006 227.140683 
L 296.883894 211.897756 
L 297.280782 238.941659 
L 297.677671 229.107512 
L 298.074559 214.356293 
L 298.471447 240.908488 
L 298.868335 214.848 
L 299.265223 219.765073 
L 299.662112 168.627512 
L 300.059 294.012878 
L 300.455888 228.124098 
L 300.852776 110.606049 
L 301.249664 219.273366 
L 301.646553 234.024585 
L 302.043441 209.43922 
L 302.440329 224.190439 
L 302.837217 214.356293 
L 303.234105 229.59922 
L 303.630994 199.605073 
L 304.027882 230.090927 
L 304.42477 182.395317 
L 305.218546 283.687024 
L 305.615435 230.090927 
L 306.012323 232.057756 
L 306.806099 195.671415 
L 307.202987 235.008 
L 307.599876 242.875317 
L 307.996764 234.516293 
L 308.393652 176.494829 
L 309.187428 233.041171 
L 309.584317 245.825561 
L 309.981205 289.095805 
L 310.378093 234.516293 
L 310.774981 218.781659 
L 311.171869 240.908488 
L 311.568758 232.057756 
L 311.965646 233.532878 
L 312.362534 215.831415 
L 312.759422 234.516293 
L 313.15631 230.582634 
L 313.553198 221.240195 
L 313.950087 292.537756 
L 314.346975 223.207024 
L 314.743863 217.798244 
L 315.140751 221.731902 
L 315.537639 223.207024 
L 315.934528 219.765073 
L 316.331416 234.024585 
L 316.728304 292.046049 
L 317.125192 229.107512 
L 317.52208 284.178732 
L 317.918969 230.090927 
L 318.315857 228.615805 
L 318.712745 241.400195 
L 319.109633 227.63239 
L 319.506521 209.930927 
L 319.90341 230.090927 
L 320.300298 220.748488 
L 320.697186 219.273366 
L 321.094074 229.59922 
L 321.490962 225.173854 
L 321.887851 230.582634 
L 322.284739 226.648976 
L 322.681627 218.289951 
L 323.078515 221.240195 
L 323.475403 220.748488 
L 323.872292 228.615805 
L 324.666068 219.273366 
L 325.062956 230.090927 
L 325.459844 222.715317 
L 325.856733 224.682146 
L 326.253621 230.090927 
L 326.650509 242.38361 
L 327.047397 226.157268 
L 327.444285 225.173854 
L 327.841174 229.59922 
L 328.238062 230.582634 
L 328.63495 215.831415 
L 329.031838 218.781659 
L 329.428726 230.090927 
L 329.825615 231.074341 
L 330.222503 190.262634 
L 331.016279 231.074341 
L 331.413167 199.605073 
L 331.810056 235.991415 
L 332.603832 220.748488 
L 333.00072 218.781659 
L 333.794497 222.715317 
L 334.191385 215.831415 
L 334.588273 230.582634 
L 334.985161 227.140683 
L 335.382049 227.63239 
L 335.778938 229.107512 
L 336.175826 241.400195 
L 336.572714 226.648976 
L 336.969602 217.798244 
L 337.36649 219.765073 
L 337.763379 223.698732 
L 338.160267 289.095805 
L 338.557155 223.698732 
L 338.954043 219.273366 
L 339.350931 225.173854 
L 339.74782 198.621659 
L 340.144708 219.765073 
L 340.541596 219.765073 
L 340.938484 210.422634 
L 341.732261 224.190439 
L 342.129149 217.798244 
L 342.526037 223.207024 
L 342.922925 217.798244 
L 343.319813 222.22361 
L 344.11359 213.864585 
L 344.510478 213.372878 
L 344.907366 221.731902 
L 345.304254 219.765073 
L 345.701142 220.25678 
L 346.098031 217.306537 
L 346.494919 221.240195 
L 346.891807 221.240195 
L 347.288695 211.406049 
L 347.685583 221.240195 
L 348.082472 193.704585 
L 348.47936 215.339707 
L 348.876248 218.781659 
L 349.273136 208.947512 
L 349.670024 215.831415 
L 350.066913 224.682146 
L 350.463801 236.974829 
L 350.860689 209.930927 
L 351.257577 212.389463 
L 351.654465 217.306537 
L 352.051354 293.521171 
L 352.448242 216.814829 
L 353.242018 204.030439 
L 353.638906 218.289951 
L 354.035795 201.080195 
L 354.432683 213.864585 
L 354.829571 210.914341 
L 355.226459 216.323122 
L 355.623347 208.455805 
L 356.020236 214.848 
L 356.417124 206.488976 
L 356.814012 213.864585 
L 357.2109 188.787512 
L 357.607788 209.930927 
L 358.004677 180.428488 
L 358.401565 210.914341 
L 358.798453 207.47239 
L 359.195341 211.897756 
L 359.592229 206.488976 
L 359.989118 208.947512 
L 360.386006 193.212878 
L 360.782894 209.930927 
L 361.179782 211.897756 
L 361.57667 204.522146 
L 361.973559 211.406049 
L 362.370447 207.47239 
L 362.767335 205.997268 
L 363.164223 200.09678 
L 363.561111 210.914341 
L 363.958 204.030439 
L 364.354888 201.080195 
L 364.751776 203.047024 
L 365.148664 207.964098 
L 365.545552 206.488976 
L 365.942441 195.671415 
L 366.339329 201.080195 
L 366.736217 198.621659 
L 367.133105 205.013854 
L 367.529993 203.047024 
L 368.32377 192.721171 
L 368.720658 204.522146 
L 369.117546 159.285073 
L 369.514434 186.328976 
L 369.911323 182.395317 
L 370.308211 196.163122 
L 370.705099 192.721171 
L 371.101987 193.212878 
L 371.498875 187.804098 
L 371.895764 188.295805 
L 372.292652 185.345561 
L 372.68954 190.754341 
L 373.086428 181.411902 
L 373.483316 194.196293 
L 373.880204 182.887024 
L 374.277093 183.870439 
L 374.673981 190.754341 
L 375.070869 195.179707 
L 375.467757 173.544585 
L 375.864645 180.920195 
L 376.261534 177.478244 
L 376.658422 177.969951 
L 377.05531 175.511415 
L 377.452198 161.74361 
L 377.849086 151.909463 
L 378.245975 182.887024 
L 378.642863 170.594341 
L 379.039751 179.445073 
L 379.436639 138.633366 
L 379.833527 163.218732 
L 380.627304 171.577756 
L 381.42108 164.693854 
L 381.817968 170.102634 
L 382.214857 149.450927 
L 382.611745 169.610927 
L 383.008633 160.760195 
L 383.405521 147.484098 
L 383.802409 168.135805 
L 384.199298 132.241171 
L 384.596186 143.058732 
L 384.993074 157.809951 
L 385.389962 146.500683 
L 385.78685 154.859707 
L 386.183739 173.544585 
L 386.580627 159.285073 
L 386.977515 172.069463 
L 387.374403 153.876293 
L 387.771291 174.528 
L 388.16818 136.174829 
L 388.565068 137.649951 
L 388.961956 145.025561 
L 389.358844 169.11922 
L 389.755732 133.224585 
L 390.152621 146.99239 
L 390.946397 113.064585 
L 391.343285 132.241171 
L 391.740173 132.241171 
L 392.137062 110.606049 
L 392.53395 135.191415 
L 392.930838 118.965073 
L 393.327726 130.766049 
L 393.724614 128.79922 
L 394.121503 111.589463 
L 394.518391 88.47922 
L 394.915279 97.329951 
L 395.312167 101.755317 
L 395.709055 58.485073 
L 396.105944 119.948488 
L 396.502832 53.568 
L 396.89972 88.47922 
L 397.296608 104.213854 
L 397.693496 79.13678 
L 398.090385 76.678244 
L 398.487273 53.568 
L 398.487273 53.568 
" clip-path="url(#p300a9fbe1d)" style="fill: none; stroke: #1f77b4; stroke-width: 1.5; stroke-linecap: square"/>
   </g>
   <g id="patch_3">
    <path d="M 57.6 307.584 
L 57.6 41.472 
" style="fill: none; stroke: #000000; stroke-width: 0.8; stroke-linejoin: miter; stroke-linecap: square"/>
   </g>
   <g id="patch_4">
    <path d="M 414.72 307.584 
L 414.72 41.472 
" style="fill: none; stroke: #000000; stroke-width: 0.8; stroke-linejoin: miter; stroke-linecap: square"/>
   </g>
   <g id="patch_5">
    <path d="M 57.6 307.584 
L 414.72 307.584 
" style="fill: none; stroke: #000000; stroke-width: 0.8; stroke-linejoin: miter; stroke-linecap: square"/>
   </g>
   <g id="patch_6">
    <path d="M 57.6 41.472 
L 414.72 41.472 
" style="fill: none; stroke: #000000; stroke-width: 0.8; stroke-linejoin: miter; stroke-linecap: square"/>
   </g>
  </g>
 </g>
 <defs>
  <clipPath id="p300a9fbe1d">
   <rect x="57.6" y="41.472" width="357.12" height="266.112"/>
  </clipPath>
 </defs>
</svg>
