<?xml version="1.0" encoding="utf-8" standalone="no"?>
<!DOCTYPE svg PUBLIC "-//W3C//DTD SVG 1.1//EN"
  "http://www.w3.org/Graphics/SVG/1.1/DTD/svg11.dtd">
<svg xmlns:xlink="http://www.w3.org/1999/xlink" width="460.8pt" height="345.6pt" viewBox="0 0 460.8 345.6" xmlns="http://www.w3.org/2000/svg" version="1.1">
 <metadata>
  <rdf:RDF xmlns:dc="http://purl.org/dc/elements/1.1/" xmlns:cc="http://creativecommons.org/ns#" xmlns:rdf="http://www.w3.org/1999/02/22-rdf-syntax-ns#">
   <cc:Work>
    <dc:type rdf:resource="http://purl.org/dc/dcmitype/StillImage"/>
    <dc:date>2026-04-19T21:17:42.991826</dc:date>
    <dc:format>image/svg+xml</dc:format>
    <dc:creator>
     <cc:Agent>
      <dc:title>Matplotlib v3.10.8, https://matplotlib.org/</dc:title>
     </cc:Agent>
    </dc:creator>
   </cc:Work>
  </rdf:RDF>
 </metadata>
 <defs>
  <style type="text/css">*{stroke-linejoin: round; stroke-linecap: butt}</style>
 </defs>
 <g id="figure_1">
  <g id="patch_1">
   <path d="M 0 345.6 
L 460.8 345.6 
L 460.8 0 
L 0 0 
z
" style="fill: #ffffff"/>
  </g>
  <g id="axes_1">
   <g id="patch_2">
    <path d="M 57.6 307.584 
L 414.72 307.584 
L 414.72 41.472 
L 57.6 41.472 
z
" style="fill: #ffffff"/>
   </g>
   <g id="matplotlib.axis_1">
    <g id="xtick_1">
     <g id="line2d_1">
      <defs>
       <path id="m6669109bc5" d="M 0 0 
L 0 3.5 
" style="stroke: #000000; stroke-width: 0.8"/>
      </defs>
      <g>
       <use xlink:href="#m6669109bc5" x="73.832727" y="307.584" style="stroke: #000000; stroke-width: 0.8"/>
      </g>
     </g>
     <g id="text_1">
      <!-- 0 -->
      <g transform="translate(70.651477 322.182437) scale(0.1 -0.1)">
       <defs>
        <path id="DejaVuSans-30" d="M 2034 4250 
Q 1547 4250 1301 3770 
Q 1056 3291 1056 2328 
Q 1056 1369 1301 889 
Q 1547 409 2034 409 
Q 2525 409 2770 889 
Q 3016 1369 3016 2328 
Q 3016 3291 2770 3770 
Q 2525 4250 2034 4250 
z
M 2034 4750 
Q 2819 4750 3233 4129 
Q 3647 3509 3647 2328 
Q 3647 1150 3233 529 
Q 2819 -91 2034 -91 
Q 1250 -91 836 529 
Q 422 1150 422 2328 
Q 422 3509 836 4129 
Q 1250 4750 2034 4750 
z
" transform="scale(0.015625)"/>
       </defs>
       <use xlink:href="#DejaVuSans-30"/>
      </g>
     </g>
    </g>
    <g id="xtick_2">
     <g id="line2d_2">
      <g>
       <use xlink:href="#m6669109bc5" x="114.516254" y="307.584" style="stroke: #000000; stroke-width: 0.8"/>
      </g>
     </g>
     <g id="text_2">
      <!-- 50 -->
      <g transform="translate(108.153754 322.182437) scale(0.1 -0.1)">
       <defs>
        <path id="DejaVuSans-35" d="M 691 4666 
L 3169 4666 
L 3169 4134 
L 1269 4134 
L 1269 2991 
Q 1406 3038 1543 3061 
Q 1681 3084 1819 3084 
Q 2600 3084 3056 2656 
Q 3513 2228 3513 1497 
Q 3513 744 3044 326 
Q 2575 -91 1722 -91 
Q 1428 -91 1123 -41 
Q 819 9 494 109 
L 494 744 
Q 775 591 1075 516 
Q 1375 441 1709 441 
Q 2250 441 2565 725 
Q 2881 1009 2881 1497 
Q 2881 1984 2565 2268 
Q 2250 2553 1709 2553 
Q 1456 2553 1204 2497 
Q 953 2441 691 2322 
L 691 4666 
z
" transform="scale(0.015625)"/>
       </defs>
       <use xlink:href="#DejaVuSans-35"/>
       <use xlink:href="#DejaVuSans-30" transform="translate(63.623047 0)"/>
      </g>
     </g>
    </g>
    <g id="xtick_3">
     <g id="line2d_3">
      <g>
       <use xlink:href="#m6669109bc5" x="155.199781" y="307.584" style="stroke: #000000; stroke-width: 0.8"/>
      </g>
     </g>
     <g id="text_3">
      <!-- 100 -->
      <g transform="translate(145.656031 322.182437) scale(0.1 -0.1)">
       <defs>
        <path id="DejaVuSans-31" d="M 794 531 
L 1825 531 
L 1825 4091 
L 703 3866 
L 703 4441 
L 1819 4666 
L 2450 4666 
L 2450 531 
L 3481 531 
L 3481 0 
L 794 0 
L 794 531 
z
" transform="scale(0.015625)"/>
       </defs>
       <use xlink:href="#DejaVuSans-31"/>
       <use xlink:href="#DejaVuSans-30" transform="translate(63.623047 0)"/>
       <use xlink:href="#DejaVuSans-30" transform="translate(127.246094 0)"/>
      </g>
     </g>
    </g>
    <g id="xtick_4">
     <g id="line2d_4">
      <g>
       <use xlink:href="#m6669109bc5" x="195.883308" y="307.584" style="stroke: #000000; stroke-width: 0.8"/>
      </g>
     </g>
     <g id="text_4">
      <!-- 150 -->
      <g transform="translate(186.339558 322.182437) scale(0.1 -0.1)">
       <use xlink:href="#DejaVuSans-31"/>
       <use xlink:href="#DejaVuSans-35" transform="translate(63.623047 0)"/>
       <use xlink:href="#DejaVuSans-30" transform="translate(127.246094 0)"/>
      </g>
     </g>
    </g>
    <g id="xtick_5">
     <g id="line2d_5">
      <g>
       <use xlink:href="#m6669109bc5" x="236.566835" y="307.584" style="stroke: #000000; stroke-width: 0.8"/>
      </g>
     </g>
     <g id="text_5">
      <!-- 200 -->
      <g transform="translate(227.023085 322.182437) scale(0.1 -0.1)">
       <defs>
        <path id="DejaVuSans-32" d="M 1228 531 
L 3431 531 
L 3431 0 
L 469 0 
L 469 531 
Q 828 903 1448 1529 
Q 2069 2156 2228 2338 
Q 2531 2678 2651 2914 
Q 2772 3150 2772 3378 
Q 2772 3750 2511 3984 
Q 2250 4219 1831 4219 
Q 1534 4219 1204 4116 
Q 875 4013 500 3803 
L 500 4441 
Q 881 4594 1212 4672 
Q 1544 4750 1819 4750 
Q 2544 4750 2975 4387 
Q 3406 4025 3406 3419 
Q 3406 3131 3298 2873 
Q 3191 2616 2906 2266 
Q 2828 2175 2409 1742 
Q 1991 1309 1228 531 
z
" transform="scale(0.015625)"/>
       </defs>
       <use xlink:href="#DejaVuSans-32"/>
       <use xlink:href="#DejaVuSans-30" transform="translate(63.623047 0)"/>
       <use xlink:href="#DejaVuSans-30" transform="translate(127.246094 0)"/>
      </g>
     </g>
    </g>
    <g id="xtick_6">
     <g id="line2d_6">
      <g>
       <use xlink:href="#m6669109bc5" x="277.250362" y="307.584" style="stroke: #000000; stroke-width: 0.8"/>
      </g>
     </g>
     <g id="text_6">
      <!-- 250 -->
      <g transform="translate(267.706612 322.182437) scale(0.1 -0.1)">
       <use xlink:href="#DejaVuSans-32"/>
       <use xlink:href="#DejaVuSans-35" transform="translate(63.623047 0)"/>
       <use xlink:href="#DejaVuSans-30" transform="translate(127.246094 0)"/>
      </g>
     </g>
    </g>
    <g id="xtick_7">
     <g id="line2d_7">
      <g>
       <use xlink:href="#m6669109bc5" x="317.933889" y="307.584" style="stroke: #000000; stroke-width: 0.8"/>
      </g>
     </g>
     <g id="text_7">
      <!-- 300 -->
      <g transform="translate(308.390139 322.182437) scale(0.1 -0.1)">
       <defs>
        <path id="DejaVuSans-33" d="M 2597 2516 
Q 3050 2419 3304 2112 
Q 3559 1806 3559 1356 
Q 3559 666 3084 287 
Q 2609 -91 1734 -91 
Q 1441 -91 1130 -33 
Q 819 25 488 141 
L 488 750 
Q 750 597 1062 519 
Q 1375 441 1716 441 
Q 2309 441 2620 675 
Q 2931 909 2931 1356 
Q 2931 1769 2642 2001 
Q 2353 2234 1838 2234 
L 1294 2234 
L 1294 2753 
L 1863 2753 
Q 2328 2753 2575 2939 
Q 2822 3125 2822 3475 
Q 2822 3834 2567 4026 
Q 2313 4219 1838 4219 
Q 1578 4219 1281 4162 
Q 984 4106 628 3988 
L 628 4550 
Q 988 4650 1302 4700 
Q 1616 4750 1894 4750 
Q 2613 4750 3031 4423 
Q 3450 4097 3450 3541 
Q 3450 3153 3228 2886 
Q 3006 2619 2597 2516 
z
" transform="scale(0.015625)"/>
       </defs>
       <use xlink:href="#DejaVuSans-33"/>
       <use xlink:href="#DejaVuSans-30" transform="translate(63.623047 0)"/>
       <use xlink:href="#DejaVuSans-30" transform="translate(127.246094 0)"/>
      </g>
     </g>
    </g>
    <g id="xtick_8">
     <g id="line2d_8">
      <g>
       <use xlink:href="#m6669109bc5" x="358.617416" y="307.584" style="stroke: #000000; stroke-width: 0.8"/>
      </g>
     </g>
     <g id="text_8">
      <!-- 350 -->
      <g transform="translate(349.073666 322.182437) scale(0.1 -0.1)">
       <use xlink:href="#DejaVuSans-33"/>
       <use xlink:href="#DejaVuSans-35" transform="translate(63.623047 0)"/>
       <use xlink:href="#DejaVuSans-30" transform="translate(127.246094 0)"/>
      </g>
     </g>
    </g>
    <g id="xtick_9">
     <g id="line2d_9">
      <g>
       <use xlink:href="#m6669109bc5" x="399.300943" y="307.584" style="stroke: #000000; stroke-width: 0.8"/>
      </g>
     </g>
     <g id="text_9">
      <!-- 400 -->
      <g transform="translate(389.757193 322.182437) scale(0.1 -0.1)">
       <defs>
        <path id="DejaVuSans-34" d="M 2419 4116 
L 825 1625 
L 2419 1625 
L 2419 4116 
z
M 2253 4666 
L 3047 4666 
L 3047 1625 
L 3713 1625 
L 3713 1100 
L 3047 1100 
L 3047 0 
L 2419 0 
L 2419 1100 
L 313 1100 
L 313 1709 
L 2253 4666 
z
" transform="scale(0.015625)"/>
       </defs>
       <use xlink:href="#DejaVuSans-34"/>
       <use xlink:href="#DejaVuSans-30" transform="translate(63.623047 0)"/>
       <use xlink:href="#DejaVuSans-30" transform="translate(127.246094 0)"/>
      </g>
     </g>
    </g>
    <g id="text_10">
     <!-- Episode # -->
     <g transform="translate(210.743594 335.860562) scale(0.1 -0.1)">
      <defs>
       <path id="DejaVuSans-45" d="M 628 4666 
L 3578 4666 
L 3578 4134 
L 1259 4134 
L 1259 2753 
L 3481 2753 
L 3481 2222 
L 1259 2222 
L 1259 531 
L 3634 531 
L 3634 0 
L 628 0 
L 628 4666 
z
" transform="scale(0.015625)"/>
       <path id="DejaVuSans-70" d="M 1159 525 
L 1159 -1331 
L 581 -1331 
L 581 3500 
L 1159 3500 
L 1159 2969 
Q 1341 3281 1617 3432 
Q 1894 3584 2278 3584 
Q 2916 3584 3314 3078 
Q 3713 2572 3713 1747 
Q 3713 922 3314 415 
Q 2916 -91 2278 -91 
Q 1894 -91 1617 61 
Q 1341 213 1159 525 
z
M 3116 1747 
Q 3116 2381 2855 2742 
Q 2594 3103 2138 3103 
Q 1681 3103 1420 2742 
Q 1159 2381 1159 1747 
Q 1159 1113 1420 752 
Q 1681 391 2138 391 
Q 2594 391 2855 752 
Q 3116 1113 3116 1747 
z
" transform="scale(0.015625)"/>
       <path id="DejaVuSans-69" d="M 603 3500 
L 1178 3500 
L 1178 0 
L 603 0 
L 603 3500 
z
M 603 4863 
L 1178 4863 
L 1178 4134 
L 603 4134 
L 603 4863 
z
" transform="scale(0.015625)"/>
       <path id="DejaVuSans-73" d="M 2834 3397 
L 2834 2853 
Q 2591 2978 2328 3040 
Q 2066 3103 1784 3103 
Q 1356 3103 1142 2972 
Q 928 2841 928 2578 
Q 928 2378 1081 2264 
Q 1234 2150 1697 2047 
L 1894 2003 
Q 2506 1872 2764 1633 
Q 3022 1394 3022 966 
Q 3022 478 2636 193 
Q 2250 -91 1575 -91 
Q 1294 -91 989 -36 
Q 684 19 347 128 
L 347 722 
Q 666 556 975 473 
Q 1284 391 1588 391 
Q 1994 391 2212 530 
Q 2431 669 2431 922 
Q 2431 1156 2273 1281 
Q 2116 1406 1581 1522 
L 1381 1569 
Q 847 1681 609 1914 
Q 372 2147 372 2553 
Q 372 3047 722 3315 
Q 1072 3584 1716 3584 
Q 2034 3584 2315 3537 
Q 2597 3491 2834 3397 
z
" transform="scale(0.015625)"/>
       <path id="DejaVuSans-6f" d="M 1959 3097 
Q 1497 3097 1228 2736 
Q 959 2375 959 1747 
Q 959 1119 1226 758 
Q 1494 397 1959 397 
Q 2419 397 2687 759 
Q 2956 1122 2956 1747 
Q 2956 2369 2687 2733 
Q 2419 3097 1959 3097 
z
M 1959 3584 
Q 2709 3584 3137 3096 
Q 3566 2609 3566 1747 
Q 3566 888 3137 398 
Q 2709 -91 1959 -91 
Q 1206 -91 779 398 
Q 353 888 353 1747 
Q 353 2609 779 3096 
Q 1206 3584 1959 3584 
z
" transform="scale(0.015625)"/>
       <path id="DejaVuSans-64" d="M 2906 2969 
L 2906 4863 
L 3481 4863 
L 3481 0 
L 2906 0 
L 2906 525 
Q 2725 213 2448 61 
Q 2172 -91 1784 -91 
Q 1150 -91 751 415 
Q 353 922 353 1747 
Q 353 2572 751 3078 
Q 1150 3584 1784 3584 
Q 2172 3584 2448 3432 
Q 2725 3281 2906 2969 
z
M 947 1747 
Q 947 1113 1208 752 
Q 1469 391 1925 391 
Q 2381 391 2643 752 
Q 2906 1113 2906 1747 
Q 2906 2381 2643 2742 
Q 2381 3103 1925 3103 
Q 1469 3103 1208 2742 
Q 947 2381 947 1747 
z
" transform="scale(0.015625)"/>
       <path id="DejaVuSans-65" d="M 3597 1894 
L 3597 1613 
L 953 1613 
Q 991 1019 1311 708 
Q 1631 397 2203 397 
Q 2534 397 2845 478 
Q 3156 559 3463 722 
L 3463 178 
Q 3153 47 2828 -22 
Q 2503 -91 2169 -91 
Q 1331 -91 842 396 
Q 353 884 353 1716 
Q 353 2575 817 3079 
Q 1281 3584 2069 3584 
Q 2775 3584 3186 3129 
Q 3597 2675 3597 1894 
z
M 3022 2063 
Q 3016 2534 2758 2815 
Q 2500 3097 2075 3097 
Q 1594 3097 1305 2825 
Q 1016 2553 972 2059 
L 3022 2063 
z
" transform="scale(0.015625)"/>
       <path id="DejaVuSans-20" transform="scale(0.015625)"/>
       <path id="DejaVuSans-23" d="M 3272 2816 
L 2363 2816 
L 2100 1772 
L 3016 1772 
L 3272 2816 
z
M 2803 4594 
L 2478 3297 
L 3391 3297 
L 3719 4594 
L 4219 4594 
L 3897 3297 
L 4872 3297 
L 4872 2816 
L 3775 2816 
L 3519 1772 
L 4513 1772 
L 4513 1294 
L 3397 1294 
L 3072 0 
L 2572 0 
L 2894 1294 
L 1978 1294 
L 1656 0 
L 1153 0 
L 1478 1294 
L 494 1294 
L 494 1772 
L 1594 1772 
L 1856 2816 
L 850 2816 
L 850 3297 
L 1978 3297 
L 2297 4594 
L 2803 4594 
z
" transform="scale(0.015625)"/>
      </defs>
      <use xlink:href="#DejaVuSans-45"/>
      <use xlink:href="#DejaVuSans-70" transform="translate(63.183594 0)"/>
      <use xlink:href="#DejaVuSans-69" transform="translate(126.660156 0)"/>
      <use xlink:href="#DejaVuSans-73" transform="translate(154.443359 0)"/>
      <use xlink:href="#DejaVuSans-6f" transform="translate(206.542969 0)"/>
      <use xlink:href="#DejaVuSans-64" transform="translate(267.724609 0)"/>
      <use xlink:href="#DejaVuSans-65" transform="translate(331.201172 0)"/>
      <use xlink:href="#DejaVuSans-20" transform="translate(392.724609 0)"/>
      <use xlink:href="#DejaVuSans-23" transform="translate(424.511719 0)"/>
     </g>
    </g>
   </g>
   <g id="matplotlib.axis_2">
    <g id="ytick_1">
     <g id="line2d_10">
      <defs>
       <path id="m0545120b78" d="M 0 0 
L -3.5 0 
" style="stroke: #000000; stroke-width: 0.8"/>
      </defs>
      <g>
       <use xlink:href="#m0545120b78" x="57.6" y="299.421659" style="stroke: #000000; stroke-width: 0.8"/>
      </g>
     </g>
     <g id="text_11">
      <!-- 0 -->
      <g transform="translate(44.2375 303.220877) scale(0.1 -0.1)">
       <use xlink:href="#DejaVuSans-30"/>
      </g>
     </g>
    </g>
    <g id="ytick_2">
     <g id="line2d_11">
      <g>
       <use xlink:href="#m0545120b78" x="57.6" y="250.250927" style="stroke: #000000; stroke-width: 0.8"/>
      </g>
     </g>
     <g id="text_12">
      <!-- 100 -->
      <g transform="translate(31.5125 254.050146) scale(0.1 -0.1)">
       <use xlink:href="#DejaVuSans-31"/>
       <use xlink:href="#DejaVuSans-30" transform="translate(63.623047 0)"/>
       <use xlink:href="#DejaVuSans-30" transform="translate(127.246094 0)"/>
      </g>
     </g>
    </g>
    <g id="ytick_3">
     <g id="line2d_12">
      <g>
       <use xlink:href="#m0545120b78" x="57.6" y="201.080195" style="stroke: #000000; stroke-width: 0.8"/>
      </g>
     </g>
     <g id="text_13">
      <!-- 200 -->
      <g transform="translate(31.5125 204.879414) scale(0.1 -0.1)">
       <use xlink:href="#DejaVuSans-32"/>
       <use xlink:href="#DejaVuSans-30" transform="translate(63.623047 0)"/>
       <use xlink:href="#DejaVuSans-30" transform="translate(127.246094 0)"/>
      </g>
     </g>
    </g>
    <g id="ytick_4">
     <g id="line2d_13">
      <g>
       <use xlink:href="#m0545120b78" x="57.6" y="151.909463" style="stroke: #000000; stroke-width: 0.8"/>
      </g>
     </g>
     <g id="text_14">
      <!-- 300 -->
      <g transform="translate(31.5125 155.708682) scale(0.1 -0.1)">
       <use xlink:href="#DejaVuSans-33"/>
       <use xlink:href="#DejaVuSans-30" transform="translate(63.623047 0)"/>
       <use xlink:href="#DejaVuSans-30" transform="translate(127.246094 0)"/>
      </g>
     </g>
    </g>
    <g id="ytick_5">
     <g id="line2d_14">
      <g>
       <use xlink:href="#m0545120b78" x="57.6" y="102.738732" style="stroke: #000000; stroke-width: 0.8"/>
      </g>
     </g>
     <g id="text_15">
      <!-- 400 -->
      <g transform="translate(31.5125 106.53795) scale(0.1 -0.1)">
       <use xlink:href="#DejaVuSans-34"/>
       <use xlink:href="#DejaVuSans-30" transform="translate(63.623047 0)"/>
       <use xlink:href="#DejaVuSans-30" transform="translate(127.246094 0)"/>
      </g>
     </g>
    </g>
    <g id="ytick_6">
     <g id="line2d_15">
      <g>
       <use xlink:href="#m0545120b78" x="57.6" y="53.568" style="stroke: #000000; stroke-width: 0.8"/>
      </g>
     </g>
     <g id="text_16">
      <!-- 500 -->
      <g transform="translate(31.5125 57.367219) scale(0.1 -0.1)">
       <use xlink:href="#DejaVuSans-35"/>
       <use xlink:href="#DejaVuSans-30" transform="translate(63.623047 0)"/>
       <use xlink:href="#DejaVuSans-30" transform="translate(127.246094 0)"/>
      </g>
     </g>
    </g>
    <g id="text_17">
     <!-- Score -->
     <g transform="translate(25.432812 188.530344) rotate(-90) scale(0.1 -0.1)">
      <defs>
       <path id="DejaVuSans-53" d="M 3425 4513 
L 3425 3897 
Q 3066 4069 2747 4153 
Q 2428 4238 2131 4238 
Q 1616 4238 1336 4038 
Q 1056 3838 1056 3469 
Q 1056 3159 1242 3001 
Q 1428 2844 1947 2747 
L 2328 2669 
Q 3034 2534 3370 2195 
Q 3706 1856 3706 1288 
Q 3706 609 3251 259 
Q 2797 -91 1919 -91 
Q 1588 -91 1214 -16 
Q 841 59 441 206 
L 441 856 
Q 825 641 1194 531 
Q 1563 422 1919 422 
Q 2459 422 2753 634 
Q 3047 847 3047 1241 
Q 3047 1584 2836 1778 
Q 2625 1972 2144 2069 
L 1759 2144 
Q 1053 2284 737 2584 
Q 422 2884 422 3419 
Q 422 4038 858 4394 
Q 1294 4750 2059 4750 
Q 2388 4750 2728 4690 
Q 3069 4631 3425 4513 
z
" transform="scale(0.015625)"/>
       <path id="DejaVuSans-63" d="M 3122 3366 
L 3122 2828 
Q 2878 2963 2633 3030 
Q 2388 3097 2138 3097 
Q 1578 3097 1268 2742 
Q 959 2388 959 1747 
Q 959 1106 1268 751 
Q 1578 397 2138 397 
Q 2388 397 2633 464 
Q 2878 531 3122 666 
L 3122 134 
Q 2881 22 2623 -34 
Q 2366 -91 2075 -91 
Q 1284 -91 818 406 
Q 353 903 353 1747 
Q 353 2603 823 3093 
Q 1294 3584 2113 3584 
Q 2378 3584 2631 3529 
Q 2884 3475 3122 3366 
z
" transform="scale(0.015625)"/>
       <path id="DejaVuSans-72" d="M 2631 2963 
Q 2534 3019 2420 3045 
Q 2306 3072 2169 3072 
Q 1681 3072 1420 2755 
Q 1159 2438 1159 1844 
L 1159 0 
L 581 0 
L 581 3500 
L 1159 3500 
L 1159 2956 
Q 1341 3275 1631 3429 
Q 1922 3584 2338 3584 
Q 2397 3584 2469 3576 
Q 2541 3569 2628 3553 
L 2631 2963 
z
" transform="scale(0.015625)"/>
      </defs>
      <use xlink:href="#DejaVuSans-53"/>
      <use xlink:href="#DejaVuSans-63" transform="translate(63.476562 0)"/>
      <use xlink:href="#DejaVuSans-6f" transform="translate(118.457031 0)"/>
      <use xlink:href="#DejaVuSans-72" transform="translate(179.638672 0)"/>
      <use xlink:href="#DejaVuSans-65" transform="translate(218.501953 0)"/>
     </g>
    </g>
   </g>
   <g id="line2d_16">
    <path d="M 73.832727 294.504585 
L 74.646398 281.720195 
L 75.460068 293.029463 
L 76.273739 289.095805 
L 77.087409 290.570927 
L 77.90108 286.637268 
L 78.714751 291.062634 
L 79.528421 281.228488 
L 80.342092 287.620683 
L 81.155762 290.07922 
L 81.969433 283.195317 
L 82.783103 294.504585 
L 83.596774 290.07922 
L 84.410444 294.996293 
L 85.224115 287.128976 
L 86.037785 294.012878 
L 86.851456 286.145561 
L 87.665126 293.029463 
L 88.478797 293.521171 
L 89.292468 293.029463 
L 90.106138 293.521171 
L 90.919809 290.07922 
L 91.733479 294.504585 
L 92.54715 290.570927 
L 93.36082 294.504585 
L 94.174491 293.521171 
L 94.988161 282.211902 
L 95.801832 290.570927 
L 96.615502 289.587512 
L 97.429173 295.488 
L 98.242843 294.504585 
L 99.056514 285.162146 
L 99.870185 291.062634 
L 100.683855 288.11239 
L 101.497526 292.537756 
L 102.311196 289.587512 
L 103.124867 292.537756 
L 104.752208 284.178732 
L 105.565878 291.062634 
L 106.379549 281.720195 
L 107.193219 291.554341 
L 108.00689 278.769951 
L 108.82056 294.012878 
L 109.634231 292.537756 
L 110.447902 293.029463 
L 111.261572 294.012878 
L 112.075243 267.95239 
L 112.888913 294.012878 
L 113.702584 294.996293 
L 114.516254 279.261659 
L 115.329925 289.587512 
L 116.143595 294.012878 
L 116.957266 291.554341 
L 117.770936 291.554341 
L 118.584607 283.687024 
L 119.398278 280.73678 
L 120.211948 292.046049 
L 121.025619 293.029463 
L 121.839289 276.803122 
L 122.65296 285.653854 
L 123.46663 291.062634 
L 124.280301 289.095805 
L 125.093971 291.554341 
L 125.907642 292.537756 
L 126.721312 293.029463 
L 128.348653 292.046049 
L 129.162324 292.046049 
L 129.975995 290.07922 
L 130.789665 291.062634 
L 131.603336 287.620683 
L 132.417006 292.537756 
L 133.230677 293.029463 
L 134.044347 289.095805 
L 134.858018 292.537756 
L 135.671688 288.11239 
L 136.485359 291.554341 
L 137.299029 290.07922 
L 138.1127 281.228488 
L 138.92637 293.029463 
L 139.740041 293.029463 
L 140.553712 294.504585 
L 141.367382 291.062634 
L 142.181053 294.996293 
L 143.808394 292.046049 
L 144.622064 294.504585 
L 145.435735 287.128976 
L 146.249405 292.046049 
L 147.063076 291.062634 
L 147.876746 293.029463 
L 148.690417 292.537756 
L 149.504087 287.128976 
L 150.317758 291.554341 
L 151.131429 276.803122 
L 151.945099 290.07922 
L 152.75877 292.537756 
L 153.57244 289.587512 
L 154.386111 293.521171 
L 155.199781 291.554341 
L 156.013452 281.720195 
L 156.827122 294.012878 
L 157.640793 287.620683 
L 158.454463 292.046049 
L 159.268134 288.604098 
L 160.081805 292.537756 
L 160.895475 294.012878 
L 161.709146 293.521171 
L 162.522816 286.145561 
L 163.336487 293.521171 
L 164.150157 294.504585 
L 164.963828 294.996293 
L 165.777498 291.554341 
L 166.591169 287.620683 
L 167.404839 277.294829 
L 168.21851 293.521171 
L 169.03218 294.012878 
L 169.845851 293.029463 
L 170.659522 289.095805 
L 171.473192 289.095805 
L 172.286863 292.046049 
L 173.100533 293.521171 
L 173.914204 293.029463 
L 174.727874 294.996293 
L 175.541545 293.029463 
L 176.355215 293.029463 
L 177.168886 291.062634 
L 177.982556 295.488 
L 178.796227 291.554341 
L 179.609897 288.604098 
L 181.237239 281.720195 
L 182.050909 283.687024 
L 182.86458 290.07922 
L 183.67825 285.162146 
L 184.491921 290.570927 
L 185.305591 291.062634 
L 186.119262 288.604098 
L 186.932932 279.753366 
L 187.746603 292.537756 
L 188.560273 292.046049 
L 189.373944 293.521171 
L 190.187614 294.504585 
L 191.814956 291.554341 
L 192.628626 292.046049 
L 193.442297 293.521171 
L 195.069638 292.537756 
L 195.883308 294.012878 
L 196.696979 294.012878 
L 197.510649 291.062634 
L 198.32432 279.753366 
L 199.13799 293.521171 
L 199.951661 293.521171 
L 200.765332 294.012878 
L 201.579002 294.012878 
L 202.392673 293.029463 
L 203.206343 292.537756 
L 204.020014 293.029463 
L 204.833684 292.537756 
L 205.647355 294.012878 
L 206.461025 294.504585 
L 207.274696 280.73678 
L 208.088366 294.996293 
L 208.902037 287.620683 
L 209.715707 287.620683 
L 210.529378 284.178732 
L 211.343049 293.029463 
L 212.156719 291.062634 
L 212.97039 294.504585 
L 214.597731 294.504585 
L 215.411401 282.211902 
L 216.225072 293.521171 
L 217.038742 288.604098 
L 217.852413 290.570927 
L 218.666083 289.587512 
L 219.479754 287.128976 
L 220.293424 292.537756 
L 221.107095 280.73678 
L 222.734436 291.062634 
L 223.548107 285.653854 
L 224.361777 290.570927 
L 225.175448 293.029463 
L 225.989118 293.521171 
L 226.802789 291.554341 
L 227.616459 286.145561 
L 228.43013 288.11239 
L 229.2438 294.504585 
L 230.057471 292.046049 
L 230.871141 290.570927 
L 231.684812 290.570927 
L 232.498483 290.07922 
L 233.312153 254.184585 
L 234.125824 283.687024 
L 234.939494 287.128976 
L 235.753165 291.062634 
L 236.566835 278.278244 
L 237.380506 285.162146 
L 238.194176 283.687024 
L 239.007847 275.819707 
L 239.821517 266.477268 
L 240.635188 289.095805 
L 241.448859 266.968976 
L 242.262529 290.07922 
L 243.0762 282.211902 
L 243.88987 294.012878 
L 244.703541 285.653854 
L 246.330882 285.653854 
L 247.144552 292.046049 
L 247.958223 293.029463 
L 248.771893 293.521171 
L 249.585564 292.046049 
L 250.399234 294.996293 
L 251.212905 284.178732 
L 252.026576 291.554341 
L 252.840246 290.570927 
L 253.653917 292.537756 
L 254.467587 292.537756 
L 255.281258 291.062634 
L 256.094928 294.504585 
L 256.908599 293.521171 
L 257.722269 289.095805 
L 258.53594 293.029463 
L 259.34961 294.504585 
L 260.163281 291.062634 
L 260.976951 294.012878 
L 261.790622 275.819707 
L 262.604293 274.836293 
L 263.417963 286.637268 
L 264.231634 284.178732 
L 265.045304 289.095805 
L 265.858975 271.394341 
L 266.672645 292.537756 
L 267.486316 246.317268 
L 268.299986 291.062634 
L 269.113657 290.07922 
L 269.927327 294.504585 
L 270.740998 294.504585 
L 271.554668 257.626537 
L 272.368339 288.604098 
L 273.18201 291.554341 
L 273.99568 285.653854 
L 274.809351 287.620683 
L 275.623021 277.294829 
L 276.436692 290.07922 
L 277.250362 293.029463 
L 278.064033 292.537756 
L 278.877703 274.344585 
L 279.691374 249.75922 
L 280.505044 278.278244 
L 281.318715 260.085073 
L 282.132386 292.537756 
L 282.946056 223.698732 
L 283.759727 276.803122 
L 284.573397 253.201171 
L 285.387068 264.510439 
L 286.200738 256.643122 
L 287.014409 226.648976 
L 287.828079 211.897756 
L 288.64175 289.587512 
L 289.45542 220.25678 
L 290.269091 236.483122 
L 291.082761 240.908488 
L 291.896432 194.688 
L 292.710103 176.494829 
L 293.523773 184.853854 
L 294.337444 184.362146 
L 295.151114 188.295805 
L 295.964785 219.273366 
L 296.778455 210.422634 
L 297.592126 227.63239 
L 298.405796 285.162146 
L 299.219467 196.163122 
L 300.033137 177.478244 
L 300.846808 249.267512 
L 301.660478 133.224585 
L 303.28782 208.947512 
L 304.10149 211.406049 
L 304.915161 149.450927 
L 305.728831 53.568 
L 306.542502 187.31239 
L 307.356172 200.09678 
L 308.169843 133.716293 
L 308.983513 171.577756 
L 309.797184 216.323122 
L 311.424525 162.727024 
L 312.238195 126.83239 
L 313.051866 199.605073 
L 313.865537 186.328976 
L 314.679207 194.688 
L 315.492878 181.411902 
L 316.306548 196.654829 
L 317.120219 136.666537 
L 317.933889 176.986537 
L 318.74756 143.058732 
L 319.56123 205.505561 
L 320.374901 171.577756 
L 321.188571 206.980683 
L 322.002242 121.915317 
L 322.815913 186.820683 
L 323.629583 197.146537 
L 324.443254 149.942634 
L 325.256924 166.660683 
L 326.070595 157.318244 
L 326.884265 177.478244 
L 327.697936 194.688 
L 328.511606 175.019707 
L 329.325277 186.820683 
L 330.138947 180.428488 
L 330.952618 180.428488 
L 331.766288 190.754341 
L 332.579959 168.135805 
L 333.39363 123.390439 
L 334.2073 199.113366 
L 335.020971 179.93678 
L 335.834641 183.870439 
L 336.648312 186.820683 
L 337.461982 187.804098 
L 338.275653 159.77678 
L 339.089323 281.228488 
L 339.902994 188.295805 
L 340.716664 179.93678 
L 341.530335 168.627512 
L 342.344005 151.909463 
L 343.157676 184.853854 
L 343.971347 186.328976 
L 344.785017 125.357268 
L 345.598688 183.870439 
L 346.412358 186.328976 
L 347.226029 159.285073 
L 348.039699 197.638244 
L 348.85337 202.06361 
L 349.66704 173.052878 
L 350.480711 204.522146 
L 351.294381 146.99239 
L 352.108052 78.153366 
L 352.921722 189.27922 
L 353.735393 53.568 
L 354.549064 203.538732 
L 355.362734 206.488976 
L 356.176405 208.455805 
L 356.990075 156.334829 
L 357.803746 184.362146 
L 359.431087 198.621659 
L 360.244757 201.080195 
L 361.058428 164.202146 
L 361.872098 159.285073 
L 362.685769 203.047024 
L 363.49944 202.555317 
L 364.31311 194.688 
L 365.126781 208.455805 
L 365.940451 134.699707 
L 366.754122 89.462634 
L 367.567792 205.997268 
L 368.381463 173.544585 
L 369.195133 210.422634 
L 370.008804 176.986537 
L 370.822474 137.649951 
L 371.636145 167.644098 
L 372.449815 186.820683 
L 373.263486 126.83239 
L 374.077157 198.129951 
L 374.890827 60.451902 
L 375.704498 196.654829 
L 376.518168 183.870439 
L 377.331839 183.378732 
L 378.145509 183.870439 
L 378.95918 205.013854 
L 379.77285 209.930927 
L 380.586521 190.754341 
L 381.400191 212.389463 
L 382.213862 209.43922 
L 383.027532 140.600195 
L 383.841203 184.362146 
L 384.654874 205.505561 
L 385.468544 179.93678 
L 386.282215 169.610927 
L 387.095885 206.488976 
L 387.909556 206.980683 
L 388.723226 199.113366 
L 389.536897 184.853854 
L 390.350567 211.406049 
L 391.164238 204.030439 
L 391.977908 200.09678 
L 392.791579 216.814829 
L 393.605249 221.240195 
L 394.41892 168.135805 
L 395.232591 205.505561 
L 396.046261 209.43922 
L 396.859932 171.577756 
L 397.673602 205.505561 
L 398.487273 215.831415 
L 398.487273 215.831415 
" clip-path="url(#pcfc9ba6276)" style="fill: none; stroke: #1f77b4; stroke-width: 1.5; stroke-linecap: square"/>
   </g>
   <g id="patch_3">
    <path d="M 57.6 307.584 
L 57.6 41.472 
" style="fill: none; stroke: #000000; stroke-width: 0.8; stroke-linejoin: miter; stroke-linecap: square"/>
   </g>
   <g id="patch_4">
    <path d="M 414.72 307.584 
L 414.72 41.472 
" style="fill: none; stroke: #000000; stroke-width: 0.8; stroke-linejoin: miter; stroke-linecap: square"/>
   </g>
   <g id="patch_5">
    <path d="M 57.6 307.584 
L 414.72 307.584 
" style="fill: none; stroke: #000000; stroke-width: 0.8; stroke-linejoin: miter; stroke-linecap: square"/>
   </g>
   <g id="patch_6">
    <path d="M 57.6 41.472 
L 414.72 41.472 
" style="fill: none; stroke: #000000; stroke-width: 0.8; stroke-linejoin: miter; stroke-linecap: square"/>
   </g>
  </g>
 </g>
 <defs>
  <clipPath id="pcfc9ba6276">
   <rect x="57.6" y="41.472" width="357.12" height="266.112"/>
  </clipPath>
 </defs>
</svg>
