<?xml version="1.0" encoding="utf-8" standalone="no"?>
<!DOCTYPE svg PUBLIC "-//W3C//DTD SVG 1.1//EN"
  "http://www.w3.org/Graphics/SVG/1.1/DTD/svg11.dtd">
<svg xmlns:xlink="http://www.w3.org/1999/xlink" width="460.8pt" height="345.6pt" viewBox="0 0 460.8 345.6" xmlns="http://www.w3.org/2000/svg" version="1.1">
 <metadata>
  <rdf:RDF xmlns:dc="http://purl.org/dc/elements/1.1/" xmlns:cc="http://creativecommons.org/ns#" xmlns:rdf="http://www.w3.org/1999/02/22-rdf-syntax-ns#">
   <cc:Work>
    <dc:type rdf:resource="http://purl.org/dc/dcmitype/StillImage"/>
    <dc:date>2026-04-19T20:38:40.512384</dc:date>
    <dc:format>image/svg+xml</dc:format>
    <dc:creator>
     <cc:Agent>
      <dc:title>Matplotlib v3.10.8, https://matplotlib.org/</dc:title>
     </cc:Agent>
    </dc:creator>
   </cc:Work>
  </rdf:RDF>
 </metadata>
 <defs>
  <style type="text/css">*{stroke-linejoin: round; stroke-linecap: butt}</style>
 </defs>
 <g id="figure_1">
  <g id="patch_1">
   <path d="M 0 345.6 
L 460.8 345.6 
L 460.8 0 
L 0 0 
z
" style="fill: #ffffff"/>
  </g>
  <g id="axes_1">
   <g id="patch_2">
    <path d="M 57.6 307.584 
L 414.72 307.584 
L 414.72 41.472 
L 57.6 41.472 
z
" style="fill: #ffffff"/>
   </g>
   <g id="matplotlib.axis_1">
    <g id="xtick_1">
     <g id="line2d_1">
      <defs>
       <path id="mf13c94c333" d="M 0 0 
L 0 3.5 
" style="stroke: #000000; stroke-width: 0.8"/>
      </defs>
      <g>
       <use xlink:href="#mf13c94c333" x="73.832727" y="307.584" style="stroke: #000000; stroke-width: 0.8"/>
      </g>
     </g>
     <g id="text_1">
      <!-- 0 -->
      <g transform="translate(70.651477 322.182437) scale(0.1 -0.1)">
       <defs>
        <path id="DejaVuSans-30" d="M 2034 4250 
Q 1547 4250 1301 3770 
Q 1056 3291 1056 2328 
Q 1056 1369 1301 889 
Q 1547 409 2034 409 
Q 2525 409 2770 889 
Q 3016 1369 3016 2328 
Q 3016 3291 2770 3770 
Q 2525 4250 2034 4250 
z
M 2034 4750 
Q 2819 4750 3233 4129 
Q 3647 3509 3647 2328 
Q 3647 1150 3233 529 
Q 2819 -91 2034 -91 
Q 1250 -91 836 529 
Q 422 1150 422 2328 
Q 422 3509 836 4129 
Q 1250 4750 2034 4750 
z
" transform="scale(0.015625)"/>
       </defs>
       <use xlink:href="#DejaVuSans-30"/>
      </g>
     </g>
    </g>
    <g id="xtick_2">
     <g id="line2d_2">
      <g>
       <use xlink:href="#mf13c94c333" x="138.828632" y="307.584" style="stroke: #000000; stroke-width: 0.8"/>
      </g>
     </g>
     <g id="text_2">
      <!-- 200 -->
      <g transform="translate(129.284882 322.182437) scale(0.1 -0.1)">
       <defs>
        <path id="DejaVuSans-32" d="M 1228 531 
L 3431 531 
L 3431 0 
L 469 0 
L 469 531 
Q 828 903 1448 1529 
Q 2069 2156 2228 2338 
Q 2531 2678 2651 2914 
Q 2772 3150 2772 3378 
Q 2772 3750 2511 3984 
Q 2250 4219 1831 4219 
Q 1534 4219 1204 4116 
Q 875 4013 500 3803 
L 500 4441 
Q 881 4594 1212 4672 
Q 1544 4750 1819 4750 
Q 2544 4750 2975 4387 
Q 3406 4025 3406 3419 
Q 3406 3131 3298 2873 
Q 3191 2616 2906 2266 
Q 2828 2175 2409 1742 
Q 1991 1309 1228 531 
z
" transform="scale(0.015625)"/>
       </defs>
       <use xlink:href="#DejaVuSans-32"/>
       <use xlink:href="#DejaVuSans-30" transform="translate(63.623047 0)"/>
       <use xlink:href="#DejaVuSans-30" transform="translate(127.246094 0)"/>
      </g>
     </g>
    </g>
    <g id="xtick_3">
     <g id="line2d_3">
      <g>
       <use xlink:href="#mf13c94c333" x="203.824537" y="307.584" style="stroke: #000000; stroke-width: 0.8"/>
      </g>
     </g>
     <g id="text_3">
      <!-- 400 -->
      <g transform="translate(194.280787 322.182437) scale(0.1 -0.1)">
       <defs>
        <path id="DejaVuSans-34" d="M 2419 4116 
L 825 1625 
L 2419 1625 
L 2419 4116 
z
M 2253 4666 
L 3047 4666 
L 3047 1625 
L 3713 1625 
L 3713 1100 
L 3047 1100 
L 3047 0 
L 2419 0 
L 2419 1100 
L 313 1100 
L 313 1709 
L 2253 4666 
z
" transform="scale(0.015625)"/>
       </defs>
       <use xlink:href="#DejaVuSans-34"/>
       <use xlink:href="#DejaVuSans-30" transform="translate(63.623047 0)"/>
       <use xlink:href="#DejaVuSans-30" transform="translate(127.246094 0)"/>
      </g>
     </g>
    </g>
    <g id="xtick_4">
     <g id="line2d_4">
      <g>
       <use xlink:href="#mf13c94c333" x="268.820442" y="307.584" style="stroke: #000000; stroke-width: 0.8"/>
      </g>
     </g>
     <g id="text_4">
      <!-- 600 -->
      <g transform="translate(259.276692 322.182437) scale(0.1 -0.1)">
       <defs>
        <path id="DejaVuSans-36" d="M 2113 2584 
Q 1688 2584 1439 2293 
Q 1191 2003 1191 1497 
Q 1191 994 1439 701 
Q 1688 409 2113 409 
Q 2538 409 2786 701 
Q 3034 994 3034 1497 
Q 3034 2003 2786 2293 
Q 2538 2584 2113 2584 
z
M 3366 4563 
L 3366 3988 
Q 3128 4100 2886 4159 
Q 2644 4219 2406 4219 
Q 1781 4219 1451 3797 
Q 1122 3375 1075 2522 
Q 1259 2794 1537 2939 
Q 1816 3084 2150 3084 
Q 2853 3084 3261 2657 
Q 3669 2231 3669 1497 
Q 3669 778 3244 343 
Q 2819 -91 2113 -91 
Q 1303 -91 875 529 
Q 447 1150 447 2328 
Q 447 3434 972 4092 
Q 1497 4750 2381 4750 
Q 2619 4750 2861 4703 
Q 3103 4656 3366 4563 
z
" transform="scale(0.015625)"/>
       </defs>
       <use xlink:href="#DejaVuSans-36"/>
       <use xlink:href="#DejaVuSans-30" transform="translate(63.623047 0)"/>
       <use xlink:href="#DejaVuSans-30" transform="translate(127.246094 0)"/>
      </g>
     </g>
    </g>
    <g id="xtick_5">
     <g id="line2d_5">
      <g>
       <use xlink:href="#mf13c94c333" x="333.816347" y="307.584" style="stroke: #000000; stroke-width: 0.8"/>
      </g>
     </g>
     <g id="text_5">
      <!-- 800 -->
      <g transform="translate(324.272597 322.182437) scale(0.1 -0.1)">
       <defs>
        <path id="DejaVuSans-38" d="M 2034 2216 
Q 1584 2216 1326 1975 
Q 1069 1734 1069 1313 
Q 1069 891 1326 650 
Q 1584 409 2034 409 
Q 2484 409 2743 651 
Q 3003 894 3003 1313 
Q 3003 1734 2745 1975 
Q 2488 2216 2034 2216 
z
M 1403 2484 
Q 997 2584 770 2862 
Q 544 3141 544 3541 
Q 544 4100 942 4425 
Q 1341 4750 2034 4750 
Q 2731 4750 3128 4425 
Q 3525 4100 3525 3541 
Q 3525 3141 3298 2862 
Q 3072 2584 2669 2484 
Q 3125 2378 3379 2068 
Q 3634 1759 3634 1313 
Q 3634 634 3220 271 
Q 2806 -91 2034 -91 
Q 1263 -91 848 271 
Q 434 634 434 1313 
Q 434 1759 690 2068 
Q 947 2378 1403 2484 
z
M 1172 3481 
Q 1172 3119 1398 2916 
Q 1625 2713 2034 2713 
Q 2441 2713 2670 2916 
Q 2900 3119 2900 3481 
Q 2900 3844 2670 4047 
Q 2441 4250 2034 4250 
Q 1625 4250 1398 4047 
Q 1172 3844 1172 3481 
z
" transform="scale(0.015625)"/>
       </defs>
       <use xlink:href="#DejaVuSans-38"/>
       <use xlink:href="#DejaVuSans-30" transform="translate(63.623047 0)"/>
       <use xlink:href="#DejaVuSans-30" transform="translate(127.246094 0)"/>
      </g>
     </g>
    </g>
    <g id="xtick_6">
     <g id="line2d_6">
      <g>
       <use xlink:href="#mf13c94c333" x="398.812252" y="307.584" style="stroke: #000000; stroke-width: 0.8"/>
      </g>
     </g>
     <g id="text_6">
      <!-- 1000 -->
      <g transform="translate(386.087252 322.182437) scale(0.1 -0.1)">
       <defs>
        <path id="DejaVuSans-31" d="M 794 531 
L 1825 531 
L 1825 4091 
L 703 3866 
L 703 4441 
L 1819 4666 
L 2450 4666 
L 2450 531 
L 3481 531 
L 3481 0 
L 794 0 
L 794 531 
z
" transform="scale(0.015625)"/>
       </defs>
       <use xlink:href="#DejaVuSans-31"/>
       <use xlink:href="#DejaVuSans-30" transform="translate(63.623047 0)"/>
       <use xlink:href="#DejaVuSans-30" transform="translate(127.246094 0)"/>
       <use xlink:href="#DejaVuSans-30" transform="translate(190.869141 0)"/>
      </g>
     </g>
    </g>
    <g id="text_7">
     <!-- Episode # -->
     <g transform="translate(210.743594 335.860562) scale(0.1 -0.1)">
      <defs>
       <path id="DejaVuSans-45" d="M 628 4666 
L 3578 4666 
L 3578 4134 
L 1259 4134 
L 1259 2753 
L 3481 2753 
L 3481 2222 
L 1259 2222 
L 1259 531 
L 3634 531 
L 3634 0 
L 628 0 
L 628 4666 
z
" transform="scale(0.015625)"/>
       <path id="DejaVuSans-70" d="M 1159 525 
L 1159 -1331 
L 581 -1331 
L 581 3500 
L 1159 3500 
L 1159 2969 
Q 1341 3281 1617 3432 
Q 1894 3584 2278 3584 
Q 2916 3584 3314 3078 
Q 3713 2572 3713 1747 
Q 3713 922 3314 415 
Q 2916 -91 2278 -91 
Q 1894 -91 1617 61 
Q 1341 213 1159 525 
z
M 3116 1747 
Q 3116 2381 2855 2742 
Q 2594 3103 2138 3103 
Q 1681 3103 1420 2742 
Q 1159 2381 1159 1747 
Q 1159 1113 1420 752 
Q 1681 391 2138 391 
Q 2594 391 2855 752 
Q 3116 1113 3116 1747 
z
" transform="scale(0.015625)"/>
       <path id="DejaVuSans-69" d="M 603 3500 
L 1178 3500 
L 1178 0 
L 603 0 
L 603 3500 
z
M 603 4863 
L 1178 4863 
L 1178 4134 
L 603 4134 
L 603 4863 
z
" transform="scale(0.015625)"/>
       <path id="DejaVuSans-73" d="M 2834 3397 
L 2834 2853 
Q 2591 2978 2328 3040 
Q 2066 3103 1784 3103 
Q 1356 3103 1142 2972 
Q 928 2841 928 2578 
Q 928 2378 1081 2264 
Q 1234 2150 1697 2047 
L 1894 2003 
Q 2506 1872 2764 1633 
Q 3022 1394 3022 966 
Q 3022 478 2636 193 
Q 2250 -91 1575 -91 
Q 1294 -91 989 -36 
Q 684 19 347 128 
L 347 722 
Q 666 556 975 473 
Q 1284 391 1588 391 
Q 1994 391 2212 530 
Q 2431 669 2431 922 
Q 2431 1156 2273 1281 
Q 2116 1406 1581 1522 
L 1381 1569 
Q 847 1681 609 1914 
Q 372 2147 372 2553 
Q 372 3047 722 3315 
Q 1072 3584 1716 3584 
Q 2034 3584 2315 3537 
Q 2597 3491 2834 3397 
z
" transform="scale(0.015625)"/>
       <path id="DejaVuSans-6f" d="M 1959 3097 
Q 1497 3097 1228 2736 
Q 959 2375 959 1747 
Q 959 1119 1226 758 
Q 1494 397 1959 397 
Q 2419 397 2687 759 
Q 2956 1122 2956 1747 
Q 2956 2369 2687 2733 
Q 2419 3097 1959 3097 
z
M 1959 3584 
Q 2709 3584 3137 3096 
Q 3566 2609 3566 1747 
Q 3566 888 3137 398 
Q 2709 -91 1959 -91 
Q 1206 -91 779 398 
Q 353 888 353 1747 
Q 353 2609 779 3096 
Q 1206 3584 1959 3584 
z
" transform="scale(0.015625)"/>
       <path id="DejaVuSans-64" d="M 2906 2969 
L 2906 4863 
L 3481 4863 
L 3481 0 
L 2906 0 
L 2906 525 
Q 2725 213 2448 61 
Q 2172 -91 1784 -91 
Q 1150 -91 751 415 
Q 353 922 353 1747 
Q 353 2572 751 3078 
Q 1150 3584 1784 3584 
Q 2172 3584 2448 3432 
Q 2725 3281 2906 2969 
z
M 947 1747 
Q 947 1113 1208 752 
Q 1469 391 1925 391 
Q 2381 391 2643 752 
Q 2906 1113 2906 1747 
Q 2906 2381 2643 2742 
Q 2381 3103 1925 3103 
Q 1469 3103 1208 2742 
Q 947 2381 947 1747 
z
" transform="scale(0.015625)"/>
       <path id="DejaVuSans-65" d="M 3597 1894 
L 3597 1613 
L 953 1613 
Q 991 1019 1311 708 
Q 1631 397 2203 397 
Q 2534 397 2845 478 
Q 3156 559 3463 722 
L 3463 178 
Q 3153 47 2828 -22 
Q 2503 -91 2169 -91 
Q 1331 -91 842 396 
Q 353 884 353 1716 
Q 353 2575 817 3079 
Q 1281 3584 2069 3584 
Q 2775 3584 3186 3129 
Q 3597 2675 3597 1894 
z
M 3022 2063 
Q 3016 2534 2758 2815 
Q 2500 3097 2075 3097 
Q 1594 3097 1305 2825 
Q 1016 2553 972 2059 
L 3022 2063 
z
" transform="scale(0.015625)"/>
       <path id="DejaVuSans-20" transform="scale(0.015625)"/>
       <path id="DejaVuSans-23" d="M 3272 2816 
L 2363 2816 
L 2100 1772 
L 3016 1772 
L 3272 2816 
z
M 2803 4594 
L 2478 3297 
L 3391 3297 
L 3719 4594 
L 4219 4594 
L 3897 3297 
L 4872 3297 
L 4872 2816 
L 3775 2816 
L 3519 1772 
L 4513 1772 
L 4513 1294 
L 3397 1294 
L 3072 0 
L 2572 0 
L 2894 1294 
L 1978 1294 
L 1656 0 
L 1153 0 
L 1478 1294 
L 494 1294 
L 494 1772 
L 1594 1772 
L 1856 2816 
L 850 2816 
L 850 3297 
L 1978 3297 
L 2297 4594 
L 2803 4594 
z
" transform="scale(0.015625)"/>
      </defs>
      <use xlink:href="#DejaVuSans-45"/>
      <use xlink:href="#DejaVuSans-70" transform="translate(63.183594 0)"/>
      <use xlink:href="#DejaVuSans-69" transform="translate(126.660156 0)"/>
      <use xlink:href="#DejaVuSans-73" transform="translate(154.443359 0)"/>
      <use xlink:href="#DejaVuSans-6f" transform="translate(206.542969 0)"/>
      <use xlink:href="#DejaVuSans-64" transform="translate(267.724609 0)"/>
      <use xlink:href="#DejaVuSans-65" transform="translate(331.201172 0)"/>
      <use xlink:href="#DejaVuSans-20" transform="translate(392.724609 0)"/>
      <use xlink:href="#DejaVuSans-23" transform="translate(424.511719 0)"/>
     </g>
    </g>
   </g>
   <g id="matplotlib.axis_2">
    <g id="ytick_1">
     <g id="line2d_7">
      <defs>
       <path id="mdcc1053115" d="M 0 0 
L -3.5 0 
" style="stroke: #000000; stroke-width: 0.8"/>
      </defs>
      <g>
       <use xlink:href="#mdcc1053115" x="57.6" y="267.026824" style="stroke: #000000; stroke-width: 0.8"/>
      </g>
     </g>
     <g id="text_8">
      <!-- 20 -->
      <g transform="translate(37.875 270.826042) scale(0.1 -0.1)">
       <use xlink:href="#DejaVuSans-32"/>
       <use xlink:href="#DejaVuSans-30" transform="translate(63.623047 0)"/>
      </g>
     </g>
    </g>
    <g id="ytick_2">
     <g id="line2d_8">
      <g>
       <use xlink:href="#mdcc1053115" x="57.6" y="219.591529" style="stroke: #000000; stroke-width: 0.8"/>
      </g>
     </g>
     <g id="text_9">
      <!-- 40 -->
      <g transform="translate(37.875 223.390748) scale(0.1 -0.1)">
       <use xlink:href="#DejaVuSans-34"/>
       <use xlink:href="#DejaVuSans-30" transform="translate(63.623047 0)"/>
      </g>
     </g>
    </g>
    <g id="ytick_3">
     <g id="line2d_9">
      <g>
       <use xlink:href="#mdcc1053115" x="57.6" y="172.156235" style="stroke: #000000; stroke-width: 0.8"/>
      </g>
     </g>
     <g id="text_10">
      <!-- 60 -->
      <g transform="translate(37.875 175.955454) scale(0.1 -0.1)">
       <use xlink:href="#DejaVuSans-36"/>
       <use xlink:href="#DejaVuSans-30" transform="translate(63.623047 0)"/>
      </g>
     </g>
    </g>
    <g id="ytick_4">
     <g id="line2d_10">
      <g>
       <use xlink:href="#mdcc1053115" x="57.6" y="124.720941" style="stroke: #000000; stroke-width: 0.8"/>
      </g>
     </g>
     <g id="text_11">
      <!-- 80 -->
      <g transform="translate(37.875 128.52016) scale(0.1 -0.1)">
       <use xlink:href="#DejaVuSans-38"/>
       <use xlink:href="#DejaVuSans-30" transform="translate(63.623047 0)"/>
      </g>
     </g>
    </g>
    <g id="ytick_5">
     <g id="line2d_11">
      <g>
       <use xlink:href="#mdcc1053115" x="57.6" y="77.285647" style="stroke: #000000; stroke-width: 0.8"/>
      </g>
     </g>
     <g id="text_12">
      <!-- 100 -->
      <g transform="translate(31.5125 81.084866) scale(0.1 -0.1)">
       <use xlink:href="#DejaVuSans-31"/>
       <use xlink:href="#DejaVuSans-30" transform="translate(63.623047 0)"/>
       <use xlink:href="#DejaVuSans-30" transform="translate(127.246094 0)"/>
      </g>
     </g>
    </g>
    <g id="text_13">
     <!-- Score -->
     <g transform="translate(25.432812 188.530344) rotate(-90) scale(0.1 -0.1)">
      <defs>
       <path id="DejaVuSans-53" d="M 3425 4513 
L 3425 3897 
Q 3066 4069 2747 4153 
Q 2428 4238 2131 4238 
Q 1616 4238 1336 4038 
Q 1056 3838 1056 3469 
Q 1056 3159 1242 3001 
Q 1428 2844 1947 2747 
L 2328 2669 
Q 3034 2534 3370 2195 
Q 3706 1856 3706 1288 
Q 3706 609 3251 259 
Q 2797 -91 1919 -91 
Q 1588 -91 1214 -16 
Q 841 59 441 206 
L 441 856 
Q 825 641 1194 531 
Q 1563 422 1919 422 
Q 2459 422 2753 634 
Q 3047 847 3047 1241 
Q 3047 1584 2836 1778 
Q 2625 1972 2144 2069 
L 1759 2144 
Q 1053 2284 737 2584 
Q 422 2884 422 3419 
Q 422 4038 858 4394 
Q 1294 4750 2059 4750 
Q 2388 4750 2728 4690 
Q 3069 4631 3425 4513 
z
" transform="scale(0.015625)"/>
       <path id="DejaVuSans-63" d="M 3122 3366 
L 3122 2828 
Q 2878 2963 2633 3030 
Q 2388 3097 2138 3097 
Q 1578 3097 1268 2742 
Q 959 2388 959 1747 
Q 959 1106 1268 751 
Q 1578 397 2138 397 
Q 2388 397 2633 464 
Q 2878 531 3122 666 
L 3122 134 
Q 2881 22 2623 -34 
Q 2366 -91 2075 -91 
Q 1284 -91 818 406 
Q 353 903 353 1747 
Q 353 2603 823 3093 
Q 1294 3584 2113 3584 
Q 2378 3584 2631 3529 
Q 2884 3475 3122 3366 
z
" transform="scale(0.015625)"/>
       <path id="DejaVuSans-72" d="M 2631 2963 
Q 2534 3019 2420 3045 
Q 2306 3072 2169 3072 
Q 1681 3072 1420 2755 
Q 1159 2438 1159 1844 
L 1159 0 
L 581 0 
L 581 3500 
L 1159 3500 
L 1159 2956 
Q 1341 3275 1631 3429 
Q 1922 3584 2338 3584 
Q 2397 3584 2469 3576 
Q 2541 3569 2628 3553 
L 2631 2963 
z
" transform="scale(0.015625)"/>
      </defs>
      <use xlink:href="#DejaVuSans-53"/>
      <use xlink:href="#DejaVuSans-63" transform="translate(63.476562 0)"/>
      <use xlink:href="#DejaVuSans-6f" transform="translate(118.457031 0)"/>
      <use xlink:href="#DejaVuSans-72" transform="translate(179.638672 0)"/>
      <use xlink:href="#DejaVuSans-65" transform="translate(218.501953 0)"/>
     </g>
    </g>
   </g>
   <g id="line2d_12">
    <path d="M 73.832727 288.372706 
L 74.157707 288.372706 
L 74.482686 248.052706 
L 74.807666 274.142118 
L 75.132645 259.911529 
L 75.457625 267.026824 
L 75.782604 252.796235 
L 76.107584 281.257412 
L 76.432563 288.372706 
L 76.757543 283.629176 
L 77.082523 283.629176 
L 77.407502 252.796235 
L 77.732482 264.655059 
L 78.057461 283.629176 
L 78.382441 255.168 
L 78.70742 274.142118 
L 79.0324 262.283294 
L 79.357379 210.104471 
L 79.682359 53.568 
L 80.007338 269.398588 
L 80.332318 290.744471 
L 80.657297 288.372706 
L 80.982277 264.655059 
L 81.307256 283.629176 
L 81.957215 229.078588 
L 82.282195 217.219765 
L 82.607174 224.335059 
L 82.932154 274.142118 
L 83.257133 281.257412 
L 83.582113 257.539765 
L 83.907093 283.629176 
L 84.232072 259.911529 
L 84.557052 162.669176 
L 84.882031 264.655059 
L 85.207011 262.283294 
L 85.53199 155.553882 
L 85.85697 252.796235 
L 86.181949 290.744471 
L 86.506929 293.116235 
L 86.831908 262.283294 
L 87.156888 281.257412 
L 87.481867 264.655059 
L 87.806847 281.257412 
L 88.131826 257.539765 
L 88.456806 281.257412 
L 89.106765 255.168 
L 89.431744 257.539765 
L 89.756724 255.168 
L 90.081704 278.885647 
L 90.406683 288.372706 
L 90.731663 236.193882 
L 91.056642 290.744471 
L 91.381622 200.617412 
L 91.706601 271.770353 
L 92.031581 252.796235 
L 92.35656 290.744471 
L 92.68154 250.424471 
L 93.006519 271.770353 
L 93.331499 283.629176 
L 93.656478 276.513882 
L 93.981458 281.257412 
L 94.306437 262.283294 
L 94.631417 283.629176 
L 94.956396 281.257412 
L 95.281376 290.744471 
L 95.606355 290.744471 
L 95.931335 240.937412 
L 96.256314 278.885647 
L 96.581294 286.000941 
L 96.906274 264.655059 
L 97.556233 276.513882 
L 98.206192 255.168 
L 98.856151 290.744471 
L 99.18113 248.052706 
L 99.50611 276.513882 
L 99.831089 278.885647 
L 100.156069 226.706824 
L 100.481048 281.257412 
L 100.806028 290.744471 
L 101.131007 293.116235 
L 101.780966 269.398588 
L 102.105946 288.372706 
L 102.430925 288.372706 
L 102.755905 281.257412 
L 103.080885 257.539765 
L 103.730844 286.000941 
L 104.055823 226.706824 
L 104.380803 281.257412 
L 104.705782 286.000941 
L 105.030762 262.283294 
L 105.355741 290.744471 
L 105.680721 257.539765 
L 106.0057 264.655059 
L 106.33068 288.372706 
L 106.655659 281.257412 
L 106.980639 200.617412 
L 107.305618 288.372706 
L 107.630598 259.911529 
L 107.955577 290.744471 
L 108.280557 286.000941 
L 108.605536 290.744471 
L 108.930516 283.629176 
L 109.255495 290.744471 
L 109.580475 286.000941 
L 109.905455 245.680941 
L 110.230434 293.116235 
L 110.555414 271.770353 
L 110.880393 283.629176 
L 111.205373 267.026824 
L 111.855332 290.744471 
L 112.180311 264.655059 
L 112.505291 290.744471 
L 112.83027 283.629176 
L 113.15525 281.257412 
L 113.480229 293.116235 
L 113.805209 278.885647 
L 114.130188 286.000941 
L 114.455168 276.513882 
L 114.780147 290.744471 
L 115.105127 295.488 
L 115.430106 293.116235 
L 115.755086 293.116235 
L 116.080066 248.052706 
L 116.405045 288.372706 
L 116.730025 286.000941 
L 117.055004 290.744471 
L 117.379984 271.770353 
L 117.704963 276.513882 
L 118.029943 286.000941 
L 118.354922 271.770353 
L 118.679902 288.372706 
L 119.004881 286.000941 
L 119.329861 274.142118 
L 119.65484 288.372706 
L 119.97982 293.116235 
L 120.304799 281.257412 
L 120.629779 293.116235 
L 120.954758 290.744471 
L 121.279738 283.629176 
L 121.604717 288.372706 
L 121.929697 283.629176 
L 122.254676 286.000941 
L 122.904636 269.398588 
L 123.229615 293.116235 
L 123.554595 288.372706 
L 123.879574 267.026824 
L 124.204554 276.513882 
L 124.529533 271.770353 
L 124.854513 290.744471 
L 125.179492 295.488 
L 125.829451 286.000941 
L 126.154431 259.911529 
L 126.47941 293.116235 
L 126.80439 290.744471 
L 127.129369 278.885647 
L 127.454349 288.372706 
L 127.779328 278.885647 
L 128.104308 283.629176 
L 128.429287 286.000941 
L 128.754267 281.257412 
L 129.079247 286.000941 
L 129.404226 288.372706 
L 130.054185 288.372706 
L 130.379165 271.770353 
L 130.704144 283.629176 
L 131.029124 288.372706 
L 131.354103 288.372706 
L 131.679083 269.398588 
L 132.004062 288.372706 
L 132.329042 293.116235 
L 132.654021 267.026824 
L 132.979001 286.000941 
L 133.30398 288.372706 
L 133.62896 281.257412 
L 133.953939 288.372706 
L 134.278919 278.885647 
L 134.928878 290.744471 
L 135.253857 293.116235 
L 135.578837 290.744471 
L 135.903817 290.744471 
L 136.228796 276.513882 
L 136.553776 274.142118 
L 137.203735 290.744471 
L 137.528714 288.372706 
L 137.853694 283.629176 
L 138.178673 281.257412 
L 138.503653 290.744471 
L 138.828632 293.116235 
L 139.153612 288.372706 
L 139.478591 281.257412 
L 140.12855 293.116235 
L 140.45353 290.744471 
L 142.403407 290.744471 
L 142.728387 288.372706 
L 143.053366 293.116235 
L 143.378346 281.257412 
L 144.028305 293.116235 
L 144.353284 286.000941 
L 144.678264 290.744471 
L 145.328223 286.000941 
L 145.653202 286.000941 
L 145.978182 288.372706 
L 146.303161 286.000941 
L 146.628141 293.116235 
L 146.95312 290.744471 
L 147.2781 290.744471 
L 147.603079 288.372706 
L 147.928059 283.629176 
L 148.253038 288.372706 
L 148.578018 286.000941 
L 148.902998 286.000941 
L 149.227977 290.744471 
L 150.202916 290.744471 
L 150.527895 283.629176 
L 150.852875 290.744471 
L 151.177854 293.116235 
L 151.502834 286.000941 
L 151.827813 290.744471 
L 152.477772 290.744471 
L 152.802752 288.372706 
L 153.127731 293.116235 
L 153.452711 293.116235 
L 153.77769 288.372706 
L 154.427649 288.372706 
L 154.752629 293.116235 
L 155.077609 288.372706 
L 155.402588 293.116235 
L 155.727568 293.116235 
L 156.052547 286.000941 
L 156.377527 290.744471 
L 156.702506 283.629176 
L 157.027486 290.744471 
L 157.352465 286.000941 
L 158.002424 290.744471 
L 158.327404 288.372706 
L 158.652383 293.116235 
L 158.977363 276.513882 
L 159.302342 290.744471 
L 159.627322 293.116235 
L 159.952301 286.000941 
L 160.277281 288.372706 
L 160.60226 293.116235 
L 161.252219 293.116235 
L 161.577199 290.744471 
L 161.902179 286.000941 
L 162.227158 293.116235 
L 162.552138 283.629176 
L 162.877117 283.629176 
L 163.202097 290.744471 
L 163.527076 283.629176 
L 163.852056 288.372706 
L 164.177035 290.744471 
L 164.502015 288.372706 
L 165.151974 293.116235 
L 165.476953 257.539765 
L 165.801933 288.372706 
L 166.126912 293.116235 
L 166.451892 290.744471 
L 166.776871 290.744471 
L 167.101851 286.000941 
L 167.42683 290.744471 
L 167.75181 288.372706 
L 168.07679 288.372706 
L 168.401769 283.629176 
L 168.726749 290.744471 
L 169.376708 286.000941 
L 169.701687 290.744471 
L 170.351646 286.000941 
L 170.676626 293.116235 
L 171.001605 281.257412 
L 171.326585 290.744471 
L 171.651564 286.000941 
L 172.301523 295.488 
L 172.626503 293.116235 
L 172.951482 295.488 
L 173.276462 290.744471 
L 173.601441 293.116235 
L 173.926421 271.770353 
L 174.57638 293.116235 
L 174.90136 283.629176 
L 175.226339 278.885647 
L 175.551319 286.000941 
L 175.876298 283.629176 
L 176.201278 295.488 
L 176.526257 286.000941 
L 176.851237 286.000941 
L 177.176216 288.372706 
L 177.501196 288.372706 
L 177.826175 290.744471 
L 178.151155 283.629176 
L 178.476134 290.744471 
L 178.801114 286.000941 
L 179.126093 271.770353 
L 179.451073 286.000941 
L 179.776052 290.744471 
L 180.101032 288.372706 
L 180.426011 295.488 
L 180.750991 283.629176 
L 181.075971 293.116235 
L 181.40095 290.744471 
L 181.72593 286.000941 
L 182.050909 290.744471 
L 182.375889 290.744471 
L 182.700868 295.488 
L 183.350827 290.744471 
L 183.675807 295.488 
L 184.000786 293.116235 
L 184.325766 293.116235 
L 184.650745 295.488 
L 184.975725 286.000941 
L 185.300704 283.629176 
L 185.625684 290.744471 
L 185.950663 293.116235 
L 186.275643 288.372706 
L 186.600622 286.000941 
L 186.925602 290.744471 
L 187.250581 290.744471 
L 187.575561 295.488 
L 188.22552 286.000941 
L 188.5505 290.744471 
L 188.875479 278.885647 
L 189.200459 290.744471 
L 189.525438 290.744471 
L 189.850418 288.372706 
L 190.175397 293.116235 
L 190.500377 293.116235 
L 190.825356 288.372706 
L 191.150336 293.116235 
L 191.475315 295.488 
L 192.125274 290.744471 
L 192.450254 293.116235 
L 192.775233 290.744471 
L 193.100213 286.000941 
L 193.425192 293.116235 
L 193.750172 288.372706 
L 194.075152 293.116235 
L 194.400131 288.372706 
L 194.725111 293.116235 
L 195.05009 293.116235 
L 196.025029 286.000941 
L 196.350008 290.744471 
L 196.674988 290.744471 
L 196.999967 288.372706 
L 197.324947 290.744471 
L 197.974906 290.744471 
L 198.299885 293.116235 
L 198.624865 290.744471 
L 198.949844 286.000941 
L 199.274824 290.744471 
L 199.599803 288.372706 
L 199.924783 295.488 
L 200.574742 290.744471 
L 200.899722 290.744471 
L 201.549681 286.000941 
L 201.87466 290.744471 
L 202.19964 290.744471 
L 202.524619 295.488 
L 202.849599 293.116235 
L 203.174578 295.488 
L 203.499558 295.488 
L 203.824537 293.116235 
L 204.149517 293.116235 
L 204.474496 295.488 
L 204.799476 286.000941 
L 205.124455 290.744471 
L 205.449435 293.116235 
L 205.774414 293.116235 
L 206.099394 295.488 
L 206.424373 293.116235 
L 206.749353 288.372706 
L 207.074333 288.372706 
L 207.399312 290.744471 
L 207.724292 288.372706 
L 208.049271 290.744471 
L 208.374251 290.744471 
L 208.69923 288.372706 
L 209.02421 293.116235 
L 209.349189 286.000941 
L 209.674169 290.744471 
L 209.999148 288.372706 
L 210.324128 283.629176 
L 210.649107 286.000941 
L 210.974087 286.000941 
L 211.299066 293.116235 
L 211.949025 293.116235 
L 212.274005 290.744471 
L 212.598984 295.488 
L 213.248943 290.744471 
L 213.573923 293.116235 
L 213.898903 293.116235 
L 214.223882 290.744471 
L 214.548862 290.744471 
L 214.873841 286.000941 
L 215.198821 290.744471 
L 215.5238 288.372706 
L 215.84878 290.744471 
L 216.173759 290.744471 
L 216.498739 295.488 
L 217.148698 290.744471 
L 217.798657 290.744471 
L 218.123636 293.116235 
L 218.773595 288.372706 
L 219.098575 290.744471 
L 219.423554 288.372706 
L 219.748534 290.744471 
L 220.073514 288.372706 
L 220.398493 290.744471 
L 220.723473 290.744471 
L 221.048452 295.488 
L 221.373432 293.116235 
L 221.698411 286.000941 
L 222.023391 290.744471 
L 222.34837 290.744471 
L 222.67335 293.116235 
L 222.998329 293.116235 
L 223.323309 288.372706 
L 223.648288 293.116235 
L 223.973268 293.116235 
L 224.298247 290.744471 
L 224.623227 293.116235 
L 224.948206 286.000941 
L 225.273186 290.744471 
L 225.598165 293.116235 
L 225.923145 293.116235 
L 226.248124 290.744471 
L 226.573104 293.116235 
L 226.898084 286.000941 
L 227.223063 293.116235 
L 227.548043 293.116235 
L 227.873022 290.744471 
L 228.198002 290.744471 
L 228.847961 295.488 
L 229.17294 286.000941 
L 229.49792 293.116235 
L 229.822899 290.744471 
L 230.147879 283.629176 
L 230.472858 290.744471 
L 230.797838 293.116235 
L 231.122817 290.744471 
L 231.447797 286.000941 
L 231.772776 290.744471 
L 232.097756 290.744471 
L 232.422735 293.116235 
L 232.747715 293.116235 
L 233.072695 290.744471 
L 233.722654 295.488 
L 234.047633 290.744471 
L 234.372613 290.744471 
L 234.697592 293.116235 
L 235.022572 290.744471 
L 235.347551 295.488 
L 235.672531 281.257412 
L 235.99751 290.744471 
L 236.32249 293.116235 
L 236.647469 290.744471 
L 236.972449 295.488 
L 237.297428 290.744471 
L 237.947387 295.488 
L 238.272367 290.744471 
L 238.597346 288.372706 
L 239.572285 295.488 
L 239.897265 295.488 
L 240.222244 286.000941 
L 240.547224 295.488 
L 240.872203 290.744471 
L 241.197183 290.744471 
L 241.847142 286.000941 
L 242.172121 290.744471 
L 242.497101 293.116235 
L 242.82208 288.372706 
L 243.472039 293.116235 
L 243.797019 283.629176 
L 244.121998 293.116235 
L 244.446978 290.744471 
L 244.771957 295.488 
L 245.096937 290.744471 
L 245.421916 290.744471 
L 245.746896 281.257412 
L 246.071876 293.116235 
L 246.396855 290.744471 
L 246.721835 290.744471 
L 247.046814 295.488 
L 247.371794 288.372706 
L 247.696773 290.744471 
L 248.021753 295.488 
L 248.346732 295.488 
L 248.671712 288.372706 
L 248.996691 290.744471 
L 249.321671 286.000941 
L 249.64665 286.000941 
L 249.97163 290.744471 
L 250.296609 288.372706 
L 250.946568 293.116235 
L 251.271548 293.116235 
L 251.596527 283.629176 
L 251.921507 293.116235 
L 252.571466 293.116235 
L 252.896446 290.744471 
L 253.221425 290.744471 
L 253.546405 288.372706 
L 253.871384 293.116235 
L 254.196364 295.488 
L 254.521343 288.372706 
L 254.846323 290.744471 
L 255.171302 290.744471 
L 255.496282 295.488 
L 255.821261 290.744471 
L 256.146241 288.372706 
L 256.47122 290.744471 
L 256.7962 295.488 
L 257.121179 290.744471 
L 257.771138 295.488 
L 258.096118 290.744471 
L 258.421097 290.744471 
L 258.746077 293.116235 
L 259.071057 286.000941 
L 259.721016 295.488 
L 260.045995 288.372706 
L 260.695954 293.116235 
L 261.020934 290.744471 
L 261.345913 293.116235 
L 261.670893 290.744471 
L 261.995872 293.116235 
L 262.320852 290.744471 
L 262.645831 295.488 
L 262.970811 293.116235 
L 263.29579 283.629176 
L 263.62077 290.744471 
L 263.945749 293.116235 
L 264.270729 288.372706 
L 264.595708 286.000941 
L 264.920688 293.116235 
L 265.245667 288.372706 
L 265.570647 290.744471 
L 265.895627 288.372706 
L 266.545586 293.116235 
L 266.870565 290.744471 
L 267.520524 290.744471 
L 267.845504 295.488 
L 268.170483 286.000941 
L 268.495463 290.744471 
L 268.820442 290.744471 
L 269.145422 293.116235 
L 269.470401 288.372706 
L 269.795381 290.744471 
L 270.12036 288.372706 
L 270.44534 290.744471 
L 270.770319 283.629176 
L 271.420278 295.488 
L 271.745258 293.116235 
L 272.070238 293.116235 
L 272.720197 288.372706 
L 273.045176 288.372706 
L 273.370156 295.488 
L 273.695135 290.744471 
L 274.020115 295.488 
L 274.345094 295.488 
L 274.670074 290.744471 
L 274.995053 293.116235 
L 275.320033 290.744471 
L 275.645012 293.116235 
L 275.969992 293.116235 
L 276.294971 295.488 
L 276.619951 286.000941 
L 276.94493 293.116235 
L 277.26991 290.744471 
L 277.594889 286.000941 
L 277.919869 286.000941 
L 278.244848 293.116235 
L 278.569828 293.116235 
L 278.894808 290.744471 
L 279.869746 290.744471 
L 280.194726 288.372706 
L 280.519705 290.744471 
L 281.494644 290.744471 
L 281.819623 293.116235 
L 282.144603 290.744471 
L 282.469582 293.116235 
L 282.794562 293.116235 
L 283.119541 290.744471 
L 283.444521 293.116235 
L 283.7695 290.744471 
L 284.09448 295.488 
L 284.419459 290.744471 
L 284.744439 295.488 
L 285.394398 295.488 
L 285.719378 290.744471 
L 286.369337 290.744471 
L 286.694316 293.116235 
L 287.019296 290.744471 
L 287.344275 290.744471 
L 287.669255 293.116235 
L 288.319214 288.372706 
L 288.644193 290.744471 
L 288.969173 295.488 
L 289.294152 293.116235 
L 289.944111 293.116235 
L 290.59407 288.372706 
L 290.91905 295.488 
L 291.244029 290.744471 
L 291.569009 293.116235 
L 291.893989 286.000941 
L 292.543948 295.488 
L 292.868927 290.744471 
L 293.193907 293.116235 
L 293.518886 290.744471 
L 293.843866 293.116235 
L 294.168845 290.744471 
L 294.493825 293.116235 
L 294.818804 290.744471 
L 295.143784 293.116235 
L 295.468763 293.116235 
L 295.793743 290.744471 
L 296.443702 295.488 
L 296.768681 290.744471 
L 297.093661 293.116235 
L 297.41864 288.372706 
L 297.74362 295.488 
L 298.0686 293.116235 
L 298.393579 293.116235 
L 298.718559 290.744471 
L 299.043538 290.744471 
L 299.368518 293.116235 
L 300.018477 288.372706 
L 300.343456 288.372706 
L 300.668436 290.744471 
L 300.993415 290.744471 
L 301.318395 293.116235 
L 301.968354 293.116235 
L 302.618313 288.372706 
L 302.943292 293.116235 
L 303.268272 290.744471 
L 303.593251 293.116235 
L 305.218149 293.116235 
L 305.543129 290.744471 
L 305.868108 290.744471 
L 306.193088 293.116235 
L 306.518067 290.744471 
L 306.843047 293.116235 
L 307.168026 293.116235 
L 307.493006 290.744471 
L 307.817985 290.744471 
L 308.142965 293.116235 
L 308.467944 290.744471 
L 308.792924 290.744471 
L 309.117903 293.116235 
L 309.442883 293.116235 
L 309.767862 288.372706 
L 310.092842 290.744471 
L 310.417821 290.744471 
L 310.742801 293.116235 
L 311.067781 290.744471 
L 311.39276 290.744471 
L 311.71774 295.488 
L 312.367699 290.744471 
L 312.692678 295.488 
L 313.017658 290.744471 
L 313.667617 290.744471 
L 313.992596 293.116235 
L 314.317576 290.744471 
L 314.642555 293.116235 
L 314.967535 293.116235 
L 315.292514 295.488 
L 315.617494 293.116235 
L 315.942473 288.372706 
L 316.267453 293.116235 
L 316.592432 295.488 
L 316.917412 290.744471 
L 317.567371 290.744471 
L 317.892351 295.488 
L 318.21733 290.744471 
L 318.54231 293.116235 
L 318.867289 290.744471 
L 319.192269 290.744471 
L 319.517248 288.372706 
L 319.842228 293.116235 
L 320.167207 290.744471 
L 320.492187 295.488 
L 320.817166 290.744471 
L 321.142146 293.116235 
L 321.467125 293.116235 
L 321.792105 295.488 
L 322.117084 290.744471 
L 322.442064 293.116235 
L 322.767043 290.744471 
L 324.066962 290.744471 
L 324.391941 293.116235 
L 324.716921 293.116235 
L 325.0419 290.744471 
L 325.36688 290.744471 
L 325.691859 293.116235 
L 326.016839 293.116235 
L 326.341818 288.372706 
L 326.666798 290.744471 
L 326.991777 295.488 
L 327.641736 290.744471 
L 327.966716 283.629176 
L 328.291695 290.744471 
L 328.616675 293.116235 
L 328.941654 288.372706 
L 329.266634 293.116235 
L 329.591613 293.116235 
L 329.916593 288.372706 
L 330.241572 290.744471 
L 330.566552 286.000941 
L 330.891532 290.744471 
L 331.216511 293.116235 
L 331.86647 293.116235 
L 332.19145 290.744471 
L 332.516429 295.488 
L 333.166388 290.744471 
L 333.491368 295.488 
L 333.816347 290.744471 
L 334.141327 293.116235 
L 334.466306 290.744471 
L 335.766224 290.744471 
L 336.091204 295.488 
L 336.416183 293.116235 
L 336.741163 288.372706 
L 337.066143 293.116235 
L 337.391122 290.744471 
L 338.041081 295.488 
L 338.366061 290.744471 
L 338.69104 290.744471 
L 339.01602 295.488 
L 339.340999 290.744471 
L 339.665979 293.116235 
L 340.315938 293.116235 
L 340.640917 290.744471 
L 340.965897 293.116235 
L 341.290876 290.744471 
L 341.615856 293.116235 
L 341.940835 293.116235 
L 342.265815 290.744471 
L 342.915774 295.488 
L 343.240753 290.744471 
L 344.215692 290.744471 
L 344.540672 293.116235 
L 345.190631 293.116235 
L 345.51561 295.488 
L 345.84059 290.744471 
L 346.815528 290.744471 
L 347.140508 295.488 
L 347.465487 290.744471 
L 347.790467 295.488 
L 348.115446 290.744471 
L 348.440426 290.744471 
L 348.765405 295.488 
L 349.090385 286.000941 
L 349.415364 293.116235 
L 349.740344 290.744471 
L 350.065324 293.116235 
L 350.715283 293.116235 
L 351.040262 286.000941 
L 351.365242 290.744471 
L 352.015201 295.488 
L 352.34018 293.116235 
L 352.66516 293.116235 
L 352.990139 290.744471 
L 353.315119 290.744471 
L 353.640098 286.000941 
L 353.965078 290.744471 
L 354.290057 290.744471 
L 354.615037 295.488 
L 354.940016 290.744471 
L 355.264996 290.744471 
L 355.589975 293.116235 
L 356.239934 293.116235 
L 356.564914 286.000941 
L 357.214873 295.488 
L 357.539853 283.629176 
L 357.864832 290.744471 
L 358.514791 290.744471 
L 358.839771 293.116235 
L 359.16475 293.116235 
L 359.48973 290.744471 
L 360.139689 290.744471 
L 360.464668 295.488 
L 360.789648 295.488 
L 361.439607 290.744471 
L 361.764586 293.116235 
L 362.089566 293.116235 
L 362.414545 290.744471 
L 362.739525 290.744471 
L 363.064505 293.116235 
L 363.714464 288.372706 
L 364.039443 293.116235 
L 365.014382 293.116235 
L 365.339361 290.744471 
L 365.664341 286.000941 
L 365.98932 290.744471 
L 366.3143 290.744471 
L 366.639279 295.488 
L 366.964259 290.744471 
L 367.614218 290.744471 
L 367.939197 293.116235 
L 368.264177 293.116235 
L 368.589156 290.744471 
L 368.914136 293.116235 
L 369.564095 293.116235 
L 369.889075 295.488 
L 370.214054 290.744471 
L 370.539034 290.744471 
L 370.864013 293.116235 
L 371.188993 290.744471 
L 371.513972 290.744471 
L 371.838952 293.116235 
L 372.163931 290.744471 
L 372.488911 290.744471 
L 372.81389 293.116235 
L 373.13887 290.744471 
L 373.463849 293.116235 
L 373.788829 293.116235 
L 374.113808 295.488 
L 374.438788 290.744471 
L 374.763767 293.116235 
L 375.738706 293.116235 
L 376.063686 290.744471 
L 377.363604 290.744471 
L 377.688583 288.372706 
L 378.013563 290.744471 
L 378.663522 290.744471 
L 378.988501 293.116235 
L 379.313481 293.116235 
L 379.63846 290.744471 
L 380.613399 290.744471 
L 380.938378 293.116235 
L 381.588337 293.116235 
L 381.913317 288.372706 
L 382.238296 295.488 
L 382.888256 290.744471 
L 383.213235 295.488 
L 383.538215 290.744471 
L 383.863194 290.744471 
L 384.188174 293.116235 
L 384.513153 288.372706 
L 384.838133 288.372706 
L 385.163112 295.488 
L 385.813071 290.744471 
L 386.138051 293.116235 
L 386.46303 290.744471 
L 386.78801 290.744471 
L 387.112989 293.116235 
L 387.437969 290.744471 
L 387.762948 290.744471 
L 388.087928 293.116235 
L 388.412907 290.744471 
L 388.737887 295.488 
L 389.062867 290.744471 
L 390.362785 290.744471 
L 391.012744 295.488 
L 391.337723 290.744471 
L 391.662703 293.116235 
L 391.987682 290.744471 
L 392.312662 293.116235 
L 392.637641 293.116235 
L 392.962621 290.744471 
L 393.2876 290.744471 
L 393.61258 295.488 
L 393.937559 293.116235 
L 394.262539 293.116235 
L 394.587518 290.744471 
L 394.912498 295.488 
L 395.237477 293.116235 
L 396.212416 293.116235 
L 396.537396 290.744471 
L 396.862375 293.116235 
L 397.187355 288.372706 
L 397.837314 293.116235 
L 398.162293 288.372706 
L 398.487273 290.744471 
L 398.487273 290.744471 
" clip-path="url(#pa94070e3b5)" style="fill: none; stroke: #1f77b4; stroke-width: 1.5; stroke-linecap: square"/>
   </g>
   <g id="patch_3">
    <path d="M 57.6 307.584 
L 57.6 41.472 
" style="fill: none; stroke: #000000; stroke-width: 0.8; stroke-linejoin: miter; stroke-linecap: square"/>
   </g>
   <g id="patch_4">
    <path d="M 414.72 307.584 
L 414.72 41.472 
" style="fill: none; stroke: #000000; stroke-width: 0.8; stroke-linejoin: miter; stroke-linecap: square"/>
   </g>
   <g id="patch_5">
    <path d="M 57.6 307.584 
L 414.72 307.584 
" style="fill: none; stroke: #000000; stroke-width: 0.8; stroke-linejoin: miter; stroke-linecap: square"/>
   </g>
   <g id="patch_6">
    <path d="M 57.6 41.472 
L 414.72 41.472 
" style="fill: none; stroke: #000000; stroke-width: 0.8; stroke-linejoin: miter; stroke-linecap: square"/>
   </g>
  </g>
 </g>
 <defs>
  <clipPath id="pa94070e3b5">
   <rect x="57.6" y="41.472" width="357.12" height="266.112"/>
  </clipPath>
 </defs>
</svg>
