<?xml version="1.0" encoding="utf-8" standalone="no"?>
<!DOCTYPE svg PUBLIC "-//W3C//DTD SVG 1.1//EN"
  "http://www.w3.org/Graphics/SVG/1.1/DTD/svg11.dtd">
<svg xmlns:xlink="http://www.w3.org/1999/xlink" width="460.8pt" height="345.6pt" viewBox="0 0 460.8 345.6" xmlns="http://www.w3.org/2000/svg" version="1.1">
 <metadata>
  <rdf:RDF xmlns:dc="http://purl.org/dc/elements/1.1/" xmlns:cc="http://creativecommons.org/ns#" xmlns:rdf="http://www.w3.org/1999/02/22-rdf-syntax-ns#">
   <cc:Work>
    <dc:type rdf:resource="http://purl.org/dc/dcmitype/StillImage"/>
    <dc:date>2026-04-19T21:15:18.168483</dc:date>
    <dc:format>image/svg+xml</dc:format>
    <dc:creator>
     <cc:Agent>
      <dc:title>Matplotlib v3.10.8, https://matplotlib.org/</dc:title>
     </cc:Agent>
    </dc:creator>
   </cc:Work>
  </rdf:RDF>
 </metadata>
 <defs>
  <style type="text/css">*{stroke-linejoin: round; stroke-linecap: butt}</style>
 </defs>
 <g id="figure_1">
  <g id="patch_1">
   <path d="M 0 345.6 
L 460.8 345.6 
L 460.8 0 
L 0 0 
z
" style="fill: #ffffff"/>
  </g>
  <g id="axes_1">
   <g id="patch_2">
    <path d="M 57.6 307.584 
L 414.72 307.584 
L 414.72 41.472 
L 57.6 41.472 
z
" style="fill: #ffffff"/>
   </g>
   <g id="matplotlib.axis_1">
    <g id="xtick_1">
     <g id="line2d_1">
      <defs>
       <path id="m1fea4cfd74" d="M 0 0 
L 0 3.5 
" style="stroke: #000000; stroke-width: 0.8"/>
      </defs>
      <g>
       <use xlink:href="#m1fea4cfd74" x="73.832727" y="307.584" style="stroke: #000000; stroke-width: 0.8"/>
      </g>
     </g>
     <g id="text_1">
      <!-- 0 -->
      <g transform="translate(70.651477 322.182437) scale(0.1 -0.1)">
       <defs>
        <path id="DejaVuSans-30" d="M 2034 4250 
Q 1547 4250 1301 3770 
Q 1056 3291 1056 2328 
Q 1056 1369 1301 889 
Q 1547 409 2034 409 
Q 2525 409 2770 889 
Q 3016 1369 3016 2328 
Q 3016 3291 2770 3770 
Q 2525 4250 2034 4250 
z
M 2034 4750 
Q 2819 4750 3233 4129 
Q 3647 3509 3647 2328 
Q 3647 1150 3233 529 
Q 2819 -91 2034 -91 
Q 1250 -91 836 529 
Q 422 1150 422 2328 
Q 422 3509 836 4129 
Q 1250 4750 2034 4750 
z
" transform="scale(0.015625)"/>
       </defs>
       <use xlink:href="#DejaVuSans-30"/>
      </g>
     </g>
    </g>
    <g id="xtick_2">
     <g id="line2d_2">
      <g>
       <use xlink:href="#m1fea4cfd74" x="138.828632" y="307.584" style="stroke: #000000; stroke-width: 0.8"/>
      </g>
     </g>
     <g id="text_2">
      <!-- 200 -->
      <g transform="translate(129.284882 322.182437) scale(0.1 -0.1)">
       <defs>
        <path id="DejaVuSans-32" d="M 1228 531 
L 3431 531 
L 3431 0 
L 469 0 
L 469 531 
Q 828 903 1448 1529 
Q 2069 2156 2228 2338 
Q 2531 2678 2651 2914 
Q 2772 3150 2772 3378 
Q 2772 3750 2511 3984 
Q 2250 4219 1831 4219 
Q 1534 4219 1204 4116 
Q 875 4013 500 3803 
L 500 4441 
Q 881 4594 1212 4672 
Q 1544 4750 1819 4750 
Q 2544 4750 2975 4387 
Q 3406 4025 3406 3419 
Q 3406 3131 3298 2873 
Q 3191 2616 2906 2266 
Q 2828 2175 2409 1742 
Q 1991 1309 1228 531 
z
" transform="scale(0.015625)"/>
       </defs>
       <use xlink:href="#DejaVuSans-32"/>
       <use xlink:href="#DejaVuSans-30" transform="translate(63.623047 0)"/>
       <use xlink:href="#DejaVuSans-30" transform="translate(127.246094 0)"/>
      </g>
     </g>
    </g>
    <g id="xtick_3">
     <g id="line2d_3">
      <g>
       <use xlink:href="#m1fea4cfd74" x="203.824537" y="307.584" style="stroke: #000000; stroke-width: 0.8"/>
      </g>
     </g>
     <g id="text_3">
      <!-- 400 -->
      <g transform="translate(194.280787 322.182437) scale(0.1 -0.1)">
       <defs>
        <path id="DejaVuSans-34" d="M 2419 4116 
L 825 1625 
L 2419 1625 
L 2419 4116 
z
M 2253 4666 
L 3047 4666 
L 3047 1625 
L 3713 1625 
L 3713 1100 
L 3047 1100 
L 3047 0 
L 2419 0 
L 2419 1100 
L 313 1100 
L 313 1709 
L 2253 4666 
z
" transform="scale(0.015625)"/>
       </defs>
       <use xlink:href="#DejaVuSans-34"/>
       <use xlink:href="#DejaVuSans-30" transform="translate(63.623047 0)"/>
       <use xlink:href="#DejaVuSans-30" transform="translate(127.246094 0)"/>
      </g>
     </g>
    </g>
    <g id="xtick_4">
     <g id="line2d_4">
      <g>
       <use xlink:href="#m1fea4cfd74" x="268.820442" y="307.584" style="stroke: #000000; stroke-width: 0.8"/>
      </g>
     </g>
     <g id="text_4">
      <!-- 600 -->
      <g transform="translate(259.276692 322.182437) scale(0.1 -0.1)">
       <defs>
        <path id="DejaVuSans-36" d="M 2113 2584 
Q 1688 2584 1439 2293 
Q 1191 2003 1191 1497 
Q 1191 994 1439 701 
Q 1688 409 2113 409 
Q 2538 409 2786 701 
Q 3034 994 3034 1497 
Q 3034 2003 2786 2293 
Q 2538 2584 2113 2584 
z
M 3366 4563 
L 3366 3988 
Q 3128 4100 2886 4159 
Q 2644 4219 2406 4219 
Q 1781 4219 1451 3797 
Q 1122 3375 1075 2522 
Q 1259 2794 1537 2939 
Q 1816 3084 2150 3084 
Q 2853 3084 3261 2657 
Q 3669 2231 3669 1497 
Q 3669 778 3244 343 
Q 2819 -91 2113 -91 
Q 1303 -91 875 529 
Q 447 1150 447 2328 
Q 447 3434 972 4092 
Q 1497 4750 2381 4750 
Q 2619 4750 2861 4703 
Q 3103 4656 3366 4563 
z
" transform="scale(0.015625)"/>
       </defs>
       <use xlink:href="#DejaVuSans-36"/>
       <use xlink:href="#DejaVuSans-30" transform="translate(63.623047 0)"/>
       <use xlink:href="#DejaVuSans-30" transform="translate(127.246094 0)"/>
      </g>
     </g>
    </g>
    <g id="xtick_5">
     <g id="line2d_5">
      <g>
       <use xlink:href="#m1fea4cfd74" x="333.816347" y="307.584" style="stroke: #000000; stroke-width: 0.8"/>
      </g>
     </g>
     <g id="text_5">
      <!-- 800 -->
      <g transform="translate(324.272597 322.182437) scale(0.1 -0.1)">
       <defs>
        <path id="DejaVuSans-38" d="M 2034 2216 
Q 1584 2216 1326 1975 
Q 1069 1734 1069 1313 
Q 1069 891 1326 650 
Q 1584 409 2034 409 
Q 2484 409 2743 651 
Q 3003 894 3003 1313 
Q 3003 1734 2745 1975 
Q 2488 2216 2034 2216 
z
M 1403 2484 
Q 997 2584 770 2862 
Q 544 3141 544 3541 
Q 544 4100 942 4425 
Q 1341 4750 2034 4750 
Q 2731 4750 3128 4425 
Q 3525 4100 3525 3541 
Q 3525 3141 3298 2862 
Q 3072 2584 2669 2484 
Q 3125 2378 3379 2068 
Q 3634 1759 3634 1313 
Q 3634 634 3220 271 
Q 2806 -91 2034 -91 
Q 1263 -91 848 271 
Q 434 634 434 1313 
Q 434 1759 690 2068 
Q 947 2378 1403 2484 
z
M 1172 3481 
Q 1172 3119 1398 2916 
Q 1625 2713 2034 2713 
Q 2441 2713 2670 2916 
Q 2900 3119 2900 3481 
Q 2900 3844 2670 4047 
Q 2441 4250 2034 4250 
Q 1625 4250 1398 4047 
Q 1172 3844 1172 3481 
z
" transform="scale(0.015625)"/>
       </defs>
       <use xlink:href="#DejaVuSans-38"/>
       <use xlink:href="#DejaVuSans-30" transform="translate(63.623047 0)"/>
       <use xlink:href="#DejaVuSans-30" transform="translate(127.246094 0)"/>
      </g>
     </g>
    </g>
    <g id="xtick_6">
     <g id="line2d_6">
      <g>
       <use xlink:href="#m1fea4cfd74" x="398.812252" y="307.584" style="stroke: #000000; stroke-width: 0.8"/>
      </g>
     </g>
     <g id="text_6">
      <!-- 1000 -->
      <g transform="translate(386.087252 322.182437) scale(0.1 -0.1)">
       <defs>
        <path id="DejaVuSans-31" d="M 794 531 
L 1825 531 
L 1825 4091 
L 703 3866 
L 703 4441 
L 1819 4666 
L 2450 4666 
L 2450 531 
L 3481 531 
L 3481 0 
L 794 0 
L 794 531 
z
" transform="scale(0.015625)"/>
       </defs>
       <use xlink:href="#DejaVuSans-31"/>
       <use xlink:href="#DejaVuSans-30" transform="translate(63.623047 0)"/>
       <use xlink:href="#DejaVuSans-30" transform="translate(127.246094 0)"/>
       <use xlink:href="#DejaVuSans-30" transform="translate(190.869141 0)"/>
      </g>
     </g>
    </g>
    <g id="text_7">
     <!-- Episode # -->
     <g transform="translate(210.743594 335.860562) scale(0.1 -0.1)">
      <defs>
       <path id="DejaVuSans-45" d="M 628 4666 
L 3578 4666 
L 3578 4134 
L 1259 4134 
L 1259 2753 
L 3481 2753 
L 3481 2222 
L 1259 2222 
L 1259 531 
L 3634 531 
L 3634 0 
L 628 0 
L 628 4666 
z
" transform="scale(0.015625)"/>
       <path id="DejaVuSans-70" d="M 1159 525 
L 1159 -1331 
L 581 -1331 
L 581 3500 
L 1159 3500 
L 1159 2969 
Q 1341 3281 1617 3432 
Q 1894 3584 2278 3584 
Q 2916 3584 3314 3078 
Q 3713 2572 3713 1747 
Q 3713 922 3314 415 
Q 2916 -91 2278 -91 
Q 1894 -91 1617 61 
Q 1341 213 1159 525 
z
M 3116 1747 
Q 3116 2381 2855 2742 
Q 2594 3103 2138 3103 
Q 1681 3103 1420 2742 
Q 1159 2381 1159 1747 
Q 1159 1113 1420 752 
Q 1681 391 2138 391 
Q 2594 391 2855 752 
Q 3116 1113 3116 1747 
z
" transform="scale(0.015625)"/>
       <path id="DejaVuSans-69" d="M 603 3500 
L 1178 3500 
L 1178 0 
L 603 0 
L 603 3500 
z
M 603 4863 
L 1178 4863 
L 1178 4134 
L 603 4134 
L 603 4863 
z
" transform="scale(0.015625)"/>
       <path id="DejaVuSans-73" d="M 2834 3397 
L 2834 2853 
Q 2591 2978 2328 3040 
Q 2066 3103 1784 3103 
Q 1356 3103 1142 2972 
Q 928 2841 928 2578 
Q 928 2378 1081 2264 
Q 1234 2150 1697 2047 
L 1894 2003 
Q 2506 1872 2764 1633 
Q 3022 1394 3022 966 
Q 3022 478 2636 193 
Q 2250 -91 1575 -91 
Q 1294 -91 989 -36 
Q 684 19 347 128 
L 347 722 
Q 666 556 975 473 
Q 1284 391 1588 391 
Q 1994 391 2212 530 
Q 2431 669 2431 922 
Q 2431 1156 2273 1281 
Q 2116 1406 1581 1522 
L 1381 1569 
Q 847 1681 609 1914 
Q 372 2147 372 2553 
Q 372 3047 722 3315 
Q 1072 3584 1716 3584 
Q 2034 3584 2315 3537 
Q 2597 3491 2834 3397 
z
" transform="scale(0.015625)"/>
       <path id="DejaVuSans-6f" d="M 1959 3097 
Q 1497 3097 1228 2736 
Q 959 2375 959 1747 
Q 959 1119 1226 758 
Q 1494 397 1959 397 
Q 2419 397 2687 759 
Q 2956 1122 2956 1747 
Q 2956 2369 2687 2733 
Q 2419 3097 1959 3097 
z
M 1959 3584 
Q 2709 3584 3137 3096 
Q 3566 2609 3566 1747 
Q 3566 888 3137 398 
Q 2709 -91 1959 -91 
Q 1206 -91 779 398 
Q 353 888 353 1747 
Q 353 2609 779 3096 
Q 1206 3584 1959 3584 
z
" transform="scale(0.015625)"/>
       <path id="DejaVuSans-64" d="M 2906 2969 
L 2906 4863 
L 3481 4863 
L 3481 0 
L 2906 0 
L 2906 525 
Q 2725 213 2448 61 
Q 2172 -91 1784 -91 
Q 1150 -91 751 415 
Q 353 922 353 1747 
Q 353 2572 751 3078 
Q 1150 3584 1784 3584 
Q 2172 3584 2448 3432 
Q 2725 3281 2906 2969 
z
M 947 1747 
Q 947 1113 1208 752 
Q 1469 391 1925 391 
Q 2381 391 2643 752 
Q 2906 1113 2906 1747 
Q 2906 2381 2643 2742 
Q 2381 3103 1925 3103 
Q 1469 3103 1208 2742 
Q 947 2381 947 1747 
z
" transform="scale(0.015625)"/>
       <path id="DejaVuSans-65" d="M 3597 1894 
L 3597 1613 
L 953 1613 
Q 991 1019 1311 708 
Q 1631 397 2203 397 
Q 2534 397 2845 478 
Q 3156 559 3463 722 
L 3463 178 
Q 3153 47 2828 -22 
Q 2503 -91 2169 -91 
Q 1331 -91 842 396 
Q 353 884 353 1716 
Q 353 2575 817 3079 
Q 1281 3584 2069 3584 
Q 2775 3584 3186 3129 
Q 3597 2675 3597 1894 
z
M 3022 2063 
Q 3016 2534 2758 2815 
Q 2500 3097 2075 3097 
Q 1594 3097 1305 2825 
Q 1016 2553 972 2059 
L 3022 2063 
z
" transform="scale(0.015625)"/>
       <path id="DejaVuSans-20" transform="scale(0.015625)"/>
       <path id="DejaVuSans-23" d="M 3272 2816 
L 2363 2816 
L 2100 1772 
L 3016 1772 
L 3272 2816 
z
M 2803 4594 
L 2478 3297 
L 3391 3297 
L 3719 4594 
L 4219 4594 
L 3897 3297 
L 4872 3297 
L 4872 2816 
L 3775 2816 
L 3519 1772 
L 4513 1772 
L 4513 1294 
L 3397 1294 
L 3072 0 
L 2572 0 
L 2894 1294 
L 1978 1294 
L 1656 0 
L 1153 0 
L 1478 1294 
L 494 1294 
L 494 1772 
L 1594 1772 
L 1856 2816 
L 850 2816 
L 850 3297 
L 1978 3297 
L 2297 4594 
L 2803 4594 
z
" transform="scale(0.015625)"/>
      </defs>
      <use xlink:href="#DejaVuSans-45"/>
      <use xlink:href="#DejaVuSans-70" transform="translate(63.183594 0)"/>
      <use xlink:href="#DejaVuSans-69" transform="translate(126.660156 0)"/>
      <use xlink:href="#DejaVuSans-73" transform="translate(154.443359 0)"/>
      <use xlink:href="#DejaVuSans-6f" transform="translate(206.542969 0)"/>
      <use xlink:href="#DejaVuSans-64" transform="translate(267.724609 0)"/>
      <use xlink:href="#DejaVuSans-65" transform="translate(331.201172 0)"/>
      <use xlink:href="#DejaVuSans-20" transform="translate(392.724609 0)"/>
      <use xlink:href="#DejaVuSans-23" transform="translate(424.511719 0)"/>
     </g>
    </g>
   </g>
   <g id="matplotlib.axis_2">
    <g id="ytick_1">
     <g id="line2d_7">
      <defs>
       <path id="mcc0771800d" d="M 0 0 
L -3.5 0 
" style="stroke: #000000; stroke-width: 0.8"/>
      </defs>
      <g>
       <use xlink:href="#mcc0771800d" x="57.6" y="288.266507" style="stroke: #000000; stroke-width: 0.8"/>
      </g>
     </g>
     <g id="text_8">
      <!-- 10 -->
      <g transform="translate(37.875 292.065726) scale(0.1 -0.1)">
       <use xlink:href="#DejaVuSans-31"/>
       <use xlink:href="#DejaVuSans-30" transform="translate(63.623047 0)"/>
      </g>
     </g>
    </g>
    <g id="ytick_2">
     <g id="line2d_8">
      <g>
       <use xlink:href="#mcc0771800d" x="57.6" y="252.159045" style="stroke: #000000; stroke-width: 0.8"/>
      </g>
     </g>
     <g id="text_9">
      <!-- 20 -->
      <g transform="translate(37.875 255.958264) scale(0.1 -0.1)">
       <use xlink:href="#DejaVuSans-32"/>
       <use xlink:href="#DejaVuSans-30" transform="translate(63.623047 0)"/>
      </g>
     </g>
    </g>
    <g id="ytick_3">
     <g id="line2d_9">
      <g>
       <use xlink:href="#mcc0771800d" x="57.6" y="216.051582" style="stroke: #000000; stroke-width: 0.8"/>
      </g>
     </g>
     <g id="text_10">
      <!-- 30 -->
      <g transform="translate(37.875 219.850801) scale(0.1 -0.1)">
       <defs>
        <path id="DejaVuSans-33" d="M 2597 2516 
Q 3050 2419 3304 2112 
Q 3559 1806 3559 1356 
Q 3559 666 3084 287 
Q 2609 -91 1734 -91 
Q 1441 -91 1130 -33 
Q 819 25 488 141 
L 488 750 
Q 750 597 1062 519 
Q 1375 441 1716 441 
Q 2309 441 2620 675 
Q 2931 909 2931 1356 
Q 2931 1769 2642 2001 
Q 2353 2234 1838 2234 
L 1294 2234 
L 1294 2753 
L 1863 2753 
Q 2328 2753 2575 2939 
Q 2822 3125 2822 3475 
Q 2822 3834 2567 4026 
Q 2313 4219 1838 4219 
Q 1578 4219 1281 4162 
Q 984 4106 628 3988 
L 628 4550 
Q 988 4650 1302 4700 
Q 1616 4750 1894 4750 
Q 2613 4750 3031 4423 
Q 3450 4097 3450 3541 
Q 3450 3153 3228 2886 
Q 3006 2619 2597 2516 
z
" transform="scale(0.015625)"/>
       </defs>
       <use xlink:href="#DejaVuSans-33"/>
       <use xlink:href="#DejaVuSans-30" transform="translate(63.623047 0)"/>
      </g>
     </g>
    </g>
    <g id="ytick_4">
     <g id="line2d_10">
      <g>
       <use xlink:href="#mcc0771800d" x="57.6" y="179.944119" style="stroke: #000000; stroke-width: 0.8"/>
      </g>
     </g>
     <g id="text_11">
      <!-- 40 -->
      <g transform="translate(37.875 183.743338) scale(0.1 -0.1)">
       <use xlink:href="#DejaVuSans-34"/>
       <use xlink:href="#DejaVuSans-30" transform="translate(63.623047 0)"/>
      </g>
     </g>
    </g>
    <g id="ytick_5">
     <g id="line2d_11">
      <g>
       <use xlink:href="#mcc0771800d" x="57.6" y="143.836657" style="stroke: #000000; stroke-width: 0.8"/>
      </g>
     </g>
     <g id="text_12">
      <!-- 50 -->
      <g transform="translate(37.875 147.635875) scale(0.1 -0.1)">
       <defs>
        <path id="DejaVuSans-35" d="M 691 4666 
L 3169 4666 
L 3169 4134 
L 1269 4134 
L 1269 2991 
Q 1406 3038 1543 3061 
Q 1681 3084 1819 3084 
Q 2600 3084 3056 2656 
Q 3513 2228 3513 1497 
Q 3513 744 3044 326 
Q 2575 -91 1722 -91 
Q 1428 -91 1123 -41 
Q 819 9 494 109 
L 494 744 
Q 775 591 1075 516 
Q 1375 441 1709 441 
Q 2250 441 2565 725 
Q 2881 1009 2881 1497 
Q 2881 1984 2565 2268 
Q 2250 2553 1709 2553 
Q 1456 2553 1204 2497 
Q 953 2441 691 2322 
L 691 4666 
z
" transform="scale(0.015625)"/>
       </defs>
       <use xlink:href="#DejaVuSans-35"/>
       <use xlink:href="#DejaVuSans-30" transform="translate(63.623047 0)"/>
      </g>
     </g>
    </g>
    <g id="ytick_6">
     <g id="line2d_12">
      <g>
       <use xlink:href="#mcc0771800d" x="57.6" y="107.729194" style="stroke: #000000; stroke-width: 0.8"/>
      </g>
     </g>
     <g id="text_13">
      <!-- 60 -->
      <g transform="translate(37.875 111.528413) scale(0.1 -0.1)">
       <use xlink:href="#DejaVuSans-36"/>
       <use xlink:href="#DejaVuSans-30" transform="translate(63.623047 0)"/>
      </g>
     </g>
    </g>
    <g id="ytick_7">
     <g id="line2d_13">
      <g>
       <use xlink:href="#mcc0771800d" x="57.6" y="71.621731" style="stroke: #000000; stroke-width: 0.8"/>
      </g>
     </g>
     <g id="text_14">
      <!-- 70 -->
      <g transform="translate(37.875 75.42095) scale(0.1 -0.1)">
       <defs>
        <path id="DejaVuSans-37" d="M 525 4666 
L 3525 4666 
L 3525 4397 
L 1831 0 
L 1172 0 
L 2766 4134 
L 525 4134 
L 525 4666 
z
" transform="scale(0.015625)"/>
       </defs>
       <use xlink:href="#DejaVuSans-37"/>
       <use xlink:href="#DejaVuSans-30" transform="translate(63.623047 0)"/>
      </g>
     </g>
    </g>
    <g id="text_15">
     <!-- Score -->
     <g transform="translate(31.795313 188.530344) rotate(-90) scale(0.1 -0.1)">
      <defs>
       <path id="DejaVuSans-53" d="M 3425 4513 
L 3425 3897 
Q 3066 4069 2747 4153 
Q 2428 4238 2131 4238 
Q 1616 4238 1336 4038 
Q 1056 3838 1056 3469 
Q 1056 3159 1242 3001 
Q 1428 2844 1947 2747 
L 2328 2669 
Q 3034 2534 3370 2195 
Q 3706 1856 3706 1288 
Q 3706 609 3251 259 
Q 2797 -91 1919 -91 
Q 1588 -91 1214 -16 
Q 841 59 441 206 
L 441 856 
Q 825 641 1194 531 
Q 1563 422 1919 422 
Q 2459 422 2753 634 
Q 3047 847 3047 1241 
Q 3047 1584 2836 1778 
Q 2625 1972 2144 2069 
L 1759 2144 
Q 1053 2284 737 2584 
Q 422 2884 422 3419 
Q 422 4038 858 4394 
Q 1294 4750 2059 4750 
Q 2388 4750 2728 4690 
Q 3069 4631 3425 4513 
z
" transform="scale(0.015625)"/>
       <path id="DejaVuSans-63" d="M 3122 3366 
L 3122 2828 
Q 2878 2963 2633 3030 
Q 2388 3097 2138 3097 
Q 1578 3097 1268 2742 
Q 959 2388 959 1747 
Q 959 1106 1268 751 
Q 1578 397 2138 397 
Q 2388 397 2633 464 
Q 2878 531 3122 666 
L 3122 134 
Q 2881 22 2623 -34 
Q 2366 -91 2075 -91 
Q 1284 -91 818 406 
Q 353 903 353 1747 
Q 353 2603 823 3093 
Q 1294 3584 2113 3584 
Q 2378 3584 2631 3529 
Q 2884 3475 3122 3366 
z
" transform="scale(0.015625)"/>
       <path id="DejaVuSans-72" d="M 2631 2963 
Q 2534 3019 2420 3045 
Q 2306 3072 2169 3072 
Q 1681 3072 1420 2755 
Q 1159 2438 1159 1844 
L 1159 0 
L 581 0 
L 581 3500 
L 1159 3500 
L 1159 2956 
Q 1341 3275 1631 3429 
Q 1922 3584 2338 3584 
Q 2397 3584 2469 3576 
Q 2541 3569 2628 3553 
L 2631 2963 
z
" transform="scale(0.015625)"/>
      </defs>
      <use xlink:href="#DejaVuSans-53"/>
      <use xlink:href="#DejaVuSans-63" transform="translate(63.476562 0)"/>
      <use xlink:href="#DejaVuSans-6f" transform="translate(118.457031 0)"/>
      <use xlink:href="#DejaVuSans-72" transform="translate(179.638672 0)"/>
      <use xlink:href="#DejaVuSans-65" transform="translate(218.501953 0)"/>
     </g>
    </g>
   </g>
   <g id="line2d_14">
    <path d="M 73.832727 259.380537 
L 74.157707 230.494567 
L 74.482686 234.105313 
L 74.807666 281.045015 
L 75.132645 255.769791 
L 75.457625 205.219343 
L 75.782604 252.159045 
L 76.107584 273.823522 
L 76.432563 154.668896 
L 76.757543 234.105313 
L 77.082523 237.71606 
L 77.407502 273.823522 
L 77.732482 259.380537 
L 78.057461 230.494567 
L 78.382441 226.883821 
L 78.70742 273.823522 
L 79.0324 284.655761 
L 79.357379 230.494567 
L 79.682359 216.051582 
L 80.007338 252.159045 
L 80.332318 255.769791 
L 80.657297 252.159045 
L 80.982277 266.60203 
L 81.632236 208.83009 
L 81.957215 208.83009 
L 82.282195 252.159045 
L 82.607174 154.668896 
L 82.932154 259.380537 
L 83.257133 208.83009 
L 83.582113 255.769791 
L 83.907093 223.273075 
L 84.232072 295.488 
L 84.882031 194.387104 
L 85.53199 244.937552 
L 85.85697 295.488 
L 86.181949 53.568 
L 86.506929 288.266507 
L 86.831908 262.991284 
L 87.156888 226.883821 
L 87.481867 277.434269 
L 87.806847 259.380537 
L 88.131826 281.045015 
L 88.456806 262.991284 
L 88.781785 266.60203 
L 89.106765 241.326806 
L 89.431744 143.836657 
L 89.756724 262.991284 
L 90.081704 291.877254 
L 90.406683 259.380537 
L 90.731663 179.944119 
L 91.056642 230.494567 
L 91.381622 255.769791 
L 91.706601 270.212776 
L 92.031581 277.434269 
L 92.35656 288.266507 
L 92.68154 284.655761 
L 93.006519 266.60203 
L 93.331499 288.266507 
L 93.656478 190.776358 
L 93.981458 230.494567 
L 94.631417 266.60203 
L 94.956396 295.488 
L 95.281376 230.494567 
L 95.606355 237.71606 
L 95.931335 281.045015 
L 96.256314 248.548299 
L 96.581294 237.71606 
L 96.906274 270.212776 
L 97.231253 270.212776 
L 97.556233 244.937552 
L 97.881212 281.045015 
L 98.206192 230.494567 
L 98.531171 284.655761 
L 98.856151 284.655761 
L 99.18113 262.991284 
L 99.50611 284.655761 
L 99.831089 255.769791 
L 100.156069 295.488 
L 100.481048 255.769791 
L 100.806028 230.494567 
L 101.131007 281.045015 
L 101.455987 255.769791 
L 101.780966 284.655761 
L 102.105946 262.991284 
L 102.430925 291.877254 
L 102.755905 270.212776 
L 103.080885 212.440836 
L 103.405864 201.608597 
L 103.730844 259.380537 
L 104.055823 248.548299 
L 104.380803 277.434269 
L 104.705782 277.434269 
L 105.030762 291.877254 
L 105.355741 244.937552 
L 106.0057 284.655761 
L 106.33068 216.051582 
L 106.655659 284.655761 
L 106.980639 270.212776 
L 107.305618 273.823522 
L 107.630598 284.655761 
L 107.955577 288.266507 
L 108.280557 288.266507 
L 108.605536 284.655761 
L 108.930516 266.60203 
L 109.255495 241.326806 
L 109.580475 270.212776 
L 109.905455 266.60203 
L 110.230434 255.769791 
L 110.555414 284.655761 
L 110.880393 291.877254 
L 111.205373 284.655761 
L 111.530352 281.045015 
L 111.855332 273.823522 
L 112.180311 273.823522 
L 112.505291 284.655761 
L 112.83027 288.266507 
L 113.15525 262.991284 
L 113.480229 277.434269 
L 113.805209 284.655761 
L 114.455168 262.991284 
L 114.780147 284.655761 
L 115.105127 277.434269 
L 115.430106 281.045015 
L 115.755086 255.769791 
L 116.080066 288.266507 
L 116.405045 281.045015 
L 116.730025 284.655761 
L 117.055004 277.434269 
L 117.379984 284.655761 
L 117.704963 248.548299 
L 118.029943 273.823522 
L 118.354922 288.266507 
L 118.679902 277.434269 
L 119.004881 295.488 
L 119.329861 273.823522 
L 119.65484 288.266507 
L 120.629779 266.60203 
L 120.954758 273.823522 
L 121.279738 273.823522 
L 121.604717 281.045015 
L 121.929697 259.380537 
L 122.254676 291.877254 
L 122.579656 270.212776 
L 122.904636 284.655761 
L 123.229615 270.212776 
L 123.554595 266.60203 
L 123.879574 281.045015 
L 124.204554 277.434269 
L 124.529533 277.434269 
L 124.854513 270.212776 
L 125.179492 244.937552 
L 125.829451 277.434269 
L 126.154431 237.71606 
L 126.47941 291.877254 
L 126.80439 291.877254 
L 127.129369 273.823522 
L 127.454349 284.655761 
L 127.779328 259.380537 
L 128.104308 262.991284 
L 128.429287 273.823522 
L 128.754267 273.823522 
L 129.079247 248.548299 
L 129.404226 270.212776 
L 129.729206 248.548299 
L 130.054185 284.655761 
L 130.379165 277.434269 
L 130.704144 262.991284 
L 131.029124 284.655761 
L 131.679083 241.326806 
L 132.329042 266.60203 
L 132.654021 273.823522 
L 132.979001 259.380537 
L 133.30398 234.105313 
L 133.62896 262.991284 
L 133.953939 266.60203 
L 134.278919 281.045015 
L 134.603898 259.380537 
L 134.928878 262.991284 
L 135.253857 248.548299 
L 135.578837 273.823522 
L 135.903817 259.380537 
L 136.228796 273.823522 
L 136.553776 262.991284 
L 136.878755 266.60203 
L 137.203735 277.434269 
L 137.528714 234.105313 
L 138.178673 281.045015 
L 138.503653 281.045015 
L 138.828632 284.655761 
L 139.153612 273.823522 
L 139.478591 281.045015 
L 139.803571 273.823522 
L 140.12855 241.326806 
L 140.778509 266.60203 
L 141.103489 230.494567 
L 141.428468 266.60203 
L 141.753448 266.60203 
L 142.078428 248.548299 
L 142.403407 270.212776 
L 142.728387 277.434269 
L 143.053366 270.212776 
L 143.378346 266.60203 
L 143.703325 284.655761 
L 144.028305 281.045015 
L 144.353284 281.045015 
L 144.678264 270.212776 
L 145.003243 291.877254 
L 145.328223 266.60203 
L 145.653202 284.655761 
L 145.978182 248.548299 
L 146.303161 291.877254 
L 146.628141 262.991284 
L 146.95312 281.045015 
L 147.603079 273.823522 
L 147.928059 291.877254 
L 148.253038 270.212776 
L 148.578018 270.212776 
L 148.902998 277.434269 
L 149.227977 277.434269 
L 149.552957 281.045015 
L 149.877936 262.991284 
L 150.202916 277.434269 
L 150.527895 266.60203 
L 150.852875 273.823522 
L 151.177854 270.212776 
L 151.502834 284.655761 
L 151.827813 262.991284 
L 152.152793 281.045015 
L 152.477772 273.823522 
L 152.802752 281.045015 
L 153.127731 270.212776 
L 153.452711 277.434269 
L 153.77769 255.769791 
L 154.427649 281.045015 
L 154.752629 284.655761 
L 155.077609 281.045015 
L 155.402588 273.823522 
L 155.727568 270.212776 
L 156.052547 277.434269 
L 156.377527 273.823522 
L 156.702506 252.159045 
L 157.027486 277.434269 
L 157.352465 284.655761 
L 157.677445 281.045015 
L 158.002424 281.045015 
L 158.327404 284.655761 
L 158.652383 273.823522 
L 158.977363 288.266507 
L 159.302342 288.266507 
L 159.627322 273.823522 
L 159.952301 273.823522 
L 160.277281 262.991284 
L 160.60226 266.60203 
L 161.252219 259.380537 
L 161.577199 281.045015 
L 161.902179 273.823522 
L 162.227158 277.434269 
L 162.552138 277.434269 
L 162.877117 255.769791 
L 163.202097 270.212776 
L 163.527076 277.434269 
L 164.177035 262.991284 
L 164.502015 252.159045 
L 165.151974 266.60203 
L 165.476953 277.434269 
L 165.801933 262.991284 
L 166.126912 270.212776 
L 166.451892 266.60203 
L 166.776871 277.434269 
L 167.101851 255.769791 
L 167.42683 281.045015 
L 167.75181 277.434269 
L 168.07679 262.991284 
L 168.401769 270.212776 
L 168.726749 266.60203 
L 169.051728 277.434269 
L 169.376708 281.045015 
L 169.701687 277.434269 
L 170.026667 262.991284 
L 170.351646 266.60203 
L 170.676626 262.991284 
L 171.001605 266.60203 
L 171.326585 273.823522 
L 171.976544 281.045015 
L 172.301523 262.991284 
L 172.626503 266.60203 
L 172.951482 277.434269 
L 173.276462 270.212776 
L 173.601441 270.212776 
L 173.926421 266.60203 
L 174.2514 266.60203 
L 174.57638 273.823522 
L 174.90136 259.380537 
L 175.226339 262.991284 
L 175.551319 255.769791 
L 175.876298 277.434269 
L 176.201278 270.212776 
L 176.526257 273.823522 
L 176.851237 281.045015 
L 177.176216 259.380537 
L 177.501196 266.60203 
L 178.151155 273.823522 
L 178.476134 270.212776 
L 179.126093 284.655761 
L 179.451073 262.991284 
L 179.776052 277.434269 
L 180.101032 270.212776 
L 180.426011 273.823522 
L 180.750991 281.045015 
L 181.075971 266.60203 
L 181.40095 277.434269 
L 181.72593 255.769791 
L 182.375889 277.434269 
L 182.700868 270.212776 
L 183.025848 259.380537 
L 183.350827 266.60203 
L 183.675807 262.991284 
L 184.000786 255.769791 
L 184.325766 277.434269 
L 184.650745 277.434269 
L 184.975725 281.045015 
L 185.300704 273.823522 
L 185.625684 273.823522 
L 185.950663 284.655761 
L 186.275643 284.655761 
L 186.600622 270.212776 
L 186.925602 288.266507 
L 187.250581 273.823522 
L 187.575561 284.655761 
L 187.900541 277.434269 
L 188.875479 277.434269 
L 189.200459 281.045015 
L 189.525438 281.045015 
L 189.850418 270.212776 
L 190.175397 266.60203 
L 190.500377 284.655761 
L 190.825356 262.991284 
L 191.150336 266.60203 
L 191.475315 277.434269 
L 191.800295 281.045015 
L 192.125274 277.434269 
L 192.450254 281.045015 
L 192.775233 273.823522 
L 193.100213 262.991284 
L 193.425192 273.823522 
L 193.750172 270.212776 
L 194.075152 262.991284 
L 194.400131 266.60203 
L 194.725111 277.434269 
L 195.05009 270.212776 
L 195.37507 273.823522 
L 195.700049 262.991284 
L 196.025029 273.823522 
L 196.350008 270.212776 
L 196.674988 270.212776 
L 196.999967 273.823522 
L 197.324947 270.212776 
L 197.649926 262.991284 
L 197.974906 266.60203 
L 198.299885 273.823522 
L 198.624865 259.380537 
L 198.949844 281.045015 
L 199.274824 277.434269 
L 199.599803 255.769791 
L 199.924783 281.045015 
L 200.574742 266.60203 
L 200.899722 273.823522 
L 201.224701 288.266507 
L 201.549681 266.60203 
L 201.87466 255.769791 
L 202.19964 262.991284 
L 202.524619 277.434269 
L 203.174578 284.655761 
L 203.499558 262.991284 
L 204.149517 277.434269 
L 204.474496 262.991284 
L 204.799476 277.434269 
L 205.124455 277.434269 
L 205.449435 284.655761 
L 205.774414 270.212776 
L 206.099394 284.655761 
L 206.424373 262.991284 
L 206.749353 266.60203 
L 207.399312 259.380537 
L 207.724292 281.045015 
L 208.049271 270.212776 
L 208.374251 281.045015 
L 208.69923 270.212776 
L 209.02421 266.60203 
L 209.349189 277.434269 
L 209.674169 281.045015 
L 209.999148 281.045015 
L 210.324128 270.212776 
L 210.649107 266.60203 
L 210.974087 281.045015 
L 211.949025 281.045015 
L 212.598984 262.991284 
L 213.248943 270.212776 
L 213.573923 281.045015 
L 213.898903 273.823522 
L 214.223882 262.991284 
L 214.548862 281.045015 
L 214.873841 281.045015 
L 215.198821 270.212776 
L 215.5238 266.60203 
L 215.84878 273.823522 
L 216.498739 273.823522 
L 216.823718 284.655761 
L 217.798657 284.655761 
L 218.123636 281.045015 
L 218.448616 288.266507 
L 218.773595 288.266507 
L 219.098575 273.823522 
L 220.073514 284.655761 
L 220.398493 262.991284 
L 220.723473 277.434269 
L 221.048452 270.212776 
L 221.373432 281.045015 
L 221.698411 284.655761 
L 222.023391 291.877254 
L 222.34837 273.823522 
L 222.67335 281.045015 
L 222.998329 277.434269 
L 223.323309 284.655761 
L 223.648288 284.655761 
L 223.973268 277.434269 
L 224.298247 281.045015 
L 224.623227 281.045015 
L 224.948206 270.212776 
L 225.598165 284.655761 
L 225.923145 277.434269 
L 226.248124 277.434269 
L 226.573104 266.60203 
L 226.898084 284.655761 
L 227.223063 288.266507 
L 227.548043 266.60203 
L 227.873022 288.266507 
L 228.198002 273.823522 
L 228.522981 281.045015 
L 228.847961 277.434269 
L 229.17294 281.045015 
L 229.49792 262.991284 
L 229.822899 273.823522 
L 230.147879 270.212776 
L 230.472858 273.823522 
L 230.797838 270.212776 
L 231.122817 277.434269 
L 232.097756 288.266507 
L 232.422735 277.434269 
L 232.747715 288.266507 
L 233.072695 270.212776 
L 233.397674 277.434269 
L 234.372613 277.434269 
L 234.697592 281.045015 
L 235.022572 277.434269 
L 235.347551 277.434269 
L 235.672531 281.045015 
L 235.99751 273.823522 
L 236.32249 273.823522 
L 236.972449 266.60203 
L 237.297428 270.212776 
L 237.622408 284.655761 
L 237.947387 273.823522 
L 238.272367 270.212776 
L 238.597346 284.655761 
L 238.922326 281.045015 
L 239.247305 284.655761 
L 239.897265 277.434269 
L 240.222244 281.045015 
L 240.547224 273.823522 
L 240.872203 281.045015 
L 241.197183 273.823522 
L 241.847142 281.045015 
L 242.172121 277.434269 
L 242.497101 277.434269 
L 242.82208 266.60203 
L 243.14706 281.045015 
L 243.472039 284.655761 
L 243.797019 277.434269 
L 244.446978 277.434269 
L 244.771957 288.266507 
L 245.096937 273.823522 
L 245.421916 277.434269 
L 245.746896 270.212776 
L 246.071876 270.212776 
L 246.396855 281.045015 
L 246.721835 284.655761 
L 247.046814 262.991284 
L 247.371794 281.045015 
L 247.696773 284.655761 
L 248.346732 277.434269 
L 248.671712 277.434269 
L 248.996691 288.266507 
L 249.321671 284.655761 
L 249.64665 273.823522 
L 250.296609 281.045015 
L 250.621589 270.212776 
L 250.946568 266.60203 
L 251.271548 277.434269 
L 251.596527 266.60203 
L 251.921507 273.823522 
L 252.571466 281.045015 
L 252.896446 270.212776 
L 253.546405 277.434269 
L 253.871384 273.823522 
L 254.196364 284.655761 
L 254.521343 270.212776 
L 254.846323 270.212776 
L 255.171302 273.823522 
L 255.496282 281.045015 
L 255.821261 277.434269 
L 256.146241 277.434269 
L 256.47122 288.266507 
L 256.7962 281.045015 
L 257.446159 273.823522 
L 257.771138 284.655761 
L 258.096118 281.045015 
L 258.421097 281.045015 
L 258.746077 273.823522 
L 259.071057 270.212776 
L 259.396036 288.266507 
L 259.721016 277.434269 
L 260.045995 273.823522 
L 260.370975 281.045015 
L 260.695954 270.212776 
L 261.020934 266.60203 
L 261.670893 281.045015 
L 261.995872 270.212776 
L 262.320852 273.823522 
L 262.645831 273.823522 
L 263.29579 266.60203 
L 263.62077 273.823522 
L 263.945749 270.212776 
L 264.270729 281.045015 
L 264.595708 270.212776 
L 264.920688 266.60203 
L 265.570647 281.045015 
L 265.895627 266.60203 
L 266.220606 270.212776 
L 266.545586 266.60203 
L 266.870565 270.212776 
L 267.195545 266.60203 
L 267.845504 273.823522 
L 268.170483 270.212776 
L 268.495463 262.991284 
L 268.820442 281.045015 
L 269.145422 266.60203 
L 269.795381 266.60203 
L 270.12036 281.045015 
L 270.44534 266.60203 
L 270.770319 266.60203 
L 271.095299 273.823522 
L 271.420278 270.212776 
L 271.745258 273.823522 
L 272.070238 270.212776 
L 272.395217 255.769791 
L 272.720197 270.212776 
L 273.045176 262.991284 
L 273.370156 281.045015 
L 273.695135 266.60203 
L 274.020115 273.823522 
L 274.345094 273.823522 
L 274.670074 255.769791 
L 274.995053 277.434269 
L 275.320033 262.991284 
L 275.969992 277.434269 
L 276.294971 277.434269 
L 276.619951 262.991284 
L 276.94493 281.045015 
L 277.26991 281.045015 
L 277.594889 270.212776 
L 277.919869 277.434269 
L 278.244848 273.823522 
L 278.569828 277.434269 
L 278.894808 270.212776 
L 279.219787 277.434269 
L 279.544767 270.212776 
L 280.194726 284.655761 
L 280.519705 270.212776 
L 280.844685 270.212776 
L 281.494644 284.655761 
L 281.819623 277.434269 
L 282.469582 277.434269 
L 282.794562 284.655761 
L 283.119541 284.655761 
L 283.444521 288.266507 
L 283.7695 277.434269 
L 284.09448 284.655761 
L 284.419459 281.045015 
L 284.744439 266.60203 
L 285.069419 281.045015 
L 285.394398 288.266507 
L 285.719378 277.434269 
L 286.044357 288.266507 
L 286.369337 284.655761 
L 286.694316 273.823522 
L 287.019296 288.266507 
L 287.344275 288.266507 
L 287.669255 284.655761 
L 287.994234 288.266507 
L 289.294152 288.266507 
L 289.619132 273.823522 
L 289.944111 281.045015 
L 290.269091 291.877254 
L 290.59407 277.434269 
L 290.91905 284.655761 
L 291.569009 277.434269 
L 291.893989 281.045015 
L 292.218968 277.434269 
L 292.543948 288.266507 
L 292.868927 270.212776 
L 293.193907 284.655761 
L 293.518886 273.823522 
L 293.843866 284.655761 
L 294.168845 273.823522 
L 294.493825 288.266507 
L 294.818804 270.212776 
L 295.143784 273.823522 
L 295.468763 281.045015 
L 295.793743 277.434269 
L 296.118722 288.266507 
L 296.443702 284.655761 
L 296.768681 288.266507 
L 297.41864 270.212776 
L 297.74362 288.266507 
L 298.393579 270.212776 
L 298.718559 281.045015 
L 299.043538 277.434269 
L 300.343456 277.434269 
L 300.668436 262.991284 
L 300.993415 262.991284 
L 301.318395 277.434269 
L 301.643374 273.823522 
L 302.293333 259.380537 
L 303.268272 281.045015 
L 303.593251 281.045015 
L 303.918231 266.60203 
L 304.24321 277.434269 
L 304.56819 270.212776 
L 304.89317 277.434269 
L 305.868108 277.434269 
L 306.193088 273.823522 
L 306.518067 284.655761 
L 306.843047 266.60203 
L 307.168026 284.655761 
L 307.493006 277.434269 
L 307.817985 266.60203 
L 308.142965 266.60203 
L 308.467944 270.212776 
L 308.792924 277.434269 
L 309.117903 277.434269 
L 309.442883 266.60203 
L 309.767862 273.823522 
L 310.092842 277.434269 
L 310.417821 270.212776 
L 310.742801 270.212776 
L 311.067781 273.823522 
L 311.39276 281.045015 
L 311.71774 270.212776 
L 312.042719 270.212776 
L 312.367699 259.380537 
L 312.692678 277.434269 
L 313.017658 266.60203 
L 313.342637 277.434269 
L 313.992596 259.380537 
L 314.317576 273.823522 
L 314.642555 262.991284 
L 315.292514 277.434269 
L 315.617494 281.045015 
L 315.942473 273.823522 
L 316.267453 277.434269 
L 316.592432 262.991284 
L 316.917412 277.434269 
L 317.242391 259.380537 
L 317.567371 273.823522 
L 317.892351 281.045015 
L 318.21733 277.434269 
L 318.54231 281.045015 
L 318.867289 277.434269 
L 319.192269 266.60203 
L 319.517248 262.991284 
L 319.842228 277.434269 
L 320.167207 270.212776 
L 320.492187 277.434269 
L 320.817166 277.434269 
L 321.467125 262.991284 
L 321.792105 277.434269 
L 322.117084 255.769791 
L 322.442064 266.60203 
L 322.767043 266.60203 
L 323.092023 270.212776 
L 323.417002 259.380537 
L 323.741982 262.991284 
L 324.066962 270.212776 
L 325.0419 259.380537 
L 325.36688 270.212776 
L 325.691859 270.212776 
L 326.016839 266.60203 
L 326.341818 281.045015 
L 326.666798 266.60203 
L 326.991777 270.212776 
L 327.316757 259.380537 
L 327.641736 281.045015 
L 327.966716 273.823522 
L 328.291695 270.212776 
L 328.616675 284.655761 
L 328.941654 281.045015 
L 329.266634 284.655761 
L 329.591613 281.045015 
L 329.916593 291.877254 
L 330.566552 284.655761 
L 330.891532 288.266507 
L 331.216511 288.266507 
L 331.541491 284.655761 
L 332.516429 284.655761 
L 333.166388 291.877254 
L 333.491368 284.655761 
L 333.816347 284.655761 
L 334.141327 291.877254 
L 334.466306 288.266507 
L 334.791286 288.266507 
L 335.116265 291.877254 
L 335.441245 291.877254 
L 335.766224 288.266507 
L 336.416183 288.266507 
L 336.741163 295.488 
L 337.391122 288.266507 
L 337.716102 288.266507 
L 338.041081 295.488 
L 338.366061 288.266507 
L 338.69104 288.266507 
L 339.01602 295.488 
L 339.340999 284.655761 
L 339.665979 291.877254 
L 339.990958 288.266507 
L 340.315938 291.877254 
L 340.965897 291.877254 
L 341.290876 288.266507 
L 341.940835 288.266507 
L 342.265815 291.877254 
L 342.590794 288.266507 
L 342.915774 288.266507 
L 343.240753 295.488 
L 343.565733 288.266507 
L 343.890713 288.266507 
L 344.215692 295.488 
L 344.865651 295.488 
L 345.190631 288.266507 
L 345.51561 284.655761 
L 346.165569 291.877254 
L 346.490549 288.266507 
L 346.815528 291.877254 
L 347.140508 288.266507 
L 347.465487 291.877254 
L 347.790467 288.266507 
L 348.115446 288.266507 
L 348.440426 291.877254 
L 348.765405 291.877254 
L 349.090385 288.266507 
L 349.415364 288.266507 
L 349.740344 291.877254 
L 350.065324 284.655761 
L 350.390303 291.877254 
L 350.715283 291.877254 
L 351.040262 295.488 
L 351.365242 284.655761 
L 351.690221 288.266507 
L 352.015201 288.266507 
L 352.34018 295.488 
L 352.66516 288.266507 
L 352.990139 288.266507 
L 353.315119 291.877254 
L 353.640098 291.877254 
L 353.965078 288.266507 
L 354.290057 288.266507 
L 354.615037 295.488 
L 354.940016 288.266507 
L 355.589975 288.266507 
L 355.914955 291.877254 
L 356.239934 288.266507 
L 356.889894 295.488 
L 357.539853 288.266507 
L 357.864832 291.877254 
L 358.189812 284.655761 
L 358.514791 295.488 
L 358.839771 291.877254 
L 359.16475 284.655761 
L 359.48973 284.655761 
L 359.814709 291.877254 
L 360.139689 291.877254 
L 360.789648 284.655761 
L 361.114627 288.266507 
L 361.439607 288.266507 
L 361.764586 281.045015 
L 362.089566 284.655761 
L 362.739525 284.655761 
L 363.064505 291.877254 
L 363.714464 284.655761 
L 364.039443 284.655761 
L 364.364423 291.877254 
L 364.689402 284.655761 
L 365.339361 277.434269 
L 365.664341 288.266507 
L 366.3143 281.045015 
L 366.639279 270.212776 
L 366.964259 284.655761 
L 367.289238 288.266507 
L 367.939197 281.045015 
L 368.264177 270.212776 
L 368.589156 277.434269 
L 369.564095 277.434269 
L 369.889075 281.045015 
L 370.214054 273.823522 
L 370.539034 262.991284 
L 370.864013 281.045015 
L 371.188993 262.991284 
L 371.513972 262.991284 
L 371.838952 281.045015 
L 372.163931 262.991284 
L 372.488911 266.60203 
L 372.81389 259.380537 
L 373.463849 259.380537 
L 373.788829 262.991284 
L 374.113808 281.045015 
L 374.438788 277.434269 
L 374.763767 281.045015 
L 375.088747 277.434269 
L 375.413726 277.434269 
L 375.738706 262.991284 
L 376.063686 281.045015 
L 376.388665 259.380537 
L 376.713645 273.823522 
L 377.038624 277.434269 
L 377.363604 262.991284 
L 377.688583 277.434269 
L 378.013563 277.434269 
L 378.663522 270.212776 
L 378.988501 270.212776 
L 379.313481 277.434269 
L 379.63846 281.045015 
L 380.288419 281.045015 
L 380.613399 270.212776 
L 380.938378 277.434269 
L 381.263358 288.266507 
L 381.913317 281.045015 
L 382.888256 291.877254 
L 383.213235 284.655761 
L 383.538215 288.266507 
L 384.188174 288.266507 
L 384.513153 295.488 
L 384.838133 291.877254 
L 385.813071 291.877254 
L 386.138051 288.266507 
L 386.46303 288.266507 
L 386.78801 284.655761 
L 387.112989 291.877254 
L 387.437969 284.655761 
L 387.762948 291.877254 
L 388.737887 291.877254 
L 389.062867 288.266507 
L 389.387846 291.877254 
L 390.362785 291.877254 
L 390.687764 288.266507 
L 391.337723 295.488 
L 391.662703 288.266507 
L 391.987682 291.877254 
L 392.637641 291.877254 
L 392.962621 288.266507 
L 393.61258 288.266507 
L 393.937559 291.877254 
L 395.887437 291.877254 
L 396.212416 288.266507 
L 396.862375 288.266507 
L 397.512334 295.488 
L 397.837314 288.266507 
L 398.162293 288.266507 
L 398.487273 291.877254 
L 398.487273 291.877254 
" clip-path="url(#p47fb41e7e5)" style="fill: none; stroke: #1f77b4; stroke-width: 1.5; stroke-linecap: square"/>
   </g>
   <g id="patch_3">
    <path d="M 57.6 307.584 
L 57.6 41.472 
" style="fill: none; stroke: #000000; stroke-width: 0.8; stroke-linejoin: miter; stroke-linecap: square"/>
   </g>
   <g id="patch_4">
    <path d="M 414.72 307.584 
L 414.72 41.472 
" style="fill: none; stroke: #000000; stroke-width: 0.8; stroke-linejoin: miter; stroke-linecap: square"/>
   </g>
   <g id="patch_5">
    <path d="M 57.6 307.584 
L 414.72 307.584 
" style="fill: none; stroke: #000000; stroke-width: 0.8; stroke-linejoin: miter; stroke-linecap: square"/>
   </g>
   <g id="patch_6">
    <path d="M 57.6 41.472 
L 414.72 41.472 
" style="fill: none; stroke: #000000; stroke-width: 0.8; stroke-linejoin: miter; stroke-linecap: square"/>
   </g>
  </g>
 </g>
 <defs>
  <clipPath id="p47fb41e7e5">
   <rect x="57.6" y="41.472" width="357.12" height="266.112"/>
  </clipPath>
 </defs>
</svg>
