<?xml version="1.0" encoding="utf-8" standalone="no"?>
<!DOCTYPE svg PUBLIC "-//W3C//DTD SVG 1.1//EN"
  "http://www.w3.org/Graphics/SVG/1.1/DTD/svg11.dtd">
<svg xmlns:xlink="http://www.w3.org/1999/xlink" width="460.8pt" height="345.6pt" viewBox="0 0 460.8 345.6" xmlns="http://www.w3.org/2000/svg" version="1.1">
 <metadata>
  <rdf:RDF xmlns:dc="http://purl.org/dc/elements/1.1/" xmlns:cc="http://creativecommons.org/ns#" xmlns:rdf="http://www.w3.org/1999/02/22-rdf-syntax-ns#">
   <cc:Work>
    <dc:type rdf:resource="http://purl.org/dc/dcmitype/StillImage"/>
    <dc:date>2026-04-19T22:46:14.963476</dc:date>
    <dc:format>image/svg+xml</dc:format>
    <dc:creator>
     <cc:Agent>
      <dc:title>Matplotlib v3.10.8, https://matplotlib.org/</dc:title>
     </cc:Agent>
    </dc:creator>
   </cc:Work>
  </rdf:RDF>
 </metadata>
 <defs>
  <style type="text/css">*{stroke-linejoin: round; stroke-linecap: butt}</style>
 </defs>
 <g id="figure_1">
  <g id="patch_1">
   <path d="M 0 345.6 
L 460.8 345.6 
L 460.8 0 
L 0 0 
z
" style="fill: #ffffff"/>
  </g>
  <g id="axes_1">
   <g id="patch_2">
    <path d="M 57.6 307.584 
L 414.72 307.584 
L 414.72 41.472 
L 57.6 41.472 
z
" style="fill: #ffffff"/>
   </g>
   <g id="matplotlib.axis_1">
    <g id="xtick_1">
     <g id="line2d_1">
      <defs>
       <path id="ma85b59260c" d="M 0 0 
L 0 3.5 
" style="stroke: #000000; stroke-width: 0.8"/>
      </defs>
      <g>
       <use xlink:href="#ma85b59260c" x="73.832727" y="307.584" style="stroke: #000000; stroke-width: 0.8"/>
      </g>
     </g>
     <g id="text_1">
      <!-- 0 -->
      <g transform="translate(70.651477 322.182437) scale(0.1 -0.1)">
       <defs>
        <path id="DejaVuSans-30" d="M 2034 4250 
Q 1547 4250 1301 3770 
Q 1056 3291 1056 2328 
Q 1056 1369 1301 889 
Q 1547 409 2034 409 
Q 2525 409 2770 889 
Q 3016 1369 3016 2328 
Q 3016 3291 2770 3770 
Q 2525 4250 2034 4250 
z
M 2034 4750 
Q 2819 4750 3233 4129 
Q 3647 3509 3647 2328 
Q 3647 1150 3233 529 
Q 2819 -91 2034 -91 
Q 1250 -91 836 529 
Q 422 1150 422 2328 
Q 422 3509 836 4129 
Q 1250 4750 2034 4750 
z
" transform="scale(0.015625)"/>
       </defs>
       <use xlink:href="#DejaVuSans-30"/>
      </g>
     </g>
    </g>
    <g id="xtick_2">
     <g id="line2d_2">
      <g>
       <use xlink:href="#ma85b59260c" x="151.408485" y="307.584" style="stroke: #000000; stroke-width: 0.8"/>
      </g>
     </g>
     <g id="text_2">
      <!-- 200 -->
      <g transform="translate(141.864735 322.182437) scale(0.1 -0.1)">
       <defs>
        <path id="DejaVuSans-32" d="M 1228 531 
L 3431 531 
L 3431 0 
L 469 0 
L 469 531 
Q 828 903 1448 1529 
Q 2069 2156 2228 2338 
Q 2531 2678 2651 2914 
Q 2772 3150 2772 3378 
Q 2772 3750 2511 3984 
Q 2250 4219 1831 4219 
Q 1534 4219 1204 4116 
Q 875 4013 500 3803 
L 500 4441 
Q 881 4594 1212 4672 
Q 1544 4750 1819 4750 
Q 2544 4750 2975 4387 
Q 3406 4025 3406 3419 
Q 3406 3131 3298 2873 
Q 3191 2616 2906 2266 
Q 2828 2175 2409 1742 
Q 1991 1309 1228 531 
z
" transform="scale(0.015625)"/>
       </defs>
       <use xlink:href="#DejaVuSans-32"/>
       <use xlink:href="#DejaVuSans-30" transform="translate(63.623047 0)"/>
       <use xlink:href="#DejaVuSans-30" transform="translate(127.246094 0)"/>
      </g>
     </g>
    </g>
    <g id="xtick_3">
     <g id="line2d_3">
      <g>
       <use xlink:href="#ma85b59260c" x="228.984242" y="307.584" style="stroke: #000000; stroke-width: 0.8"/>
      </g>
     </g>
     <g id="text_3">
      <!-- 400 -->
      <g transform="translate(219.440492 322.182437) scale(0.1 -0.1)">
       <defs>
        <path id="DejaVuSans-34" d="M 2419 4116 
L 825 1625 
L 2419 1625 
L 2419 4116 
z
M 2253 4666 
L 3047 4666 
L 3047 1625 
L 3713 1625 
L 3713 1100 
L 3047 1100 
L 3047 0 
L 2419 0 
L 2419 1100 
L 313 1100 
L 313 1709 
L 2253 4666 
z
" transform="scale(0.015625)"/>
       </defs>
       <use xlink:href="#DejaVuSans-34"/>
       <use xlink:href="#DejaVuSans-30" transform="translate(63.623047 0)"/>
       <use xlink:href="#DejaVuSans-30" transform="translate(127.246094 0)"/>
      </g>
     </g>
    </g>
    <g id="xtick_4">
     <g id="line2d_4">
      <g>
       <use xlink:href="#ma85b59260c" x="306.56" y="307.584" style="stroke: #000000; stroke-width: 0.8"/>
      </g>
     </g>
     <g id="text_4">
      <!-- 600 -->
      <g transform="translate(297.01625 322.182437) scale(0.1 -0.1)">
       <defs>
        <path id="DejaVuSans-36" d="M 2113 2584 
Q 1688 2584 1439 2293 
Q 1191 2003 1191 1497 
Q 1191 994 1439 701 
Q 1688 409 2113 409 
Q 2538 409 2786 701 
Q 3034 994 3034 1497 
Q 3034 2003 2786 2293 
Q 2538 2584 2113 2584 
z
M 3366 4563 
L 3366 3988 
Q 3128 4100 2886 4159 
Q 2644 4219 2406 4219 
Q 1781 4219 1451 3797 
Q 1122 3375 1075 2522 
Q 1259 2794 1537 2939 
Q 1816 3084 2150 3084 
Q 2853 3084 3261 2657 
Q 3669 2231 3669 1497 
Q 3669 778 3244 343 
Q 2819 -91 2113 -91 
Q 1303 -91 875 529 
Q 447 1150 447 2328 
Q 447 3434 972 4092 
Q 1497 4750 2381 4750 
Q 2619 4750 2861 4703 
Q 3103 4656 3366 4563 
z
" transform="scale(0.015625)"/>
       </defs>
       <use xlink:href="#DejaVuSans-36"/>
       <use xlink:href="#DejaVuSans-30" transform="translate(63.623047 0)"/>
       <use xlink:href="#DejaVuSans-30" transform="translate(127.246094 0)"/>
      </g>
     </g>
    </g>
    <g id="xtick_5">
     <g id="line2d_5">
      <g>
       <use xlink:href="#ma85b59260c" x="384.135758" y="307.584" style="stroke: #000000; stroke-width: 0.8"/>
      </g>
     </g>
     <g id="text_5">
      <!-- 800 -->
      <g transform="translate(374.592008 322.182437) scale(0.1 -0.1)">
       <defs>
        <path id="DejaVuSans-38" d="M 2034 2216 
Q 1584 2216 1326 1975 
Q 1069 1734 1069 1313 
Q 1069 891 1326 650 
Q 1584 409 2034 409 
Q 2484 409 2743 651 
Q 3003 894 3003 1313 
Q 3003 1734 2745 1975 
Q 2488 2216 2034 2216 
z
M 1403 2484 
Q 997 2584 770 2862 
Q 544 3141 544 3541 
Q 544 4100 942 4425 
Q 1341 4750 2034 4750 
Q 2731 4750 3128 4425 
Q 3525 4100 3525 3541 
Q 3525 3141 3298 2862 
Q 3072 2584 2669 2484 
Q 3125 2378 3379 2068 
Q 3634 1759 3634 1313 
Q 3634 634 3220 271 
Q 2806 -91 2034 -91 
Q 1263 -91 848 271 
Q 434 634 434 1313 
Q 434 1759 690 2068 
Q 947 2378 1403 2484 
z
M 1172 3481 
Q 1172 3119 1398 2916 
Q 1625 2713 2034 2713 
Q 2441 2713 2670 2916 
Q 2900 3119 2900 3481 
Q 2900 3844 2670 4047 
Q 2441 4250 2034 4250 
Q 1625 4250 1398 4047 
Q 1172 3844 1172 3481 
z
" transform="scale(0.015625)"/>
       </defs>
       <use xlink:href="#DejaVuSans-38"/>
       <use xlink:href="#DejaVuSans-30" transform="translate(63.623047 0)"/>
       <use xlink:href="#DejaVuSans-30" transform="translate(127.246094 0)"/>
      </g>
     </g>
    </g>
    <g id="text_6">
     <!-- Episode # -->
     <g transform="translate(210.743594 335.860562) scale(0.1 -0.1)">
      <defs>
       <path id="DejaVuSans-45" d="M 628 4666 
L 3578 4666 
L 3578 4134 
L 1259 4134 
L 1259 2753 
L 3481 2753 
L 3481 2222 
L 1259 2222 
L 1259 531 
L 3634 531 
L 3634 0 
L 628 0 
L 628 4666 
z
" transform="scale(0.015625)"/>
       <path id="DejaVuSans-70" d="M 1159 525 
L 1159 -1331 
L 581 -1331 
L 581 3500 
L 1159 3500 
L 1159 2969 
Q 1341 3281 1617 3432 
Q 1894 3584 2278 3584 
Q 2916 3584 3314 3078 
Q 3713 2572 3713 1747 
Q 3713 922 3314 415 
Q 2916 -91 2278 -91 
Q 1894 -91 1617 61 
Q 1341 213 1159 525 
z
M 3116 1747 
Q 3116 2381 2855 2742 
Q 2594 3103 2138 3103 
Q 1681 3103 1420 2742 
Q 1159 2381 1159 1747 
Q 1159 1113 1420 752 
Q 1681 391 2138 391 
Q 2594 391 2855 752 
Q 3116 1113 3116 1747 
z
" transform="scale(0.015625)"/>
       <path id="DejaVuSans-69" d="M 603 3500 
L 1178 3500 
L 1178 0 
L 603 0 
L 603 3500 
z
M 603 4863 
L 1178 4863 
L 1178 4134 
L 603 4134 
L 603 4863 
z
" transform="scale(0.015625)"/>
       <path id="DejaVuSans-73" d="M 2834 3397 
L 2834 2853 
Q 2591 2978 2328 3040 
Q 2066 3103 1784 3103 
Q 1356 3103 1142 2972 
Q 928 2841 928 2578 
Q 928 2378 1081 2264 
Q 1234 2150 1697 2047 
L 1894 2003 
Q 2506 1872 2764 1633 
Q 3022 1394 3022 966 
Q 3022 478 2636 193 
Q 2250 -91 1575 -91 
Q 1294 -91 989 -36 
Q 684 19 347 128 
L 347 722 
Q 666 556 975 473 
Q 1284 391 1588 391 
Q 1994 391 2212 530 
Q 2431 669 2431 922 
Q 2431 1156 2273 1281 
Q 2116 1406 1581 1522 
L 1381 1569 
Q 847 1681 609 1914 
Q 372 2147 372 2553 
Q 372 3047 722 3315 
Q 1072 3584 1716 3584 
Q 2034 3584 2315 3537 
Q 2597 3491 2834 3397 
z
" transform="scale(0.015625)"/>
       <path id="DejaVuSans-6f" d="M 1959 3097 
Q 1497 3097 1228 2736 
Q 959 2375 959 1747 
Q 959 1119 1226 758 
Q 1494 397 1959 397 
Q 2419 397 2687 759 
Q 2956 1122 2956 1747 
Q 2956 2369 2687 2733 
Q 2419 3097 1959 3097 
z
M 1959 3584 
Q 2709 3584 3137 3096 
Q 3566 2609 3566 1747 
Q 3566 888 3137 398 
Q 2709 -91 1959 -91 
Q 1206 -91 779 398 
Q 353 888 353 1747 
Q 353 2609 779 3096 
Q 1206 3584 1959 3584 
z
" transform="scale(0.015625)"/>
       <path id="DejaVuSans-64" d="M 2906 2969 
L 2906 4863 
L 3481 4863 
L 3481 0 
L 2906 0 
L 2906 525 
Q 2725 213 2448 61 
Q 2172 -91 1784 -91 
Q 1150 -91 751 415 
Q 353 922 353 1747 
Q 353 2572 751 3078 
Q 1150 3584 1784 3584 
Q 2172 3584 2448 3432 
Q 2725 3281 2906 2969 
z
M 947 1747 
Q 947 1113 1208 752 
Q 1469 391 1925 391 
Q 2381 391 2643 752 
Q 2906 1113 2906 1747 
Q 2906 2381 2643 2742 
Q 2381 3103 1925 3103 
Q 1469 3103 1208 2742 
Q 947 2381 947 1747 
z
" transform="scale(0.015625)"/>
       <path id="DejaVuSans-65" d="M 3597 1894 
L 3597 1613 
L 953 1613 
Q 991 1019 1311 708 
Q 1631 397 2203 397 
Q 2534 397 2845 478 
Q 3156 559 3463 722 
L 3463 178 
Q 3153 47 2828 -22 
Q 2503 -91 2169 -91 
Q 1331 -91 842 396 
Q 353 884 353 1716 
Q 353 2575 817 3079 
Q 1281 3584 2069 3584 
Q 2775 3584 3186 3129 
Q 3597 2675 3597 1894 
z
M 3022 2063 
Q 3016 2534 2758 2815 
Q 2500 3097 2075 3097 
Q 1594 3097 1305 2825 
Q 1016 2553 972 2059 
L 3022 2063 
z
" transform="scale(0.015625)"/>
       <path id="DejaVuSans-20" transform="scale(0.015625)"/>
       <path id="DejaVuSans-23" d="M 3272 2816 
L 2363 2816 
L 2100 1772 
L 3016 1772 
L 3272 2816 
z
M 2803 4594 
L 2478 3297 
L 3391 3297 
L 3719 4594 
L 4219 4594 
L 3897 3297 
L 4872 3297 
L 4872 2816 
L 3775 2816 
L 3519 1772 
L 4513 1772 
L 4513 1294 
L 3397 1294 
L 3072 0 
L 2572 0 
L 2894 1294 
L 1978 1294 
L 1656 0 
L 1153 0 
L 1478 1294 
L 494 1294 
L 494 1772 
L 1594 1772 
L 1856 2816 
L 850 2816 
L 850 3297 
L 1978 3297 
L 2297 4594 
L 2803 4594 
z
" transform="scale(0.015625)"/>
      </defs>
      <use xlink:href="#DejaVuSans-45"/>
      <use xlink:href="#DejaVuSans-70" transform="translate(63.183594 0)"/>
      <use xlink:href="#DejaVuSans-69" transform="translate(126.660156 0)"/>
      <use xlink:href="#DejaVuSans-73" transform="translate(154.443359 0)"/>
      <use xlink:href="#DejaVuSans-6f" transform="translate(206.542969 0)"/>
      <use xlink:href="#DejaVuSans-64" transform="translate(267.724609 0)"/>
      <use xlink:href="#DejaVuSans-65" transform="translate(331.201172 0)"/>
      <use xlink:href="#DejaVuSans-20" transform="translate(392.724609 0)"/>
      <use xlink:href="#DejaVuSans-23" transform="translate(424.511719 0)"/>
     </g>
    </g>
   </g>
   <g id="matplotlib.axis_2">
    <g id="ytick_1">
     <g id="line2d_6">
      <defs>
       <path id="m8e729dac63" d="M 0 0 
L -3.5 0 
" style="stroke: #000000; stroke-width: 0.8"/>
      </defs>
      <g>
       <use xlink:href="#m8e729dac63" x="57.6" y="299.922379" style="stroke: #000000; stroke-width: 0.8"/>
      </g>
     </g>
     <g id="text_7">
      <!-- 0 -->
      <g transform="translate(44.2375 303.721598) scale(0.1 -0.1)">
       <use xlink:href="#DejaVuSans-30"/>
      </g>
     </g>
    </g>
    <g id="ytick_2">
     <g id="line2d_7">
      <g>
       <use xlink:href="#m8e729dac63" x="57.6" y="250.651503" style="stroke: #000000; stroke-width: 0.8"/>
      </g>
     </g>
     <g id="text_8">
      <!-- 100 -->
      <g transform="translate(31.5125 254.450722) scale(0.1 -0.1)">
       <defs>
        <path id="DejaVuSans-31" d="M 794 531 
L 1825 531 
L 1825 4091 
L 703 3866 
L 703 4441 
L 1819 4666 
L 2450 4666 
L 2450 531 
L 3481 531 
L 3481 0 
L 794 0 
L 794 531 
z
" transform="scale(0.015625)"/>
       </defs>
       <use xlink:href="#DejaVuSans-31"/>
       <use xlink:href="#DejaVuSans-30" transform="translate(63.623047 0)"/>
       <use xlink:href="#DejaVuSans-30" transform="translate(127.246094 0)"/>
      </g>
     </g>
    </g>
    <g id="ytick_3">
     <g id="line2d_8">
      <g>
       <use xlink:href="#m8e729dac63" x="57.6" y="201.380627" style="stroke: #000000; stroke-width: 0.8"/>
      </g>
     </g>
     <g id="text_9">
      <!-- 200 -->
      <g transform="translate(31.5125 205.179846) scale(0.1 -0.1)">
       <use xlink:href="#DejaVuSans-32"/>
       <use xlink:href="#DejaVuSans-30" transform="translate(63.623047 0)"/>
       <use xlink:href="#DejaVuSans-30" transform="translate(127.246094 0)"/>
      </g>
     </g>
    </g>
    <g id="ytick_4">
     <g id="line2d_9">
      <g>
       <use xlink:href="#m8e729dac63" x="57.6" y="152.109752" style="stroke: #000000; stroke-width: 0.8"/>
      </g>
     </g>
     <g id="text_10">
      <!-- 300 -->
      <g transform="translate(31.5125 155.90897) scale(0.1 -0.1)">
       <defs>
        <path id="DejaVuSans-33" d="M 2597 2516 
Q 3050 2419 3304 2112 
Q 3559 1806 3559 1356 
Q 3559 666 3084 287 
Q 2609 -91 1734 -91 
Q 1441 -91 1130 -33 
Q 819 25 488 141 
L 488 750 
Q 750 597 1062 519 
Q 1375 441 1716 441 
Q 2309 441 2620 675 
Q 2931 909 2931 1356 
Q 2931 1769 2642 2001 
Q 2353 2234 1838 2234 
L 1294 2234 
L 1294 2753 
L 1863 2753 
Q 2328 2753 2575 2939 
Q 2822 3125 2822 3475 
Q 2822 3834 2567 4026 
Q 2313 4219 1838 4219 
Q 1578 4219 1281 4162 
Q 984 4106 628 3988 
L 628 4550 
Q 988 4650 1302 4700 
Q 1616 4750 1894 4750 
Q 2613 4750 3031 4423 
Q 3450 4097 3450 3541 
Q 3450 3153 3228 2886 
Q 3006 2619 2597 2516 
z
" transform="scale(0.015625)"/>
       </defs>
       <use xlink:href="#DejaVuSans-33"/>
       <use xlink:href="#DejaVuSans-30" transform="translate(63.623047 0)"/>
       <use xlink:href="#DejaVuSans-30" transform="translate(127.246094 0)"/>
      </g>
     </g>
    </g>
    <g id="ytick_5">
     <g id="line2d_10">
      <g>
       <use xlink:href="#m8e729dac63" x="57.6" y="102.838876" style="stroke: #000000; stroke-width: 0.8"/>
      </g>
     </g>
     <g id="text_11">
      <!-- 400 -->
      <g transform="translate(31.5125 106.638095) scale(0.1 -0.1)">
       <use xlink:href="#DejaVuSans-34"/>
       <use xlink:href="#DejaVuSans-30" transform="translate(63.623047 0)"/>
       <use xlink:href="#DejaVuSans-30" transform="translate(127.246094 0)"/>
      </g>
     </g>
    </g>
    <g id="ytick_6">
     <g id="line2d_11">
      <g>
       <use xlink:href="#m8e729dac63" x="57.6" y="53.568" style="stroke: #000000; stroke-width: 0.8"/>
      </g>
     </g>
     <g id="text_12">
      <!-- 500 -->
      <g transform="translate(31.5125 57.367219) scale(0.1 -0.1)">
       <defs>
        <path id="DejaVuSans-35" d="M 691 4666 
L 3169 4666 
L 3169 4134 
L 1269 4134 
L 1269 2991 
Q 1406 3038 1543 3061 
Q 1681 3084 1819 3084 
Q 2600 3084 3056 2656 
Q 3513 2228 3513 1497 
Q 3513 744 3044 326 
Q 2575 -91 1722 -91 
Q 1428 -91 1123 -41 
Q 819 9 494 109 
L 494 744 
Q 775 591 1075 516 
Q 1375 441 1709 441 
Q 2250 441 2565 725 
Q 2881 1009 2881 1497 
Q 2881 1984 2565 2268 
Q 2250 2553 1709 2553 
Q 1456 2553 1204 2497 
Q 953 2441 691 2322 
L 691 4666 
z
" transform="scale(0.015625)"/>
       </defs>
       <use xlink:href="#DejaVuSans-35"/>
       <use xlink:href="#DejaVuSans-30" transform="translate(63.623047 0)"/>
       <use xlink:href="#DejaVuSans-30" transform="translate(127.246094 0)"/>
      </g>
     </g>
    </g>
    <g id="text_13">
     <!-- Score -->
     <g transform="translate(25.432812 188.530344) rotate(-90) scale(0.1 -0.1)">
      <defs>
       <path id="DejaVuSans-53" d="M 3425 4513 
L 3425 3897 
Q 3066 4069 2747 4153 
Q 2428 4238 2131 4238 
Q 1616 4238 1336 4038 
Q 1056 3838 1056 3469 
Q 1056 3159 1242 3001 
Q 1428 2844 1947 2747 
L 2328 2669 
Q 3034 2534 3370 2195 
Q 3706 1856 3706 1288 
Q 3706 609 3251 259 
Q 2797 -91 1919 -91 
Q 1588 -91 1214 -16 
Q 841 59 441 206 
L 441 856 
Q 825 641 1194 531 
Q 1563 422 1919 422 
Q 2459 422 2753 634 
Q 3047 847 3047 1241 
Q 3047 1584 2836 1778 
Q 2625 1972 2144 2069 
L 1759 2144 
Q 1053 2284 737 2584 
Q 422 2884 422 3419 
Q 422 4038 858 4394 
Q 1294 4750 2059 4750 
Q 2388 4750 2728 4690 
Q 3069 4631 3425 4513 
z
" transform="scale(0.015625)"/>
       <path id="DejaVuSans-63" d="M 3122 3366 
L 3122 2828 
Q 2878 2963 2633 3030 
Q 2388 3097 2138 3097 
Q 1578 3097 1268 2742 
Q 959 2388 959 1747 
Q 959 1106 1268 751 
Q 1578 397 2138 397 
Q 2388 397 2633 464 
Q 2878 531 3122 666 
L 3122 134 
Q 2881 22 2623 -34 
Q 2366 -91 2075 -91 
Q 1284 -91 818 406 
Q 353 903 353 1747 
Q 353 2603 823 3093 
Q 1294 3584 2113 3584 
Q 2378 3584 2631 3529 
Q 2884 3475 3122 3366 
z
" transform="scale(0.015625)"/>
       <path id="DejaVuSans-72" d="M 2631 2963 
Q 2534 3019 2420 3045 
Q 2306 3072 2169 3072 
Q 1681 3072 1420 2755 
Q 1159 2438 1159 1844 
L 1159 0 
L 581 0 
L 581 3500 
L 1159 3500 
L 1159 2956 
Q 1341 3275 1631 3429 
Q 1922 3584 2338 3584 
Q 2397 3584 2469 3576 
Q 2541 3569 2628 3553 
L 2631 2963 
z
" transform="scale(0.015625)"/>
      </defs>
      <use xlink:href="#DejaVuSans-53"/>
      <use xlink:href="#DejaVuSans-63" transform="translate(63.476562 0)"/>
      <use xlink:href="#DejaVuSans-6f" transform="translate(118.457031 0)"/>
      <use xlink:href="#DejaVuSans-72" transform="translate(179.638672 0)"/>
      <use xlink:href="#DejaVuSans-65" transform="translate(218.501953 0)"/>
     </g>
    </g>
   </g>
   <g id="line2d_12">
    <path d="M 73.832727 294.009874 
L 74.220606 290.560912 
L 74.608485 294.502582 
L 74.996364 292.039039 
L 75.384242 281.692155 
L 75.772121 282.677572 
L 76.547879 290.560912 
L 76.935758 292.531747 
L 77.323636 292.039039 
L 77.711515 278.243193 
L 78.099394 281.692155 
L 78.487273 281.692155 
L 78.875152 289.575495 
L 79.26303 290.068204 
L 79.650909 292.531747 
L 80.038788 292.039039 
L 80.426667 293.024456 
L 80.814545 293.024456 
L 81.202424 294.502582 
L 81.590303 293.024456 
L 81.978182 292.039039 
L 82.366061 291.54633 
L 82.753939 286.619242 
L 83.141818 294.502582 
L 83.529697 293.517165 
L 83.917576 293.517165 
L 84.693333 285.141116 
L 85.081212 294.009874 
L 85.469091 295.488 
L 85.85697 290.560912 
L 86.244848 293.024456 
L 86.632727 287.111951 
L 87.020606 291.053621 
L 87.408485 292.531747 
L 87.796364 293.517165 
L 88.184242 285.141116 
L 88.572121 293.024456 
L 89.347879 293.024456 
L 89.735758 294.009874 
L 90.123636 290.560912 
L 90.511515 274.301523 
L 90.899394 292.531747 
L 91.287273 286.619242 
L 91.675152 294.995291 
L 92.450909 290.068204 
L 92.838788 294.995291 
L 93.226667 284.648407 
L 93.614545 292.039039 
L 94.002424 294.009874 
L 94.390303 285.633825 
L 94.778182 288.097369 
L 95.166061 294.502582 
L 95.553939 292.531747 
L 95.941818 293.024456 
L 96.329697 292.039039 
L 96.717576 295.488 
L 97.105455 291.54633 
L 97.493333 248.680668 
L 97.881212 294.995291 
L 98.269091 293.517165 
L 98.65697 292.531747 
L 99.044848 290.560912 
L 99.432727 279.228611 
L 99.820606 261.491096 
L 100.208485 284.155699 
L 100.596364 288.590077 
L 100.984242 294.995291 
L 101.372121 294.009874 
L 101.76 294.502582 
L 102.147879 275.77965 
L 102.923636 294.502582 
L 103.311515 285.141116 
L 103.699394 293.024456 
L 104.087273 289.082786 
L 104.475152 290.068204 
L 104.86303 288.097369 
L 105.250909 276.272358 
L 105.638788 294.009874 
L 106.026667 288.097369 
L 106.414545 294.502582 
L 106.802424 293.517165 
L 107.190303 277.750485 
L 107.578182 294.009874 
L 107.966061 294.009874 
L 108.353939 280.706737 
L 108.741818 288.097369 
L 109.129697 287.111951 
L 109.517576 288.590077 
L 109.905455 287.60466 
L 110.293333 285.633825 
L 110.681212 285.141116 
L 111.45697 295.488 
L 111.844848 293.517165 
L 112.232727 278.243193 
L 112.620606 283.170281 
L 113.008485 274.301523 
L 113.396364 287.111951 
L 113.784242 292.039039 
L 114.172121 291.54633 
L 114.56 280.706737 
L 114.947879 283.66299 
L 115.335758 292.531747 
L 115.723636 289.575495 
L 116.111515 294.009874 
L 116.499394 283.66299 
L 116.887273 290.560912 
L 117.275152 289.082786 
L 117.66303 276.765067 
L 118.050909 293.024456 
L 118.438788 290.560912 
L 118.826667 278.243193 
L 119.214545 292.039039 
L 119.602424 283.170281 
L 119.990303 282.677572 
L 120.378182 281.199446 
L 120.766061 291.54633 
L 121.153939 294.009874 
L 121.541818 283.170281 
L 121.929697 293.024456 
L 122.317576 270.852562 
L 122.705455 276.272358 
L 123.093333 284.155699 
L 123.481212 273.808815 
L 123.869091 293.024456 
L 124.25697 288.097369 
L 124.644848 285.141116 
L 125.032727 258.042134 
L 125.420606 283.66299 
L 125.808485 288.590077 
L 126.196364 289.575495 
L 126.584242 279.228611 
L 126.972121 291.053621 
L 127.36 290.560912 
L 128.135758 272.330688 
L 128.523636 276.765067 
L 128.911515 282.677572 
L 129.299394 292.531747 
L 129.687273 282.184864 
L 130.075152 283.66299 
L 130.46303 276.272358 
L 130.850909 293.517165 
L 131.238788 275.286941 
L 131.626667 292.531747 
L 132.014545 274.301523 
L 132.402424 284.648407 
L 132.790303 277.750485 
L 133.178182 227.9869 
L 133.566061 282.677572 
L 133.953939 238.826493 
L 134.341818 229.957735 
L 134.729697 285.633825 
L 135.117576 293.024456 
L 135.505455 248.680668 
L 135.893333 285.141116 
L 136.281212 289.575495 
L 136.669091 232.913988 
L 137.05697 236.362949 
L 137.444848 283.170281 
L 137.832727 273.316106 
L 138.220606 272.823397 
L 138.608485 275.286941 
L 138.996364 283.66299 
L 139.384242 288.590077 
L 139.772121 286.619242 
L 140.16 199.409792 
L 140.547879 281.692155 
L 140.935758 281.199446 
L 141.711515 251.636921 
L 142.099394 294.009874 
L 142.487273 292.531747 
L 142.875152 274.301523 
L 143.26303 262.476513 
L 143.650909 283.170281 
L 144.038788 281.199446 
L 144.426667 160.4858 
L 144.814545 293.517165 
L 145.202424 266.910892 
L 145.590303 217.640016 
L 145.978182 263.461931 
L 146.366061 243.260872 
L 146.753939 206.307715 
L 147.141818 292.039039 
L 147.529697 288.097369 
L 148.305455 144.226411 
L 148.693333 219.610851 
L 149.081212 212.22022 
L 149.469091 285.633825 
L 149.85697 287.60466 
L 150.244848 178.223316 
L 150.632727 261.983804 
L 151.020606 284.155699 
L 151.408485 269.867145 
L 151.796364 219.610851 
L 152.184242 224.537939 
L 152.572121 210.742094 
L 152.96 214.683764 
L 153.347879 217.147308 
L 153.735758 195.468122 
L 154.123636 201.380627 
L 154.511515 266.910892 
L 154.899394 266.910892 
L 155.287273 282.677572 
L 155.675152 220.596269 
L 156.450909 188.5702 
L 156.838788 253.115047 
L 157.226667 201.380627 
L 157.614545 215.669181 
L 158.002424 281.199446 
L 158.390303 202.366045 
L 158.778182 216.654599 
L 159.166061 206.800424 
L 159.553939 250.158794 
L 159.941818 178.716024 
L 160.329697 271.83798 
L 160.717576 205.322297 
L 161.493333 247.202542 
L 162.269091 193.497287 
L 162.65697 187.584782 
L 163.044848 216.16189 
L 163.432727 275.286941 
L 163.820606 231.435862 
L 164.208485 206.307715 
L 164.984242 241.290037 
L 165.372121 211.727511 
L 165.76 288.097369 
L 166.147879 222.567104 
L 166.535758 258.042134 
L 166.923636 223.552521 
L 167.311515 257.549426 
L 167.699394 205.322297 
L 168.087273 253.607756 
L 168.475152 221.088978 
L 168.86303 293.024456 
L 169.250909 266.910892 
L 169.638788 227.9869 
L 170.026667 226.508774 
L 170.414545 227.9869 
L 170.802424 271.83798 
L 171.190303 224.04523 
L 171.578182 221.581686 
L 171.966061 213.698346 
L 172.353939 215.176473 
L 172.741818 225.523356 
L 173.517576 257.549426 
L 173.905455 258.534843 
L 174.293333 272.330688 
L 174.681212 207.785841 
L 175.069091 208.771259 
L 175.45697 292.531747 
L 176.232727 218.132725 
L 176.620606 224.537939 
L 177.008485 228.479609 
L 177.396364 291.54633 
L 177.784242 252.129629 
L 178.172121 230.943153 
L 178.56 230.943153 
L 178.947879 225.523356 
L 179.335758 237.348367 
L 179.723636 267.403601 
L 180.111515 164.42747 
L 180.499394 237.348367 
L 180.887273 221.581686 
L 181.275152 292.039039 
L 181.66303 243.260872 
L 182.050909 223.552521 
L 182.438788 290.560912 
L 182.826667 197.438957 
L 183.214545 286.126534 
L 183.602424 206.800424 
L 183.990303 221.581686 
L 184.378182 220.10356 
L 184.766061 195.468122 
L 185.153939 288.097369 
L 185.541818 218.625434 
L 185.929697 274.301523 
L 186.317576 211.727511 
L 186.705455 53.568 
L 187.093333 217.640016 
L 187.481212 289.575495 
L 188.25697 293.517165 
L 188.644848 293.517165 
L 189.032727 120.576391 
L 189.420606 254.593173 
L 189.808485 224.04523 
L 190.196364 246.217124 
L 190.584242 204.33688 
L 190.972121 205.815006 
L 191.36 207.785841 
L 191.747879 278.243193 
L 192.135758 154.080587 
L 192.523636 246.217124 
L 192.911515 293.517165 
L 193.299394 189.062908 
L 194.075152 237.348367 
L 194.46303 212.712929 
L 194.850909 291.54633 
L 195.238788 225.030648 
L 195.626667 292.531747 
L 196.402424 186.599365 
L 196.790303 191.526452 
L 197.178182 228.972318 
L 197.566061 214.191055 
L 197.953939 293.024456 
L 198.341818 146.689955 
L 198.729697 276.272358 
L 199.117576 131.908692 
L 199.505455 221.088978 
L 199.893333 211.727511 
L 200.281212 250.651503 
L 200.669091 199.409792 
L 201.05697 234.884823 
L 201.444848 226.508774 
L 201.832727 204.829589 
L 202.220606 293.517165 
L 202.608485 292.039039 
L 202.996364 219.118143 
L 203.384242 207.293132 
L 203.772121 248.187959 
L 204.16 222.074395 
L 204.547879 271.83798 
L 204.935758 188.5702 
L 205.323636 170.832684 
L 205.711515 139.792033 
L 206.099394 179.208733 
L 206.487273 193.497287 
L 206.875152 236.855658 
L 207.26303 204.33688 
L 207.650909 234.392114 
L 208.038788 253.115047 
L 208.426667 241.782745 
L 208.814545 239.81191 
L 209.202424 209.756676 
L 209.590303 290.560912 
L 209.978182 212.22022 
L 210.366061 203.351462 
L 210.753939 250.158794 
L 211.141818 218.132725 
L 211.917576 284.155699 
L 212.305455 239.319202 
L 212.693333 248.187959 
L 213.081212 208.771259 
L 213.469091 223.552521 
L 213.85697 168.861849 
L 214.244848 211.727511 
L 214.632727 220.596269 
L 215.020606 293.024456 
L 215.408485 218.132725 
L 215.796364 182.657695 
L 216.184242 242.768163 
L 216.572121 245.724415 
L 216.96 211.727511 
L 217.347879 204.33688 
L 217.735758 199.409792 
L 218.123636 245.724415 
L 218.511515 248.680668 
L 218.899394 221.581686 
L 219.287273 245.724415 
L 219.675152 191.526452 
L 220.06303 205.815006 
L 220.450909 253.115047 
L 220.838788 247.202542 
L 221.226667 227.001483 
L 221.614545 249.173377 
L 222.002424 223.059813 
L 222.390303 252.622338 
L 222.778182 272.823397 
L 223.166061 254.100464 
L 223.553939 210.742094 
L 223.941818 221.581686 
L 224.329697 135.357654 
L 225.105455 244.738998 
L 225.493333 280.214029 
L 225.881212 220.596269 
L 226.269091 249.666086 
L 226.65697 247.202542 
L 227.044848 243.260872 
L 227.432727 222.567104 
L 227.820606 248.680668 
L 228.208485 250.158794 
L 228.596364 258.534843 
L 228.984242 233.899405 
L 229.372121 247.695251 
L 229.76 250.158794 
L 230.147879 264.940057 
L 230.535758 251.144212 
L 230.923636 248.680668 
L 231.311515 250.651503 
L 231.699394 215.176473 
L 232.087273 191.526452 
L 232.86303 293.517165 
L 233.250909 236.362949 
L 233.638788 241.782745 
L 234.026667 288.097369 
L 234.414545 246.709833 
L 234.802424 257.549426 
L 235.190303 250.651503 
L 235.578182 226.016065 
L 235.966061 248.187959 
L 236.353939 294.009874 
L 236.741818 285.141116 
L 237.129697 210.742094 
L 237.517576 209.263967 
L 237.905455 170.339976 
L 238.293333 253.607756 
L 238.681212 217.640016 
L 239.069091 252.129629 
L 239.45697 249.173377 
L 239.844848 245.231707 
L 240.232727 243.75358 
L 240.620606 250.158794 
L 241.008485 207.293132 
L 241.396364 219.118143 
L 241.784242 243.260872 
L 242.172121 237.841075 
L 242.56 246.217124 
L 242.947879 191.526452 
L 243.723636 253.115047 
L 244.111515 280.214029 
L 244.499394 250.158794 
L 244.887273 268.389018 
L 245.275152 256.071299 
L 245.66303 224.04523 
L 246.050909 251.636921 
L 246.438788 252.129629 
L 246.826667 253.607756 
L 247.214545 200.887919 
L 247.990303 274.794232 
L 248.378182 219.610851 
L 248.766061 280.706737 
L 249.153939 252.129629 
L 249.541818 193.004578 
L 249.929697 251.144212 
L 250.317576 248.680668 
L 250.705455 282.677572 
L 251.093333 207.785841 
L 251.481212 292.039039 
L 251.869091 242.768163 
L 252.25697 282.677572 
L 252.644848 281.692155 
L 253.032727 239.319202 
L 253.420606 153.587878 
L 253.808485 250.158794 
L 254.196364 250.158794 
L 254.584242 219.610851 
L 254.972121 242.275454 
L 255.36 251.144212 
L 255.747879 291.053621 
L 256.523636 209.756676 
L 256.911515 250.651503 
L 257.299394 213.698346 
L 257.687273 294.009874 
L 258.075152 241.782745 
L 258.46303 248.680668 
L 258.850909 249.666086 
L 259.238788 240.304619 
L 259.626667 244.738998 
L 260.014545 285.141116 
L 260.790303 225.523356 
L 261.178182 226.508774 
L 261.566061 245.724415 
L 261.953939 246.217124 
L 262.341818 200.39521 
L 263.117576 240.304619 
L 263.505455 145.704538 
L 263.893333 172.803519 
L 264.281212 239.81191 
L 264.669091 244.246289 
L 265.05697 241.290037 
L 265.832727 215.669181 
L 266.220606 248.680668 
L 266.608485 241.290037 
L 266.996364 228.972318 
L 267.384242 236.362949 
L 267.772121 206.800424 
L 268.16 245.724415 
L 268.547879 242.275454 
L 268.935758 249.173377 
L 269.323636 244.738998 
L 269.711515 243.260872 
L 270.099394 208.771259 
L 270.487273 247.695251 
L 270.875152 253.607756 
L 271.26303 248.187959 
L 271.650909 245.231707 
L 272.038788 252.622338 
L 272.426667 251.636921 
L 272.814545 212.22022 
L 273.202424 195.960831 
L 273.590303 227.001483 
L 273.978182 248.680668 
L 274.366061 247.202542 
L 274.753939 195.468122 
L 275.141818 208.771259 
L 275.529697 246.709833 
L 275.917576 224.537939 
L 276.305455 234.392114 
L 276.693333 218.132725 
L 277.081212 240.797328 
L 277.469091 252.129629 
L 277.85697 246.217124 
L 278.244848 216.654599 
L 278.632727 224.537939 
L 279.020606 185.121238 
L 279.408485 244.738998 
L 279.796364 280.214029 
L 280.572121 219.118143 
L 280.96 223.059813 
L 281.347879 210.742094 
L 281.735758 222.567104 
L 282.123636 228.972318 
L 282.511515 226.508774 
L 282.899394 229.957735 
L 283.287273 242.275454 
L 284.06303 214.683764 
L 284.450909 238.333784 
L 284.838788 187.584782 
L 285.226667 201.873336 
L 285.614545 248.187959 
L 286.002424 213.205637 
L 286.390303 225.030648 
L 286.778182 188.077491 
L 287.166061 170.832684 
L 287.553939 167.876432 
L 287.941818 246.217124 
L 288.329697 222.567104 
L 288.717576 283.170281 
L 289.105455 232.421279 
L 289.493333 242.768163 
L 289.881212 225.523356 
L 290.269091 248.187959 
L 290.65697 284.648407 
L 291.044848 167.383723 
L 291.432727 244.246289 
L 292.208485 244.246289 
L 292.596364 206.800424 
L 292.984242 203.351462 
L 293.372121 248.187959 
L 293.76 203.351462 
L 294.147879 233.899405 
L 294.535758 176.252481 
L 294.923636 233.406697 
L 295.311515 218.132725 
L 295.699394 193.989996 
L 296.475152 226.508774 
L 297.250909 207.293132 
L 297.638788 205.815006 
L 298.026667 210.742094 
L 298.414545 144.71912 
L 298.802424 230.943153 
L 299.190303 97.419079 
L 299.578182 206.800424 
L 299.966061 226.016065 
L 300.353939 226.016065 
L 301.129697 229.957735 
L 301.517576 205.815006 
L 301.905455 222.074395 
L 302.293333 227.9869 
L 302.681212 227.001483 
L 303.069091 213.698346 
L 303.45697 219.610851 
L 303.844848 223.552521 
L 304.232727 232.421279 
L 304.620606 226.508774 
L 305.008485 228.479609 
L 305.396364 236.855658 
L 305.784242 224.04523 
L 306.172121 283.170281 
L 306.56 269.867145 
L 306.947879 218.132725 
L 307.335758 230.450444 
L 307.723636 183.150403 
L 308.499394 258.534843 
L 309.275152 220.596269 
L 309.66303 222.074395 
L 310.050909 232.421279 
L 310.438788 222.567104 
L 310.826667 217.640016 
L 311.214545 294.009874 
L 311.602424 209.756676 
L 311.990303 228.972318 
L 312.378182 208.27855 
L 312.766061 214.191055 
L 313.153939 293.024456 
L 313.541818 226.016065 
L 313.929697 219.610851 
L 314.317576 271.345271 
L 315.093333 214.683764 
L 315.481212 234.884823 
L 315.869091 229.957735 
L 316.25697 229.957735 
L 316.644848 228.972318 
L 317.032727 231.92857 
L 317.420606 232.421279 
L 317.808485 223.059813 
L 318.196364 230.943153 
L 318.584242 282.677572 
L 318.972121 222.074395 
L 319.36 181.672277 
L 319.747879 218.625434 
L 320.135758 240.304619 
L 320.523636 203.351462 
L 320.911515 229.465026 
L 321.299394 228.972318 
L 321.687273 230.450444 
L 322.075152 229.465026 
L 322.46303 230.450444 
L 322.850909 226.016065 
L 323.238788 204.33688 
L 323.626667 230.943153 
L 324.014545 228.972318 
L 324.402424 231.435862 
L 324.790303 232.421279 
L 325.178182 226.508774 
L 325.566061 226.016065 
L 325.953939 219.610851 
L 326.341818 233.899405 
L 326.729697 228.972318 
L 327.117576 220.596269 
L 327.505455 188.077491 
L 327.893333 235.377532 
L 328.281212 207.785841 
L 328.669091 213.698346 
L 329.05697 230.450444 
L 329.444848 229.957735 
L 329.832727 231.92857 
L 330.220606 197.438957 
L 330.608485 211.234802 
L 331.384242 224.04523 
L 331.772121 224.537939 
L 332.16 230.450444 
L 332.547879 230.450444 
L 332.935758 217.640016 
L 333.323636 233.899405 
L 333.711515 215.176473 
L 334.099394 227.9869 
L 334.487273 219.610851 
L 334.875152 214.683764 
L 335.26303 228.972318 
L 336.038788 201.873336 
L 336.426667 223.552521 
L 336.814545 207.293132 
L 337.202424 226.508774 
L 337.590303 227.9869 
L 337.978182 222.567104 
L 338.753939 230.450444 
L 339.141818 222.567104 
L 339.529697 229.957735 
L 339.917576 230.450444 
L 340.305455 215.669181 
L 340.693333 227.9869 
L 341.081212 227.001483 
L 341.469091 191.526452 
L 341.85697 224.537939 
L 342.244848 223.552521 
L 342.632727 239.81191 
L 343.408485 224.04523 
L 343.796364 230.450444 
L 344.184242 232.421279 
L 344.572121 225.030648 
L 344.96 222.567104 
L 345.347879 221.088978 
L 345.735758 226.508774 
L 346.123636 221.581686 
L 346.511515 219.610851 
L 346.899394 234.392114 
L 347.287273 234.392114 
L 347.675152 208.771259 
L 348.450909 228.972318 
L 349.226667 220.10356 
L 349.614545 222.567104 
L 350.002424 230.943153 
L 350.390303 218.132725 
L 350.778182 218.132725 
L 351.166061 216.654599 
L 351.553939 234.392114 
L 351.941818 232.421279 
L 352.717576 225.030648 
L 353.105455 218.625434 
L 353.493333 229.957735 
L 353.881212 214.683764 
L 354.269091 231.92857 
L 354.65697 232.421279 
L 355.044848 193.989996 
L 355.432727 213.205637 
L 355.820606 220.596269 
L 356.208485 231.92857 
L 357.372121 223.552521 
L 357.76 214.191055 
L 358.147879 222.567104 
L 358.535758 227.001483 
L 358.923636 285.633825 
L 359.311515 217.147308 
L 359.699394 222.074395 
L 360.087273 224.537939 
L 360.475152 217.640016 
L 360.86303 228.479609 
L 361.250909 195.468122 
L 361.638788 179.701442 
L 362.026667 212.22022 
L 362.414545 191.526452 
L 362.802424 215.176473 
L 363.190303 211.727511 
L 363.578182 224.04523 
L 363.966061 224.04523 
L 364.353939 233.406697 
L 364.741818 206.800424 
L 365.129697 234.392114 
L 365.517576 213.205637 
L 365.905455 230.450444 
L 366.293333 216.16189 
L 366.681212 211.727511 
L 367.069091 223.059813 
L 367.45697 212.22022 
L 367.844848 222.074395 
L 368.232727 218.132725 
L 368.620606 227.9869 
L 369.008485 213.698346 
L 369.396364 210.249385 
L 369.784242 166.398305 
L 370.172121 248.187959 
L 370.56 209.263967 
L 370.947879 209.263967 
L 371.335758 216.654599 
L 371.723636 217.147308 
L 372.111515 223.059813 
L 372.499394 218.625434 
L 372.887273 171.325393 
L 373.275152 201.873336 
L 373.66303 219.610851 
L 374.050909 211.727511 
L 374.438788 206.800424 
L 374.826667 207.785841 
L 375.214545 191.526452 
L 375.602424 191.033743 
L 375.990303 191.033743 
L 376.378182 188.077491 
L 376.766061 221.581686 
L 377.153939 217.147308 
L 377.541818 205.815006 
L 377.929697 181.179568 
L 378.317576 190.048326 
L 378.705455 190.541035 
L 379.093333 180.194151 
L 379.481212 201.380627 
L 379.869091 193.989996 
L 380.25697 192.51187 
L 380.644848 179.208733 
L 381.032727 200.887919 
L 381.420606 294.009874 
L 381.808485 212.22022 
L 382.196364 163.934762 
L 382.584242 186.106656 
L 382.972121 273.808815 
L 383.36 159.993092 
L 383.747879 192.019161 
L 384.135758 200.887919 
L 384.911515 180.194151 
L 385.299394 188.077491 
L 385.687273 172.803519 
L 386.075152 190.541035 
L 386.46303 190.541035 
L 386.850909 170.832684 
L 387.238788 197.931666 
L 387.626667 157.529548 
L 388.014545 214.683764 
L 388.790303 169.847267 
L 389.566061 181.179568 
L 389.953939 176.745189 
L 390.341818 196.946248 
L 390.729697 178.223316 
L 391.117576 172.803519 
L 391.505455 193.989996 
L 391.893333 179.701442 
L 392.281212 159.007674 
L 392.669091 180.194151 
L 393.05697 172.310811 
L 393.444848 127.474314 
L 393.832727 193.497287 
L 394.220606 156.54413 
L 394.608485 192.51187 
L 394.996364 70.320098 
L 395.384242 166.398305 
L 395.772121 158.514965 
L 396.16 131.908692 
L 396.547879 191.033743 
L 396.935758 53.568 
L 397.323636 289.082786 
L 397.711515 102.838876 
L 398.099394 135.850363 
L 398.487273 53.568 
L 398.487273 53.568 
" clip-path="url(#p1e87ffe2d9)" style="fill: none; stroke: #1f77b4; stroke-width: 1.5; stroke-linecap: square"/>
   </g>
   <g id="patch_3">
    <path d="M 57.6 307.584 
L 57.6 41.472 
" style="fill: none; stroke: #000000; stroke-width: 0.8; stroke-linejoin: miter; stroke-linecap: square"/>
   </g>
   <g id="patch_4">
    <path d="M 414.72 307.584 
L 414.72 41.472 
" style="fill: none; stroke: #000000; stroke-width: 0.8; stroke-linejoin: miter; stroke-linecap: square"/>
   </g>
   <g id="patch_5">
    <path d="M 57.6 307.584 
L 414.72 307.584 
" style="fill: none; stroke: #000000; stroke-width: 0.8; stroke-linejoin: miter; stroke-linecap: square"/>
   </g>
   <g id="patch_6">
    <path d="M 57.6 41.472 
L 414.72 41.472 
" style="fill: none; stroke: #000000; stroke-width: 0.8; stroke-linejoin: miter; stroke-linecap: square"/>
   </g>
  </g>
 </g>
 <defs>
  <clipPath id="p1e87ffe2d9">
   <rect x="57.6" y="41.472" width="357.12" height="266.112"/>
  </clipPath>
 </defs>
</svg>
