<?xml version="1.0" encoding="utf-8" standalone="no"?>
<!DOCTYPE svg PUBLIC "-//W3C//DTD SVG 1.1//EN"
  "http://www.w3.org/Graphics/SVG/1.1/DTD/svg11.dtd">
<svg xmlns:xlink="http://www.w3.org/1999/xlink" width="460.8pt" height="345.6pt" viewBox="0 0 460.8 345.6" xmlns="http://www.w3.org/2000/svg" version="1.1">
 <metadata>
  <rdf:RDF xmlns:dc="http://purl.org/dc/elements/1.1/" xmlns:cc="http://creativecommons.org/ns#" xmlns:rdf="http://www.w3.org/1999/02/22-rdf-syntax-ns#">
   <cc:Work>
    <dc:type rdf:resource="http://purl.org/dc/dcmitype/StillImage"/>
    <dc:date>2026-04-19T21:11:29.501114</dc:date>
    <dc:format>image/svg+xml</dc:format>
    <dc:creator>
     <cc:Agent>
      <dc:title>Matplotlib v3.10.8, https://matplotlib.org/</dc:title>
     </cc:Agent>
    </dc:creator>
   </cc:Work>
  </rdf:RDF>
 </metadata>
 <defs>
  <style type="text/css">*{stroke-linejoin: round; stroke-linecap: butt}</style>
 </defs>
 <g id="figure_1">
  <g id="patch_1">
   <path d="M 0 345.6 
L 460.8 345.6 
L 460.8 0 
L 0 0 
z
" style="fill: #ffffff"/>
  </g>
  <g id="axes_1">
   <g id="patch_2">
    <path d="M 57.6 307.584 
L 414.72 307.584 
L 414.72 41.472 
L 57.6 41.472 
z
" style="fill: #ffffff"/>
   </g>
   <g id="matplotlib.axis_1">
    <g id="xtick_1">
     <g id="line2d_1">
      <defs>
       <path id="m2cd37436ef" d="M 0 0 
L 0 3.5 
" style="stroke: #000000; stroke-width: 0.8"/>
      </defs>
      <g>
       <use xlink:href="#m2cd37436ef" x="73.832727" y="307.584" style="stroke: #000000; stroke-width: 0.8"/>
      </g>
     </g>
     <g id="text_1">
      <!-- 0 -->
      <g transform="translate(70.651477 322.182437) scale(0.1 -0.1)">
       <defs>
        <path id="DejaVuSans-30" d="M 2034 4250 
Q 1547 4250 1301 3770 
Q 1056 3291 1056 2328 
Q 1056 1369 1301 889 
Q 1547 409 2034 409 
Q 2525 409 2770 889 
Q 3016 1369 3016 2328 
Q 3016 3291 2770 3770 
Q 2525 4250 2034 4250 
z
M 2034 4750 
Q 2819 4750 3233 4129 
Q 3647 3509 3647 2328 
Q 3647 1150 3233 529 
Q 2819 -91 2034 -91 
Q 1250 -91 836 529 
Q 422 1150 422 2328 
Q 422 3509 836 4129 
Q 1250 4750 2034 4750 
z
" transform="scale(0.015625)"/>
       </defs>
       <use xlink:href="#DejaVuSans-30"/>
      </g>
     </g>
    </g>
    <g id="xtick_2">
     <g id="line2d_2">
      <g>
       <use xlink:href="#m2cd37436ef" x="138.828632" y="307.584" style="stroke: #000000; stroke-width: 0.8"/>
      </g>
     </g>
     <g id="text_2">
      <!-- 200 -->
      <g transform="translate(129.284882 322.182437) scale(0.1 -0.1)">
       <defs>
        <path id="DejaVuSans-32" d="M 1228 531 
L 3431 531 
L 3431 0 
L 469 0 
L 469 531 
Q 828 903 1448 1529 
Q 2069 2156 2228 2338 
Q 2531 2678 2651 2914 
Q 2772 3150 2772 3378 
Q 2772 3750 2511 3984 
Q 2250 4219 1831 4219 
Q 1534 4219 1204 4116 
Q 875 4013 500 3803 
L 500 4441 
Q 881 4594 1212 4672 
Q 1544 4750 1819 4750 
Q 2544 4750 2975 4387 
Q 3406 4025 3406 3419 
Q 3406 3131 3298 2873 
Q 3191 2616 2906 2266 
Q 2828 2175 2409 1742 
Q 1991 1309 1228 531 
z
" transform="scale(0.015625)"/>
       </defs>
       <use xlink:href="#DejaVuSans-32"/>
       <use xlink:href="#DejaVuSans-30" transform="translate(63.623047 0)"/>
       <use xlink:href="#DejaVuSans-30" transform="translate(127.246094 0)"/>
      </g>
     </g>
    </g>
    <g id="xtick_3">
     <g id="line2d_3">
      <g>
       <use xlink:href="#m2cd37436ef" x="203.824537" y="307.584" style="stroke: #000000; stroke-width: 0.8"/>
      </g>
     </g>
     <g id="text_3">
      <!-- 400 -->
      <g transform="translate(194.280787 322.182437) scale(0.1 -0.1)">
       <defs>
        <path id="DejaVuSans-34" d="M 2419 4116 
L 825 1625 
L 2419 1625 
L 2419 4116 
z
M 2253 4666 
L 3047 4666 
L 3047 1625 
L 3713 1625 
L 3713 1100 
L 3047 1100 
L 3047 0 
L 2419 0 
L 2419 1100 
L 313 1100 
L 313 1709 
L 2253 4666 
z
" transform="scale(0.015625)"/>
       </defs>
       <use xlink:href="#DejaVuSans-34"/>
       <use xlink:href="#DejaVuSans-30" transform="translate(63.623047 0)"/>
       <use xlink:href="#DejaVuSans-30" transform="translate(127.246094 0)"/>
      </g>
     </g>
    </g>
    <g id="xtick_4">
     <g id="line2d_4">
      <g>
       <use xlink:href="#m2cd37436ef" x="268.820442" y="307.584" style="stroke: #000000; stroke-width: 0.8"/>
      </g>
     </g>
     <g id="text_4">
      <!-- 600 -->
      <g transform="translate(259.276692 322.182437) scale(0.1 -0.1)">
       <defs>
        <path id="DejaVuSans-36" d="M 2113 2584 
Q 1688 2584 1439 2293 
Q 1191 2003 1191 1497 
Q 1191 994 1439 701 
Q 1688 409 2113 409 
Q 2538 409 2786 701 
Q 3034 994 3034 1497 
Q 3034 2003 2786 2293 
Q 2538 2584 2113 2584 
z
M 3366 4563 
L 3366 3988 
Q 3128 4100 2886 4159 
Q 2644 4219 2406 4219 
Q 1781 4219 1451 3797 
Q 1122 3375 1075 2522 
Q 1259 2794 1537 2939 
Q 1816 3084 2150 3084 
Q 2853 3084 3261 2657 
Q 3669 2231 3669 1497 
Q 3669 778 3244 343 
Q 2819 -91 2113 -91 
Q 1303 -91 875 529 
Q 447 1150 447 2328 
Q 447 3434 972 4092 
Q 1497 4750 2381 4750 
Q 2619 4750 2861 4703 
Q 3103 4656 3366 4563 
z
" transform="scale(0.015625)"/>
       </defs>
       <use xlink:href="#DejaVuSans-36"/>
       <use xlink:href="#DejaVuSans-30" transform="translate(63.623047 0)"/>
       <use xlink:href="#DejaVuSans-30" transform="translate(127.246094 0)"/>
      </g>
     </g>
    </g>
    <g id="xtick_5">
     <g id="line2d_5">
      <g>
       <use xlink:href="#m2cd37436ef" x="333.816347" y="307.584" style="stroke: #000000; stroke-width: 0.8"/>
      </g>
     </g>
     <g id="text_5">
      <!-- 800 -->
      <g transform="translate(324.272597 322.182437) scale(0.1 -0.1)">
       <defs>
        <path id="DejaVuSans-38" d="M 2034 2216 
Q 1584 2216 1326 1975 
Q 1069 1734 1069 1313 
Q 1069 891 1326 650 
Q 1584 409 2034 409 
Q 2484 409 2743 651 
Q 3003 894 3003 1313 
Q 3003 1734 2745 1975 
Q 2488 2216 2034 2216 
z
M 1403 2484 
Q 997 2584 770 2862 
Q 544 3141 544 3541 
Q 544 4100 942 4425 
Q 1341 4750 2034 4750 
Q 2731 4750 3128 4425 
Q 3525 4100 3525 3541 
Q 3525 3141 3298 2862 
Q 3072 2584 2669 2484 
Q 3125 2378 3379 2068 
Q 3634 1759 3634 1313 
Q 3634 634 3220 271 
Q 2806 -91 2034 -91 
Q 1263 -91 848 271 
Q 434 634 434 1313 
Q 434 1759 690 2068 
Q 947 2378 1403 2484 
z
M 1172 3481 
Q 1172 3119 1398 2916 
Q 1625 2713 2034 2713 
Q 2441 2713 2670 2916 
Q 2900 3119 2900 3481 
Q 2900 3844 2670 4047 
Q 2441 4250 2034 4250 
Q 1625 4250 1398 4047 
Q 1172 3844 1172 3481 
z
" transform="scale(0.015625)"/>
       </defs>
       <use xlink:href="#DejaVuSans-38"/>
       <use xlink:href="#DejaVuSans-30" transform="translate(63.623047 0)"/>
       <use xlink:href="#DejaVuSans-30" transform="translate(127.246094 0)"/>
      </g>
     </g>
    </g>
    <g id="xtick_6">
     <g id="line2d_6">
      <g>
       <use xlink:href="#m2cd37436ef" x="398.812252" y="307.584" style="stroke: #000000; stroke-width: 0.8"/>
      </g>
     </g>
     <g id="text_6">
      <!-- 1000 -->
      <g transform="translate(386.087252 322.182437) scale(0.1 -0.1)">
       <defs>
        <path id="DejaVuSans-31" d="M 794 531 
L 1825 531 
L 1825 4091 
L 703 3866 
L 703 4441 
L 1819 4666 
L 2450 4666 
L 2450 531 
L 3481 531 
L 3481 0 
L 794 0 
L 794 531 
z
" transform="scale(0.015625)"/>
       </defs>
       <use xlink:href="#DejaVuSans-31"/>
       <use xlink:href="#DejaVuSans-30" transform="translate(63.623047 0)"/>
       <use xlink:href="#DejaVuSans-30" transform="translate(127.246094 0)"/>
       <use xlink:href="#DejaVuSans-30" transform="translate(190.869141 0)"/>
      </g>
     </g>
    </g>
    <g id="text_7">
     <!-- Episode # -->
     <g transform="translate(210.743594 335.860562) scale(0.1 -0.1)">
      <defs>
       <path id="DejaVuSans-45" d="M 628 4666 
L 3578 4666 
L 3578 4134 
L 1259 4134 
L 1259 2753 
L 3481 2753 
L 3481 2222 
L 1259 2222 
L 1259 531 
L 3634 531 
L 3634 0 
L 628 0 
L 628 4666 
z
" transform="scale(0.015625)"/>
       <path id="DejaVuSans-70" d="M 1159 525 
L 1159 -1331 
L 581 -1331 
L 581 3500 
L 1159 3500 
L 1159 2969 
Q 1341 3281 1617 3432 
Q 1894 3584 2278 3584 
Q 2916 3584 3314 3078 
Q 3713 2572 3713 1747 
Q 3713 922 3314 415 
Q 2916 -91 2278 -91 
Q 1894 -91 1617 61 
Q 1341 213 1159 525 
z
M 3116 1747 
Q 3116 2381 2855 2742 
Q 2594 3103 2138 3103 
Q 1681 3103 1420 2742 
Q 1159 2381 1159 1747 
Q 1159 1113 1420 752 
Q 1681 391 2138 391 
Q 2594 391 2855 752 
Q 3116 1113 3116 1747 
z
" transform="scale(0.015625)"/>
       <path id="DejaVuSans-69" d="M 603 3500 
L 1178 3500 
L 1178 0 
L 603 0 
L 603 3500 
z
M 603 4863 
L 1178 4863 
L 1178 4134 
L 603 4134 
L 603 4863 
z
" transform="scale(0.015625)"/>
       <path id="DejaVuSans-73" d="M 2834 3397 
L 2834 2853 
Q 2591 2978 2328 3040 
Q 2066 3103 1784 3103 
Q 1356 3103 1142 2972 
Q 928 2841 928 2578 
Q 928 2378 1081 2264 
Q 1234 2150 1697 2047 
L 1894 2003 
Q 2506 1872 2764 1633 
Q 3022 1394 3022 966 
Q 3022 478 2636 193 
Q 2250 -91 1575 -91 
Q 1294 -91 989 -36 
Q 684 19 347 128 
L 347 722 
Q 666 556 975 473 
Q 1284 391 1588 391 
Q 1994 391 2212 530 
Q 2431 669 2431 922 
Q 2431 1156 2273 1281 
Q 2116 1406 1581 1522 
L 1381 1569 
Q 847 1681 609 1914 
Q 372 2147 372 2553 
Q 372 3047 722 3315 
Q 1072 3584 1716 3584 
Q 2034 3584 2315 3537 
Q 2597 3491 2834 3397 
z
" transform="scale(0.015625)"/>
       <path id="DejaVuSans-6f" d="M 1959 3097 
Q 1497 3097 1228 2736 
Q 959 2375 959 1747 
Q 959 1119 1226 758 
Q 1494 397 1959 397 
Q 2419 397 2687 759 
Q 2956 1122 2956 1747 
Q 2956 2369 2687 2733 
Q 2419 3097 1959 3097 
z
M 1959 3584 
Q 2709 3584 3137 3096 
Q 3566 2609 3566 1747 
Q 3566 888 3137 398 
Q 2709 -91 1959 -91 
Q 1206 -91 779 398 
Q 353 888 353 1747 
Q 353 2609 779 3096 
Q 1206 3584 1959 3584 
z
" transform="scale(0.015625)"/>
       <path id="DejaVuSans-64" d="M 2906 2969 
L 2906 4863 
L 3481 4863 
L 3481 0 
L 2906 0 
L 2906 525 
Q 2725 213 2448 61 
Q 2172 -91 1784 -91 
Q 1150 -91 751 415 
Q 353 922 353 1747 
Q 353 2572 751 3078 
Q 1150 3584 1784 3584 
Q 2172 3584 2448 3432 
Q 2725 3281 2906 2969 
z
M 947 1747 
Q 947 1113 1208 752 
Q 1469 391 1925 391 
Q 2381 391 2643 752 
Q 2906 1113 2906 1747 
Q 2906 2381 2643 2742 
Q 2381 3103 1925 3103 
Q 1469 3103 1208 2742 
Q 947 2381 947 1747 
z
" transform="scale(0.015625)"/>
       <path id="DejaVuSans-65" d="M 3597 1894 
L 3597 1613 
L 953 1613 
Q 991 1019 1311 708 
Q 1631 397 2203 397 
Q 2534 397 2845 478 
Q 3156 559 3463 722 
L 3463 178 
Q 3153 47 2828 -22 
Q 2503 -91 2169 -91 
Q 1331 -91 842 396 
Q 353 884 353 1716 
Q 353 2575 817 3079 
Q 1281 3584 2069 3584 
Q 2775 3584 3186 3129 
Q 3597 2675 3597 1894 
z
M 3022 2063 
Q 3016 2534 2758 2815 
Q 2500 3097 2075 3097 
Q 1594 3097 1305 2825 
Q 1016 2553 972 2059 
L 3022 2063 
z
" transform="scale(0.015625)"/>
       <path id="DejaVuSans-20" transform="scale(0.015625)"/>
       <path id="DejaVuSans-23" d="M 3272 2816 
L 2363 2816 
L 2100 1772 
L 3016 1772 
L 3272 2816 
z
M 2803 4594 
L 2478 3297 
L 3391 3297 
L 3719 4594 
L 4219 4594 
L 3897 3297 
L 4872 3297 
L 4872 2816 
L 3775 2816 
L 3519 1772 
L 4513 1772 
L 4513 1294 
L 3397 1294 
L 3072 0 
L 2572 0 
L 2894 1294 
L 1978 1294 
L 1656 0 
L 1153 0 
L 1478 1294 
L 494 1294 
L 494 1772 
L 1594 1772 
L 1856 2816 
L 850 2816 
L 850 3297 
L 1978 3297 
L 2297 4594 
L 2803 4594 
z
" transform="scale(0.015625)"/>
      </defs>
      <use xlink:href="#DejaVuSans-45"/>
      <use xlink:href="#DejaVuSans-70" transform="translate(63.183594 0)"/>
      <use xlink:href="#DejaVuSans-69" transform="translate(126.660156 0)"/>
      <use xlink:href="#DejaVuSans-73" transform="translate(154.443359 0)"/>
      <use xlink:href="#DejaVuSans-6f" transform="translate(206.542969 0)"/>
      <use xlink:href="#DejaVuSans-64" transform="translate(267.724609 0)"/>
      <use xlink:href="#DejaVuSans-65" transform="translate(331.201172 0)"/>
      <use xlink:href="#DejaVuSans-20" transform="translate(392.724609 0)"/>
      <use xlink:href="#DejaVuSans-23" transform="translate(424.511719 0)"/>
     </g>
    </g>
   </g>
   <g id="matplotlib.axis_2">
    <g id="ytick_1">
     <g id="line2d_7">
      <defs>
       <path id="m625995bff6" d="M 0 0 
L -3.5 0 
" style="stroke: #000000; stroke-width: 0.8"/>
      </defs>
      <g>
       <use xlink:href="#m625995bff6" x="57.6" y="283.392" style="stroke: #000000; stroke-width: 0.8"/>
      </g>
     </g>
     <g id="text_8">
      <!-- 10 -->
      <g transform="translate(37.875 287.191219) scale(0.1 -0.1)">
       <use xlink:href="#DejaVuSans-31"/>
       <use xlink:href="#DejaVuSans-30" transform="translate(63.623047 0)"/>
      </g>
     </g>
    </g>
    <g id="ytick_2">
     <g id="line2d_8">
      <g>
       <use xlink:href="#m625995bff6" x="57.6" y="253.152" style="stroke: #000000; stroke-width: 0.8"/>
      </g>
     </g>
     <g id="text_9">
      <!-- 15 -->
      <g transform="translate(37.875 256.951219) scale(0.1 -0.1)">
       <defs>
        <path id="DejaVuSans-35" d="M 691 4666 
L 3169 4666 
L 3169 4134 
L 1269 4134 
L 1269 2991 
Q 1406 3038 1543 3061 
Q 1681 3084 1819 3084 
Q 2600 3084 3056 2656 
Q 3513 2228 3513 1497 
Q 3513 744 3044 326 
Q 2575 -91 1722 -91 
Q 1428 -91 1123 -41 
Q 819 9 494 109 
L 494 744 
Q 775 591 1075 516 
Q 1375 441 1709 441 
Q 2250 441 2565 725 
Q 2881 1009 2881 1497 
Q 2881 1984 2565 2268 
Q 2250 2553 1709 2553 
Q 1456 2553 1204 2497 
Q 953 2441 691 2322 
L 691 4666 
z
" transform="scale(0.015625)"/>
       </defs>
       <use xlink:href="#DejaVuSans-31"/>
       <use xlink:href="#DejaVuSans-35" transform="translate(63.623047 0)"/>
      </g>
     </g>
    </g>
    <g id="ytick_3">
     <g id="line2d_9">
      <g>
       <use xlink:href="#m625995bff6" x="57.6" y="222.912" style="stroke: #000000; stroke-width: 0.8"/>
      </g>
     </g>
     <g id="text_10">
      <!-- 20 -->
      <g transform="translate(37.875 226.711219) scale(0.1 -0.1)">
       <use xlink:href="#DejaVuSans-32"/>
       <use xlink:href="#DejaVuSans-30" transform="translate(63.623047 0)"/>
      </g>
     </g>
    </g>
    <g id="ytick_4">
     <g id="line2d_10">
      <g>
       <use xlink:href="#m625995bff6" x="57.6" y="192.672" style="stroke: #000000; stroke-width: 0.8"/>
      </g>
     </g>
     <g id="text_11">
      <!-- 25 -->
      <g transform="translate(37.875 196.471219) scale(0.1 -0.1)">
       <use xlink:href="#DejaVuSans-32"/>
       <use xlink:href="#DejaVuSans-35" transform="translate(63.623047 0)"/>
      </g>
     </g>
    </g>
    <g id="ytick_5">
     <g id="line2d_11">
      <g>
       <use xlink:href="#m625995bff6" x="57.6" y="162.432" style="stroke: #000000; stroke-width: 0.8"/>
      </g>
     </g>
     <g id="text_12">
      <!-- 30 -->
      <g transform="translate(37.875 166.231219) scale(0.1 -0.1)">
       <defs>
        <path id="DejaVuSans-33" d="M 2597 2516 
Q 3050 2419 3304 2112 
Q 3559 1806 3559 1356 
Q 3559 666 3084 287 
Q 2609 -91 1734 -91 
Q 1441 -91 1130 -33 
Q 819 25 488 141 
L 488 750 
Q 750 597 1062 519 
Q 1375 441 1716 441 
Q 2309 441 2620 675 
Q 2931 909 2931 1356 
Q 2931 1769 2642 2001 
Q 2353 2234 1838 2234 
L 1294 2234 
L 1294 2753 
L 1863 2753 
Q 2328 2753 2575 2939 
Q 2822 3125 2822 3475 
Q 2822 3834 2567 4026 
Q 2313 4219 1838 4219 
Q 1578 4219 1281 4162 
Q 984 4106 628 3988 
L 628 4550 
Q 988 4650 1302 4700 
Q 1616 4750 1894 4750 
Q 2613 4750 3031 4423 
Q 3450 4097 3450 3541 
Q 3450 3153 3228 2886 
Q 3006 2619 2597 2516 
z
" transform="scale(0.015625)"/>
       </defs>
       <use xlink:href="#DejaVuSans-33"/>
       <use xlink:href="#DejaVuSans-30" transform="translate(63.623047 0)"/>
      </g>
     </g>
    </g>
    <g id="ytick_6">
     <g id="line2d_12">
      <g>
       <use xlink:href="#m625995bff6" x="57.6" y="132.192" style="stroke: #000000; stroke-width: 0.8"/>
      </g>
     </g>
     <g id="text_13">
      <!-- 35 -->
      <g transform="translate(37.875 135.991219) scale(0.1 -0.1)">
       <use xlink:href="#DejaVuSans-33"/>
       <use xlink:href="#DejaVuSans-35" transform="translate(63.623047 0)"/>
      </g>
     </g>
    </g>
    <g id="ytick_7">
     <g id="line2d_13">
      <g>
       <use xlink:href="#m625995bff6" x="57.6" y="101.952" style="stroke: #000000; stroke-width: 0.8"/>
      </g>
     </g>
     <g id="text_14">
      <!-- 40 -->
      <g transform="translate(37.875 105.751219) scale(0.1 -0.1)">
       <use xlink:href="#DejaVuSans-34"/>
       <use xlink:href="#DejaVuSans-30" transform="translate(63.623047 0)"/>
      </g>
     </g>
    </g>
    <g id="ytick_8">
     <g id="line2d_14">
      <g>
       <use xlink:href="#m625995bff6" x="57.6" y="71.712" style="stroke: #000000; stroke-width: 0.8"/>
      </g>
     </g>
     <g id="text_15">
      <!-- 45 -->
      <g transform="translate(37.875 75.511219) scale(0.1 -0.1)">
       <use xlink:href="#DejaVuSans-34"/>
       <use xlink:href="#DejaVuSans-35" transform="translate(63.623047 0)"/>
      </g>
     </g>
    </g>
    <g id="ytick_9">
     <g id="line2d_15">
      <g>
       <use xlink:href="#m625995bff6" x="57.6" y="41.472" style="stroke: #000000; stroke-width: 0.8"/>
      </g>
     </g>
     <g id="text_16">
      <!-- 50 -->
      <g transform="translate(37.875 45.271219) scale(0.1 -0.1)">
       <use xlink:href="#DejaVuSans-35"/>
       <use xlink:href="#DejaVuSans-30" transform="translate(63.623047 0)"/>
      </g>
     </g>
    </g>
    <g id="text_17">
     <!-- Score -->
     <g transform="translate(31.795313 188.530344) rotate(-90) scale(0.1 -0.1)">
      <defs>
       <path id="DejaVuSans-53" d="M 3425 4513 
L 3425 3897 
Q 3066 4069 2747 4153 
Q 2428 4238 2131 4238 
Q 1616 4238 1336 4038 
Q 1056 3838 1056 3469 
Q 1056 3159 1242 3001 
Q 1428 2844 1947 2747 
L 2328 2669 
Q 3034 2534 3370 2195 
Q 3706 1856 3706 1288 
Q 3706 609 3251 259 
Q 2797 -91 1919 -91 
Q 1588 -91 1214 -16 
Q 841 59 441 206 
L 441 856 
Q 825 641 1194 531 
Q 1563 422 1919 422 
Q 2459 422 2753 634 
Q 3047 847 3047 1241 
Q 3047 1584 2836 1778 
Q 2625 1972 2144 2069 
L 1759 2144 
Q 1053 2284 737 2584 
Q 422 2884 422 3419 
Q 422 4038 858 4394 
Q 1294 4750 2059 4750 
Q 2388 4750 2728 4690 
Q 3069 4631 3425 4513 
z
" transform="scale(0.015625)"/>
       <path id="DejaVuSans-63" d="M 3122 3366 
L 3122 2828 
Q 2878 2963 2633 3030 
Q 2388 3097 2138 3097 
Q 1578 3097 1268 2742 
Q 959 2388 959 1747 
Q 959 1106 1268 751 
Q 1578 397 2138 397 
Q 2388 397 2633 464 
Q 2878 531 3122 666 
L 3122 134 
Q 2881 22 2623 -34 
Q 2366 -91 2075 -91 
Q 1284 -91 818 406 
Q 353 903 353 1747 
Q 353 2603 823 3093 
Q 1294 3584 2113 3584 
Q 2378 3584 2631 3529 
Q 2884 3475 3122 3366 
z
" transform="scale(0.015625)"/>
       <path id="DejaVuSans-72" d="M 2631 2963 
Q 2534 3019 2420 3045 
Q 2306 3072 2169 3072 
Q 1681 3072 1420 2755 
Q 1159 2438 1159 1844 
L 1159 0 
L 581 0 
L 581 3500 
L 1159 3500 
L 1159 2956 
Q 1341 3275 1631 3429 
Q 1922 3584 2338 3584 
Q 2397 3584 2469 3576 
Q 2541 3569 2628 3553 
L 2631 2963 
z
" transform="scale(0.015625)"/>
      </defs>
      <use xlink:href="#DejaVuSans-53"/>
      <use xlink:href="#DejaVuSans-63" transform="translate(63.476562 0)"/>
      <use xlink:href="#DejaVuSans-6f" transform="translate(118.457031 0)"/>
      <use xlink:href="#DejaVuSans-72" transform="translate(179.638672 0)"/>
      <use xlink:href="#DejaVuSans-65" transform="translate(218.501953 0)"/>
     </g>
    </g>
   </g>
   <g id="line2d_16">
    <path d="M 73.832727 216.864 
L 74.157707 216.864 
L 74.482686 253.152 
L 74.807666 235.008 
L 75.132645 259.2 
L 75.457625 235.008 
L 75.782604 259.2 
L 76.107584 253.152 
L 76.432563 174.528 
L 76.757543 228.96 
L 77.082523 53.568 
L 77.407502 241.056 
L 77.732482 235.008 
L 78.057461 210.816 
L 78.382441 277.344 
L 78.70742 283.392 
L 79.0324 253.152 
L 79.357379 289.44 
L 79.682359 228.96 
L 80.007338 247.104 
L 80.332318 277.344 
L 80.657297 126.144 
L 80.982277 144.288 
L 81.632236 271.296 
L 82.282195 222.912 
L 82.607174 271.296 
L 82.932154 253.152 
L 83.257133 168.48 
L 83.907093 259.2 
L 84.232072 271.296 
L 84.557052 259.2 
L 84.882031 259.2 
L 85.207011 271.296 
L 85.53199 247.104 
L 85.85697 174.528 
L 86.181949 253.152 
L 86.506929 210.816 
L 86.831908 271.296 
L 87.156888 259.2 
L 87.481867 259.2 
L 87.806847 162.432 
L 88.131826 204.768 
L 88.456806 150.336 
L 88.781785 235.008 
L 89.106765 265.248 
L 89.431744 156.384 
L 89.756724 253.152 
L 90.406683 277.344 
L 90.731663 192.672 
L 91.056642 289.44 
L 91.381622 265.248 
L 91.706601 271.296 
L 92.031581 265.248 
L 92.35656 228.96 
L 92.68154 277.344 
L 93.006519 210.816 
L 93.331499 265.248 
L 93.656478 265.248 
L 93.981458 247.104 
L 94.306437 283.392 
L 94.631417 222.912 
L 94.956396 259.2 
L 95.281376 235.008 
L 95.606355 235.008 
L 95.931335 277.344 
L 96.256314 259.2 
L 96.581294 271.296 
L 97.231253 228.96 
L 97.556233 277.344 
L 97.881212 271.296 
L 98.206192 247.104 
L 98.531171 247.104 
L 98.856151 277.344 
L 99.18113 283.392 
L 99.50611 241.056 
L 99.831089 289.44 
L 100.156069 253.152 
L 100.481048 259.2 
L 100.806028 228.96 
L 101.131007 174.528 
L 101.455987 168.48 
L 101.780966 192.672 
L 102.105946 271.296 
L 102.430925 265.248 
L 102.755905 253.152 
L 103.080885 277.344 
L 103.405864 271.296 
L 103.730844 241.056 
L 104.055823 247.104 
L 104.380803 283.392 
L 104.705782 271.296 
L 105.030762 283.392 
L 105.355741 259.2 
L 105.680721 259.2 
L 106.0057 271.296 
L 106.33068 265.248 
L 106.655659 222.912 
L 107.305618 277.344 
L 107.630598 235.008 
L 107.955577 235.008 
L 108.280557 168.48 
L 108.930516 271.296 
L 109.255495 259.2 
L 109.580475 259.2 
L 109.905455 283.392 
L 110.230434 289.44 
L 110.555414 259.2 
L 110.880393 271.296 
L 111.205373 222.912 
L 111.530352 253.152 
L 111.855332 198.72 
L 112.180311 259.2 
L 112.505291 283.392 
L 112.83027 247.104 
L 113.15525 265.248 
L 113.480229 265.248 
L 113.805209 277.344 
L 114.130188 277.344 
L 114.780147 289.44 
L 115.105127 277.344 
L 115.430106 277.344 
L 115.755086 235.008 
L 116.080066 271.296 
L 116.405045 235.008 
L 116.730025 259.2 
L 117.055004 271.296 
L 117.379984 271.296 
L 118.029943 259.2 
L 118.354922 259.2 
L 118.679902 235.008 
L 119.004881 271.296 
L 119.329861 222.912 
L 119.65484 241.056 
L 119.97982 289.44 
L 120.304799 253.152 
L 120.954758 277.344 
L 121.279738 259.2 
L 121.604717 271.296 
L 121.929697 204.768 
L 122.254676 228.96 
L 122.579656 277.344 
L 122.904636 277.344 
L 123.229615 289.44 
L 123.554595 259.2 
L 123.879574 253.152 
L 124.204554 289.44 
L 124.529533 265.248 
L 124.854513 283.392 
L 125.179492 271.296 
L 125.504472 253.152 
L 125.829451 168.48 
L 126.154431 265.248 
L 126.47941 253.152 
L 126.80439 247.104 
L 127.129369 277.344 
L 127.454349 277.344 
L 127.779328 265.248 
L 128.104308 277.344 
L 128.754267 277.344 
L 129.404226 289.44 
L 129.729206 265.248 
L 130.379165 289.44 
L 130.704144 271.296 
L 131.029124 235.008 
L 131.354103 277.344 
L 132.004062 277.344 
L 132.329042 259.2 
L 132.654021 289.44 
L 132.979001 283.392 
L 133.30398 253.152 
L 133.62896 241.056 
L 133.953939 247.104 
L 134.278919 283.392 
L 134.603898 283.392 
L 134.928878 259.2 
L 135.253857 277.344 
L 135.578837 271.296 
L 135.903817 241.056 
L 136.228796 289.44 
L 136.553776 295.488 
L 136.878755 241.056 
L 137.528714 289.44 
L 137.853694 289.44 
L 138.178673 271.296 
L 138.503653 283.392 
L 138.828632 271.296 
L 139.153612 265.248 
L 139.803571 277.344 
L 140.45353 277.344 
L 140.778509 283.392 
L 141.103489 283.392 
L 141.428468 277.344 
L 141.753448 295.488 
L 142.078428 283.392 
L 142.403407 289.44 
L 142.728387 265.248 
L 143.053366 259.2 
L 143.378346 289.44 
L 143.703325 289.44 
L 144.028305 295.488 
L 144.353284 271.296 
L 144.678264 277.344 
L 145.003243 265.248 
L 145.328223 283.392 
L 145.653202 265.248 
L 145.978182 277.344 
L 146.628141 235.008 
L 146.95312 289.44 
L 147.928059 271.296 
L 148.578018 283.392 
L 148.902998 259.2 
L 149.227977 277.344 
L 149.552957 253.152 
L 149.877936 265.248 
L 150.202916 253.152 
L 150.527895 253.152 
L 150.852875 289.44 
L 151.177854 283.392 
L 151.502834 271.296 
L 151.827813 289.44 
L 152.152793 277.344 
L 152.477772 247.104 
L 152.802752 289.44 
L 153.452711 277.344 
L 153.77769 283.392 
L 154.10267 271.296 
L 154.427649 289.44 
L 154.752629 259.2 
L 155.077609 295.488 
L 155.402588 289.44 
L 155.727568 253.152 
L 156.052547 271.296 
L 156.377527 247.104 
L 156.702506 283.392 
L 157.027486 289.44 
L 157.352465 277.344 
L 157.677445 277.344 
L 158.327404 289.44 
L 158.652383 271.296 
L 158.977363 271.296 
L 159.302342 289.44 
L 159.627322 271.296 
L 159.952301 289.44 
L 160.277281 271.296 
L 161.252219 271.296 
L 161.577199 277.344 
L 161.902179 265.248 
L 162.227158 289.44 
L 162.552138 265.248 
L 162.877117 277.344 
L 163.202097 277.344 
L 163.527076 265.248 
L 163.852056 277.344 
L 164.177035 283.392 
L 164.502015 271.296 
L 164.826994 283.392 
L 165.151974 277.344 
L 165.476953 265.248 
L 165.801933 289.44 
L 166.126912 277.344 
L 166.451892 222.912 
L 166.776871 289.44 
L 167.101851 277.344 
L 167.42683 289.44 
L 167.75181 289.44 
L 168.07679 271.296 
L 168.726749 283.392 
L 169.051728 277.344 
L 169.376708 289.44 
L 169.701687 283.392 
L 170.351646 259.2 
L 170.676626 283.392 
L 171.326585 283.392 
L 171.651564 253.152 
L 171.976544 289.44 
L 172.301523 283.392 
L 172.626503 259.2 
L 172.951482 271.296 
L 173.601441 271.296 
L 173.926421 283.392 
L 174.2514 283.392 
L 174.57638 289.44 
L 174.90136 277.344 
L 175.226339 283.392 
L 175.551319 283.392 
L 175.876298 265.248 
L 176.201278 277.344 
L 176.526257 277.344 
L 176.851237 271.296 
L 177.176216 283.392 
L 177.501196 277.344 
L 177.826175 283.392 
L 178.151155 277.344 
L 178.476134 295.488 
L 179.126093 283.392 
L 179.451073 247.104 
L 179.776052 283.392 
L 180.426011 271.296 
L 181.075971 283.392 
L 181.40095 271.296 
L 181.72593 277.344 
L 183.350827 277.344 
L 183.675807 283.392 
L 184.000786 283.392 
L 184.325766 277.344 
L 184.650745 277.344 
L 184.975725 283.392 
L 185.300704 283.392 
L 185.625684 289.44 
L 185.950663 277.344 
L 186.275643 289.44 
L 186.600622 277.344 
L 186.925602 289.44 
L 187.250581 277.344 
L 187.575561 277.344 
L 187.900541 289.44 
L 188.22552 271.296 
L 188.5505 271.296 
L 188.875479 277.344 
L 189.200459 271.296 
L 189.850418 271.296 
L 190.175397 277.344 
L 190.500377 271.296 
L 190.825356 277.344 
L 191.150336 289.44 
L 191.475315 283.392 
L 191.800295 295.488 
L 192.125274 265.248 
L 192.450254 289.44 
L 192.775233 271.296 
L 193.100213 283.392 
L 193.750172 283.392 
L 194.075152 277.344 
L 194.400131 295.488 
L 194.725111 265.248 
L 195.37507 277.344 
L 196.025029 265.248 
L 196.674988 277.344 
L 196.999967 277.344 
L 197.324947 289.44 
L 197.649926 283.392 
L 197.974906 289.44 
L 198.624865 289.44 
L 198.949844 283.392 
L 199.274824 259.2 
L 199.599803 283.392 
L 199.924783 283.392 
L 200.249762 247.104 
L 200.574742 277.344 
L 200.899722 277.344 
L 201.224701 283.392 
L 201.87466 271.296 
L 202.19964 289.44 
L 202.524619 283.392 
L 202.849599 289.44 
L 203.174578 289.44 
L 203.499558 277.344 
L 203.824537 289.44 
L 204.149517 283.392 
L 204.474496 271.296 
L 204.799476 289.44 
L 205.124455 283.392 
L 205.449435 283.392 
L 205.774414 277.344 
L 206.099394 265.248 
L 206.424373 271.296 
L 206.749353 283.392 
L 207.074333 271.296 
L 207.399312 295.488 
L 207.724292 289.44 
L 208.049271 289.44 
L 208.374251 271.296 
L 208.69923 289.44 
L 209.02421 283.392 
L 209.349189 283.392 
L 209.674169 277.344 
L 209.999148 289.44 
L 210.324128 283.392 
L 210.649107 289.44 
L 210.974087 283.392 
L 211.299066 283.392 
L 211.624046 277.344 
L 211.949025 289.44 
L 212.598984 277.344 
L 212.923964 295.488 
L 213.573923 283.392 
L 213.898903 289.44 
L 214.223882 283.392 
L 214.548862 289.44 
L 214.873841 277.344 
L 215.198821 283.392 
L 215.5238 277.344 
L 215.84878 277.344 
L 216.173759 283.392 
L 216.498739 277.344 
L 216.823718 283.392 
L 217.148698 295.488 
L 217.473677 277.344 
L 217.798657 289.44 
L 218.123636 289.44 
L 218.773595 277.344 
L 219.098575 289.44 
L 219.423554 289.44 
L 219.748534 295.488 
L 220.073514 271.296 
L 220.398493 283.392 
L 220.723473 283.392 
L 221.048452 289.44 
L 221.373432 283.392 
L 221.698411 289.44 
L 222.023391 283.392 
L 222.34837 295.488 
L 222.67335 265.248 
L 222.998329 283.392 
L 223.323309 283.392 
L 223.973268 271.296 
L 224.623227 283.392 
L 224.948206 295.488 
L 225.273186 277.344 
L 225.598165 277.344 
L 225.923145 283.392 
L 226.248124 283.392 
L 226.573104 277.344 
L 226.898084 283.392 
L 227.223063 277.344 
L 227.548043 283.392 
L 228.198002 283.392 
L 228.522981 289.44 
L 228.847961 289.44 
L 229.17294 295.488 
L 229.49792 283.392 
L 229.822899 295.488 
L 230.147879 295.488 
L 230.472858 283.392 
L 230.797838 289.44 
L 231.122817 283.392 
L 231.447797 295.488 
L 231.772776 289.44 
L 232.422735 289.44 
L 232.747715 277.344 
L 233.072695 289.44 
L 233.722654 289.44 
L 234.047633 283.392 
L 234.372613 271.296 
L 234.697592 289.44 
L 235.022572 283.392 
L 235.347551 289.44 
L 235.672531 289.44 
L 236.32249 277.344 
L 237.297428 295.488 
L 237.622408 283.392 
L 237.947387 277.344 
L 238.597346 289.44 
L 238.922326 271.296 
L 239.247305 295.488 
L 239.572285 283.392 
L 240.222244 295.488 
L 240.547224 295.488 
L 240.872203 277.344 
L 241.522162 289.44 
L 241.847142 271.296 
L 242.172121 295.488 
L 242.497101 295.488 
L 242.82208 289.44 
L 243.14706 277.344 
L 244.771957 277.344 
L 245.096937 289.44 
L 245.421916 283.392 
L 245.746896 289.44 
L 246.071876 283.392 
L 246.396855 283.392 
L 246.721835 295.488 
L 247.371794 283.392 
L 247.696773 283.392 
L 248.021753 277.344 
L 248.671712 289.44 
L 248.996691 277.344 
L 249.321671 289.44 
L 249.64665 283.392 
L 249.97163 289.44 
L 250.296609 283.392 
L 250.621589 289.44 
L 251.271548 265.248 
L 251.596527 283.392 
L 251.921507 289.44 
L 252.246486 283.392 
L 252.571466 295.488 
L 252.896446 277.344 
L 253.221425 289.44 
L 254.196364 289.44 
L 254.521343 283.392 
L 254.846323 283.392 
L 255.171302 295.488 
L 255.496282 283.392 
L 255.821261 283.392 
L 256.146241 277.344 
L 256.47122 277.344 
L 257.121179 289.44 
L 257.446159 277.344 
L 257.771138 283.392 
L 258.096118 277.344 
L 258.421097 283.392 
L 258.746077 277.344 
L 259.071057 283.392 
L 259.396036 265.248 
L 260.045995 295.488 
L 260.370975 283.392 
L 260.695954 283.392 
L 261.020934 289.44 
L 261.670893 289.44 
L 261.995872 283.392 
L 262.320852 283.392 
L 262.645831 289.44 
L 262.970811 283.392 
L 263.29579 283.392 
L 263.62077 289.44 
L 264.595708 289.44 
L 264.920688 277.344 
L 265.245667 289.44 
L 265.570647 277.344 
L 265.895627 289.44 
L 266.220606 289.44 
L 266.545586 283.392 
L 267.195545 283.392 
L 267.520524 289.44 
L 268.170483 289.44 
L 268.820442 277.344 
L 269.145422 289.44 
L 269.470401 283.392 
L 269.795381 283.392 
L 270.12036 289.44 
L 270.44534 289.44 
L 270.770319 283.392 
L 271.095299 295.488 
L 271.420278 283.392 
L 271.745258 283.392 
L 272.070238 295.488 
L 272.395217 277.344 
L 272.720197 289.44 
L 273.695135 289.44 
L 274.020115 277.344 
L 274.345094 283.392 
L 274.670074 295.488 
L 274.995053 283.392 
L 275.320033 277.344 
L 275.645012 289.44 
L 275.969992 289.44 
L 276.294971 283.392 
L 276.619951 289.44 
L 276.94493 277.344 
L 277.26991 283.392 
L 277.594889 283.392 
L 277.919869 289.44 
L 278.244848 277.344 
L 278.569828 295.488 
L 279.219787 283.392 
L 279.544767 283.392 
L 279.869746 277.344 
L 280.194726 283.392 
L 280.519705 277.344 
L 280.844685 295.488 
L 281.169664 277.344 
L 281.494644 289.44 
L 281.819623 289.44 
L 282.144603 277.344 
L 282.469582 289.44 
L 282.794562 277.344 
L 283.119541 289.44 
L 283.444521 289.44 
L 283.7695 283.392 
L 284.419459 283.392 
L 284.744439 277.344 
L 285.069419 289.44 
L 287.669255 289.44 
L 287.994234 283.392 
L 288.319214 283.392 
L 288.644193 277.344 
L 288.969173 289.44 
L 289.294152 289.44 
L 289.944111 277.344 
L 290.269091 283.392 
L 290.59407 295.488 
L 290.91905 283.392 
L 291.244029 283.392 
L 291.569009 295.488 
L 291.893989 277.344 
L 292.218968 283.392 
L 292.543948 283.392 
L 292.868927 277.344 
L 293.193907 283.392 
L 293.518886 283.392 
L 293.843866 277.344 
L 294.168845 283.392 
L 294.818804 283.392 
L 295.143784 289.44 
L 295.468763 289.44 
L 295.793743 283.392 
L 296.118722 289.44 
L 297.093661 289.44 
L 297.41864 283.392 
L 297.74362 289.44 
L 298.0686 283.392 
L 298.393579 283.392 
L 298.718559 289.44 
L 299.043538 289.44 
L 299.368518 295.488 
L 299.693497 289.44 
L 300.018477 277.344 
L 300.343456 289.44 
L 300.668436 289.44 
L 300.993415 283.392 
L 301.643374 295.488 
L 301.968354 283.392 
L 302.618313 283.392 
L 302.943292 289.44 
L 303.268272 283.392 
L 303.593251 295.488 
L 303.918231 289.44 
L 304.24321 271.296 
L 304.56819 283.392 
L 306.843047 283.392 
L 307.168026 289.44 
L 307.493006 289.44 
L 307.817985 277.344 
L 308.142965 283.392 
L 308.467944 283.392 
L 308.792924 289.44 
L 309.117903 283.392 
L 309.442883 283.392 
L 309.767862 289.44 
L 310.092842 283.392 
L 310.417821 295.488 
L 310.742801 271.296 
L 311.067781 283.392 
L 311.39276 289.44 
L 312.042719 289.44 
L 312.367699 283.392 
L 312.692678 283.392 
L 313.017658 289.44 
L 313.342637 277.344 
L 313.667617 289.44 
L 313.992596 289.44 
L 314.317576 283.392 
L 314.642555 289.44 
L 314.967535 277.344 
L 315.292514 289.44 
L 315.617494 289.44 
L 315.942473 283.392 
L 316.267453 289.44 
L 316.592432 289.44 
L 316.917412 283.392 
L 317.242391 283.392 
L 317.567371 289.44 
L 319.192269 289.44 
L 319.517248 283.392 
L 320.492187 283.392 
L 320.817166 277.344 
L 321.142146 283.392 
L 321.792105 283.392 
L 322.117084 289.44 
L 323.092023 289.44 
L 323.417002 271.296 
L 323.741982 283.392 
L 324.066962 289.44 
L 324.391941 283.392 
L 324.716921 271.296 
L 325.0419 289.44 
L 325.36688 289.44 
L 325.691859 283.392 
L 326.341818 283.392 
L 326.666798 289.44 
L 326.991777 283.392 
L 327.641736 295.488 
L 327.966716 271.296 
L 328.291695 283.392 
L 328.616675 289.44 
L 328.941654 283.392 
L 330.241572 283.392 
L 330.566552 277.344 
L 330.891532 289.44 
L 331.216511 283.392 
L 331.541491 283.392 
L 331.86647 289.44 
L 332.516429 289.44 
L 332.841409 283.392 
L 333.166388 289.44 
L 333.491368 283.392 
L 333.816347 283.392 
L 334.141327 295.488 
L 334.466306 289.44 
L 334.791286 295.488 
L 335.116265 283.392 
L 335.441245 295.488 
L 335.766224 289.44 
L 336.091204 289.44 
L 336.416183 295.488 
L 336.741163 295.488 
L 337.066143 289.44 
L 337.391122 289.44 
L 337.716102 277.344 
L 338.041081 289.44 
L 338.366061 283.392 
L 338.69104 283.392 
L 339.01602 289.44 
L 339.340999 289.44 
L 339.665979 295.488 
L 339.990958 283.392 
L 340.315938 277.344 
L 340.640917 289.44 
L 340.965897 283.392 
L 341.290876 283.392 
L 341.615856 295.488 
L 341.940835 283.392 
L 342.265815 283.392 
L 342.590794 277.344 
L 342.915774 295.488 
L 343.565733 295.488 
L 344.215692 283.392 
L 344.540672 289.44 
L 344.865651 283.392 
L 345.190631 295.488 
L 345.51561 283.392 
L 345.84059 277.344 
L 346.165569 277.344 
L 346.490549 283.392 
L 346.815528 283.392 
L 347.140508 271.296 
L 347.465487 289.44 
L 347.790467 283.392 
L 348.115446 289.44 
L 350.065324 289.44 
L 350.390303 283.392 
L 350.715283 295.488 
L 351.040262 283.392 
L 351.365242 289.44 
L 351.690221 289.44 
L 352.015201 277.344 
L 352.34018 289.44 
L 352.66516 289.44 
L 352.990139 283.392 
L 353.315119 283.392 
L 353.640098 271.296 
L 353.965078 283.392 
L 354.615037 283.392 
L 354.940016 289.44 
L 355.264996 283.392 
L 356.564914 283.392 
L 356.889894 289.44 
L 357.864832 289.44 
L 358.189812 277.344 
L 358.514791 289.44 
L 358.839771 289.44 
L 359.16475 271.296 
L 359.48973 289.44 
L 359.814709 283.392 
L 360.139689 283.392 
L 360.464668 289.44 
L 361.114627 289.44 
L 361.439607 283.392 
L 361.764586 295.488 
L 362.739525 277.344 
L 363.064505 283.392 
L 363.389484 283.392 
L 363.714464 289.44 
L 364.039443 289.44 
L 364.689402 277.344 
L 365.339361 289.44 
L 365.664341 283.392 
L 365.98932 289.44 
L 366.639279 289.44 
L 366.964259 283.392 
L 367.614218 283.392 
L 367.939197 289.44 
L 368.264177 277.344 
L 368.914136 289.44 
L 369.239115 283.392 
L 369.889075 283.392 
L 370.214054 295.488 
L 370.539034 289.44 
L 370.864013 295.488 
L 371.188993 289.44 
L 371.513972 289.44 
L 371.838952 283.392 
L 372.163931 295.488 
L 372.488911 295.488 
L 372.81389 283.392 
L 373.13887 277.344 
L 373.788829 289.44 
L 374.113808 283.392 
L 374.438788 283.392 
L 374.763767 289.44 
L 375.088747 283.392 
L 375.413726 289.44 
L 376.388665 289.44 
L 376.713645 283.392 
L 377.038624 289.44 
L 377.363604 283.392 
L 377.688583 289.44 
L 378.013563 283.392 
L 378.338542 283.392 
L 378.663522 277.344 
L 379.313481 289.44 
L 379.63846 289.44 
L 379.96344 295.488 
L 380.288419 289.44 
L 380.613399 289.44 
L 380.938378 283.392 
L 381.588337 283.392 
L 381.913317 289.44 
L 382.238296 283.392 
L 382.888256 283.392 
L 383.213235 289.44 
L 383.538215 283.392 
L 383.863194 283.392 
L 384.188174 295.488 
L 384.513153 295.488 
L 384.838133 283.392 
L 385.163112 283.392 
L 385.488092 295.488 
L 385.813071 289.44 
L 386.138051 277.344 
L 386.46303 295.488 
L 386.78801 289.44 
L 387.437969 289.44 
L 387.762948 283.392 
L 388.087928 283.392 
L 388.412907 289.44 
L 388.737887 283.392 
L 389.062867 289.44 
L 390.687764 289.44 
L 391.012744 283.392 
L 392.962621 283.392 
L 393.2876 289.44 
L 393.937559 289.44 
L 394.262539 283.392 
L 394.587518 289.44 
L 394.912498 289.44 
L 395.237477 283.392 
L 395.562457 289.44 
L 395.887437 289.44 
L 396.212416 295.488 
L 396.537396 283.392 
L 396.862375 277.344 
L 397.187355 295.488 
L 397.512334 277.344 
L 397.837314 295.488 
L 398.162293 289.44 
L 398.487273 289.44 
L 398.487273 289.44 
" clip-path="url(#p232dcafc67)" style="fill: none; stroke: #1f77b4; stroke-width: 1.5; stroke-linecap: square"/>
   </g>
   <g id="patch_3">
    <path d="M 57.6 307.584 
L 57.6 41.472 
" style="fill: none; stroke: #000000; stroke-width: 0.8; stroke-linejoin: miter; stroke-linecap: square"/>
   </g>
   <g id="patch_4">
    <path d="M 414.72 307.584 
L 414.72 41.472 
" style="fill: none; stroke: #000000; stroke-width: 0.8; stroke-linejoin: miter; stroke-linecap: square"/>
   </g>
   <g id="patch_5">
    <path d="M 57.6 307.584 
L 414.72 307.584 
" style="fill: none; stroke: #000000; stroke-width: 0.8; stroke-linejoin: miter; stroke-linecap: square"/>
   </g>
   <g id="patch_6">
    <path d="M 57.6 41.472 
L 414.72 41.472 
" style="fill: none; stroke: #000000; stroke-width: 0.8; stroke-linejoin: miter; stroke-linecap: square"/>
   </g>
  </g>
 </g>
 <defs>
  <clipPath id="p232dcafc67">
   <rect x="57.6" y="41.472" width="357.12" height="266.112"/>
  </clipPath>
 </defs>
</svg>
