<?xml version="1.0" encoding="utf-8" standalone="no"?>
<!DOCTYPE svg PUBLIC "-//W3C//DTD SVG 1.1//EN"
  "http://www.w3.org/Graphics/SVG/1.1/DTD/svg11.dtd">
<svg xmlns:xlink="http://www.w3.org/1999/xlink" width="460.8pt" height="345.6pt" viewBox="0 0 460.8 345.6" xmlns="http://www.w3.org/2000/svg" version="1.1">
 <metadata>
  <rdf:RDF xmlns:dc="http://purl.org/dc/elements/1.1/" xmlns:cc="http://creativecommons.org/ns#" xmlns:rdf="http://www.w3.org/1999/02/22-rdf-syntax-ns#">
   <cc:Work>
    <dc:type rdf:resource="http://purl.org/dc/dcmitype/StillImage"/>
    <dc:date>2026-04-19T20:39:27.972379</dc:date>
    <dc:format>image/svg+xml</dc:format>
    <dc:creator>
     <cc:Agent>
      <dc:title>Matplotlib v3.10.8, https://matplotlib.org/</dc:title>
     </cc:Agent>
    </dc:creator>
   </cc:Work>
  </rdf:RDF>
 </metadata>
 <defs>
  <style type="text/css">*{stroke-linejoin: round; stroke-linecap: butt}</style>
 </defs>
 <g id="figure_1">
  <g id="patch_1">
   <path d="M 0 345.6 
L 460.8 345.6 
L 460.8 0 
L 0 0 
z
" style="fill: #ffffff"/>
  </g>
  <g id="axes_1">
   <g id="patch_2">
    <path d="M 57.6 307.584 
L 414.72 307.584 
L 414.72 41.472 
L 57.6 41.472 
z
" style="fill: #ffffff"/>
   </g>
   <g id="matplotlib.axis_1">
    <g id="xtick_1">
     <g id="line2d_1">
      <defs>
       <path id="m72b351e1e3" d="M 0 0 
L 0 3.5 
" style="stroke: #000000; stroke-width: 0.8"/>
      </defs>
      <g>
       <use xlink:href="#m72b351e1e3" x="73.832727" y="307.584" style="stroke: #000000; stroke-width: 0.8"/>
      </g>
     </g>
     <g id="text_1">
      <!-- 0 -->
      <g transform="translate(70.651477 322.182437) scale(0.1 -0.1)">
       <defs>
        <path id="DejaVuSans-30" d="M 2034 4250 
Q 1547 4250 1301 3770 
Q 1056 3291 1056 2328 
Q 1056 1369 1301 889 
Q 1547 409 2034 409 
Q 2525 409 2770 889 
Q 3016 1369 3016 2328 
Q 3016 3291 2770 3770 
Q 2525 4250 2034 4250 
z
M 2034 4750 
Q 2819 4750 3233 4129 
Q 3647 3509 3647 2328 
Q 3647 1150 3233 529 
Q 2819 -91 2034 -91 
Q 1250 -91 836 529 
Q 422 1150 422 2328 
Q 422 3509 836 4129 
Q 1250 4750 2034 4750 
z
" transform="scale(0.015625)"/>
       </defs>
       <use xlink:href="#DejaVuSans-30"/>
      </g>
     </g>
    </g>
    <g id="xtick_2">
     <g id="line2d_2">
      <g>
       <use xlink:href="#m72b351e1e3" x="138.828632" y="307.584" style="stroke: #000000; stroke-width: 0.8"/>
      </g>
     </g>
     <g id="text_2">
      <!-- 200 -->
      <g transform="translate(129.284882 322.182437) scale(0.1 -0.1)">
       <defs>
        <path id="DejaVuSans-32" d="M 1228 531 
L 3431 531 
L 3431 0 
L 469 0 
L 469 531 
Q 828 903 1448 1529 
Q 2069 2156 2228 2338 
Q 2531 2678 2651 2914 
Q 2772 3150 2772 3378 
Q 2772 3750 2511 3984 
Q 2250 4219 1831 4219 
Q 1534 4219 1204 4116 
Q 875 4013 500 3803 
L 500 4441 
Q 881 4594 1212 4672 
Q 1544 4750 1819 4750 
Q 2544 4750 2975 4387 
Q 3406 4025 3406 3419 
Q 3406 3131 3298 2873 
Q 3191 2616 2906 2266 
Q 2828 2175 2409 1742 
Q 1991 1309 1228 531 
z
" transform="scale(0.015625)"/>
       </defs>
       <use xlink:href="#DejaVuSans-32"/>
       <use xlink:href="#DejaVuSans-30" transform="translate(63.623047 0)"/>
       <use xlink:href="#DejaVuSans-30" transform="translate(127.246094 0)"/>
      </g>
     </g>
    </g>
    <g id="xtick_3">
     <g id="line2d_3">
      <g>
       <use xlink:href="#m72b351e1e3" x="203.824537" y="307.584" style="stroke: #000000; stroke-width: 0.8"/>
      </g>
     </g>
     <g id="text_3">
      <!-- 400 -->
      <g transform="translate(194.280787 322.182437) scale(0.1 -0.1)">
       <defs>
        <path id="DejaVuSans-34" d="M 2419 4116 
L 825 1625 
L 2419 1625 
L 2419 4116 
z
M 2253 4666 
L 3047 4666 
L 3047 1625 
L 3713 1625 
L 3713 1100 
L 3047 1100 
L 3047 0 
L 2419 0 
L 2419 1100 
L 313 1100 
L 313 1709 
L 2253 4666 
z
" transform="scale(0.015625)"/>
       </defs>
       <use xlink:href="#DejaVuSans-34"/>
       <use xlink:href="#DejaVuSans-30" transform="translate(63.623047 0)"/>
       <use xlink:href="#DejaVuSans-30" transform="translate(127.246094 0)"/>
      </g>
     </g>
    </g>
    <g id="xtick_4">
     <g id="line2d_4">
      <g>
       <use xlink:href="#m72b351e1e3" x="268.820442" y="307.584" style="stroke: #000000; stroke-width: 0.8"/>
      </g>
     </g>
     <g id="text_4">
      <!-- 600 -->
      <g transform="translate(259.276692 322.182437) scale(0.1 -0.1)">
       <defs>
        <path id="DejaVuSans-36" d="M 2113 2584 
Q 1688 2584 1439 2293 
Q 1191 2003 1191 1497 
Q 1191 994 1439 701 
Q 1688 409 2113 409 
Q 2538 409 2786 701 
Q 3034 994 3034 1497 
Q 3034 2003 2786 2293 
Q 2538 2584 2113 2584 
z
M 3366 4563 
L 3366 3988 
Q 3128 4100 2886 4159 
Q 2644 4219 2406 4219 
Q 1781 4219 1451 3797 
Q 1122 3375 1075 2522 
Q 1259 2794 1537 2939 
Q 1816 3084 2150 3084 
Q 2853 3084 3261 2657 
Q 3669 2231 3669 1497 
Q 3669 778 3244 343 
Q 2819 -91 2113 -91 
Q 1303 -91 875 529 
Q 447 1150 447 2328 
Q 447 3434 972 4092 
Q 1497 4750 2381 4750 
Q 2619 4750 2861 4703 
Q 3103 4656 3366 4563 
z
" transform="scale(0.015625)"/>
       </defs>
       <use xlink:href="#DejaVuSans-36"/>
       <use xlink:href="#DejaVuSans-30" transform="translate(63.623047 0)"/>
       <use xlink:href="#DejaVuSans-30" transform="translate(127.246094 0)"/>
      </g>
     </g>
    </g>
    <g id="xtick_5">
     <g id="line2d_5">
      <g>
       <use xlink:href="#m72b351e1e3" x="333.816347" y="307.584" style="stroke: #000000; stroke-width: 0.8"/>
      </g>
     </g>
     <g id="text_5">
      <!-- 800 -->
      <g transform="translate(324.272597 322.182437) scale(0.1 -0.1)">
       <defs>
        <path id="DejaVuSans-38" d="M 2034 2216 
Q 1584 2216 1326 1975 
Q 1069 1734 1069 1313 
Q 1069 891 1326 650 
Q 1584 409 2034 409 
Q 2484 409 2743 651 
Q 3003 894 3003 1313 
Q 3003 1734 2745 1975 
Q 2488 2216 2034 2216 
z
M 1403 2484 
Q 997 2584 770 2862 
Q 544 3141 544 3541 
Q 544 4100 942 4425 
Q 1341 4750 2034 4750 
Q 2731 4750 3128 4425 
Q 3525 4100 3525 3541 
Q 3525 3141 3298 2862 
Q 3072 2584 2669 2484 
Q 3125 2378 3379 2068 
Q 3634 1759 3634 1313 
Q 3634 634 3220 271 
Q 2806 -91 2034 -91 
Q 1263 -91 848 271 
Q 434 634 434 1313 
Q 434 1759 690 2068 
Q 947 2378 1403 2484 
z
M 1172 3481 
Q 1172 3119 1398 2916 
Q 1625 2713 2034 2713 
Q 2441 2713 2670 2916 
Q 2900 3119 2900 3481 
Q 2900 3844 2670 4047 
Q 2441 4250 2034 4250 
Q 1625 4250 1398 4047 
Q 1172 3844 1172 3481 
z
" transform="scale(0.015625)"/>
       </defs>
       <use xlink:href="#DejaVuSans-38"/>
       <use xlink:href="#DejaVuSans-30" transform="translate(63.623047 0)"/>
       <use xlink:href="#DejaVuSans-30" transform="translate(127.246094 0)"/>
      </g>
     </g>
    </g>
    <g id="xtick_6">
     <g id="line2d_6">
      <g>
       <use xlink:href="#m72b351e1e3" x="398.812252" y="307.584" style="stroke: #000000; stroke-width: 0.8"/>
      </g>
     </g>
     <g id="text_6">
      <!-- 1000 -->
      <g transform="translate(386.087252 322.182437) scale(0.1 -0.1)">
       <defs>
        <path id="DejaVuSans-31" d="M 794 531 
L 1825 531 
L 1825 4091 
L 703 3866 
L 703 4441 
L 1819 4666 
L 2450 4666 
L 2450 531 
L 3481 531 
L 3481 0 
L 794 0 
L 794 531 
z
" transform="scale(0.015625)"/>
       </defs>
       <use xlink:href="#DejaVuSans-31"/>
       <use xlink:href="#DejaVuSans-30" transform="translate(63.623047 0)"/>
       <use xlink:href="#DejaVuSans-30" transform="translate(127.246094 0)"/>
       <use xlink:href="#DejaVuSans-30" transform="translate(190.869141 0)"/>
      </g>
     </g>
    </g>
    <g id="text_7">
     <!-- Episode # -->
     <g transform="translate(210.743594 335.860562) scale(0.1 -0.1)">
      <defs>
       <path id="DejaVuSans-45" d="M 628 4666 
L 3578 4666 
L 3578 4134 
L 1259 4134 
L 1259 2753 
L 3481 2753 
L 3481 2222 
L 1259 2222 
L 1259 531 
L 3634 531 
L 3634 0 
L 628 0 
L 628 4666 
z
" transform="scale(0.015625)"/>
       <path id="DejaVuSans-70" d="M 1159 525 
L 1159 -1331 
L 581 -1331 
L 581 3500 
L 1159 3500 
L 1159 2969 
Q 1341 3281 1617 3432 
Q 1894 3584 2278 3584 
Q 2916 3584 3314 3078 
Q 3713 2572 3713 1747 
Q 3713 922 3314 415 
Q 2916 -91 2278 -91 
Q 1894 -91 1617 61 
Q 1341 213 1159 525 
z
M 3116 1747 
Q 3116 2381 2855 2742 
Q 2594 3103 2138 3103 
Q 1681 3103 1420 2742 
Q 1159 2381 1159 1747 
Q 1159 1113 1420 752 
Q 1681 391 2138 391 
Q 2594 391 2855 752 
Q 3116 1113 3116 1747 
z
" transform="scale(0.015625)"/>
       <path id="DejaVuSans-69" d="M 603 3500 
L 1178 3500 
L 1178 0 
L 603 0 
L 603 3500 
z
M 603 4863 
L 1178 4863 
L 1178 4134 
L 603 4134 
L 603 4863 
z
" transform="scale(0.015625)"/>
       <path id="DejaVuSans-73" d="M 2834 3397 
L 2834 2853 
Q 2591 2978 2328 3040 
Q 2066 3103 1784 3103 
Q 1356 3103 1142 2972 
Q 928 2841 928 2578 
Q 928 2378 1081 2264 
Q 1234 2150 1697 2047 
L 1894 2003 
Q 2506 1872 2764 1633 
Q 3022 1394 3022 966 
Q 3022 478 2636 193 
Q 2250 -91 1575 -91 
Q 1294 -91 989 -36 
Q 684 19 347 128 
L 347 722 
Q 666 556 975 473 
Q 1284 391 1588 391 
Q 1994 391 2212 530 
Q 2431 669 2431 922 
Q 2431 1156 2273 1281 
Q 2116 1406 1581 1522 
L 1381 1569 
Q 847 1681 609 1914 
Q 372 2147 372 2553 
Q 372 3047 722 3315 
Q 1072 3584 1716 3584 
Q 2034 3584 2315 3537 
Q 2597 3491 2834 3397 
z
" transform="scale(0.015625)"/>
       <path id="DejaVuSans-6f" d="M 1959 3097 
Q 1497 3097 1228 2736 
Q 959 2375 959 1747 
Q 959 1119 1226 758 
Q 1494 397 1959 397 
Q 2419 397 2687 759 
Q 2956 1122 2956 1747 
Q 2956 2369 2687 2733 
Q 2419 3097 1959 3097 
z
M 1959 3584 
Q 2709 3584 3137 3096 
Q 3566 2609 3566 1747 
Q 3566 888 3137 398 
Q 2709 -91 1959 -91 
Q 1206 -91 779 398 
Q 353 888 353 1747 
Q 353 2609 779 3096 
Q 1206 3584 1959 3584 
z
" transform="scale(0.015625)"/>
       <path id="DejaVuSans-64" d="M 2906 2969 
L 2906 4863 
L 3481 4863 
L 3481 0 
L 2906 0 
L 2906 525 
Q 2725 213 2448 61 
Q 2172 -91 1784 -91 
Q 1150 -91 751 415 
Q 353 922 353 1747 
Q 353 2572 751 3078 
Q 1150 3584 1784 3584 
Q 2172 3584 2448 3432 
Q 2725 3281 2906 2969 
z
M 947 1747 
Q 947 1113 1208 752 
Q 1469 391 1925 391 
Q 2381 391 2643 752 
Q 2906 1113 2906 1747 
Q 2906 2381 2643 2742 
Q 2381 3103 1925 3103 
Q 1469 3103 1208 2742 
Q 947 2381 947 1747 
z
" transform="scale(0.015625)"/>
       <path id="DejaVuSans-65" d="M 3597 1894 
L 3597 1613 
L 953 1613 
Q 991 1019 1311 708 
Q 1631 397 2203 397 
Q 2534 397 2845 478 
Q 3156 559 3463 722 
L 3463 178 
Q 3153 47 2828 -22 
Q 2503 -91 2169 -91 
Q 1331 -91 842 396 
Q 353 884 353 1716 
Q 353 2575 817 3079 
Q 1281 3584 2069 3584 
Q 2775 3584 3186 3129 
Q 3597 2675 3597 1894 
z
M 3022 2063 
Q 3016 2534 2758 2815 
Q 2500 3097 2075 3097 
Q 1594 3097 1305 2825 
Q 1016 2553 972 2059 
L 3022 2063 
z
" transform="scale(0.015625)"/>
       <path id="DejaVuSans-20" transform="scale(0.015625)"/>
       <path id="DejaVuSans-23" d="M 3272 2816 
L 2363 2816 
L 2100 1772 
L 3016 1772 
L 3272 2816 
z
M 2803 4594 
L 2478 3297 
L 3391 3297 
L 3719 4594 
L 4219 4594 
L 3897 3297 
L 4872 3297 
L 4872 2816 
L 3775 2816 
L 3519 1772 
L 4513 1772 
L 4513 1294 
L 3397 1294 
L 3072 0 
L 2572 0 
L 2894 1294 
L 1978 1294 
L 1656 0 
L 1153 0 
L 1478 1294 
L 494 1294 
L 494 1772 
L 1594 1772 
L 1856 2816 
L 850 2816 
L 850 3297 
L 1978 3297 
L 2297 4594 
L 2803 4594 
z
" transform="scale(0.015625)"/>
      </defs>
      <use xlink:href="#DejaVuSans-45"/>
      <use xlink:href="#DejaVuSans-70" transform="translate(63.183594 0)"/>
      <use xlink:href="#DejaVuSans-69" transform="translate(126.660156 0)"/>
      <use xlink:href="#DejaVuSans-73" transform="translate(154.443359 0)"/>
      <use xlink:href="#DejaVuSans-6f" transform="translate(206.542969 0)"/>
      <use xlink:href="#DejaVuSans-64" transform="translate(267.724609 0)"/>
      <use xlink:href="#DejaVuSans-65" transform="translate(331.201172 0)"/>
      <use xlink:href="#DejaVuSans-20" transform="translate(392.724609 0)"/>
      <use xlink:href="#DejaVuSans-23" transform="translate(424.511719 0)"/>
     </g>
    </g>
   </g>
   <g id="matplotlib.axis_2">
    <g id="ytick_1">
     <g id="line2d_7">
      <defs>
       <path id="mf2fa8c6bd5" d="M 0 0 
L -3.5 0 
" style="stroke: #000000; stroke-width: 0.8"/>
      </defs>
      <g>
       <use xlink:href="#mf2fa8c6bd5" x="57.6" y="288.576" style="stroke: #000000; stroke-width: 0.8"/>
      </g>
     </g>
     <g id="text_8">
      <!-- 10 -->
      <g transform="translate(37.875 292.375219) scale(0.1 -0.1)">
       <use xlink:href="#DejaVuSans-31"/>
       <use xlink:href="#DejaVuSans-30" transform="translate(63.623047 0)"/>
      </g>
     </g>
    </g>
    <g id="ytick_2">
     <g id="line2d_8">
      <g>
       <use xlink:href="#mf2fa8c6bd5" x="57.6" y="254.016" style="stroke: #000000; stroke-width: 0.8"/>
      </g>
     </g>
     <g id="text_9">
      <!-- 20 -->
      <g transform="translate(37.875 257.815219) scale(0.1 -0.1)">
       <use xlink:href="#DejaVuSans-32"/>
       <use xlink:href="#DejaVuSans-30" transform="translate(63.623047 0)"/>
      </g>
     </g>
    </g>
    <g id="ytick_3">
     <g id="line2d_9">
      <g>
       <use xlink:href="#mf2fa8c6bd5" x="57.6" y="219.456" style="stroke: #000000; stroke-width: 0.8"/>
      </g>
     </g>
     <g id="text_10">
      <!-- 30 -->
      <g transform="translate(37.875 223.255219) scale(0.1 -0.1)">
       <defs>
        <path id="DejaVuSans-33" d="M 2597 2516 
Q 3050 2419 3304 2112 
Q 3559 1806 3559 1356 
Q 3559 666 3084 287 
Q 2609 -91 1734 -91 
Q 1441 -91 1130 -33 
Q 819 25 488 141 
L 488 750 
Q 750 597 1062 519 
Q 1375 441 1716 441 
Q 2309 441 2620 675 
Q 2931 909 2931 1356 
Q 2931 1769 2642 2001 
Q 2353 2234 1838 2234 
L 1294 2234 
L 1294 2753 
L 1863 2753 
Q 2328 2753 2575 2939 
Q 2822 3125 2822 3475 
Q 2822 3834 2567 4026 
Q 2313 4219 1838 4219 
Q 1578 4219 1281 4162 
Q 984 4106 628 3988 
L 628 4550 
Q 988 4650 1302 4700 
Q 1616 4750 1894 4750 
Q 2613 4750 3031 4423 
Q 3450 4097 3450 3541 
Q 3450 3153 3228 2886 
Q 3006 2619 2597 2516 
z
" transform="scale(0.015625)"/>
       </defs>
       <use xlink:href="#DejaVuSans-33"/>
       <use xlink:href="#DejaVuSans-30" transform="translate(63.623047 0)"/>
      </g>
     </g>
    </g>
    <g id="ytick_4">
     <g id="line2d_10">
      <g>
       <use xlink:href="#mf2fa8c6bd5" x="57.6" y="184.896" style="stroke: #000000; stroke-width: 0.8"/>
      </g>
     </g>
     <g id="text_11">
      <!-- 40 -->
      <g transform="translate(37.875 188.695219) scale(0.1 -0.1)">
       <use xlink:href="#DejaVuSans-34"/>
       <use xlink:href="#DejaVuSans-30" transform="translate(63.623047 0)"/>
      </g>
     </g>
    </g>
    <g id="ytick_5">
     <g id="line2d_11">
      <g>
       <use xlink:href="#mf2fa8c6bd5" x="57.6" y="150.336" style="stroke: #000000; stroke-width: 0.8"/>
      </g>
     </g>
     <g id="text_12">
      <!-- 50 -->
      <g transform="translate(37.875 154.135219) scale(0.1 -0.1)">
       <defs>
        <path id="DejaVuSans-35" d="M 691 4666 
L 3169 4666 
L 3169 4134 
L 1269 4134 
L 1269 2991 
Q 1406 3038 1543 3061 
Q 1681 3084 1819 3084 
Q 2600 3084 3056 2656 
Q 3513 2228 3513 1497 
Q 3513 744 3044 326 
Q 2575 -91 1722 -91 
Q 1428 -91 1123 -41 
Q 819 9 494 109 
L 494 744 
Q 775 591 1075 516 
Q 1375 441 1709 441 
Q 2250 441 2565 725 
Q 2881 1009 2881 1497 
Q 2881 1984 2565 2268 
Q 2250 2553 1709 2553 
Q 1456 2553 1204 2497 
Q 953 2441 691 2322 
L 691 4666 
z
" transform="scale(0.015625)"/>
       </defs>
       <use xlink:href="#DejaVuSans-35"/>
       <use xlink:href="#DejaVuSans-30" transform="translate(63.623047 0)"/>
      </g>
     </g>
    </g>
    <g id="ytick_6">
     <g id="line2d_12">
      <g>
       <use xlink:href="#mf2fa8c6bd5" x="57.6" y="115.776" style="stroke: #000000; stroke-width: 0.8"/>
      </g>
     </g>
     <g id="text_13">
      <!-- 60 -->
      <g transform="translate(37.875 119.575219) scale(0.1 -0.1)">
       <use xlink:href="#DejaVuSans-36"/>
       <use xlink:href="#DejaVuSans-30" transform="translate(63.623047 0)"/>
      </g>
     </g>
    </g>
    <g id="ytick_7">
     <g id="line2d_13">
      <g>
       <use xlink:href="#mf2fa8c6bd5" x="57.6" y="81.216" style="stroke: #000000; stroke-width: 0.8"/>
      </g>
     </g>
     <g id="text_14">
      <!-- 70 -->
      <g transform="translate(37.875 85.015219) scale(0.1 -0.1)">
       <defs>
        <path id="DejaVuSans-37" d="M 525 4666 
L 3525 4666 
L 3525 4397 
L 1831 0 
L 1172 0 
L 2766 4134 
L 525 4134 
L 525 4666 
z
" transform="scale(0.015625)"/>
       </defs>
       <use xlink:href="#DejaVuSans-37"/>
       <use xlink:href="#DejaVuSans-30" transform="translate(63.623047 0)"/>
      </g>
     </g>
    </g>
    <g id="ytick_8">
     <g id="line2d_14">
      <g>
       <use xlink:href="#mf2fa8c6bd5" x="57.6" y="46.656" style="stroke: #000000; stroke-width: 0.8"/>
      </g>
     </g>
     <g id="text_15">
      <!-- 80 -->
      <g transform="translate(37.875 50.455219) scale(0.1 -0.1)">
       <use xlink:href="#DejaVuSans-38"/>
       <use xlink:href="#DejaVuSans-30" transform="translate(63.623047 0)"/>
      </g>
     </g>
    </g>
    <g id="text_16">
     <!-- Score -->
     <g transform="translate(31.795313 188.530344) rotate(-90) scale(0.1 -0.1)">
      <defs>
       <path id="DejaVuSans-53" d="M 3425 4513 
L 3425 3897 
Q 3066 4069 2747 4153 
Q 2428 4238 2131 4238 
Q 1616 4238 1336 4038 
Q 1056 3838 1056 3469 
Q 1056 3159 1242 3001 
Q 1428 2844 1947 2747 
L 2328 2669 
Q 3034 2534 3370 2195 
Q 3706 1856 3706 1288 
Q 3706 609 3251 259 
Q 2797 -91 1919 -91 
Q 1588 -91 1214 -16 
Q 841 59 441 206 
L 441 856 
Q 825 641 1194 531 
Q 1563 422 1919 422 
Q 2459 422 2753 634 
Q 3047 847 3047 1241 
Q 3047 1584 2836 1778 
Q 2625 1972 2144 2069 
L 1759 2144 
Q 1053 2284 737 2584 
Q 422 2884 422 3419 
Q 422 4038 858 4394 
Q 1294 4750 2059 4750 
Q 2388 4750 2728 4690 
Q 3069 4631 3425 4513 
z
" transform="scale(0.015625)"/>
       <path id="DejaVuSans-63" d="M 3122 3366 
L 3122 2828 
Q 2878 2963 2633 3030 
Q 2388 3097 2138 3097 
Q 1578 3097 1268 2742 
Q 959 2388 959 1747 
Q 959 1106 1268 751 
Q 1578 397 2138 397 
Q 2388 397 2633 464 
Q 2878 531 3122 666 
L 3122 134 
Q 2881 22 2623 -34 
Q 2366 -91 2075 -91 
Q 1284 -91 818 406 
Q 353 903 353 1747 
Q 353 2603 823 3093 
Q 1294 3584 2113 3584 
Q 2378 3584 2631 3529 
Q 2884 3475 3122 3366 
z
" transform="scale(0.015625)"/>
       <path id="DejaVuSans-72" d="M 2631 2963 
Q 2534 3019 2420 3045 
Q 2306 3072 2169 3072 
Q 1681 3072 1420 2755 
Q 1159 2438 1159 1844 
L 1159 0 
L 581 0 
L 581 3500 
L 1159 3500 
L 1159 2956 
Q 1341 3275 1631 3429 
Q 1922 3584 2338 3584 
Q 2397 3584 2469 3576 
Q 2541 3569 2628 3553 
L 2631 2963 
z
" transform="scale(0.015625)"/>
      </defs>
      <use xlink:href="#DejaVuSans-53"/>
      <use xlink:href="#DejaVuSans-63" transform="translate(63.476562 0)"/>
      <use xlink:href="#DejaVuSans-6f" transform="translate(118.457031 0)"/>
      <use xlink:href="#DejaVuSans-72" transform="translate(179.638672 0)"/>
      <use xlink:href="#DejaVuSans-65" transform="translate(218.501953 0)"/>
     </g>
    </g>
   </g>
   <g id="line2d_15">
    <path d="M 73.832727 247.104 
L 74.157707 236.736 
L 74.482686 243.648 
L 74.807666 285.12 
L 75.132645 274.752 
L 75.457625 240.192 
L 75.782604 274.752 
L 76.107584 271.296 
L 76.432563 53.568 
L 76.757543 219.456 
L 77.082523 174.528 
L 77.407502 267.84 
L 77.732482 167.616 
L 78.057461 267.84 
L 78.382441 260.928 
L 79.0324 226.368 
L 79.357379 233.28 
L 79.682359 226.368 
L 80.007338 222.912 
L 80.332318 281.664 
L 80.657297 247.104 
L 80.982277 247.104 
L 81.307256 243.648 
L 81.632236 274.752 
L 81.957215 240.192 
L 82.282195 267.84 
L 82.607174 264.384 
L 82.932154 285.12 
L 83.257133 274.752 
L 83.582113 281.664 
L 83.907093 274.752 
L 84.232072 243.648 
L 84.557052 274.752 
L 84.882031 264.384 
L 85.207011 278.208 
L 85.53199 205.632 
L 85.85697 264.384 
L 86.181949 281.664 
L 86.506929 278.208 
L 86.831908 271.296 
L 87.156888 281.664 
L 87.806847 260.928 
L 88.131826 243.648 
L 88.781785 292.032 
L 89.106765 288.576 
L 89.431744 254.016 
L 89.756724 233.28 
L 90.081704 288.576 
L 90.406683 209.088 
L 90.731663 264.384 
L 91.056642 267.84 
L 91.381622 264.384 
L 91.706601 264.384 
L 92.031581 267.84 
L 92.35656 250.56 
L 92.68154 240.192 
L 93.006519 271.296 
L 93.331499 278.208 
L 93.656478 288.576 
L 93.981458 285.12 
L 94.306437 288.576 
L 94.956396 260.928 
L 95.281376 233.28 
L 95.606355 285.12 
L 95.931335 202.176 
L 96.256314 212.544 
L 96.581294 288.576 
L 96.906274 292.032 
L 97.231253 267.84 
L 97.556233 195.264 
L 97.881212 292.032 
L 98.206192 267.84 
L 98.531171 274.752 
L 98.856151 264.384 
L 99.18113 260.928 
L 99.50611 288.576 
L 99.831089 288.576 
L 100.156069 281.664 
L 100.481048 281.664 
L 100.806028 250.56 
L 101.131007 281.664 
L 101.455987 281.664 
L 101.780966 264.384 
L 102.105946 271.296 
L 102.755905 288.576 
L 103.080885 274.752 
L 103.405864 271.296 
L 104.055823 288.576 
L 104.380803 274.752 
L 104.705782 281.664 
L 105.030762 267.84 
L 105.355741 274.752 
L 105.680721 260.928 
L 106.0057 274.752 
L 106.33068 281.664 
L 106.980639 250.56 
L 107.305618 285.12 
L 107.630598 267.84 
L 107.955577 267.84 
L 108.280557 274.752 
L 108.930516 247.104 
L 109.255495 288.576 
L 109.580475 288.576 
L 109.905455 285.12 
L 110.230434 285.12 
L 110.555414 274.752 
L 110.880393 281.664 
L 111.205373 271.296 
L 111.530352 229.824 
L 111.855332 288.576 
L 112.180311 274.752 
L 112.505291 281.664 
L 112.83027 281.664 
L 113.15525 278.208 
L 113.480229 267.84 
L 113.805209 281.664 
L 114.130188 278.208 
L 114.455168 285.12 
L 114.780147 243.648 
L 115.105127 274.752 
L 115.430106 271.296 
L 115.755086 288.576 
L 116.080066 278.208 
L 116.405045 281.664 
L 116.730025 278.208 
L 117.055004 278.208 
L 117.379984 254.016 
L 117.704963 274.752 
L 118.029943 250.56 
L 118.354922 260.928 
L 118.679902 288.576 
L 119.004881 285.12 
L 119.329861 274.752 
L 119.65484 281.664 
L 119.97982 285.12 
L 120.304799 271.296 
L 120.954758 271.296 
L 121.604717 288.576 
L 122.254676 274.752 
L 122.579656 285.12 
L 122.904636 274.752 
L 123.229615 285.12 
L 123.554595 288.576 
L 123.879574 285.12 
L 124.204554 278.208 
L 124.529533 288.576 
L 124.854513 267.84 
L 125.179492 292.032 
L 125.504472 274.752 
L 125.829451 288.576 
L 126.154431 271.296 
L 126.47941 278.208 
L 126.80439 274.752 
L 127.129369 264.384 
L 127.454349 288.576 
L 127.779328 288.576 
L 128.104308 281.664 
L 128.429287 281.664 
L 128.754267 278.208 
L 129.079247 260.928 
L 129.404226 292.032 
L 129.729206 285.12 
L 130.054185 267.84 
L 130.379165 278.208 
L 130.704144 274.752 
L 131.029124 264.384 
L 131.354103 247.104 
L 131.679083 267.84 
L 132.004062 271.296 
L 132.329042 267.84 
L 132.654021 288.576 
L 132.979001 271.296 
L 133.30398 267.84 
L 133.62896 254.016 
L 133.953939 288.576 
L 134.278919 281.664 
L 134.603898 271.296 
L 134.928878 281.664 
L 135.253857 267.84 
L 135.578837 281.664 
L 136.228796 274.752 
L 136.878755 292.032 
L 137.203735 288.576 
L 137.528714 281.664 
L 137.853694 288.576 
L 138.503653 281.664 
L 138.828632 281.664 
L 139.153612 292.032 
L 139.478591 292.032 
L 139.803571 257.472 
L 140.12855 285.12 
L 140.45353 281.664 
L 140.778509 292.032 
L 141.103489 281.664 
L 141.428468 288.576 
L 141.753448 288.576 
L 142.078428 271.296 
L 142.403407 288.576 
L 142.728387 285.12 
L 143.053366 288.576 
L 143.378346 288.576 
L 143.703325 292.032 
L 144.028305 288.576 
L 144.353284 267.84 
L 144.678264 281.664 
L 145.003243 281.664 
L 145.328223 292.032 
L 145.653202 285.12 
L 146.303161 292.032 
L 146.628141 288.576 
L 146.95312 278.208 
L 147.2781 285.12 
L 147.603079 285.12 
L 147.928059 288.576 
L 148.253038 285.12 
L 148.578018 295.488 
L 148.902998 288.576 
L 149.227977 288.576 
L 149.552957 278.208 
L 149.877936 288.576 
L 150.202916 288.576 
L 150.527895 285.12 
L 150.852875 295.488 
L 151.177854 250.56 
L 151.502834 292.032 
L 151.827813 288.576 
L 152.152793 281.664 
L 152.802752 288.576 
L 153.127731 281.664 
L 153.452711 264.384 
L 153.77769 285.12 
L 154.10267 281.664 
L 155.077609 292.032 
L 155.402588 285.12 
L 155.727568 285.12 
L 156.052547 292.032 
L 156.377527 285.12 
L 156.702506 285.12 
L 157.027486 278.208 
L 157.352465 285.12 
L 158.002424 292.032 
L 158.327404 271.296 
L 158.652383 285.12 
L 158.977363 260.928 
L 159.302342 292.032 
L 159.627322 271.296 
L 159.952301 288.576 
L 160.60226 281.664 
L 160.92724 288.576 
L 161.252219 288.576 
L 161.577199 274.752 
L 161.902179 288.576 
L 162.227158 281.664 
L 162.552138 281.664 
L 162.877117 292.032 
L 163.527076 292.032 
L 163.852056 285.12 
L 164.502015 292.032 
L 164.826994 288.576 
L 165.151974 292.032 
L 165.476953 288.576 
L 165.801933 288.576 
L 166.126912 295.488 
L 167.101851 285.12 
L 167.42683 260.928 
L 167.75181 281.664 
L 168.07679 285.12 
L 168.401769 281.664 
L 168.726749 267.84 
L 169.701687 288.576 
L 170.351646 288.576 
L 170.676626 292.032 
L 171.001605 285.12 
L 171.651564 292.032 
L 171.976544 288.576 
L 172.626503 274.752 
L 172.951482 288.576 
L 173.276462 292.032 
L 173.601441 285.12 
L 173.926421 285.12 
L 174.2514 288.576 
L 174.57638 288.576 
L 174.90136 281.664 
L 175.226339 285.12 
L 175.551319 281.664 
L 175.876298 288.576 
L 176.201278 292.032 
L 176.526257 285.12 
L 177.176216 292.032 
L 177.501196 292.032 
L 177.826175 281.664 
L 178.151155 288.576 
L 178.476134 288.576 
L 178.801114 267.84 
L 179.451073 288.576 
L 180.426011 288.576 
L 180.750991 285.12 
L 181.075971 295.488 
L 181.40095 292.032 
L 181.72593 285.12 
L 182.375889 278.208 
L 182.700868 288.576 
L 183.025848 285.12 
L 183.350827 292.032 
L 183.675807 274.752 
L 184.000786 292.032 
L 184.325766 285.12 
L 184.650745 292.032 
L 184.975725 288.576 
L 185.300704 292.032 
L 185.625684 285.12 
L 185.950663 292.032 
L 186.275643 285.12 
L 186.600622 285.12 
L 187.250581 292.032 
L 187.575561 285.12 
L 187.900541 281.664 
L 188.22552 292.032 
L 188.5505 288.576 
L 188.875479 281.664 
L 189.200459 292.032 
L 189.525438 288.576 
L 189.850418 292.032 
L 190.500377 285.12 
L 190.825356 285.12 
L 191.150336 292.032 
L 191.475315 288.576 
L 191.800295 281.664 
L 192.125274 292.032 
L 192.450254 281.664 
L 193.100213 288.576 
L 193.425192 281.664 
L 193.750172 295.488 
L 194.075152 285.12 
L 194.400131 295.488 
L 194.725111 281.664 
L 195.05009 292.032 
L 195.37507 288.576 
L 195.700049 288.576 
L 196.025029 285.12 
L 196.350008 285.12 
L 196.674988 288.576 
L 196.999967 288.576 
L 197.324947 285.12 
L 197.649926 285.12 
L 197.974906 288.576 
L 198.299885 288.576 
L 198.624865 285.12 
L 198.949844 292.032 
L 199.274824 292.032 
L 199.599803 288.576 
L 199.924783 292.032 
L 200.249762 285.12 
L 200.574742 292.032 
L 200.899722 281.664 
L 201.224701 292.032 
L 201.549681 292.032 
L 201.87466 281.664 
L 202.19964 288.576 
L 202.524619 285.12 
L 202.849599 271.296 
L 203.174578 295.488 
L 203.499558 281.664 
L 203.824537 292.032 
L 204.149517 285.12 
L 204.474496 288.576 
L 204.799476 288.576 
L 205.124455 292.032 
L 205.449435 285.12 
L 206.099394 292.032 
L 206.424373 288.576 
L 206.749353 292.032 
L 207.074333 278.208 
L 207.399312 292.032 
L 207.724292 288.576 
L 208.049271 292.032 
L 208.374251 288.576 
L 208.69923 292.032 
L 209.349189 278.208 
L 209.674169 295.488 
L 209.999148 292.032 
L 210.324128 295.488 
L 210.649107 292.032 
L 210.974087 292.032 
L 211.299066 288.576 
L 211.624046 295.488 
L 211.949025 288.576 
L 212.274005 288.576 
L 212.923964 295.488 
L 213.248943 292.032 
L 213.573923 285.12 
L 214.223882 292.032 
L 214.548862 292.032 
L 214.873841 288.576 
L 215.198821 288.576 
L 215.5238 292.032 
L 215.84878 288.576 
L 216.173759 292.032 
L 216.498739 288.576 
L 216.823718 295.488 
L 217.473677 288.576 
L 217.798657 278.208 
L 218.448616 295.488 
L 218.773595 288.576 
L 219.098575 292.032 
L 219.423554 292.032 
L 219.748534 281.664 
L 220.073514 288.576 
L 220.398493 292.032 
L 221.048452 285.12 
L 221.373432 295.488 
L 221.698411 288.576 
L 222.023391 288.576 
L 222.34837 292.032 
L 222.67335 288.576 
L 222.998329 288.576 
L 223.323309 292.032 
L 224.623227 292.032 
L 224.948206 288.576 
L 225.273186 288.576 
L 225.598165 285.12 
L 225.923145 292.032 
L 226.248124 285.12 
L 226.573104 288.576 
L 226.898084 288.576 
L 227.223063 281.664 
L 227.548043 288.576 
L 228.198002 288.576 
L 228.522981 292.032 
L 228.847961 288.576 
L 229.49792 295.488 
L 229.822899 285.12 
L 230.147879 292.032 
L 230.472858 295.488 
L 230.797838 285.12 
L 231.122817 285.12 
L 231.447797 292.032 
L 231.772776 295.488 
L 232.097756 292.032 
L 232.422735 278.208 
L 232.747715 295.488 
L 233.072695 292.032 
L 233.397674 295.488 
L 233.722654 292.032 
L 234.697592 292.032 
L 235.022572 288.576 
L 235.347551 292.032 
L 235.672531 285.12 
L 235.99751 292.032 
L 236.972449 292.032 
L 237.297428 281.664 
L 237.622408 288.576 
L 237.947387 278.208 
L 238.272367 288.576 
L 238.597346 285.12 
L 239.247305 292.032 
L 239.572285 292.032 
L 239.897265 288.576 
L 240.222244 292.032 
L 240.547224 285.12 
L 240.872203 292.032 
L 241.522162 292.032 
L 241.847142 288.576 
L 242.497101 295.488 
L 242.82208 295.488 
L 243.472039 288.576 
L 244.446978 288.576 
L 244.771957 281.664 
L 245.096937 278.208 
L 245.421916 288.576 
L 245.746896 281.664 
L 246.071876 292.032 
L 246.396855 288.576 
L 246.721835 292.032 
L 247.046814 285.12 
L 247.371794 281.664 
L 247.696773 292.032 
L 248.021753 288.576 
L 248.346732 292.032 
L 248.671712 288.576 
L 249.321671 288.576 
L 249.64665 295.488 
L 250.296609 288.576 
L 251.921507 288.576 
L 252.246486 285.12 
L 252.571466 288.576 
L 252.896446 281.664 
L 253.221425 295.488 
L 253.546405 288.576 
L 253.871384 292.032 
L 254.846323 292.032 
L 255.171302 285.12 
L 255.496282 292.032 
L 255.821261 288.576 
L 256.146241 288.576 
L 256.47122 285.12 
L 256.7962 288.576 
L 257.771138 288.576 
L 258.096118 292.032 
L 258.746077 285.12 
L 259.071057 288.576 
L 259.396036 288.576 
L 259.721016 292.032 
L 260.045995 288.576 
L 261.995872 288.576 
L 262.320852 281.664 
L 262.645831 295.488 
L 262.970811 295.488 
L 263.29579 288.576 
L 263.62077 285.12 
L 263.945749 288.576 
L 264.270729 295.488 
L 264.920688 288.576 
L 265.245667 292.032 
L 265.570647 285.12 
L 265.895627 288.576 
L 266.220606 288.576 
L 266.545586 285.12 
L 266.870565 295.488 
L 267.195545 288.576 
L 267.520524 271.296 
L 267.845504 288.576 
L 268.170483 292.032 
L 269.145422 292.032 
L 269.470401 288.576 
L 269.795381 288.576 
L 270.12036 295.488 
L 270.44534 285.12 
L 270.770319 288.576 
L 271.420278 288.576 
L 271.745258 292.032 
L 272.070238 288.576 
L 272.395217 288.576 
L 272.720197 292.032 
L 273.045176 288.576 
L 273.370156 292.032 
L 274.020115 285.12 
L 274.345094 292.032 
L 274.670074 288.576 
L 274.995053 292.032 
L 275.320033 288.576 
L 275.645012 292.032 
L 275.969992 288.576 
L 276.294971 288.576 
L 276.619951 292.032 
L 276.94493 288.576 
L 277.594889 295.488 
L 277.919869 288.576 
L 278.244848 295.488 
L 278.569828 288.576 
L 279.219787 288.576 
L 279.544767 285.12 
L 279.869746 288.576 
L 281.494644 288.576 
L 281.819623 295.488 
L 282.144603 288.576 
L 282.794562 288.576 
L 283.119541 292.032 
L 283.444521 285.12 
L 283.7695 295.488 
L 284.09448 292.032 
L 284.419459 292.032 
L 284.744439 295.488 
L 285.069419 288.576 
L 285.394398 292.032 
L 285.719378 285.12 
L 286.044357 295.488 
L 286.369337 295.488 
L 286.694316 292.032 
L 288.319214 292.032 
L 288.644193 288.576 
L 289.944111 288.576 
L 290.269091 292.032 
L 290.59407 288.576 
L 290.91905 288.576 
L 291.244029 295.488 
L 291.569009 281.664 
L 291.893989 292.032 
L 292.218968 288.576 
L 292.543948 292.032 
L 293.193907 292.032 
L 293.518886 288.576 
L 293.843866 288.576 
L 294.168845 292.032 
L 294.493825 285.12 
L 294.818804 292.032 
L 295.143784 292.032 
L 295.468763 288.576 
L 296.443702 288.576 
L 296.768681 295.488 
L 297.093661 292.032 
L 297.41864 292.032 
L 297.74362 285.12 
L 298.0686 292.032 
L 298.718559 285.12 
L 299.368518 292.032 
L 300.018477 292.032 
L 300.343456 288.576 
L 300.668436 292.032 
L 301.968354 292.032 
L 302.293333 288.576 
L 302.618313 281.664 
L 302.943292 292.032 
L 303.268272 295.488 
L 303.593251 288.576 
L 303.918231 292.032 
L 304.56819 292.032 
L 304.89317 288.576 
L 305.218149 288.576 
L 305.543129 292.032 
L 305.868108 288.576 
L 306.193088 292.032 
L 306.518067 292.032 
L 306.843047 285.12 
L 307.817985 295.488 
L 308.142965 288.576 
L 308.467944 288.576 
L 308.792924 292.032 
L 309.117903 285.12 
L 309.442883 292.032 
L 310.742801 292.032 
L 311.067781 288.576 
L 311.39276 295.488 
L 311.71774 295.488 
L 312.042719 288.576 
L 312.367699 288.576 
L 312.692678 285.12 
L 313.017658 292.032 
L 313.342637 285.12 
L 313.667617 288.576 
L 314.317576 288.576 
L 314.642555 292.032 
L 315.292514 292.032 
L 315.617494 288.576 
L 315.942473 288.576 
L 316.267453 285.12 
L 317.242391 295.488 
L 317.892351 288.576 
L 318.21733 295.488 
L 318.54231 285.12 
L 318.867289 292.032 
L 320.167207 292.032 
L 320.492187 288.576 
L 320.817166 292.032 
L 321.792105 292.032 
L 322.117084 295.488 
L 322.442064 285.12 
L 322.767043 292.032 
L 323.092023 295.488 
L 323.417002 285.12 
L 323.741982 292.032 
L 324.066962 288.576 
L 324.716921 288.576 
L 325.0419 292.032 
L 325.36688 288.576 
L 325.691859 295.488 
L 326.016839 288.576 
L 326.991777 288.576 
L 327.316757 292.032 
L 327.966716 292.032 
L 328.291695 288.576 
L 328.616675 295.488 
L 328.941654 295.488 
L 329.266634 288.576 
L 329.591613 288.576 
L 329.916593 292.032 
L 330.241572 288.576 
L 331.86647 288.576 
L 332.19145 292.032 
L 332.516429 285.12 
L 333.166388 292.032 
L 333.491368 292.032 
L 333.816347 295.488 
L 334.466306 288.576 
L 334.791286 295.488 
L 335.116265 288.576 
L 335.441245 288.576 
L 335.766224 292.032 
L 336.091204 285.12 
L 336.416183 288.576 
L 337.066143 288.576 
L 337.391122 292.032 
L 337.716102 288.576 
L 338.041081 292.032 
L 338.366061 292.032 
L 338.69104 288.576 
L 339.01602 288.576 
L 339.340999 292.032 
L 339.990958 292.032 
L 340.315938 295.488 
L 340.640917 292.032 
L 342.265815 292.032 
L 342.590794 288.576 
L 342.915774 292.032 
L 343.240753 288.576 
L 343.565733 292.032 
L 343.890713 288.576 
L 344.215692 292.032 
L 346.815528 292.032 
L 347.140508 288.576 
L 347.790467 288.576 
L 348.115446 295.488 
L 348.765405 288.576 
L 349.415364 288.576 
L 349.740344 292.032 
L 350.065324 288.576 
L 350.390303 288.576 
L 350.715283 292.032 
L 351.040262 292.032 
L 351.365242 288.576 
L 352.015201 288.576 
L 352.66516 295.488 
L 352.990139 292.032 
L 353.315119 295.488 
L 353.640098 292.032 
L 353.965078 295.488 
L 354.290057 285.12 
L 354.615037 292.032 
L 354.940016 288.576 
L 355.264996 288.576 
L 355.589975 292.032 
L 355.914955 288.576 
L 356.239934 292.032 
L 356.564914 288.576 
L 356.889894 295.488 
L 357.214873 288.576 
L 358.189812 288.576 
L 358.839771 295.488 
L 359.16475 285.12 
L 359.48973 295.488 
L 359.814709 292.032 
L 360.464668 292.032 
L 360.789648 288.576 
L 361.114627 295.488 
L 361.439607 288.576 
L 361.764586 288.576 
L 362.089566 295.488 
L 362.414545 292.032 
L 362.739525 295.488 
L 363.064505 285.12 
L 363.389484 292.032 
L 364.039443 292.032 
L 364.364423 288.576 
L 365.339361 288.576 
L 365.664341 292.032 
L 365.98932 288.576 
L 366.3143 292.032 
L 366.639279 288.576 
L 366.964259 292.032 
L 367.289238 292.032 
L 367.614218 288.576 
L 367.939197 288.576 
L 368.264177 292.032 
L 368.914136 292.032 
L 369.239115 295.488 
L 369.564095 292.032 
L 370.214054 292.032 
L 370.539034 295.488 
L 370.864013 292.032 
L 371.188993 292.032 
L 371.513972 285.12 
L 371.838952 295.488 
L 372.488911 288.576 
L 372.81389 288.576 
L 373.13887 281.664 
L 373.463849 292.032 
L 373.788829 288.576 
L 374.113808 295.488 
L 374.438788 292.032 
L 376.063686 292.032 
L 376.713645 285.12 
L 377.363604 292.032 
L 378.013563 292.032 
L 378.338542 288.576 
L 378.663522 288.576 
L 378.988501 295.488 
L 379.313481 288.576 
L 379.63846 288.576 
L 379.96344 292.032 
L 380.288419 285.12 
L 380.613399 292.032 
L 380.938378 285.12 
L 381.263358 292.032 
L 382.563276 292.032 
L 382.888256 288.576 
L 383.213235 292.032 
L 383.538215 292.032 
L 383.863194 295.488 
L 384.188174 285.12 
L 384.513153 295.488 
L 384.838133 288.576 
L 385.488092 295.488 
L 385.813071 285.12 
L 386.138051 292.032 
L 387.437969 292.032 
L 387.762948 295.488 
L 388.087928 288.576 
L 388.412907 288.576 
L 388.737887 292.032 
L 389.062867 292.032 
L 389.387846 288.576 
L 390.037805 295.488 
L 390.362785 292.032 
L 391.337723 292.032 
L 391.987682 285.12 
L 392.312662 288.576 
L 392.962621 288.576 
L 393.2876 295.488 
L 393.61258 295.488 
L 393.937559 278.208 
L 394.262539 292.032 
L 394.587518 292.032 
L 394.912498 288.576 
L 395.237477 295.488 
L 395.562457 292.032 
L 396.212416 292.032 
L 396.537396 295.488 
L 397.187355 288.576 
L 397.512334 292.032 
L 397.837314 288.576 
L 398.487273 295.488 
L 398.487273 295.488 
" clip-path="url(#pf96a53b1a1)" style="fill: none; stroke: #1f77b4; stroke-width: 1.5; stroke-linecap: square"/>
   </g>
   <g id="patch_3">
    <path d="M 57.6 307.584 
L 57.6 41.472 
" style="fill: none; stroke: #000000; stroke-width: 0.8; stroke-linejoin: miter; stroke-linecap: square"/>
   </g>
   <g id="patch_4">
    <path d="M 414.72 307.584 
L 414.72 41.472 
" style="fill: none; stroke: #000000; stroke-width: 0.8; stroke-linejoin: miter; stroke-linecap: square"/>
   </g>
   <g id="patch_5">
    <path d="M 57.6 307.584 
L 414.72 307.584 
" style="fill: none; stroke: #000000; stroke-width: 0.8; stroke-linejoin: miter; stroke-linecap: square"/>
   </g>
   <g id="patch_6">
    <path d="M 57.6 41.472 
L 414.72 41.472 
" style="fill: none; stroke: #000000; stroke-width: 0.8; stroke-linejoin: miter; stroke-linecap: square"/>
   </g>
  </g>
 </g>
 <defs>
  <clipPath id="pf96a53b1a1">
   <rect x="57.6" y="41.472" width="357.12" height="266.112"/>
  </clipPath>
 </defs>
</svg>
